<?xml version="1.0" encoding="UTF-8"?>
<svg xmlns="http://www.w3.org/2000/svg" xmlns:xlink="http://www.w3.org/1999/xlink" width="446.2pt" height="176.17pt" viewBox="0 0 446.2 176.17" version="1.1">
<defs>
<clipPath id="clip1">
  <path d="M 123 86 L 170 86 L 170 176.171875 L 123 176.171875 Z M 123 86 "/>
</clipPath>
<clipPath id="clip2">
  <path d="M 173 86 L 224 86 L 224 176.171875 L 173 176.171875 Z M 173 86 "/>
</clipPath>
<clipPath id="clip3">
  <path d="M 295 86 L 346 86 L 346 176.171875 L 295 176.171875 Z M 295 86 "/>
</clipPath>
<clipPath id="clip4">
  <path d="M 232 55 L 260 55 L 260 176.171875 L 232 176.171875 Z M 232 55 "/>
</clipPath>
<clipPath id="clip5">
  <path d="M 265 55 L 293 55 L 293 176.171875 L 265 176.171875 Z M 265 55 "/>
</clipPath>
<clipPath id="clip6">
  <path d="M 351 86 L 402 86 L 402 176.171875 L 351 176.171875 Z M 351 86 "/>
</clipPath>
<clipPath id="clip7">
  <path d="M 410 71 L 446.199219 71 L 446.199219 176.171875 L 410 176.171875 Z M 410 71 "/>
</clipPath>
</defs>
<g id="surface1">
<path style=" stroke:none;fill-rule:nonzero;fill:rgb(13.299561%,12.199402%,12.199402%);fill-opacity:1;" d="M 0 58.429688 L 50.070313 58.429688 L 50.070313 71.535156 L 13.570313 71.535156 L 13.570313 108.972656 L 40.714844 108.972656 L 40.714844 122.542969 L 13.21875 122.542969 L 13.21875 145.941406 C 13.21875 155.417969 16.730469 161.382813 26.558594 161.382813 L 50.070313 161.382813 L 50.070313 173.667969 L 23.046875 173.667969 C 9.710938 173.667969 0 160.679688 0 149.449219 "/>
<path style=" stroke:none;fill-rule:nonzero;fill:rgb(13.299561%,12.199402%,12.199402%);fill-opacity:1;" d="M 57.09375 92.945313 L 72.183594 92.945313 L 86.574219 118.5625 L 102.71875 92.945313 L 117.109375 92.945313 L 94.644531 131.902344 L 119.214844 173.667969 L 103.769531 173.667969 L 86.574219 146.640625 L 69.726563 173.667969 L 54.984375 173.667969 L 79.554688 133.304688 "/>
<g clip-path="url(#clip1)" clip-rule="nonzero">
<path style=" stroke:none;fill-rule:nonzero;fill:rgb(13.299561%,12.199402%,12.199402%);fill-opacity:1;" d="M 158.523438 106.632813 L 169.753906 100.3125 C 169.753906 100.3125 162.382813 86.976563 147.992188 86.976563 C 133.605469 86.976563 123.777344 99.964844 123.777344 112.949219 L 123.777344 152.609375 C 123.777344 162.085938 135.007813 176.125 146.765625 176.125 C 158.523438 176.125 165.894531 170.15625 169.753906 162.085938 L 160.042969 156.234375 C 160.042969 156.234375 155.128906 163.722656 147.878906 163.722656 C 140.621094 163.722656 136.644531 157.640625 136.644531 148.28125 L 136.644531 110.140625 C 136.644531 101.484375 151.855469 94.464844 158.523438 106.632813 "/>
</g>
<g clip-path="url(#clip2)" clip-rule="nonzero">
<path style=" stroke:none;fill-rule:nonzero;fill:rgb(13.299561%,12.199402%,12.199402%);fill-opacity:1;" d="M 186.71875 111.546875 C 186.71875 104.058594 193.035156 100.078125 198.417969 100.078125 C 203.800781 100.078125 210.585938 105.226563 210.585938 111.777344 L 210.585938 128.15625 L 186.71875 128.15625 Z M 223.21875 142.664063 L 223.21875 108.972656 C 223.21875 101.484375 214.328125 86.976563 199.351563 86.976563 C 184.378906 86.976563 173.613281 100.078125 173.613281 110.84375 L 173.613281 152.726563 C 173.613281 166.0625 187.652344 176.125 198.886719 176.125 C 210.117188 176.125 217.371094 167.46875 217.371094 167.46875 L 208.011719 158.574219 C 197.011719 169.339844 186.71875 158.574219 186.71875 153.429688 L 186.71875 142.664063 "/>
</g>
<g clip-path="url(#clip3)" clip-rule="nonzero">
<path style=" stroke:none;fill-rule:nonzero;fill:rgb(13.299561%,12.199402%,12.199402%);fill-opacity:1;" d="M 308.621094 111.546875 C 308.621094 104.058594 314.941406 100.078125 320.320313 100.078125 C 325.703125 100.078125 332.488281 105.226563 332.488281 111.777344 L 332.488281 128.15625 L 308.621094 128.15625 Z M 345.121094 142.664063 L 345.121094 108.972656 C 345.121094 101.484375 336.230469 86.976563 321.257813 86.976563 C 306.28125 86.976563 295.519531 100.078125 295.519531 110.84375 L 295.519531 152.726563 C 295.519531 166.0625 309.558594 176.125 320.789063 176.125 C 332.019531 176.125 339.273438 167.46875 339.273438 167.46875 L 329.914063 158.574219 C 318.917969 169.339844 308.621094 158.574219 308.621094 153.429688 L 308.621094 142.664063 "/>
</g>
<g clip-path="url(#clip4)" clip-rule="nonzero">
<path style=" stroke:none;fill-rule:nonzero;fill:rgb(13.299561%,12.199402%,12.199402%);fill-opacity:1;" d="M 232.8125 55.855469 L 232.8125 152.492188 C 232.8125 167 247.554688 176.125 259.71875 176.125 L 259.71875 162.554688 C 259.71875 162.554688 246.265625 165.359375 246.265625 148.75 L 246.265625 55.855469 "/>
</g>
<g clip-path="url(#clip5)" clip-rule="nonzero">
<path style=" stroke:none;fill-rule:nonzero;fill:rgb(13.299561%,12.199402%,12.199402%);fill-opacity:1;" d="M 265.804688 55.855469 L 265.804688 152.492188 C 265.804688 167 280.546875 176.125 292.710938 176.125 L 292.710938 162.554688 C 292.710938 162.554688 279.257813 165.359375 279.257813 148.75 L 279.257813 55.855469 "/>
</g>
<g clip-path="url(#clip6)" clip-rule="nonzero">
<path style=" stroke:none;fill-rule:nonzero;fill:rgb(13.299561%,12.199402%,12.199402%);fill-opacity:1;" d="M 351.910156 176.125 L 365.949219 176.125 L 365.949219 110.375 C 365.949219 96.335938 388.410156 98.207031 388.410156 110.375 L 388.410156 176.125 L 401.746094 176.125 L 401.746094 112.480469 C 401.746094 96.335938 387.238281 86.976563 376.828125 86.976563 C 366.414063 86.976563 351.910156 96.335938 351.910156 111.777344 "/>
</g>
<g clip-path="url(#clip7)" clip-rule="nonzero">
<path style=" stroke:none;fill-rule:nonzero;fill:rgb(13.299561%,12.199402%,12.199402%);fill-opacity:1;" d="M 410.871094 71.300781 L 410.871094 154.363281 C 410.871094 169.574219 429.824219 181.972656 446.203125 173.316406 L 441.289063 161.851563 C 441.289063 161.851563 423.742188 168.871094 423.742188 150.386719 L 423.742188 105.460938 L 446.203125 105.460938 L 446.203125 92.769531 L 423.507813 92.769531 L 423.507813 71.300781 "/>
</g>
<path style=" stroke:none;fill-rule:nonzero;fill:rgb(100%,100%,100%);fill-opacity:1;" d="M 0.683594 41.460938 L 43.644531 41.460938 L 43.644531 0 L 0.683594 0 Z M 0.683594 41.460938 "/>
<path style=" stroke:none;fill-rule:nonzero;fill:rgb(92.199707%,10.998535%,13.699341%);fill-opacity:1;" d="M 0.683594 41.460938 L 42.140625 41.460938 L 42.140625 0 L 0.683594 0 Z M 0.683594 41.460938 "/>
<path style=" stroke:none;fill-rule:nonzero;fill:rgb(13.299561%,12.199402%,12.199402%);fill-opacity:1;" d="M 243.4375 41.453125 L 43.523438 41.449219 L 43.523438 0 L 243.4375 0 Z M 243.4375 41.453125 "/>
<path style=" stroke:none;fill-rule:nonzero;fill:rgb(100%,100%,100%);fill-opacity:1;" d="M 60.203125 9.617188 C 61.078125 9.417969 61.8125 9.316406 62.371094 9.316406 C 63.390625 9.316406 64.3125 9.550781 65.113281 10.007813 C 65.894531 10.464844 66.515625 11.160156 66.945313 12.085938 C 67.386719 13.035156 67.609375 14.070313 67.609375 15.179688 C 67.609375 16.765625 67.152344 18.078125 66.242188 19.070313 C 65.328125 20.054688 64.265625 20.546875 63.015625 20.546875 C 62.660156 20.546875 62.214844 20.515625 61.699219 20.453125 C 61.261719 20.394531 60.75 20.316406 60.203125 20.210938 Z M 67.761719 7.726563 C 66.351563 7.214844 64.398438 6.957031 61.96875 6.957031 L 51.78125 6.957031 L 51.78125 8.453125 L 53.175781 8.453125 C 54.078125 8.453125 54.730469 8.699219 55.171875 9.199219 C 55.335938 9.382813 55.605469 10.011719 55.605469 12.097656 L 55.605469 29.507813 C 55.605469 31.40625 55.394531 32.019531 55.273438 32.222656 C 54.863281 32.839844 54.175781 33.140625 53.175781 33.140625 L 51.78125 33.140625 L 51.78125 34.640625 L 64.03125 34.640625 L 64.03125 33.140625 L 62.621094 33.140625 C 61.730469 33.140625 61.082031 32.90625 60.660156 32.414063 C 60.488281 32.222656 60.203125 31.589844 60.203125 29.507813 L 60.203125 22.15625 C 60.882813 22.292969 61.546875 22.410156 62.171875 22.492188 C 62.941406 22.59375 63.65625 22.636719 64.308594 22.636719 C 67.019531 22.636719 69.15625 21.90625 70.65625 20.457031 C 72.167969 19.007813 72.933594 17.109375 72.933594 14.808594 C 72.933594 13.109375 72.429688 11.613281 71.429688 10.371094 C 70.445313 9.136719 69.210938 8.246094 67.761719 7.726563 "/>
<path style=" stroke:none;fill-rule:nonzero;fill:rgb(100%,100%,100%);fill-opacity:1;" d="M 97.804688 6.800781 L 97.804688 8.285156 L 99.191406 8.285156 C 100.09375 8.285156 100.738281 8.535156 101.175781 9.027344 C 101.34375 9.226563 101.632813 9.867188 101.632813 11.925781 L 101.632813 22.8125 C 101.632813 25.597656 101.382813 27.589844 100.894531 28.730469 C 100.425781 29.835938 99.515625 30.765625 98.207031 31.480469 C 96.878906 32.222656 95.351563 32.585938 93.652344 32.585938 C 92.34375 32.585938 91.222656 32.355469 90.335938 31.894531 C 89.453125 31.441406 88.769531 30.855469 88.304688 30.160156 C 87.832031 29.464844 87.503906 28.457031 87.320313 27.171875 C 87.128906 25.847656 87.039063 24.664063 87.039063 23.636719 L 87.039063 11.925781 C 87.039063 10.160156 87.261719 9.449219 87.457031 9.171875 C 87.84375 8.582031 88.503906 8.285156 89.46875 8.285156 L 90.855469 8.285156 L 90.855469 6.800781 L 78.609375 6.800781 L 78.609375 8.285156 L 79.992188 8.285156 C 80.859375 8.285156 81.492188 8.511719 81.867188 8.929688 C 82.128906 9.234375 82.4375 10 82.4375 11.925781 L 82.4375 22.4375 C 82.4375 25.753906 82.652344 27.960938 83.09375 29.183594 C 83.753906 30.976563 84.894531 32.417969 86.476563 33.480469 C 88.058594 34.539063 90.378906 35.070313 93.378906 35.070313 C 96.136719 35.070313 98.359375 34.511719 99.992188 33.410156 C 101.617188 32.304688 102.730469 30.960938 103.289063 29.402344 C 103.839844 27.882813 104.117188 25.734375 104.117188 23.011719 L 104.117188 12.125 C 104.117188 10.261719 104.335938 9.65625 104.464844 9.460938 C 104.957031 8.671875 105.640625 8.285156 106.558594 8.285156 L 107.941406 8.285156 L 107.941406 6.800781 L 97.804688 6.800781 "/>
<path style=" stroke:none;fill-rule:nonzero;fill:rgb(100%,100%,100%);fill-opacity:1;" d="M 123.175781 9.570313 C 124.292969 9.359375 125.203125 9.238281 125.871094 9.238281 C 127.472656 9.238281 128.769531 9.738281 129.730469 10.699219 C 130.707031 11.6875 131.175781 12.929688 131.175781 14.519531 C 131.175781 16.132813 130.59375 17.417969 129.378906 18.464844 C 128.171875 19.503906 126.320313 20.035156 123.886719 20.035156 C 123.789063 20.035156 123.277344 20.019531 123.175781 20.019531 Z M 138.53125 32.085938 C 137.664063 31.535156 136.597656 30.363281 135.367188 28.632813 C 135.367188 28.632813 131.324219 23.046875 130.128906 21.386719 C 132.179688 20.851563 133.75 19.992188 134.785156 18.824219 C 135.921875 17.550781 136.5 16.003906 136.5 14.261719 C 136.5 12.632813 135.988281 11.199219 134.988281 10.015625 C 134.003906 8.851563 132.785156 8.03125 131.363281 7.597656 C 129.96875 7.171875 127.808594 6.945313 124.933594 6.945313 L 114.753906 6.945313 L 114.753906 8.445313 L 116.140625 8.445313 C 117.039063 8.445313 117.6875 8.691406 118.125 9.183594 C 118.292969 9.382813 118.574219 10.007813 118.574219 12.085938 L 118.574219 29.496094 C 118.574219 31.394531 118.359375 32.007813 118.226563 32.207031 C 117.820313 32.828125 117.136719 33.132813 116.140625 33.132813 L 114.753906 33.132813 L 114.753906 34.636719 L 127.003906 34.636719 L 127.003906 33.132813 L 125.578125 33.132813 C 124.695313 33.132813 124.054688 32.894531 123.632813 32.402344 C 123.457031 32.210938 123.175781 31.582031 123.175781 29.496094 L 123.175781 22.058594 C 123.246094 22.058594 123.3125 22.066406 123.378906 22.066406 C 123.554688 22.074219 123.734375 22.078125 123.925781 22.078125 C 124.3125 22.078125 124.792969 22.066406 125.347656 22.042969 L 134.484375 34.636719 L 142.277344 34.636719 L 142.277344 33.171875 L 141.9375 33.136719 C 140.53125 32.984375 139.390625 32.628906 138.53125 32.085938 "/>
<path style=" stroke:none;fill-rule:nonzero;fill:rgb(100%,100%,100%);fill-opacity:1;" d="M 149.222656 6.960938 L 149.222656 8.457031 L 150.558594 8.457031 C 151.117188 8.457031 151.664063 8.609375 152.1875 8.890625 C 152.511719 9.082031 152.722656 9.300781 152.820313 9.542969 C 152.929688 9.8125 153.050781 10.46875 153.050781 12.097656 L 153.050781 29.511719 C 153.050781 31.507813 152.804688 32.132813 152.652344 32.328125 C 152.230469 32.878906 151.546875 33.144531 150.558594 33.144531 L 149.222656 33.144531 L 149.222656 34.644531 L 161.472656 34.644531 L 161.472656 33.144531 L 160.125 33.144531 C 159.566406 33.144531 159.027344 33.007813 158.535156 32.722656 C 158.1875 32.535156 157.972656 32.308594 157.878906 32.0625 C 157.769531 31.800781 157.644531 31.140625 157.644531 29.511719 L 157.644531 12.097656 C 157.644531 10.105469 157.90625 9.476563 158.058594 9.285156 C 158.480469 8.726563 159.160156 8.457031 160.125 8.457031 L 161.472656 8.457031 L 161.472656 6.960938 L 149.222656 6.960938 "/>
<path style=" stroke:none;fill-rule:nonzero;fill:rgb(100%,100%,100%);fill-opacity:1;" d="M 200.765625 6.957031 L 190.632813 6.957031 L 190.632813 8.453125 L 191.949219 8.453125 C 192.890625 8.453125 193.578125 8.691406 193.988281 9.171875 C 194.167969 9.363281 194.460938 9.984375 194.460938 12.023438 L 194.460938 26.441406 L 178.425781 6.957031 L 170.558594 6.957031 L 170.558594 8.453125 L 170.945313 8.453125 C 171.679688 8.453125 172.230469 8.511719 172.574219 8.617188 C 173.308594 8.863281 173.871094 9.117188 174.238281 9.386719 C 174.59375 9.644531 175.140625 10.21875 175.855469 11.050781 L 175.855469 29.574219 C 175.855469 31.453125 175.621094 32.066406 175.480469 32.273438 C 175.074219 32.859375 174.378906 33.140625 173.355469 33.140625 L 172.03125 33.140625 L 172.03125 34.640625 L 182.164063 34.640625 L 182.164063 33.140625 L 180.824219 33.140625 C 179.894531 33.140625 179.210938 32.90625 178.78125 32.433594 C 178.617188 32.253906 178.339844 31.621094 178.339844 29.574219 L 178.339844 14.058594 L 195.675781 35.078125 L 196.9375 35.078125 L 196.9375 12.023438 C 196.9375 10.144531 197.171875 9.527344 197.3125 9.335938 C 197.714844 8.738281 198.40625 8.453125 199.425781 8.453125 L 200.765625 8.453125 L 200.765625 6.957031 "/>
<path style=" stroke:none;fill-rule:nonzero;fill:rgb(100%,100%,100%);fill-opacity:1;" d="M 219.375 13.882813 L 223.257813 23.378906 L 215.246094 23.378906 Z M 234.820313 33.136719 C 233.808594 33.082031 233.027344 32.804688 232.476563 32.328125 C 231.910156 31.832031 231.25 30.695313 230.523438 28.960938 C 230.527344 28.960938 221.269531 6.359375 221.269531 6.359375 L 219.953125 6.359375 L 210.226563 28.6875 C 209.429688 30.59375 208.710938 31.867188 208.074219 32.457031 C 207.914063 32.609375 207.457031 32.898438 206.085938 33.140625 L 205.773438 33.191406 L 205.773438 34.636719 L 214.988281 34.636719 L 214.988281 33.15625 L 214.632813 33.136719 C 213.121094 33.027344 212.535156 32.796875 212.3125 32.609375 C 212.015625 32.386719 211.875 32.121094 211.875 31.835938 C 211.875 31.515625 211.988281 30.871094 212.519531 29.640625 C 212.519531 29.640625 213.871094 26.539063 214.25 25.664063 L 224.199219 25.664063 C 224.539063 26.496094 225.6875 29.304688 225.6875 29.304688 C 226.195313 30.496094 226.453125 31.367188 226.453125 31.894531 C 226.453125 32.210938 226.316406 32.46875 226.03125 32.691406 C 225.816406 32.863281 225.304688 33.082031 224.082031 33.132813 L 223.71875 33.148438 L 223.71875 34.636719 L 235.179688 34.636719 L 235.179688 33.15625 L 234.820313 33.136719 "/>
<path style=" stroke:none;fill-rule:nonzero;fill:rgb(100%,100%,100%);fill-opacity:1;" d="M 2.164063 39.980469 L 40.660156 39.980469 L 40.660156 1.484375 L 2.164063 1.484375 Z M 2.164063 39.980469 "/>
<path style=" stroke:none;fill-rule:nonzero;fill:rgb(92.199707%,10.998535%,13.699341%);fill-opacity:1;" d="M 3.644531 38.496094 L 15.488281 38.496094 L 15.488281 26.65625 L 3.644531 26.65625 Z M 3.644531 38.496094 "/>
<path style=" stroke:none;fill-rule:nonzero;fill:rgb(92.199707%,10.998535%,13.699341%);fill-opacity:1;" d="M 27.335938 38.496094 L 39.179688 38.496094 L 39.179688 26.65625 L 27.335938 26.65625 Z M 27.335938 38.496094 "/>
<path style=" stroke:none;fill-rule:nonzero;fill:rgb(92.199707%,10.998535%,13.699341%);fill-opacity:1;" d="M 15.488281 26.65625 L 27.332031 26.65625 L 27.332031 14.808594 L 15.488281 14.808594 Z M 15.488281 26.65625 "/>
<path style=" stroke:none;fill-rule:nonzero;fill:rgb(92.199707%,10.998535%,13.699341%);fill-opacity:1;" d="M 3.644531 14.808594 L 15.488281 14.808594 L 15.488281 2.964844 L 3.644531 2.964844 Z M 3.644531 14.808594 "/>
<path style=" stroke:none;fill-rule:nonzero;fill:rgb(92.199707%,10.998535%,13.699341%);fill-opacity:1;" d="M 27.335938 14.808594 L 39.179688 14.808594 L 39.179688 2.964844 L 27.335938 2.964844 Z M 27.335938 14.808594 "/>
<path style=" stroke:none;fill-rule:nonzero;fill:rgb(13.299561%,12.199402%,12.199402%);fill-opacity:1;" d="M 256.488281 34.742188 C 257.15625 34.742188 257.554688 34.609375 257.554688 33.828125 C 257.554688 33.109375 256.78125 33.058594 256.210938 33.058594 L 255.164063 33.058594 L 255.164063 34.742188 Z M 255.164063 38.867188 L 253.671875 38.867188 L 253.671875 31.875 L 256.277344 31.875 C 258.085938 31.875 259.148438 32.390625 259.148438 33.988281 C 259.148438 35.273438 258.394531 35.738281 257.464844 35.804688 L 259.257813 38.867188 L 257.484375 38.867188 L 255.871094 35.925781 L 255.164063 35.925781 Z M 256.246094 30.398438 C 253.671875 30.398438 251.59375 32.390625 251.59375 35.378906 C 251.59375 38.367188 253.671875 40.375 256.246094 40.355469 L 256.246094 40.375 C 258.757813 40.375 260.882813 38.367188 260.882813 35.378906 C 260.882813 32.390625 258.757813 30.398438 256.246094 30.398438 M 256.246094 41.871094 C 252.792969 41.871094 249.722656 39.484375 249.722656 35.378906 C 249.722656 31.269531 252.792969 28.886719 256.246094 28.886719 C 259.679688 28.886719 262.757813 31.269531 262.757813 35.378906 C 262.757813 39.484375 259.679688 41.871094 256.246094 41.871094 "/>
</g>
</svg>
