<svg width="360" height="440" viewBox="0 0 360 440" fill="none" xmlns="http://www.w3.org/2000/svg">
<rect width="360" height="440" fill="white"/>
<path d="M135.237 239.688C134.944 239.688 134.682 239.637 134.453 239.536C134.229 239.44 134.053 239.299 133.925 239.112C133.802 238.925 133.741 238.709 133.741 238.464C133.741 238.288 133.765 238.125 133.813 237.976C133.861 237.827 133.941 237.672 134.053 237.512C134.165 237.347 134.314 237.163 134.501 236.96C134.762 236.672 134.946 236.424 135.053 236.216C135.165 236.003 135.234 235.781 135.261 235.552L135.277 235.376H135.605V235.56C135.605 235.837 135.552 236.101 135.445 236.352C135.338 236.603 135.141 236.885 134.853 237.2C134.629 237.451 134.472 237.669 134.381 237.856C134.29 238.043 134.245 238.237 134.245 238.44C134.245 238.691 134.336 238.888 134.517 239.032C134.698 239.176 134.946 239.248 135.261 239.248C135.469 239.248 135.666 239.221 135.853 239.168C136.045 239.115 136.224 239.043 136.389 238.952V239.432C136.224 239.512 136.04 239.573 135.837 239.616C135.64 239.664 135.44 239.688 135.237 239.688ZM135.781 234V234.68H135.101V234H135.781ZM137.176 235.176C137.176 234.579 137.275 234.067 137.472 233.64C137.675 233.208 137.966 232.877 138.344 232.648C138.723 232.413 139.179 232.296 139.712 232.296C140.235 232.296 140.686 232.413 141.064 232.648C141.448 232.877 141.742 233.208 141.944 233.64C142.152 234.067 142.256 234.576 142.256 235.168C142.256 235.765 142.152 236.28 141.944 236.712C141.736 237.144 141.44 237.477 141.056 237.712C140.678 237.947 140.23 238.064 139.712 238.064C139.184 238.064 138.731 237.947 138.352 237.712C137.974 237.477 137.683 237.144 137.48 236.712C137.278 236.28 137.176 235.768 137.176 235.176ZM137.704 235.176C137.704 235.944 137.875 236.544 138.216 236.976C138.558 237.403 139.056 237.616 139.712 237.616C140.347 237.616 140.843 237.403 141.2 236.976C141.558 236.544 141.736 235.944 141.736 235.176C141.736 234.403 141.558 233.805 141.2 233.384C140.848 232.957 140.352 232.744 139.712 232.744C139.056 232.744 138.558 232.957 138.216 233.384C137.875 233.805 137.704 234.403 137.704 235.176ZM143.437 238V232.112H143.925V238H143.437ZM146.442 238L144.738 233.992H145.282L146.802 237.696H146.594L148.13 233.992H148.65L146.946 238H146.442ZM149.461 238V233.992H149.949V238H149.461ZM149.381 233.008V232.4H150.037V233.008H149.381ZM152.793 238.064C152.436 238.064 152.124 237.981 151.857 237.816C151.591 237.651 151.385 237.413 151.241 237.104C151.097 236.795 151.025 236.424 151.025 235.992C151.025 235.56 151.097 235.192 151.241 234.888C151.385 234.579 151.591 234.341 151.857 234.176C152.124 234.005 152.436 233.92 152.793 233.92C153.161 233.92 153.479 234.016 153.745 234.208C154.017 234.395 154.199 234.653 154.289 234.984H154.193V232.112H154.681V238H154.201V236.992H154.289C154.199 237.328 154.017 237.592 153.745 237.784C153.479 237.971 153.161 238.064 152.793 238.064ZM152.857 237.648C153.263 237.648 153.588 237.507 153.833 237.224C154.084 236.941 154.209 236.531 154.209 235.992C154.209 235.453 154.084 235.043 153.833 234.76C153.588 234.477 153.263 234.336 152.857 234.336C152.452 234.336 152.127 234.477 151.881 234.76C151.641 235.043 151.521 235.453 151.521 235.992C151.521 236.531 151.641 236.941 151.881 237.224C152.127 237.507 152.452 237.648 152.857 237.648ZM157.528 238.064C157.165 238.064 156.85 237.981 156.584 237.816C156.317 237.651 156.112 237.413 155.968 237.104C155.824 236.795 155.752 236.424 155.752 235.992C155.752 235.56 155.824 235.192 155.968 234.888C156.117 234.579 156.325 234.341 156.592 234.176C156.858 234.005 157.17 233.92 157.528 233.92C157.896 233.92 158.213 234.016 158.48 234.208C158.752 234.4 158.93 234.661 159.016 234.992H158.92L159 233.992H159.472C159.456 234.147 159.44 234.299 159.424 234.448C159.413 234.597 159.408 234.744 159.408 234.888V238H158.92V237H159.008C158.922 237.331 158.744 237.592 158.472 237.784C158.205 237.971 157.89 238.064 157.528 238.064ZM157.592 237.648C158.002 237.648 158.328 237.507 158.568 237.224C158.808 236.941 158.928 236.531 158.928 235.992C158.928 235.453 158.808 235.043 158.568 234.76C158.328 234.477 158.002 234.336 157.592 234.336C157.181 234.336 156.853 234.477 156.608 234.76C156.368 235.043 156.248 235.453 156.248 235.992C156.248 236.531 156.368 236.941 156.608 237.224C156.853 237.507 157.181 237.648 157.592 237.648ZM162.03 238.064C161.721 238.064 161.43 238.019 161.158 237.928C160.892 237.837 160.67 237.712 160.494 237.552L160.686 237.192C160.884 237.352 161.097 237.472 161.326 237.552C161.556 237.627 161.796 237.664 162.046 237.664C162.388 237.664 162.646 237.6 162.822 237.472C162.998 237.344 163.086 237.171 163.086 236.952C163.086 236.781 163.03 236.643 162.918 236.536C162.806 236.429 162.62 236.349 162.358 236.296L161.638 236.144C161.297 236.064 161.041 235.936 160.87 235.76C160.705 235.584 160.622 235.363 160.622 235.096C160.622 234.867 160.681 234.664 160.798 234.488C160.921 234.312 161.094 234.173 161.318 234.072C161.542 233.971 161.806 233.92 162.11 233.92C162.398 233.92 162.662 233.968 162.902 234.064C163.148 234.155 163.348 234.285 163.502 234.456L163.294 234.808C163.134 234.648 162.953 234.528 162.75 234.448C162.553 234.368 162.342 234.328 162.118 234.328C161.788 234.328 161.537 234.397 161.366 234.536C161.196 234.669 161.11 234.848 161.11 235.072C161.11 235.243 161.164 235.384 161.27 235.496C161.377 235.603 161.545 235.683 161.774 235.736L162.494 235.896C162.857 235.976 163.126 236.099 163.302 236.264C163.478 236.429 163.566 236.648 163.566 236.92C163.566 237.155 163.502 237.36 163.374 237.536C163.246 237.707 163.068 237.837 162.838 237.928C162.609 238.019 162.34 238.064 162.03 238.064ZM165.944 238.064C165.587 238.064 165.312 237.957 165.12 237.744C164.934 237.531 164.84 237.203 164.84 236.76V234.384H164.04V233.992H164.84V232.872L165.328 232.712V233.992H166.512V234.384H165.328V236.688C165.328 237.024 165.382 237.267 165.488 237.416C165.595 237.565 165.766 237.64 166 237.64C166.107 237.64 166.2 237.629 166.28 237.608C166.366 237.587 166.438 237.563 166.496 237.536V237.968C166.432 237.995 166.35 238.016 166.248 238.032C166.147 238.053 166.046 238.064 165.944 238.064ZM169.025 238.064C168.417 238.064 167.934 237.883 167.577 237.52C167.225 237.157 167.049 236.653 167.049 236.008C167.049 235.581 167.126 235.213 167.281 234.904C167.441 234.595 167.662 234.355 167.945 234.184C168.227 234.008 168.555 233.92 168.929 233.92C169.286 233.92 169.587 233.997 169.833 234.152C170.078 234.301 170.267 234.517 170.401 234.8C170.534 235.077 170.601 235.408 170.601 235.792V236.016H167.401V235.664H170.297L170.161 235.768C170.161 235.315 170.057 234.96 169.849 234.704C169.641 234.443 169.331 234.312 168.921 234.312C168.483 234.312 168.142 234.464 167.897 234.768C167.651 235.067 167.529 235.464 167.529 235.96V236.016C167.529 236.549 167.659 236.955 167.921 237.232C168.187 237.509 168.558 237.648 169.033 237.648C169.278 237.648 169.507 237.611 169.721 237.536C169.934 237.461 170.139 237.333 170.337 237.152L170.537 237.512C170.366 237.688 170.145 237.824 169.873 237.92C169.601 238.016 169.318 238.064 169.025 238.064ZM174.983 238.064C174.626 238.064 174.351 237.957 174.159 237.744C173.973 237.531 173.879 237.203 173.879 236.76V234.384H173.079V233.992H173.879V232.872L174.367 232.712V233.992H175.551V234.384H174.367V236.688C174.367 237.024 174.421 237.267 174.527 237.416C174.634 237.565 174.805 237.64 175.039 237.64C175.146 237.64 175.239 237.629 175.319 237.608C175.405 237.587 175.477 237.563 175.535 237.536V237.968C175.471 237.995 175.389 238.016 175.287 238.032C175.186 238.053 175.085 238.064 174.983 238.064ZM177.791 238.064C177.321 238.064 176.964 237.939 176.719 237.688C176.479 237.432 176.359 237.04 176.359 236.512V233.992H176.847V236.48C176.847 236.885 176.929 237.181 177.095 237.368C177.26 237.555 177.513 237.648 177.855 237.648C178.233 237.648 178.537 237.525 178.767 237.28C179.001 237.029 179.119 236.699 179.119 236.288V233.992H179.607V238H179.127V237.056H179.231C179.119 237.381 178.935 237.632 178.679 237.808C178.428 237.979 178.132 238.064 177.791 238.064ZM184.593 238.064C184.214 238.064 183.883 237.981 183.601 237.816C183.318 237.645 183.099 237.403 182.945 237.088C182.795 236.773 182.721 236.4 182.721 235.968C182.721 235.536 182.798 235.168 182.953 234.864C183.107 234.555 183.323 234.32 183.601 234.16C183.883 234 184.214 233.92 184.593 233.92C184.849 233.92 185.094 233.968 185.329 234.064C185.569 234.16 185.766 234.293 185.921 234.464L185.721 234.824C185.555 234.659 185.377 234.539 185.185 234.464C184.993 234.384 184.801 234.344 184.609 234.344C184.171 234.344 183.83 234.483 183.585 234.76C183.339 235.037 183.217 235.443 183.217 235.976C183.217 236.509 183.339 236.923 183.585 237.216C183.83 237.504 184.171 237.648 184.609 237.648C184.79 237.648 184.977 237.611 185.169 237.536C185.366 237.461 185.55 237.339 185.721 237.168L185.921 237.528C185.761 237.699 185.558 237.832 185.313 237.928C185.073 238.019 184.833 238.064 184.593 238.064ZM188.412 238.064C188.033 238.064 187.705 237.981 187.428 237.816C187.156 237.651 186.945 237.413 186.796 237.104C186.647 236.795 186.572 236.424 186.572 235.992C186.572 235.565 186.647 235.197 186.796 234.888C186.945 234.579 187.156 234.341 187.428 234.176C187.705 234.005 188.033 233.92 188.412 233.92C188.785 233.92 189.108 234.005 189.38 234.176C189.657 234.341 189.871 234.579 190.02 234.888C190.175 235.197 190.252 235.565 190.252 235.992C190.252 236.424 190.175 236.795 190.02 237.104C189.871 237.413 189.657 237.651 189.38 237.816C189.108 237.981 188.785 238.064 188.412 238.064ZM188.412 237.648C188.817 237.648 189.143 237.507 189.388 237.224C189.633 236.941 189.756 236.531 189.756 235.992C189.756 235.453 189.633 235.043 189.388 234.76C189.143 234.477 188.817 234.336 188.412 234.336C188.001 234.336 187.673 234.477 187.428 234.76C187.188 235.043 187.068 235.453 187.068 235.992C187.068 236.531 187.188 236.941 187.428 237.224C187.673 237.507 188.001 237.648 188.412 237.648ZM191.32 238V234.888C191.32 234.744 191.315 234.597 191.304 234.448C191.294 234.299 191.278 234.147 191.256 233.992H191.736L191.808 234.912H191.712C191.83 234.592 192.019 234.347 192.28 234.176C192.542 234.005 192.846 233.92 193.192 233.92C193.667 233.92 194.024 234.045 194.264 234.296C194.51 234.547 194.632 234.939 194.632 235.472V238H194.144V235.512C194.144 235.101 194.062 234.805 193.896 234.624C193.731 234.437 193.475 234.344 193.128 234.344C192.723 234.344 192.4 234.467 192.16 234.712C191.926 234.957 191.808 235.288 191.808 235.704V238H191.32ZM197.241 238.064C196.884 238.064 196.609 237.957 196.417 237.744C196.231 237.531 196.137 237.203 196.137 236.76V234.384H195.337V233.992H196.137V232.872L196.625 232.712V233.992H197.809V234.384H196.625V236.688C196.625 237.024 196.679 237.267 196.785 237.416C196.892 237.565 197.063 237.64 197.297 237.64C197.404 237.64 197.497 237.629 197.577 237.608C197.663 237.587 197.735 237.563 197.793 237.536V237.968C197.729 237.995 197.647 238.016 197.545 238.032C197.444 238.053 197.343 238.064 197.241 238.064ZM198.633 238V234.928C198.633 234.773 198.627 234.619 198.617 234.464C198.611 234.304 198.598 234.147 198.577 233.992H199.057L199.121 234.912L199.025 234.92C199.078 234.696 199.174 234.512 199.313 234.368C199.451 234.219 199.611 234.107 199.793 234.032C199.974 233.957 200.161 233.92 200.353 233.92C200.422 233.92 200.486 233.925 200.545 233.936C200.609 233.941 200.667 233.952 200.721 233.968L200.705 234.408C200.641 234.387 200.577 234.373 200.513 234.368C200.449 234.363 200.379 234.36 200.305 234.36C200.065 234.36 199.854 234.419 199.673 234.536C199.497 234.653 199.361 234.803 199.265 234.984C199.169 235.165 199.121 235.349 199.121 235.536V238H198.633ZM202.911 238.064C202.548 238.064 202.233 237.981 201.967 237.816C201.7 237.651 201.495 237.413 201.351 237.104C201.207 236.795 201.135 236.424 201.135 235.992C201.135 235.56 201.207 235.192 201.351 234.888C201.5 234.579 201.708 234.341 201.975 234.176C202.241 234.005 202.553 233.92 202.911 233.92C203.279 233.92 203.596 234.016 203.863 234.208C204.135 234.4 204.313 234.661 204.399 234.992H204.303L204.383 233.992H204.855C204.839 234.147 204.823 234.299 204.807 234.448C204.796 234.597 204.791 234.744 204.791 234.888V238H204.303V237H204.391C204.305 237.331 204.127 237.592 203.855 237.784C203.588 237.971 203.273 238.064 202.911 238.064ZM202.975 237.648C203.385 237.648 203.711 237.507 203.951 237.224C204.191 236.941 204.311 236.531 204.311 235.992C204.311 235.453 204.191 235.043 203.951 234.76C203.711 234.477 203.385 234.336 202.975 234.336C202.564 234.336 202.236 234.477 201.991 234.76C201.751 235.043 201.631 235.453 201.631 235.992C201.631 236.531 201.751 236.941 201.991 237.224C202.236 237.507 202.564 237.648 202.975 237.648ZM207.413 238.064C207.104 238.064 206.813 238.019 206.541 237.928C206.274 237.837 206.053 237.712 205.877 237.552L206.069 237.192C206.266 237.352 206.48 237.472 206.709 237.552C206.938 237.627 207.178 237.664 207.429 237.664C207.77 237.664 208.029 237.6 208.205 237.472C208.381 237.344 208.469 237.171 208.469 236.952C208.469 236.781 208.413 236.643 208.301 236.536C208.189 236.429 208.002 236.349 207.741 236.296L207.021 236.144C206.68 236.064 206.424 235.936 206.253 235.76C206.088 235.584 206.005 235.363 206.005 235.096C206.005 234.867 206.064 234.664 206.181 234.488C206.304 234.312 206.477 234.173 206.701 234.072C206.925 233.971 207.189 233.92 207.493 233.92C207.781 233.92 208.045 233.968 208.285 234.064C208.53 234.155 208.73 234.285 208.885 234.456L208.677 234.808C208.517 234.648 208.336 234.528 208.133 234.448C207.936 234.368 207.725 234.328 207.501 234.328C207.17 234.328 206.92 234.397 206.749 234.536C206.578 234.669 206.493 234.848 206.493 235.072C206.493 235.243 206.546 235.384 206.653 235.496C206.76 235.603 206.928 235.683 207.157 235.736L207.877 235.896C208.24 235.976 208.509 236.099 208.685 236.264C208.861 236.429 208.949 236.648 208.949 236.92C208.949 237.155 208.885 237.36 208.757 237.536C208.629 237.707 208.45 237.837 208.221 237.928C207.992 238.019 207.722 238.064 207.413 238.064ZM211.79 238.064C211.182 238.064 210.7 237.883 210.342 237.52C209.99 237.157 209.814 236.653 209.814 236.008C209.814 235.581 209.892 235.213 210.046 234.904C210.206 234.595 210.428 234.355 210.71 234.184C210.993 234.008 211.321 233.92 211.694 233.92C212.052 233.92 212.353 233.997 212.598 234.152C212.844 234.301 213.033 234.517 213.166 234.8C213.3 235.077 213.366 235.408 213.366 235.792V236.016H210.166V235.664H213.062L212.926 235.768C212.926 235.315 212.822 234.96 212.614 234.704C212.406 234.443 212.097 234.312 211.686 234.312C211.249 234.312 210.908 234.464 210.662 234.768C210.417 235.067 210.294 235.464 210.294 235.96V236.016C210.294 236.549 210.425 236.955 210.686 237.232C210.953 237.509 211.324 237.648 211.798 237.648C212.044 237.648 212.273 237.611 212.486 237.536C212.7 237.461 212.905 237.333 213.102 237.152L213.302 237.512C213.132 237.688 212.91 237.824 212.638 237.92C212.366 238.016 212.084 238.064 211.79 238.064ZM214.414 238V234.888C214.414 234.744 214.409 234.597 214.398 234.448C214.387 234.299 214.371 234.147 214.35 233.992H214.83L214.902 234.912H214.806C214.923 234.592 215.113 234.347 215.374 234.176C215.635 234.005 215.939 233.92 216.286 233.92C216.761 233.92 217.118 234.045 217.358 234.296C217.603 234.547 217.726 234.939 217.726 235.472V238H217.238V235.512C217.238 235.101 217.155 234.805 216.99 234.624C216.825 234.437 216.569 234.344 216.222 234.344C215.817 234.344 215.494 234.467 215.254 234.712C215.019 234.957 214.902 235.288 214.902 235.704V238H214.414ZM214.974 233.264L214.662 233.24C214.694 232.915 214.779 232.664 214.918 232.488C215.062 232.312 215.249 232.224 215.478 232.224C215.59 232.224 215.694 232.253 215.79 232.312C215.891 232.371 216.006 232.459 216.134 232.576C216.251 232.688 216.345 232.765 216.414 232.808C216.489 232.851 216.561 232.872 216.63 232.872C216.902 232.872 217.07 232.648 217.134 232.2L217.446 232.224C217.414 232.549 217.326 232.8 217.182 232.976C217.043 233.152 216.862 233.24 216.638 233.24C216.531 233.24 216.427 233.211 216.326 233.152C216.23 233.093 216.113 233.003 215.974 232.88C215.857 232.773 215.763 232.699 215.694 232.656C215.625 232.613 215.553 232.592 215.478 232.592C215.339 232.592 215.227 232.651 215.142 232.768C215.062 232.885 215.006 233.051 214.974 233.264ZM220.559 238.064C220.196 238.064 219.882 237.981 219.615 237.816C219.348 237.651 219.143 237.413 218.999 237.104C218.855 236.795 218.783 236.424 218.783 235.992C218.783 235.56 218.855 235.192 218.999 234.888C219.148 234.579 219.356 234.341 219.623 234.176C219.89 234.005 220.202 233.92 220.559 233.92C220.927 233.92 221.244 234.016 221.511 234.208C221.783 234.4 221.962 234.661 222.047 234.992H221.951L222.031 233.992H222.503C222.487 234.147 222.471 234.299 222.455 234.448C222.444 234.597 222.439 234.744 222.439 234.888V238H221.951V237H222.039C221.954 237.331 221.775 237.592 221.503 237.784C221.236 237.971 220.922 238.064 220.559 238.064ZM220.623 237.648C221.034 237.648 221.359 237.507 221.599 237.224C221.839 236.941 221.959 236.531 221.959 235.992C221.959 235.453 221.839 235.043 221.599 234.76C221.359 234.477 221.034 234.336 220.623 234.336C220.212 234.336 219.884 234.477 219.639 234.76C219.399 235.043 219.279 235.453 219.279 235.992C219.279 236.531 219.399 236.941 219.639 237.224C219.884 237.507 220.212 237.648 220.623 237.648ZM224.4 236.616V236.424C224.4 236.147 224.453 235.883 224.56 235.632C224.666 235.381 224.861 235.099 225.144 234.784C225.368 234.528 225.525 234.309 225.616 234.128C225.706 233.941 225.752 233.747 225.752 233.544C225.752 233.293 225.661 233.096 225.48 232.952C225.298 232.808 225.05 232.736 224.736 232.736C224.528 232.736 224.33 232.763 224.144 232.816C223.957 232.869 223.778 232.941 223.608 233.032V232.552C223.778 232.472 223.962 232.411 224.16 232.368C224.357 232.32 224.557 232.296 224.76 232.296C225.058 232.296 225.32 232.347 225.544 232.448C225.768 232.544 225.941 232.683 226.064 232.864C226.192 233.045 226.256 233.264 226.256 233.52C226.256 233.691 226.229 233.853 226.176 234.008C226.128 234.163 226.048 234.323 225.936 234.488C225.824 234.648 225.677 234.827 225.496 235.024C225.234 235.312 225.048 235.563 224.936 235.776C224.829 235.984 224.765 236.203 224.744 236.432L224.72 236.616H224.4ZM224.216 238V237.312H224.896V238H224.216Z" fill="#241C1C"/>
<rect x="30" y="52" width="300" height="42" rx="21" fill="#F5F4F2"/>
<path opacity="0.5" d="M46.616 76V71.065H47.071L50.235 75.265H50.074V71.065H50.613V76H50.165L47.001 71.8H47.155V76H46.616ZM53.2245 76.063C52.8885 76.063 52.5945 75.9907 52.3425 75.846C52.0952 75.6967 51.9038 75.4867 51.7685 75.216C51.6332 74.9407 51.5655 74.6163 51.5655 74.243C51.5655 73.865 51.6332 73.5407 51.7685 73.27C51.9038 72.9993 52.0952 72.7917 52.3425 72.647C52.5945 72.4977 52.8885 72.423 53.2245 72.423C53.5652 72.423 53.8592 72.4977 54.1065 72.647C54.3585 72.7917 54.5522 72.9993 54.6875 73.27C54.8275 73.5407 54.8975 73.865 54.8975 74.243C54.8975 74.6163 54.8275 74.9407 54.6875 75.216C54.5522 75.4867 54.3585 75.6967 54.1065 75.846C53.8592 75.9907 53.5652 76.063 53.2245 76.063ZM53.2245 75.601C53.5605 75.601 53.8265 75.4867 54.0225 75.258C54.2185 75.0247 54.3165 74.6863 54.3165 74.243C54.3165 73.795 54.2162 73.4567 54.0155 73.228C53.8195 72.9947 53.5558 72.878 53.2245 72.878C52.8932 72.878 52.6295 72.9947 52.4335 73.228C52.2375 73.4567 52.1395 73.795 52.1395 74.243C52.1395 74.6863 52.2375 75.0247 52.4335 75.258C52.6295 75.4867 52.8932 75.601 53.2245 75.601ZM55.7815 76V73.298C55.7815 73.1673 55.7745 73.0343 55.7605 72.899C55.7512 72.759 55.7395 72.6213 55.7255 72.486H56.2715L56.3415 73.256H56.2575C56.3508 72.99 56.4978 72.7847 56.6985 72.64C56.9038 72.4953 57.1512 72.423 57.4405 72.423C57.7345 72.423 57.9725 72.493 58.1545 72.633C58.3412 72.773 58.4672 72.99 58.5325 73.284H58.4275C58.5162 73.018 58.6725 72.808 58.8965 72.654C59.1205 72.5 59.3818 72.423 59.6805 72.423C60.0678 72.423 60.3595 72.535 60.5555 72.759C60.7515 72.9783 60.8495 73.326 60.8495 73.802V76H60.2825V73.837C60.2825 73.5057 60.2242 73.2653 60.1075 73.116C59.9908 72.962 59.8042 72.885 59.5475 72.885C59.2535 72.885 59.0202 72.9877 58.8475 73.193C58.6795 73.3937 58.5955 73.6643 58.5955 74.005V76H58.0285V73.837C58.0285 73.5057 57.9702 73.2653 57.8535 73.116C57.7368 72.962 57.5502 72.885 57.2935 72.885C56.9995 72.885 56.7685 72.9877 56.6005 73.193C56.4325 73.3937 56.3485 73.6643 56.3485 74.005V76H55.7815ZM63.691 76.063C63.3737 76.063 63.1007 75.9837 62.872 75.825C62.6434 75.6617 62.4894 75.44 62.41 75.16H62.487V76H61.927V70.848H62.494V73.305H62.41C62.4894 73.0343 62.6434 72.8197 62.872 72.661C63.1007 72.5023 63.3737 72.423 63.691 72.423C64.0084 72.423 64.2814 72.4977 64.51 72.647C64.7434 72.7917 64.923 72.9993 65.049 73.27C65.1797 73.5407 65.245 73.865 65.245 74.243C65.245 74.621 65.1797 74.9453 65.049 75.216C64.9184 75.4867 64.7364 75.6967 64.503 75.846C64.2744 75.9907 64.0037 76.063 63.691 76.063ZM63.572 75.601C63.9034 75.601 64.1694 75.4867 64.37 75.258C64.5707 75.0293 64.671 74.691 64.671 74.243C64.671 73.795 64.5707 73.4567 64.37 73.228C64.1694 72.9947 63.9034 72.878 63.572 72.878C63.2407 72.878 62.9747 72.9947 62.774 73.228C62.578 73.4567 62.48 73.795 62.48 74.243C62.48 74.6863 62.578 75.0247 62.774 75.258C62.9747 75.4867 63.2407 75.601 63.572 75.601ZM66.1103 76V73.333C66.1103 73.193 66.1056 73.0507 66.0963 72.906C66.0916 72.7613 66.0823 72.6213 66.0683 72.486H66.6143L66.6843 73.34L66.5863 73.347C66.633 73.137 66.7146 72.9643 66.8313 72.829C66.948 72.6937 67.0856 72.5933 67.2443 72.528C67.403 72.458 67.5686 72.423 67.7413 72.423C67.8113 72.423 67.872 72.4253 67.9233 72.43C67.9793 72.4347 68.0306 72.4463 68.0773 72.465L68.0703 72.969C68.0003 72.9457 67.935 72.9317 67.8743 72.927C67.8183 72.9177 67.753 72.913 67.6783 72.913C67.473 72.913 67.2933 72.962 67.1393 73.06C66.99 73.158 66.8756 73.284 66.7963 73.438C66.7216 73.592 66.6843 73.7553 66.6843 73.928V76H66.1103ZM70.1872 76.063C69.6366 76.063 69.2026 75.9043 68.8852 75.587C68.5679 75.265 68.4092 74.8193 68.4092 74.25C68.4092 73.8813 68.4792 73.5617 68.6192 73.291C68.7592 73.0157 68.9552 72.8033 69.2072 72.654C69.4592 72.5 69.7486 72.423 70.0752 72.423C70.3972 72.423 70.6679 72.4907 70.8872 72.626C71.1066 72.7613 71.2746 72.955 71.3912 73.207C71.5079 73.4543 71.5662 73.7483 71.5662 74.089V74.299H68.8432V73.942H71.1952L71.0762 74.033C71.0762 73.6597 70.9922 73.368 70.8242 73.158C70.6562 72.948 70.4066 72.843 70.0752 72.843C69.7252 72.843 69.4522 72.9667 69.2562 73.214C69.0602 73.4567 68.9622 73.7857 68.9622 74.201V74.264C68.9622 74.7027 69.0696 75.0363 69.2842 75.265C69.5036 75.489 69.8092 75.601 70.2012 75.601C70.4112 75.601 70.6072 75.5707 70.7892 75.51C70.9759 75.4447 71.1532 75.3397 71.3212 75.195L71.5172 75.594C71.3632 75.7433 71.1672 75.86 70.9292 75.944C70.6959 76.0233 70.4486 76.063 70.1872 76.063ZM75.5891 76.063C75.2811 76.063 75.0104 75.9907 74.7771 75.846C74.5437 75.6967 74.3617 75.4867 74.2311 75.216C74.1051 74.9453 74.0421 74.621 74.0421 74.243C74.0421 73.8603 74.1051 73.5337 74.2311 73.263C74.3617 72.9923 74.5437 72.7847 74.7771 72.64C75.0104 72.4953 75.2811 72.423 75.5891 72.423C75.9064 72.423 76.1794 72.5023 76.4081 72.661C76.6414 72.8197 76.7977 73.0343 76.8771 73.305H76.7931V70.848H77.3601V76H76.8001V75.16H76.8771C76.8024 75.44 76.6484 75.6617 76.4151 75.825C76.1817 75.9837 75.9064 76.063 75.5891 76.063ZM75.7081 75.601C76.0394 75.601 76.3054 75.4867 76.5061 75.258C76.7067 75.0247 76.8071 74.6863 76.8071 74.243C76.8071 73.795 76.7067 73.4567 76.5061 73.228C76.3054 72.9947 76.0394 72.878 75.7081 72.878C75.3767 72.878 75.1107 72.9947 74.9101 73.228C74.7141 73.4567 74.6161 73.795 74.6161 74.243C74.6161 74.6863 74.7141 75.0247 74.9101 75.258C75.1107 75.4867 75.3767 75.601 75.7081 75.601ZM80.0173 76.063C79.4667 76.063 79.0327 75.9043 78.7153 75.587C78.398 75.265 78.2393 74.8193 78.2393 74.25C78.2393 73.8813 78.3093 73.5617 78.4493 73.291C78.5893 73.0157 78.7853 72.8033 79.0373 72.654C79.2893 72.5 79.5787 72.423 79.9053 72.423C80.2273 72.423 80.498 72.4907 80.7173 72.626C80.9367 72.7613 81.1047 72.955 81.2213 73.207C81.338 73.4543 81.3963 73.7483 81.3963 74.089V74.299H78.6733V73.942H81.0253L80.9063 74.033C80.9063 73.6597 80.8223 73.368 80.6543 73.158C80.4863 72.948 80.2367 72.843 79.9053 72.843C79.5553 72.843 79.2823 72.9667 79.0863 73.214C78.8903 73.4567 78.7923 73.7857 78.7923 74.201V74.264C78.7923 74.7027 78.8997 75.0363 79.1143 75.265C79.3337 75.489 79.6393 75.601 80.0313 75.601C80.2413 75.601 80.4373 75.5707 80.6193 75.51C80.806 75.4447 80.9833 75.3397 81.1513 75.195L81.3473 75.594C81.1933 75.7433 80.9973 75.86 80.7593 75.944C80.526 76.0233 80.2787 76.063 80.0173 76.063ZM85.3281 76.063C84.9128 76.063 84.5978 75.9487 84.3831 75.72C84.1731 75.4913 84.0681 75.1413 84.0681 74.67V72.486H84.6351V74.656C84.6351 74.978 84.7005 75.216 84.8311 75.37C84.9618 75.5193 85.1648 75.594 85.4401 75.594C85.7481 75.594 85.9955 75.4937 86.1821 75.293C86.3688 75.0923 86.4621 74.824 86.4621 74.488V72.486H87.0291V76H86.4761V75.209H86.5671C86.4691 75.4797 86.3105 75.6897 86.0911 75.839C85.8765 75.9883 85.6221 76.063 85.3281 76.063ZM89.2982 76.063C89.0182 76.063 88.7568 76.0257 88.5142 75.951C88.2715 75.8717 88.0708 75.762 87.9122 75.622L88.1082 75.223C88.2808 75.3583 88.4675 75.4587 88.6682 75.524C88.8735 75.5893 89.0858 75.622 89.3052 75.622C89.5852 75.622 89.7952 75.573 89.9352 75.475C90.0798 75.3723 90.1522 75.2323 90.1522 75.055C90.1522 74.9197 90.1055 74.8123 90.0122 74.733C89.9235 74.649 89.7765 74.5837 89.5712 74.537L88.9202 74.404C88.6215 74.3387 88.3975 74.229 88.2482 74.075C88.0988 73.9163 88.0242 73.7157 88.0242 73.473C88.0242 73.2677 88.0778 73.088 88.1852 72.934C88.2925 72.7753 88.4488 72.6517 88.6542 72.563C88.8595 72.4697 89.0998 72.423 89.3752 72.423C89.6318 72.423 89.8675 72.4627 90.0822 72.542C90.3015 72.6167 90.4835 72.7263 90.6282 72.871L90.4252 73.263C90.2852 73.1277 90.1242 73.0273 89.9422 72.962C89.7648 72.892 89.5805 72.857 89.3892 72.857C89.1138 72.857 88.9062 72.913 88.7662 73.025C88.6308 73.1323 88.5632 73.2747 88.5632 73.452C88.5632 73.5873 88.6052 73.6993 88.6892 73.788C88.7778 73.872 88.9132 73.935 89.0952 73.977L89.7462 74.11C90.0635 74.18 90.2992 74.2897 90.4532 74.439C90.6118 74.5837 90.6912 74.7797 90.6912 75.027C90.6912 75.237 90.6328 75.4213 90.5162 75.58C90.3995 75.734 90.2362 75.853 90.0262 75.937C89.8208 76.021 89.5782 76.063 89.2982 76.063ZM92.8408 76.063C92.4255 76.063 92.1105 75.9487 91.8958 75.72C91.6858 75.4913 91.5808 75.1413 91.5808 74.67V72.486H92.1478V74.656C92.1478 74.978 92.2132 75.216 92.3438 75.37C92.4745 75.5193 92.6775 75.594 92.9528 75.594C93.2608 75.594 93.5082 75.4937 93.6948 75.293C93.8815 75.0923 93.9748 74.824 93.9748 74.488V72.486H94.5418V76H93.9888V75.209H94.0798C93.9818 75.4797 93.8232 75.6897 93.6038 75.839C93.3892 75.9883 93.1348 76.063 92.8408 76.063ZM96.9789 76.063C96.6662 76.063 96.3932 75.9907 96.1599 75.846C95.9265 75.6967 95.7445 75.4867 95.6139 75.216C95.4879 74.9453 95.4249 74.621 95.4249 74.243C95.4249 73.8603 95.4879 73.5337 95.6139 73.263C95.7445 72.9923 95.9265 72.7847 96.1599 72.64C96.3932 72.4953 96.6662 72.423 96.9789 72.423C97.2962 72.423 97.5692 72.5047 97.7979 72.668C98.0312 72.8267 98.1852 73.0437 98.2599 73.319H98.1759L98.2529 72.486H98.7989C98.7849 72.6213 98.7709 72.759 98.7569 72.899C98.7475 73.0343 98.7429 73.1673 98.7429 73.298V76H98.1759V75.174H98.2529C98.1782 75.4493 98.0242 75.6663 97.7909 75.825C97.5575 75.9837 97.2869 76.063 96.9789 76.063ZM97.0909 75.601C97.4269 75.601 97.6929 75.4867 97.8889 75.258C98.0849 75.0247 98.1829 74.6863 98.1829 74.243C98.1829 73.795 98.0849 73.4567 97.8889 73.228C97.6929 72.9947 97.4269 72.878 97.0909 72.878C96.7595 72.878 96.4935 72.9947 96.2929 73.228C96.0969 73.4567 95.9989 73.795 95.9989 74.243C95.9989 74.6863 96.0969 75.0247 96.2929 75.258C96.4935 75.4867 96.7595 75.601 97.0909 75.601ZM99.8251 76V73.333C99.8251 73.193 99.8205 73.0507 99.8111 72.906C99.8065 72.7613 99.7971 72.6213 99.7831 72.486H100.329L100.399 73.34L100.301 73.347C100.348 73.137 100.429 72.9643 100.546 72.829C100.663 72.6937 100.8 72.5933 100.959 72.528C101.118 72.458 101.283 72.423 101.456 72.423C101.526 72.423 101.587 72.4253 101.638 72.43C101.694 72.4347 101.745 72.4463 101.792 72.465L101.785 72.969C101.715 72.9457 101.65 72.9317 101.589 72.927C101.533 72.9177 101.468 72.913 101.393 72.913C101.188 72.913 101.008 72.962 100.854 73.06C100.705 73.158 100.59 73.284 100.511 73.438C100.436 73.592 100.399 73.7553 100.399 73.928V76H99.8251ZM102.382 76V72.486H102.949V76H102.382ZM102.312 71.688V71.051H103.012V71.688H102.312ZM105.492 76.063C105.156 76.063 104.862 75.9907 104.61 75.846C104.363 75.6967 104.171 75.4867 104.036 75.216C103.901 74.9407 103.833 74.6163 103.833 74.243C103.833 73.865 103.901 73.5407 104.036 73.27C104.171 72.9993 104.363 72.7917 104.61 72.647C104.862 72.4977 105.156 72.423 105.492 72.423C105.833 72.423 106.127 72.4977 106.374 72.647C106.626 72.7917 106.82 72.9993 106.955 73.27C107.095 73.5407 107.165 73.865 107.165 74.243C107.165 74.6163 107.095 74.9407 106.955 75.216C106.82 75.4867 106.626 75.6967 106.374 75.846C106.127 75.9907 105.833 76.063 105.492 76.063ZM105.492 75.601C105.828 75.601 106.094 75.4867 106.29 75.258C106.486 75.0247 106.584 74.6863 106.584 74.243C106.584 73.795 106.484 73.4567 106.283 73.228C106.087 72.9947 105.823 72.878 105.492 72.878C105.161 72.878 104.897 72.9947 104.701 73.228C104.505 73.4567 104.407 73.795 104.407 74.243C104.407 74.6863 104.505 75.0247 104.701 75.258C104.897 75.4867 105.161 75.601 105.492 75.601ZM111.316 76.063C110.98 76.063 110.686 75.9907 110.434 75.846C110.187 75.6967 109.996 75.4867 109.86 75.216C109.725 74.9407 109.657 74.6163 109.657 74.243C109.657 73.865 109.725 73.5407 109.86 73.27C109.996 72.9993 110.187 72.7917 110.434 72.647C110.686 72.4977 110.98 72.423 111.316 72.423C111.657 72.423 111.951 72.4977 112.198 72.647C112.45 72.7917 112.644 72.9993 112.779 73.27C112.919 73.5407 112.989 73.865 112.989 74.243C112.989 74.6163 112.919 74.9407 112.779 75.216C112.644 75.4867 112.45 75.6967 112.198 75.846C111.951 75.9907 111.657 76.063 111.316 76.063ZM111.316 75.601C111.652 75.601 111.918 75.4867 112.114 75.258C112.31 75.0247 112.408 74.6863 112.408 74.243C112.408 73.795 112.308 73.4567 112.107 73.228C111.911 72.9947 111.648 72.878 111.316 72.878C110.985 72.878 110.721 72.9947 110.525 73.228C110.329 73.4567 110.231 73.795 110.231 74.243C110.231 74.6863 110.329 75.0247 110.525 75.258C110.721 75.4867 110.985 75.601 111.316 75.601ZM117.26 76.063C116.709 76.063 116.275 75.9043 115.958 75.587C115.64 75.265 115.482 74.8193 115.482 74.25C115.482 73.8813 115.552 73.5617 115.692 73.291C115.832 73.0157 116.028 72.8033 116.28 72.654C116.532 72.5 116.821 72.423 117.148 72.423C117.47 72.423 117.74 72.4907 117.96 72.626C118.179 72.7613 118.347 72.955 118.464 73.207C118.58 73.4543 118.639 73.7483 118.639 74.089V74.299H115.916V73.942H118.268L118.149 74.033C118.149 73.6597 118.065 73.368 117.897 73.158C117.729 72.948 117.479 72.843 117.148 72.843C116.798 72.843 116.525 72.9667 116.329 73.214C116.133 73.4567 116.035 73.7857 116.035 74.201V74.264C116.035 74.7027 116.142 75.0363 116.357 75.265C116.576 75.489 116.882 75.601 117.274 75.601C117.484 75.601 117.68 75.5707 117.862 75.51C118.048 75.4447 118.226 75.3397 118.394 75.195L118.59 75.594C118.436 75.7433 118.24 75.86 118.002 75.944C117.768 76.0233 117.521 76.063 117.26 76.063ZM119.532 74.313V73.844H121.527V74.313H119.532ZM122.575 76V73.298C122.575 73.1673 122.568 73.0343 122.554 72.899C122.545 72.759 122.533 72.6213 122.519 72.486H123.065L123.135 73.256H123.051C123.145 72.99 123.292 72.7847 123.492 72.64C123.698 72.4953 123.945 72.423 124.234 72.423C124.528 72.423 124.766 72.493 124.948 72.633C125.135 72.773 125.261 72.99 125.326 73.284H125.221C125.31 73.018 125.466 72.808 125.69 72.654C125.914 72.5 126.176 72.423 126.474 72.423C126.862 72.423 127.153 72.535 127.349 72.759C127.545 72.9783 127.643 73.326 127.643 73.802V76H127.076V73.837C127.076 73.5057 127.018 73.2653 126.901 73.116C126.785 72.962 126.598 72.885 126.341 72.885C126.047 72.885 125.814 72.9877 125.641 73.193C125.473 73.3937 125.389 73.6643 125.389 74.005V76H124.822V73.837C124.822 73.5057 124.764 73.2653 124.647 73.116C124.531 72.962 124.344 72.885 124.087 72.885C123.793 72.885 123.562 72.9877 123.394 73.193C123.226 73.3937 123.142 73.6643 123.142 74.005V76H122.575ZM130.058 76.063C129.745 76.063 129.472 75.9907 129.239 75.846C129.006 75.6967 128.824 75.4867 128.693 75.216C128.567 74.9453 128.504 74.621 128.504 74.243C128.504 73.8603 128.567 73.5337 128.693 73.263C128.824 72.9923 129.006 72.7847 129.239 72.64C129.472 72.4953 129.745 72.423 130.058 72.423C130.375 72.423 130.648 72.5047 130.877 72.668C131.11 72.8267 131.264 73.0437 131.339 73.319H131.255L131.332 72.486H131.878C131.864 72.6213 131.85 72.759 131.836 72.899C131.827 73.0343 131.822 73.1673 131.822 73.298V76H131.255V75.174H131.332C131.257 75.4493 131.103 75.6663 130.87 75.825C130.637 75.9837 130.366 76.063 130.058 76.063ZM130.17 75.601C130.506 75.601 130.772 75.4867 130.968 75.258C131.164 75.0247 131.262 74.6863 131.262 74.243C131.262 73.795 131.164 73.4567 130.968 73.228C130.772 72.9947 130.506 72.878 130.17 72.878C129.839 72.878 129.573 72.9947 129.372 73.228C129.176 73.4567 129.078 73.795 129.078 74.243C129.078 74.6863 129.176 75.0247 129.372 75.258C129.573 75.4867 129.839 75.601 130.17 75.601ZM132.918 76V72.486H133.485V76H132.918ZM132.848 71.688V71.051H133.548V71.688H132.848ZM134.586 76V70.848H135.153V76H134.586Z" fill="black"/>
<g filter="url(#filter0_d_249_904)">
<rect x="90" y="168.353" width="180" height="42.3529" rx="21.1765" fill="#46B593"/>
<path d="M165.897 193.353V186.303H170.647V187.313H167.137V189.263H170.417V190.283H167.137V192.333H170.647V193.353H165.897ZM171.744 193.353V189.563C171.744 189.356 171.738 189.146 171.724 188.933C171.711 188.72 171.691 188.51 171.664 188.303H172.874L172.974 189.303H172.854C173.014 188.95 173.251 188.68 173.564 188.493C173.878 188.3 174.241 188.203 174.654 188.203C175.248 188.203 175.694 188.37 175.994 188.703C176.294 189.036 176.444 189.556 176.444 190.263V193.353H175.194V190.323C175.194 189.916 175.114 189.626 174.954 189.453C174.801 189.273 174.568 189.183 174.254 189.183C173.868 189.183 173.561 189.303 173.334 189.543C173.108 189.783 172.994 190.103 172.994 190.503V193.353H171.744ZM179.93 193.453C179.33 193.453 178.877 193.296 178.57 192.983C178.263 192.67 178.11 192.2 178.11 191.573V189.243H177.14V188.303H178.11V187.013L179.36 186.693V188.303H180.71V189.243H179.36V191.493C179.36 191.84 179.427 192.083 179.56 192.223C179.693 192.363 179.877 192.433 180.11 192.433C180.237 192.433 180.343 192.423 180.43 192.403C180.523 192.383 180.613 192.356 180.7 192.323V193.313C180.587 193.36 180.46 193.393 180.32 193.413C180.187 193.44 180.057 193.453 179.93 193.453ZM181.549 193.353V189.593C181.549 189.38 181.542 189.163 181.529 188.943C181.522 188.723 181.506 188.51 181.479 188.303H182.689L182.829 189.683H182.629C182.696 189.35 182.806 189.073 182.959 188.853C183.119 188.633 183.312 188.47 183.539 188.363C183.766 188.256 184.012 188.203 184.279 188.203C184.399 188.203 184.496 188.21 184.569 188.223C184.642 188.23 184.716 188.246 184.789 188.273L184.779 189.373C184.652 189.32 184.542 189.286 184.449 189.273C184.362 189.26 184.252 189.253 184.119 189.253C183.832 189.253 183.589 189.313 183.389 189.433C183.196 189.553 183.049 189.72 182.949 189.933C182.856 190.146 182.809 190.39 182.809 190.663V193.353H181.549ZM187.386 193.453C186.946 193.453 186.559 193.35 186.226 193.143C185.893 192.93 185.633 192.626 185.446 192.233C185.259 191.84 185.166 191.37 185.166 190.823C185.166 190.276 185.259 189.81 185.446 189.423C185.633 189.03 185.893 188.73 186.226 188.523C186.559 188.31 186.946 188.203 187.386 188.203C187.813 188.203 188.186 188.31 188.506 188.523C188.833 188.73 189.049 189.01 189.156 189.363H189.046L189.156 188.303H190.356C190.336 188.51 190.316 188.72 190.296 188.933C190.283 189.146 190.276 189.356 190.276 189.563V193.353H189.036L189.026 192.313H189.146C189.039 192.66 188.823 192.936 188.496 193.143C188.169 193.35 187.799 193.453 187.386 193.453ZM187.736 192.493C188.129 192.493 188.446 192.356 188.686 192.083C188.926 191.803 189.046 191.383 189.046 190.823C189.046 190.263 188.926 189.846 188.686 189.573C188.446 189.3 188.129 189.163 187.736 189.163C187.343 189.163 187.026 189.3 186.786 189.573C186.546 189.846 186.426 190.263 186.426 190.823C186.426 191.383 186.543 191.803 186.776 192.083C187.016 192.356 187.336 192.493 187.736 192.493ZM191.627 193.353V189.593C191.627 189.38 191.62 189.163 191.607 188.943C191.6 188.723 191.584 188.51 191.557 188.303H192.767L192.907 189.683H192.707C192.774 189.35 192.884 189.073 193.037 188.853C193.197 188.633 193.39 188.47 193.617 188.363C193.844 188.256 194.09 188.203 194.357 188.203C194.477 188.203 194.574 188.21 194.647 188.223C194.72 188.23 194.794 188.246 194.867 188.273L194.857 189.373C194.73 189.32 194.62 189.286 194.527 189.273C194.44 189.26 194.33 189.253 194.197 189.253C193.91 189.253 193.667 189.313 193.467 189.433C193.274 189.553 193.127 189.72 193.027 189.933C192.934 190.146 192.887 190.39 192.887 190.663V193.353H191.627Z" fill="#F5F4F2"/>
</g>
<g filter="url(#filter1_d_249_904)">
<rect x="55" y="316" width="250" height="40" rx="20" fill="#46B593"/>
<path d="M153.583 340V332.95H156.663C157.436 332.95 158.033 333.133 158.453 333.5C158.879 333.867 159.093 334.377 159.093 335.03C159.093 335.463 158.996 335.833 158.803 336.14C158.616 336.447 158.346 336.683 157.993 336.85C157.639 337.01 157.223 337.09 156.743 337.09L156.883 336.9H157.223C157.503 336.9 157.753 336.973 157.973 337.12C158.193 337.267 158.373 337.49 158.513 337.79L159.543 340H158.123L157.083 337.71C156.989 337.477 156.846 337.323 156.653 337.25C156.466 337.177 156.239 337.14 155.973 337.14H154.873V340H153.583ZM154.873 336.19H156.453C156.906 336.19 157.249 336.097 157.483 335.91C157.723 335.717 157.843 335.437 157.843 335.07C157.843 334.703 157.723 334.427 157.483 334.24C157.249 334.053 156.906 333.96 156.453 333.96H154.873V336.19ZM162.817 340.1C161.971 340.1 161.307 339.867 160.827 339.4C160.347 338.933 160.107 338.293 160.107 337.48C160.107 336.953 160.211 336.493 160.417 336.1C160.624 335.707 160.911 335.4 161.277 335.18C161.651 334.96 162.084 334.85 162.577 334.85C163.064 334.85 163.471 334.953 163.797 335.16C164.124 335.367 164.371 335.657 164.537 336.03C164.711 336.403 164.797 336.84 164.797 337.34V337.67H161.117V337.01H163.907L163.737 337.15C163.737 336.683 163.637 336.327 163.437 336.08C163.244 335.833 162.961 335.71 162.587 335.71C162.174 335.71 161.854 335.857 161.627 336.15C161.407 336.443 161.297 336.853 161.297 337.38V337.51C161.297 338.057 161.431 338.467 161.697 338.74C161.971 339.007 162.354 339.14 162.847 339.14C163.134 339.14 163.401 339.103 163.647 339.03C163.901 338.95 164.141 338.823 164.367 338.65L164.737 339.49C164.497 339.683 164.211 339.833 163.877 339.94C163.544 340.047 163.191 340.1 162.817 340.1ZM168.196 342.24C167.729 342.24 167.306 342.19 166.926 342.09C166.552 341.99 166.219 341.837 165.926 341.63L166.196 340.73C166.389 340.857 166.589 340.96 166.796 341.04C167.002 341.12 167.216 341.18 167.436 341.22C167.656 341.26 167.879 341.28 168.106 341.28C168.572 341.28 168.919 341.163 169.146 340.93C169.379 340.703 169.496 340.377 169.496 339.95V338.74H169.596C169.489 339.087 169.272 339.363 168.946 339.57C168.626 339.777 168.256 339.88 167.836 339.88C167.382 339.88 166.986 339.78 166.646 339.58C166.312 339.373 166.052 339.08 165.866 338.7C165.679 338.32 165.586 337.873 165.586 337.36C165.586 336.847 165.679 336.403 165.866 336.03C166.052 335.65 166.312 335.36 166.646 335.16C166.986 334.953 167.382 334.85 167.836 334.85C168.262 334.85 168.632 334.953 168.946 335.16C169.266 335.36 169.479 335.633 169.586 335.98L169.496 335.92L169.596 334.95H170.806C170.779 335.157 170.759 335.367 170.746 335.58C170.732 335.793 170.726 336.003 170.726 336.21V339.8C170.726 340.593 170.509 341.197 170.076 341.61C169.649 342.03 169.022 342.24 168.196 342.24ZM168.176 338.92C168.576 338.92 168.892 338.787 169.126 338.52C169.366 338.247 169.486 337.86 169.486 337.36C169.486 336.86 169.366 336.477 169.126 336.21C168.892 335.943 168.576 335.81 168.176 335.81C167.769 335.81 167.446 335.943 167.206 336.21C166.966 336.477 166.846 336.86 166.846 337.36C166.846 337.86 166.966 338.247 167.206 338.52C167.446 338.787 167.769 338.92 168.176 338.92ZM172.076 340V334.95H173.326V340H172.076ZM172.006 334V332.78H173.396V334H172.006ZM176.484 340.1C176.051 340.1 175.651 340.05 175.284 339.95C174.924 339.843 174.621 339.697 174.374 339.51L174.724 338.67C174.977 338.843 175.257 338.977 175.564 339.07C175.871 339.163 176.181 339.21 176.494 339.21C176.827 339.21 177.074 339.153 177.234 339.04C177.401 338.927 177.484 338.773 177.484 338.58C177.484 338.427 177.431 338.307 177.324 338.22C177.224 338.127 177.061 338.057 176.834 338.01L175.834 337.82C175.407 337.727 175.081 337.567 174.854 337.34C174.634 337.113 174.524 336.817 174.524 336.45C174.524 336.137 174.607 335.86 174.774 335.62C174.947 335.38 175.191 335.193 175.504 335.06C175.824 334.92 176.197 334.85 176.624 334.85C176.997 334.85 177.347 334.9 177.674 335C178.007 335.1 178.287 335.25 178.514 335.45L178.154 336.26C177.947 336.093 177.711 335.963 177.444 335.87C177.177 335.777 176.917 335.73 176.664 335.73C176.317 335.73 176.064 335.793 175.904 335.92C175.744 336.04 175.664 336.197 175.664 336.39C175.664 336.537 175.711 336.66 175.804 336.76C175.904 336.853 176.057 336.923 176.264 336.97L177.264 337.16C177.711 337.247 178.047 337.4 178.274 337.62C178.507 337.833 178.624 338.127 178.624 338.5C178.624 338.833 178.534 339.12 178.354 339.36C178.174 339.6 177.924 339.783 177.604 339.91C177.284 340.037 176.911 340.1 176.484 340.1ZM181.805 340.1C181.205 340.1 180.751 339.943 180.445 339.63C180.138 339.317 179.985 338.847 179.985 338.22V335.89H179.015V334.95H179.985V333.66L181.235 333.34V334.95H182.585V335.89H181.235V338.14C181.235 338.487 181.301 338.73 181.435 338.87C181.568 339.01 181.751 339.08 181.985 339.08C182.111 339.08 182.218 339.07 182.305 339.05C182.398 339.03 182.488 339.003 182.575 338.97V339.96C182.461 340.007 182.335 340.04 182.195 340.06C182.061 340.087 181.931 340.1 181.805 340.1ZM183.424 340V336.24C183.424 336.027 183.417 335.81 183.404 335.59C183.397 335.37 183.381 335.157 183.354 334.95H184.564L184.704 336.33H184.504C184.571 335.997 184.681 335.72 184.834 335.5C184.994 335.28 185.187 335.117 185.414 335.01C185.641 334.903 185.887 334.85 186.154 334.85C186.274 334.85 186.371 334.857 186.444 334.87C186.517 334.877 186.591 334.893 186.664 334.92L186.654 336.02C186.527 335.967 186.417 335.933 186.324 335.92C186.237 335.907 186.127 335.9 185.994 335.9C185.707 335.9 185.464 335.96 185.264 336.08C185.071 336.2 184.924 336.367 184.824 336.58C184.731 336.793 184.684 337.037 184.684 337.31V340H183.424ZM189.261 340.1C188.821 340.1 188.434 339.997 188.101 339.79C187.767 339.577 187.507 339.273 187.321 338.88C187.134 338.487 187.041 338.017 187.041 337.47C187.041 336.923 187.134 336.457 187.321 336.07C187.507 335.677 187.767 335.377 188.101 335.17C188.434 334.957 188.821 334.85 189.261 334.85C189.687 334.85 190.061 334.957 190.381 335.17C190.707 335.377 190.924 335.657 191.031 336.01H190.921L191.031 334.95H192.231C192.211 335.157 192.191 335.367 192.171 335.58C192.157 335.793 192.151 336.003 192.151 336.21V340H190.911L190.901 338.96H191.021C190.914 339.307 190.697 339.583 190.371 339.79C190.044 339.997 189.674 340.1 189.261 340.1ZM189.611 339.14C190.004 339.14 190.321 339.003 190.561 338.73C190.801 338.45 190.921 338.03 190.921 337.47C190.921 336.91 190.801 336.493 190.561 336.22C190.321 335.947 190.004 335.81 189.611 335.81C189.217 335.81 188.901 335.947 188.661 336.22C188.421 336.493 188.301 336.91 188.301 337.47C188.301 338.03 188.417 338.45 188.651 338.73C188.891 339.003 189.211 339.14 189.611 339.14ZM193.502 340V336.24C193.502 336.027 193.495 335.81 193.482 335.59C193.475 335.37 193.459 335.157 193.432 334.95H194.642L194.782 336.33H194.582C194.649 335.997 194.759 335.72 194.912 335.5C195.072 335.28 195.265 335.117 195.492 335.01C195.719 334.903 195.965 334.85 196.232 334.85C196.352 334.85 196.449 334.857 196.522 334.87C196.595 334.877 196.669 334.893 196.742 334.92L196.732 336.02C196.605 335.967 196.495 335.933 196.402 335.92C196.315 335.907 196.205 335.9 196.072 335.9C195.785 335.9 195.542 335.96 195.342 336.08C195.149 336.2 195.002 336.367 194.902 336.58C194.809 336.793 194.762 337.037 194.762 337.31V340H193.502ZM199.189 340.1C198.756 340.1 198.356 340.05 197.989 339.95C197.629 339.843 197.326 339.697 197.079 339.51L197.429 338.67C197.682 338.843 197.962 338.977 198.269 339.07C198.576 339.163 198.886 339.21 199.199 339.21C199.532 339.21 199.779 339.153 199.939 339.04C200.106 338.927 200.189 338.773 200.189 338.58C200.189 338.427 200.136 338.307 200.029 338.22C199.929 338.127 199.766 338.057 199.539 338.01L198.539 337.82C198.112 337.727 197.786 337.567 197.559 337.34C197.339 337.113 197.229 336.817 197.229 336.45C197.229 336.137 197.312 335.86 197.479 335.62C197.652 335.38 197.896 335.193 198.209 335.06C198.529 334.92 198.902 334.85 199.329 334.85C199.702 334.85 200.052 334.9 200.379 335C200.712 335.1 200.992 335.25 201.219 335.45L200.859 336.26C200.652 336.093 200.416 335.963 200.149 335.87C199.882 335.777 199.622 335.73 199.369 335.73C199.022 335.73 198.769 335.793 198.609 335.92C198.449 336.04 198.369 336.197 198.369 336.39C198.369 336.537 198.416 336.66 198.509 336.76C198.609 336.853 198.762 336.923 198.969 336.97L199.969 337.16C200.416 337.247 200.752 337.4 200.979 337.62C201.212 337.833 201.329 338.127 201.329 338.5C201.329 338.833 201.239 339.12 201.059 339.36C200.879 339.6 200.629 339.783 200.309 339.91C199.989 340.037 199.616 340.1 199.189 340.1ZM204.839 340.1C203.992 340.1 203.329 339.867 202.849 339.4C202.369 338.933 202.129 338.293 202.129 337.48C202.129 336.953 202.232 336.493 202.439 336.1C202.645 335.707 202.932 335.4 203.299 335.18C203.672 334.96 204.105 334.85 204.599 334.85C205.085 334.85 205.492 334.953 205.819 335.16C206.145 335.367 206.392 335.657 206.559 336.03C206.732 336.403 206.819 336.84 206.819 337.34V337.67H203.139V337.01H205.929L205.759 337.15C205.759 336.683 205.659 336.327 205.459 336.08C205.265 335.833 204.982 335.71 204.609 335.71C204.195 335.71 203.875 335.857 203.649 336.15C203.429 336.443 203.319 336.853 203.319 337.38V337.51C203.319 338.057 203.452 338.467 203.719 338.74C203.992 339.007 204.375 339.14 204.869 339.14C205.155 339.14 205.422 339.103 205.669 339.03C205.922 338.95 206.162 338.823 206.389 338.65L206.759 339.49C206.519 339.683 206.232 339.833 205.899 339.94C205.565 340.047 205.212 340.1 204.839 340.1Z" fill="#F5F4F2"/>
</g>
<rect x="110" y="272" width="140" height="23" rx="11.5" fill="#C8C4B7" fill-opacity="0.72"/>
<path d="M151.853 287.463C151.587 287.463 151.352 287.419 151.146 287.33C150.946 287.241 150.787 287.113 150.67 286.945C150.558 286.782 150.502 286.588 150.502 286.364C150.502 286.21 150.523 286.068 150.565 285.937C150.607 285.806 150.677 285.673 150.775 285.538C150.873 285.398 151.004 285.244 151.167 285.076C151.401 284.838 151.562 284.633 151.65 284.46C151.744 284.287 151.802 284.108 151.825 283.921L151.846 283.774H152.21V283.956C152.21 284.189 152.164 284.411 152.07 284.621C151.982 284.831 151.818 285.064 151.58 285.321C151.398 285.526 151.27 285.704 151.195 285.853C151.121 286.002 151.083 286.159 151.083 286.322C151.083 286.523 151.156 286.679 151.3 286.791C151.45 286.908 151.653 286.966 151.909 286.966C152.091 286.966 152.266 286.94 152.434 286.889C152.602 286.842 152.761 286.777 152.91 286.693V287.218C152.761 287.293 152.593 287.351 152.406 287.393C152.224 287.44 152.04 287.463 151.853 287.463ZM152.385 282.486V283.207H151.671V282.486H152.385ZM154.032 286V281.065H154.487L157.651 285.265H157.49V281.065H158.029V286H157.581L154.417 281.8H154.571V286H154.032ZM160.641 286.063C160.305 286.063 160.011 285.991 159.759 285.846C159.511 285.697 159.32 285.487 159.185 285.216C159.049 284.941 158.982 284.616 158.982 284.243C158.982 283.865 159.049 283.541 159.185 283.27C159.32 282.999 159.511 282.792 159.759 282.647C160.011 282.498 160.305 282.423 160.641 282.423C160.981 282.423 161.275 282.498 161.523 282.647C161.775 282.792 161.968 282.999 162.104 283.27C162.244 283.541 162.314 283.865 162.314 284.243C162.314 284.616 162.244 284.941 162.104 285.216C161.968 285.487 161.775 285.697 161.523 285.846C161.275 285.991 160.981 286.063 160.641 286.063ZM160.641 285.601C160.977 285.601 161.243 285.487 161.439 285.258C161.635 285.025 161.733 284.686 161.733 284.243C161.733 283.795 161.632 283.457 161.432 283.228C161.236 282.995 160.972 282.878 160.641 282.878C160.309 282.878 160.046 282.995 159.85 283.228C159.654 283.457 159.556 283.795 159.556 284.243C159.556 284.686 159.654 285.025 159.85 285.258C160.046 285.487 160.309 285.601 160.641 285.601ZM166.269 286.063C165.923 286.063 165.66 285.965 165.478 285.769C165.296 285.568 165.205 285.267 165.205 284.866V282.927H164.519V282.486H165.205V281.527L165.772 281.366V282.486H166.78V282.927H165.772V284.803C165.772 285.083 165.818 285.284 165.912 285.405C166.01 285.522 166.154 285.58 166.346 285.58C166.434 285.58 166.514 285.573 166.584 285.559C166.654 285.54 166.717 285.519 166.773 285.496V285.972C166.707 286 166.628 286.021 166.535 286.035C166.446 286.054 166.357 286.063 166.269 286.063ZM167.47 286V282.486H168.037V286H167.47ZM167.4 281.688V281.051H168.1V281.688H167.4ZM170.699 286.063C170.148 286.063 169.714 285.904 169.397 285.587C169.08 285.265 168.921 284.819 168.921 284.25C168.921 283.881 168.991 283.562 169.131 283.291C169.271 283.016 169.467 282.803 169.719 282.654C169.971 282.5 170.26 282.423 170.587 282.423C170.909 282.423 171.18 282.491 171.399 282.626C171.618 282.761 171.786 282.955 171.903 283.207C172.02 283.454 172.078 283.748 172.078 284.089V284.299H169.355V283.942H171.707L171.588 284.033C171.588 283.66 171.504 283.368 171.336 283.158C171.168 282.948 170.918 282.843 170.587 282.843C170.237 282.843 169.964 282.967 169.768 283.214C169.572 283.457 169.474 283.786 169.474 284.201V284.264C169.474 284.703 169.581 285.036 169.796 285.265C170.015 285.489 170.321 285.601 170.713 285.601C170.923 285.601 171.119 285.571 171.301 285.51C171.488 285.445 171.665 285.34 171.833 285.195L172.029 285.594C171.875 285.743 171.679 285.86 171.441 285.944C171.208 286.023 170.96 286.063 170.699 286.063ZM172.946 286V283.298C172.946 283.167 172.939 283.034 172.925 282.899C172.915 282.759 172.904 282.621 172.89 282.486H173.436L173.506 283.256H173.422C173.524 282.985 173.688 282.78 173.912 282.64C174.14 282.495 174.404 282.423 174.703 282.423C175.118 282.423 175.431 282.535 175.641 282.759C175.855 282.978 175.963 283.326 175.963 283.802V286H175.396V283.837C175.396 283.506 175.328 283.265 175.193 283.116C175.062 282.962 174.857 282.885 174.577 282.885C174.25 282.885 173.991 282.985 173.8 283.186C173.608 283.387 173.513 283.655 173.513 283.991V286H172.946ZM178.608 286.063C178.057 286.063 177.623 285.904 177.306 285.587C176.989 285.265 176.83 284.819 176.83 284.25C176.83 283.881 176.9 283.562 177.04 283.291C177.18 283.016 177.376 282.803 177.628 282.654C177.88 282.5 178.169 282.423 178.496 282.423C178.818 282.423 179.089 282.491 179.308 282.626C179.527 282.761 179.695 282.955 179.812 283.207C179.929 283.454 179.987 283.748 179.987 284.089V284.299H177.264V283.942H179.616L179.497 284.033C179.497 283.66 179.413 283.368 179.245 283.158C179.077 282.948 178.827 282.843 178.496 282.843C178.146 282.843 177.873 282.967 177.677 283.214C177.481 283.457 177.383 283.786 177.383 284.201V284.264C177.383 284.703 177.49 285.036 177.705 285.265C177.924 285.489 178.23 285.601 178.622 285.601C178.832 285.601 179.028 285.571 179.21 285.51C179.397 285.445 179.574 285.34 179.742 285.195L179.938 285.594C179.784 285.743 179.588 285.86 179.35 285.944C179.117 286.023 178.869 286.063 178.608 286.063ZM182.024 286.063C181.744 286.063 181.482 286.026 181.24 285.951C180.997 285.872 180.796 285.762 180.638 285.622L180.834 285.223C181.006 285.358 181.193 285.459 181.394 285.524C181.599 285.589 181.811 285.622 182.031 285.622C182.311 285.622 182.521 285.573 182.661 285.475C182.805 285.372 182.878 285.232 182.878 285.055C182.878 284.92 182.831 284.812 182.738 284.733C182.649 284.649 182.502 284.584 182.297 284.537L181.646 284.404C181.347 284.339 181.123 284.229 180.974 284.075C180.824 283.916 180.75 283.716 180.75 283.473C180.75 283.268 180.803 283.088 180.911 282.934C181.018 282.775 181.174 282.652 181.38 282.563C181.585 282.47 181.825 282.423 182.101 282.423C182.357 282.423 182.593 282.463 182.808 282.542C183.027 282.617 183.209 282.726 183.354 282.871L183.151 283.263C183.011 283.128 182.85 283.027 182.668 282.962C182.49 282.892 182.306 282.857 182.115 282.857C181.839 282.857 181.632 282.913 181.492 283.025C181.356 283.132 181.289 283.275 181.289 283.452C181.289 283.587 181.331 283.699 181.415 283.788C181.503 283.872 181.639 283.935 181.821 283.977L182.472 284.11C182.789 284.18 183.025 284.29 183.179 284.439C183.337 284.584 183.417 284.78 183.417 285.027C183.417 285.237 183.358 285.421 183.242 285.58C183.125 285.734 182.962 285.853 182.752 285.937C182.546 286.021 182.304 286.063 182.024 286.063ZM187.63 286.063C187.284 286.063 186.983 285.988 186.727 285.839C186.475 285.69 186.279 285.477 186.139 285.202C186.003 284.927 185.936 284.6 185.936 284.222C185.936 283.839 186.006 283.515 186.146 283.249C186.286 282.978 186.482 282.773 186.734 282.633C186.99 282.493 187.289 282.423 187.63 282.423C187.854 282.423 188.071 282.463 188.281 282.542C188.495 282.621 188.673 282.733 188.813 282.878L188.61 283.284C188.47 283.149 188.316 283.048 188.148 282.983C187.984 282.918 187.823 282.885 187.665 282.885C187.301 282.885 187.018 282.999 186.818 283.228C186.617 283.457 186.517 283.79 186.517 284.229C186.517 284.663 186.617 284.999 186.818 285.237C187.018 285.475 187.301 285.594 187.665 285.594C187.819 285.594 187.977 285.564 188.141 285.503C188.309 285.442 188.465 285.342 188.61 285.202L188.813 285.601C188.668 285.75 188.488 285.865 188.274 285.944C188.059 286.023 187.844 286.063 187.63 286.063ZM190.857 286.063C190.442 286.063 190.127 285.949 189.912 285.72C189.702 285.491 189.597 285.141 189.597 284.67V282.486H190.164V284.656C190.164 284.978 190.23 285.216 190.36 285.37C190.491 285.519 190.694 285.594 190.969 285.594C191.277 285.594 191.525 285.494 191.711 285.293C191.898 285.092 191.991 284.824 191.991 284.488V282.486H192.558V286H192.005V285.209H192.096C191.998 285.48 191.84 285.69 191.62 285.839C191.406 285.988 191.151 286.063 190.857 286.063ZM195.219 286.063C194.669 286.063 194.235 285.904 193.917 285.587C193.6 285.265 193.441 284.819 193.441 284.25C193.441 283.881 193.511 283.562 193.651 283.291C193.791 283.016 193.987 282.803 194.239 282.654C194.491 282.5 194.781 282.423 195.107 282.423C195.429 282.423 195.7 282.491 195.919 282.626C196.139 282.761 196.307 282.955 196.423 283.207C196.54 283.454 196.598 283.748 196.598 284.089V284.299H193.875V283.942H196.227L196.108 284.033C196.108 283.66 196.024 283.368 195.856 283.158C195.688 282.948 195.439 282.843 195.107 282.843C194.757 282.843 194.484 282.967 194.288 283.214C194.092 283.457 193.994 283.786 193.994 284.201V284.264C193.994 284.703 194.102 285.036 194.316 285.265C194.536 285.489 194.841 285.601 195.233 285.601C195.443 285.601 195.639 285.571 195.821 285.51C196.008 285.445 196.185 285.34 196.353 285.195L196.549 285.594C196.395 285.743 196.199 285.86 195.961 285.944C195.728 286.023 195.481 286.063 195.219 286.063ZM197.466 286V283.298C197.466 283.167 197.459 283.034 197.445 282.899C197.436 282.759 197.424 282.621 197.41 282.486H197.956L198.026 283.256H197.942C198.045 282.985 198.208 282.78 198.432 282.64C198.661 282.495 198.924 282.423 199.223 282.423C199.638 282.423 199.951 282.535 200.161 282.759C200.376 282.978 200.483 283.326 200.483 283.802V286H199.916V283.837C199.916 283.506 199.848 283.265 199.713 283.116C199.582 282.962 199.377 282.885 199.097 282.885C198.77 282.885 198.511 282.985 198.32 283.186C198.129 283.387 198.033 283.655 198.033 283.991V286H197.466ZM202.814 286.063C202.468 286.063 202.205 285.965 202.023 285.769C201.841 285.568 201.75 285.267 201.75 284.866V282.927H201.064V282.486H201.75V281.527L202.317 281.366V282.486H203.325V282.927H202.317V284.803C202.317 285.083 202.363 285.284 202.457 285.405C202.555 285.522 202.699 285.58 202.891 285.58C202.979 285.58 203.059 285.573 203.129 285.559C203.199 285.54 203.262 285.519 203.318 285.496V285.972C203.252 286 203.173 286.021 203.08 286.035C202.991 286.054 202.902 286.063 202.814 286.063ZM205.352 286.063C205.039 286.063 204.766 285.991 204.533 285.846C204.3 285.697 204.118 285.487 203.987 285.216C203.861 284.945 203.798 284.621 203.798 284.243C203.798 283.86 203.861 283.534 203.987 283.263C204.118 282.992 204.3 282.785 204.533 282.64C204.766 282.495 205.039 282.423 205.352 282.423C205.669 282.423 205.942 282.505 206.171 282.668C206.404 282.827 206.558 283.044 206.633 283.319H206.549L206.626 282.486H207.172C207.158 282.621 207.144 282.759 207.13 282.899C207.121 283.034 207.116 283.167 207.116 283.298V286H206.549V285.174H206.626C206.551 285.449 206.397 285.666 206.164 285.825C205.931 285.984 205.66 286.063 205.352 286.063ZM205.464 285.601C205.8 285.601 206.066 285.487 206.262 285.258C206.458 285.025 206.556 284.686 206.556 284.243C206.556 283.795 206.458 283.457 206.262 283.228C206.066 282.995 205.8 282.878 205.464 282.878C205.133 282.878 204.867 282.995 204.666 283.228C204.47 283.457 204.372 283.795 204.372 284.243C204.372 284.686 204.47 285.025 204.666 285.258C204.867 285.487 205.133 285.601 205.464 285.601ZM208.788 284.712V284.509C208.788 284.271 208.832 284.049 208.921 283.844C209.014 283.634 209.178 283.398 209.411 283.137C209.593 282.936 209.721 282.761 209.796 282.612C209.871 282.458 209.908 282.302 209.908 282.143C209.908 281.942 209.836 281.786 209.691 281.674C209.546 281.557 209.346 281.499 209.089 281.499C208.907 281.499 208.732 281.525 208.564 281.576C208.396 281.623 208.235 281.688 208.081 281.772V281.247C208.235 281.168 208.403 281.107 208.585 281.065C208.772 281.023 208.958 281.002 209.145 281.002C209.411 281.002 209.644 281.046 209.845 281.135C210.046 281.219 210.202 281.343 210.314 281.506C210.431 281.665 210.489 281.861 210.489 282.094C210.489 282.243 210.466 282.388 210.419 282.528C210.372 282.663 210.3 282.801 210.202 282.941C210.104 283.076 209.978 283.226 209.824 283.389C209.595 283.622 209.434 283.828 209.341 284.005C209.248 284.178 209.192 284.355 209.173 284.537L209.152 284.712H208.788ZM208.606 286V285.286H209.327V286H208.606Z" fill="black"/>
<path d="M162.712 29L165.583 22.655H166.555L169.462 29H168.283L167.509 27.218L167.977 27.533H164.17L164.656 27.218L163.882 29H162.712ZM166.06 23.897L164.791 26.903L164.557 26.624H167.581L167.392 26.903L166.096 23.897H166.06ZM172.118 29.09C171.65 29.09 171.239 28.994 170.885 28.802C170.537 28.61 170.267 28.337 170.075 27.983C169.883 27.623 169.787 27.197 169.787 26.705C169.787 26.213 169.883 25.793 170.075 25.445C170.273 25.097 170.546 24.83 170.894 24.644C171.242 24.458 171.65 24.365 172.118 24.365C172.418 24.365 172.709 24.413 172.991 24.509C173.279 24.599 173.513 24.731 173.693 24.905L173.351 25.688C173.189 25.538 173.006 25.427 172.802 25.355C172.604 25.277 172.409 25.238 172.217 25.238C171.815 25.238 171.5 25.364 171.272 25.616C171.05 25.868 170.939 26.234 170.939 26.714C170.939 27.194 171.05 27.563 171.272 27.821C171.5 28.079 171.815 28.208 172.217 28.208C172.403 28.208 172.595 28.172 172.793 28.1C172.997 28.028 173.183 27.917 173.351 27.767L173.693 28.541C173.507 28.715 173.27 28.85 172.982 28.946C172.7 29.042 172.412 29.09 172.118 29.09ZM176.565 29.09C176.097 29.09 175.686 28.994 175.332 28.802C174.984 28.61 174.714 28.337 174.522 27.983C174.33 27.623 174.234 27.197 174.234 26.705C174.234 26.213 174.33 25.793 174.522 25.445C174.72 25.097 174.993 24.83 175.341 24.644C175.689 24.458 176.097 24.365 176.565 24.365C176.865 24.365 177.156 24.413 177.438 24.509C177.726 24.599 177.96 24.731 178.14 24.905L177.798 25.688C177.636 25.538 177.453 25.427 177.249 25.355C177.051 25.277 176.856 25.238 176.664 25.238C176.262 25.238 175.947 25.364 175.719 25.616C175.497 25.868 175.386 26.234 175.386 26.714C175.386 27.194 175.497 27.563 175.719 27.821C175.947 28.079 176.262 28.208 176.664 28.208C176.85 28.208 177.042 28.172 177.24 28.1C177.444 28.028 177.63 27.917 177.798 27.767L178.14 28.541C177.954 28.715 177.717 28.85 177.429 28.946C177.147 29.042 176.859 29.09 176.565 29.09ZM181.121 29.09C180.359 29.09 179.762 28.88 179.33 28.46C178.898 28.04 178.682 27.464 178.682 26.732C178.682 26.258 178.775 25.844 178.961 25.49C179.147 25.136 179.405 24.86 179.735 24.662C180.071 24.464 180.461 24.365 180.905 24.365C181.343 24.365 181.709 24.458 182.003 24.644C182.297 24.83 182.519 25.091 182.669 25.427C182.825 25.763 182.903 26.156 182.903 26.606V26.903H179.591V26.309H182.102L181.949 26.435C181.949 26.015 181.859 25.694 181.679 25.472C181.505 25.25 181.25 25.139 180.914 25.139C180.542 25.139 180.254 25.271 180.05 25.535C179.852 25.799 179.753 26.168 179.753 26.642V26.759C179.753 27.251 179.873 27.62 180.113 27.866C180.359 28.106 180.704 28.226 181.148 28.226C181.406 28.226 181.646 28.193 181.868 28.127C182.096 28.055 182.312 27.941 182.516 27.785L182.849 28.541C182.633 28.715 182.375 28.85 182.075 28.946C181.775 29.042 181.457 29.09 181.121 29.09ZM185.619 29.09C185.223 29.09 184.872 28.997 184.566 28.811C184.266 28.619 184.032 28.346 183.864 27.992C183.696 27.638 183.612 27.215 183.612 26.723C183.612 26.231 183.696 25.811 183.864 25.463C184.032 25.109 184.266 24.839 184.566 24.653C184.872 24.461 185.223 24.365 185.619 24.365C185.997 24.365 186.33 24.458 186.618 24.644C186.912 24.824 187.107 25.07 187.203 25.382H187.086V22.376H188.211V29H187.104V28.037H187.212C187.116 28.361 186.921 28.619 186.627 28.811C186.339 28.997 186.003 29.09 185.619 29.09ZM185.934 28.226C186.288 28.226 186.573 28.103 186.789 27.857C187.005 27.605 187.113 27.227 187.113 26.723C187.113 26.219 187.005 25.844 186.789 25.598C186.573 25.352 186.288 25.229 185.934 25.229C185.58 25.229 185.292 25.352 185.07 25.598C184.854 25.844 184.746 26.219 184.746 26.723C184.746 27.227 184.854 27.605 185.07 27.857C185.292 28.103 185.58 28.226 185.934 28.226ZM191.632 29.09C190.87 29.09 190.273 28.88 189.841 28.46C189.409 28.04 189.193 27.464 189.193 26.732C189.193 26.258 189.286 25.844 189.472 25.49C189.658 25.136 189.916 24.86 190.246 24.662C190.582 24.464 190.972 24.365 191.416 24.365C191.854 24.365 192.22 24.458 192.514 24.644C192.808 24.83 193.03 25.091 193.18 25.427C193.336 25.763 193.414 26.156 193.414 26.606V26.903H190.102V26.309H192.613L192.46 26.435C192.46 26.015 192.37 25.694 192.19 25.472C192.016 25.25 191.761 25.139 191.425 25.139C191.053 25.139 190.765 25.271 190.561 25.535C190.363 25.799 190.264 26.168 190.264 26.642V26.759C190.264 27.251 190.384 27.62 190.624 27.866C190.87 28.106 191.215 28.226 191.659 28.226C191.917 28.226 192.157 28.193 192.379 28.127C192.607 28.055 192.823 27.941 193.027 27.785L193.36 28.541C193.144 28.715 192.886 28.85 192.586 28.946C192.286 29.042 191.968 29.09 191.632 29.09ZM194.358 29V25.616C194.358 25.424 194.352 25.229 194.34 25.031C194.334 24.833 194.319 24.641 194.295 24.455H195.384L195.51 25.697H195.33C195.39 25.397 195.489 25.148 195.627 24.95C195.771 24.752 195.945 24.605 196.149 24.509C196.353 24.413 196.575 24.365 196.815 24.365C196.923 24.365 197.01 24.371 197.076 24.383C197.142 24.389 197.208 24.404 197.274 24.428L197.265 25.418C197.151 25.37 197.052 25.34 196.968 25.328C196.89 25.316 196.791 25.31 196.671 25.31C196.413 25.31 196.194 25.364 196.014 25.472C195.84 25.58 195.708 25.73 195.618 25.922C195.534 26.114 195.492 26.333 195.492 26.579V29H194.358Z" fill="black"/>
<rect x="30" y="105" width="300" height="42" rx="21" fill="#F5F4F2"/>
<path opacity="0.5" d="M48.765 129.063C48.2703 129.063 47.8503 128.96 47.505 128.755C47.1597 128.55 46.8937 128.258 46.707 127.88C46.525 127.502 46.434 127.052 46.434 126.529C46.434 126.006 46.525 125.558 46.707 125.185C46.8937 124.807 47.1597 124.515 47.505 124.31C47.8503 124.105 48.2703 124.002 48.765 124.002C49.115 124.002 49.4277 124.056 49.703 124.163C49.9783 124.27 50.2187 124.427 50.424 124.632L50.207 125.094C49.983 124.898 49.7613 124.756 49.542 124.667C49.3227 124.574 49.066 124.527 48.772 124.527C48.2073 124.527 47.778 124.702 47.484 125.052C47.19 125.402 47.043 125.894 47.043 126.529C47.043 127.164 47.19 127.658 47.484 128.013C47.778 128.363 48.2073 128.538 48.772 128.538C49.066 128.538 49.3227 128.494 49.542 128.405C49.7613 128.312 49.983 128.165 50.207 127.964L50.424 128.433C50.2187 128.634 49.9783 128.79 49.703 128.902C49.4277 129.009 49.115 129.063 48.765 129.063ZM52.5341 129.063C52.1981 129.063 51.9041 128.991 51.6521 128.846C51.4047 128.697 51.2134 128.487 51.0781 128.216C50.9427 127.941 50.8751 127.616 50.8751 127.243C50.8751 126.865 50.9427 126.541 51.0781 126.27C51.2134 125.999 51.4047 125.792 51.6521 125.647C51.9041 125.498 52.1981 125.423 52.5341 125.423C52.8747 125.423 53.1687 125.498 53.4161 125.647C53.6681 125.792 53.8617 125.999 53.9971 126.27C54.1371 126.541 54.2071 126.865 54.2071 127.243C54.2071 127.616 54.1371 127.941 53.9971 128.216C53.8617 128.487 53.6681 128.697 53.4161 128.846C53.1687 128.991 52.8747 129.063 52.5341 129.063ZM52.5341 128.601C52.8701 128.601 53.1361 128.487 53.3321 128.258C53.5281 128.025 53.6261 127.686 53.6261 127.243C53.6261 126.795 53.5257 126.457 53.3251 126.228C53.1291 125.995 52.8654 125.878 52.5341 125.878C52.2027 125.878 51.9391 125.995 51.7431 126.228C51.5471 126.457 51.4491 126.795 51.4491 127.243C51.4491 127.686 51.5471 128.025 51.7431 128.258C51.9391 128.487 52.2027 128.601 52.5341 128.601ZM55.0911 129V126.298C55.0911 126.167 55.0841 126.034 55.0701 125.899C55.0608 125.759 55.0491 125.621 55.0351 125.486H55.5811L55.6511 126.256H55.5671C55.6698 125.985 55.8331 125.78 56.0571 125.64C56.2858 125.495 56.5494 125.423 56.8481 125.423C57.2634 125.423 57.5761 125.535 57.7861 125.759C58.0008 125.978 58.1081 126.326 58.1081 126.802V129H57.5411V126.837C57.5411 126.506 57.4734 126.265 57.3381 126.116C57.2074 125.962 57.0021 125.885 56.7221 125.885C56.3954 125.885 56.1364 125.985 55.9451 126.186C55.7538 126.387 55.6581 126.655 55.6581 126.991V129H55.0911ZM60.4386 129.063C60.0933 129.063 59.8296 128.965 59.6476 128.769C59.4656 128.568 59.3746 128.267 59.3746 127.866V125.927H58.6886V125.486H59.3746V124.527L59.9416 124.366V125.486H60.9496V125.927H59.9416V127.803C59.9416 128.083 59.9883 128.284 60.0816 128.405C60.1796 128.522 60.3243 128.58 60.5156 128.58C60.6043 128.58 60.6836 128.573 60.7536 128.559C60.8236 128.54 60.8866 128.519 60.9426 128.496V128.972C60.8773 129 60.798 129.021 60.7046 129.035C60.616 129.054 60.5273 129.063 60.4386 129.063ZM61.6259 129V126.333C61.6259 126.193 61.6212 126.051 61.6119 125.906C61.6072 125.761 61.5979 125.621 61.5839 125.486H62.1299L62.1999 126.34L62.1019 126.347C62.1486 126.137 62.2302 125.964 62.3469 125.829C62.4636 125.694 62.6012 125.593 62.7599 125.528C62.9186 125.458 63.0842 125.423 63.2569 125.423C63.3269 125.423 63.3876 125.425 63.4389 125.43C63.4949 125.435 63.5462 125.446 63.5929 125.465L63.5859 125.969C63.5159 125.946 63.4506 125.932 63.3899 125.927C63.3339 125.918 63.2686 125.913 63.1939 125.913C62.9886 125.913 62.8089 125.962 62.6549 126.06C62.5056 126.158 62.3912 126.284 62.3119 126.438C62.2372 126.592 62.1999 126.755 62.1999 126.928V129H61.6259ZM65.4857 129.063C65.173 129.063 64.9 128.991 64.6667 128.846C64.4334 128.697 64.2514 128.487 64.1207 128.216C63.9947 127.945 63.9317 127.621 63.9317 127.243C63.9317 126.86 63.9947 126.534 64.1207 126.263C64.2514 125.992 64.4334 125.785 64.6667 125.64C64.9 125.495 65.173 125.423 65.4857 125.423C65.803 125.423 66.076 125.505 66.3047 125.668C66.538 125.827 66.692 126.044 66.7667 126.319H66.6827L66.7597 125.486H67.3057C67.2917 125.621 67.2777 125.759 67.2637 125.899C67.2544 126.034 67.2497 126.167 67.2497 126.298V129H66.6827V128.174H66.7597C66.685 128.449 66.531 128.666 66.2977 128.825C66.0644 128.984 65.7937 129.063 65.4857 129.063ZM65.5977 128.601C65.9337 128.601 66.1997 128.487 66.3957 128.258C66.5917 128.025 66.6897 127.686 66.6897 127.243C66.6897 126.795 66.5917 126.457 66.3957 126.228C66.1997 125.995 65.9337 125.878 65.5977 125.878C65.2664 125.878 65.0004 125.995 64.7997 126.228C64.6037 126.457 64.5057 126.795 64.5057 127.243C64.5057 127.686 64.6037 128.025 64.7997 128.258C65.0004 128.487 65.2664 128.601 65.5977 128.601ZM69.515 129.063C69.235 129.063 68.9736 129.026 68.731 128.951C68.4883 128.872 68.2876 128.762 68.129 128.622L68.325 128.223C68.4976 128.358 68.6843 128.459 68.885 128.524C69.0903 128.589 69.3026 128.622 69.522 128.622C69.802 128.622 70.012 128.573 70.152 128.475C70.2966 128.372 70.369 128.232 70.369 128.055C70.369 127.92 70.3223 127.812 70.229 127.733C70.1403 127.649 69.9933 127.584 69.788 127.537L69.137 127.404C68.8383 127.339 68.6143 127.229 68.465 127.075C68.3156 126.916 68.241 126.716 68.241 126.473C68.241 126.268 68.2946 126.088 68.402 125.934C68.5093 125.775 68.6656 125.652 68.871 125.563C69.0763 125.47 69.3166 125.423 69.592 125.423C69.8486 125.423 70.0843 125.463 70.299 125.542C70.5183 125.617 70.7003 125.726 70.845 125.871L70.642 126.263C70.502 126.128 70.341 126.027 70.159 125.962C69.9816 125.892 69.7973 125.857 69.606 125.857C69.3306 125.857 69.123 125.913 68.983 126.025C68.8476 126.132 68.78 126.275 68.78 126.452C68.78 126.587 68.822 126.699 68.906 126.788C68.9946 126.872 69.13 126.935 69.312 126.977L69.963 127.11C70.2803 127.18 70.516 127.29 70.67 127.439C70.8286 127.584 70.908 127.78 70.908 128.027C70.908 128.237 70.8496 128.421 70.733 128.58C70.6163 128.734 70.453 128.853 70.243 128.937C70.0376 129.021 69.795 129.063 69.515 129.063ZM73.3796 129.063C72.829 129.063 72.395 128.904 72.0776 128.587C71.7603 128.265 71.6016 127.819 71.6016 127.25C71.6016 126.881 71.6716 126.562 71.8116 126.291C71.9516 126.016 72.1476 125.803 72.3996 125.654C72.6516 125.5 72.941 125.423 73.2676 125.423C73.5896 125.423 73.8603 125.491 74.0796 125.626C74.299 125.761 74.467 125.955 74.5836 126.207C74.7003 126.454 74.7586 126.748 74.7586 127.089V127.299H72.0356V126.942H74.3876L74.2686 127.033C74.2686 126.66 74.1846 126.368 74.0166 126.158C73.8486 125.948 73.599 125.843 73.2676 125.843C72.9176 125.843 72.6446 125.967 72.4486 126.214C72.2526 126.457 72.1546 126.786 72.1546 127.201V127.264C72.1546 127.703 72.262 128.036 72.4766 128.265C72.696 128.489 73.0016 128.601 73.3936 128.601C73.6036 128.601 73.7996 128.571 73.9816 128.51C74.1683 128.445 74.3456 128.34 74.5136 128.195L74.7096 128.594C74.5556 128.743 74.3596 128.86 74.1216 128.944C73.8883 129.023 73.641 129.063 73.3796 129.063ZM75.6262 129V126.298C75.6262 126.167 75.6192 126.034 75.6052 125.899C75.5959 125.759 75.5842 125.621 75.5702 125.486H76.1162L76.1862 126.256H76.1022C76.2049 125.985 76.3682 125.78 76.5922 125.64C76.8209 125.495 77.0846 125.423 77.3832 125.423C77.7986 125.423 78.1112 125.535 78.3212 125.759C78.5359 125.978 78.6432 126.326 78.6432 126.802V129H78.0762V126.837C78.0762 126.506 78.0086 126.265 77.8732 126.116C77.7426 125.962 77.5372 125.885 77.2572 125.885C76.9306 125.885 76.6716 125.985 76.4802 126.186C76.2889 126.387 76.1932 126.655 76.1932 126.991V129H75.6262ZM76.1792 124.87L75.8572 124.849C75.8806 124.55 75.9599 124.322 76.0952 124.163C76.2306 124 76.4009 123.918 76.6062 123.918C76.7089 123.918 76.8022 123.941 76.8862 123.988C76.9749 124.035 77.0752 124.107 77.1872 124.205C77.2899 124.298 77.3716 124.364 77.4322 124.401C77.4976 124.434 77.5606 124.45 77.6212 124.45C77.8592 124.45 78.0039 124.266 78.0552 123.897L78.3772 123.918C78.3539 124.217 78.2746 124.448 78.1392 124.611C78.0086 124.77 77.8406 124.849 77.6352 124.849C77.5372 124.849 77.4439 124.826 77.3552 124.779C77.2666 124.732 77.1639 124.658 77.0472 124.555C76.9492 124.466 76.8676 124.406 76.8022 124.373C76.7416 124.336 76.6786 124.317 76.6132 124.317C76.4919 124.317 76.3939 124.366 76.3192 124.464C76.2492 124.557 76.2026 124.693 76.1792 124.87ZM81.0648 129.063C80.7521 129.063 80.4791 128.991 80.2458 128.846C80.0125 128.697 79.8305 128.487 79.6998 128.216C79.5738 127.945 79.5108 127.621 79.5108 127.243C79.5108 126.86 79.5738 126.534 79.6998 126.263C79.8305 125.992 80.0125 125.785 80.2458 125.64C80.4791 125.495 80.7521 125.423 81.0648 125.423C81.3821 125.423 81.6551 125.505 81.8838 125.668C82.1171 125.827 82.2711 126.044 82.3458 126.319H82.2618L82.3388 125.486H82.8848C82.8708 125.621 82.8568 125.759 82.8428 125.899C82.8335 126.034 82.8288 126.167 82.8288 126.298V129H82.2618V128.174H82.3388C82.2641 128.449 82.1101 128.666 81.8768 128.825C81.6435 128.984 81.3728 129.063 81.0648 129.063ZM81.1768 128.601C81.5128 128.601 81.7788 128.487 81.9748 128.258C82.1708 128.025 82.2688 127.686 82.2688 127.243C82.2688 126.795 82.1708 126.457 81.9748 126.228C81.7788 125.995 81.5128 125.878 81.1768 125.878C80.8455 125.878 80.5795 125.995 80.3788 126.228C80.1828 126.457 80.0848 126.795 80.0848 127.243C80.0848 127.686 80.1828 128.025 80.3788 128.258C80.5795 128.487 80.8455 128.601 81.1768 128.601Z" fill="black"/>
<defs>
<filter id="filter0_d_249_904" x="86" y="168.353" width="188" height="50.353" filterUnits="userSpaceOnUse" color-interpolation-filters="sRGB">
<feFlood flood-opacity="0" result="BackgroundImageFix"/>
<feColorMatrix in="SourceAlpha" type="matrix" values="0 0 0 0 0 0 0 0 0 0 0 0 0 0 0 0 0 0 127 0" result="hardAlpha"/>
<feOffset dy="4"/>
<feGaussianBlur stdDeviation="2"/>
<feComposite in2="hardAlpha" operator="out"/>
<feColorMatrix type="matrix" values="0 0 0 0 0 0 0 0 0 0 0 0 0 0 0 0 0 0 0.25 0"/>
<feBlend mode="normal" in2="BackgroundImageFix" result="effect1_dropShadow_249_904"/>
<feBlend mode="normal" in="SourceGraphic" in2="effect1_dropShadow_249_904" result="shape"/>
</filter>
<filter id="filter1_d_249_904" x="51" y="316" width="258" height="48" filterUnits="userSpaceOnUse" color-interpolation-filters="sRGB">
<feFlood flood-opacity="0" result="BackgroundImageFix"/>
<feColorMatrix in="SourceAlpha" type="matrix" values="0 0 0 0 0 0 0 0 0 0 0 0 0 0 0 0 0 0 127 0" result="hardAlpha"/>
<feOffset dy="4"/>
<feGaussianBlur stdDeviation="2"/>
<feComposite in2="hardAlpha" operator="out"/>
<feColorMatrix type="matrix" values="0 0 0 0 0 0 0 0 0 0 0 0 0 0 0 0 0 0 0.25 0"/>
<feBlend mode="normal" in2="BackgroundImageFix" result="effect1_dropShadow_249_904"/>
<feBlend mode="normal" in="SourceGraphic" in2="effect1_dropShadow_249_904" result="shape"/>
</filter>
</defs>
</svg>
