<svg width="1280" height="800" viewBox="0 0 1280 800" fill="none" xmlns="http://www.w3.org/2000/svg">
<rect width="1280" height="800" fill="white"/>
<path d="M551.157 106V89.08H558.549C560.405 89.08 561.837 89.52 562.845 90.4C563.869 91.28 564.381 92.504 564.381 94.072C564.381 95.112 564.149 96 563.685 96.736C563.237 97.472 562.589 98.04 561.741 98.44C560.893 98.824 559.893 99.016 558.741 99.016L559.077 98.56H559.893C560.565 98.56 561.165 98.736 561.693 99.088C562.221 99.44 562.653 99.976 562.989 100.696L565.461 106H562.053L559.557 100.504C559.333 99.944 558.989 99.576 558.525 99.4C558.077 99.224 557.533 99.136 556.893 99.136H554.253V106H551.157ZM554.253 96.856H558.045C559.133 96.856 559.957 96.632 560.517 96.184C561.093 95.72 561.381 95.048 561.381 94.168C561.381 93.288 561.093 92.624 560.517 92.176C559.957 91.728 559.133 91.504 558.045 91.504H554.253V96.856ZM573.319 106.24C571.287 106.24 569.695 105.68 568.543 104.56C567.391 103.44 566.815 101.904 566.815 99.952C566.815 98.688 567.063 97.584 567.559 96.64C568.055 95.696 568.743 94.96 569.623 94.432C570.519 93.904 571.559 93.64 572.743 93.64C573.911 93.64 574.887 93.888 575.671 94.384C576.455 94.88 577.047 95.576 577.447 96.472C577.863 97.368 578.071 98.416 578.071 99.616V100.408H569.239V98.824H575.935L575.527 99.16C575.527 98.04 575.287 97.184 574.807 96.592C574.343 96 573.663 95.704 572.767 95.704C571.775 95.704 571.007 96.056 570.463 96.76C569.935 97.464 569.671 98.448 569.671 99.712V100.024C569.671 101.336 569.991 102.32 570.631 102.976C571.287 103.616 572.207 103.936 573.391 103.936C574.079 103.936 574.719 103.848 575.311 103.672C575.919 103.48 576.495 103.176 577.039 102.76L577.927 104.776C577.351 105.24 576.663 105.6 575.863 105.856C575.063 106.112 574.215 106.24 573.319 106.24ZM586.228 111.376C585.108 111.376 584.092 111.256 583.18 111.016C582.284 110.776 581.484 110.408 580.78 109.912L581.428 107.752C581.892 108.056 582.372 108.304 582.868 108.496C583.364 108.688 583.876 108.832 584.404 108.928C584.932 109.024 585.468 109.072 586.012 109.072C587.132 109.072 587.964 108.792 588.508 108.232C589.068 107.688 589.348 106.904 589.348 105.88V102.976H589.588C589.332 103.808 588.812 104.472 588.028 104.968C587.26 105.464 586.372 105.712 585.364 105.712C584.276 105.712 583.324 105.472 582.508 104.992C581.708 104.496 581.084 103.792 580.636 102.88C580.188 101.968 579.964 100.896 579.964 99.664C579.964 98.432 580.188 97.368 580.636 96.472C581.084 95.56 581.708 94.864 582.508 94.384C583.324 93.888 584.276 93.64 585.364 93.64C586.388 93.64 587.276 93.888 588.028 94.384C588.796 94.864 589.308 95.52 589.564 96.352L589.348 96.208L589.588 93.88H592.492C592.428 94.376 592.38 94.88 592.348 95.392C592.316 95.904 592.3 96.408 592.3 96.904V105.52C592.3 107.424 591.78 108.872 590.74 109.864C589.716 110.872 588.212 111.376 586.228 111.376ZM586.18 103.408C587.14 103.408 587.9 103.088 588.46 102.448C589.036 101.792 589.324 100.864 589.324 99.664C589.324 98.464 589.036 97.544 588.46 96.904C587.9 96.264 587.14 95.944 586.18 95.944C585.204 95.944 584.428 96.264 583.852 96.904C583.276 97.544 582.988 98.464 582.988 99.664C582.988 100.864 583.276 101.792 583.852 102.448C584.428 103.088 585.204 103.408 586.18 103.408ZM595.542 106V93.88H598.542V106H595.542ZM595.374 91.6V88.672H598.71V91.6H595.374ZM606.119 106.24C605.079 106.24 604.119 106.12 603.239 105.88C602.375 105.624 601.647 105.272 601.055 104.824L601.895 102.808C602.503 103.224 603.175 103.544 603.911 103.768C604.647 103.992 605.391 104.104 606.143 104.104C606.943 104.104 607.535 103.968 607.919 103.696C608.319 103.424 608.519 103.056 608.519 102.592C608.519 102.224 608.391 101.936 608.135 101.728C607.895 101.504 607.503 101.336 606.959 101.224L604.559 100.768C603.535 100.544 602.751 100.16 602.207 99.616C601.679 99.072 601.415 98.36 601.415 97.48C601.415 96.728 601.615 96.064 602.015 95.488C602.431 94.912 603.015 94.464 603.767 94.144C604.535 93.808 605.431 93.64 606.455 93.64C607.351 93.64 608.191 93.76 608.975 94C609.775 94.24 610.447 94.6 610.991 95.08L610.127 97.024C609.631 96.624 609.063 96.312 608.423 96.088C607.783 95.864 607.159 95.752 606.551 95.752C605.719 95.752 605.111 95.904 604.727 96.208C604.343 96.496 604.151 96.872 604.151 97.336C604.151 97.688 604.263 97.984 604.487 98.224C604.727 98.448 605.095 98.616 605.591 98.728L607.991 99.184C609.063 99.392 609.871 99.76 610.415 100.288C610.975 100.8 611.255 101.504 611.255 102.4C611.255 103.2 611.039 103.888 610.607 104.464C610.175 105.04 609.575 105.48 608.807 105.784C608.039 106.088 607.143 106.24 606.119 106.24ZM618.89 106.24C617.45 106.24 616.362 105.864 615.626 105.112C614.89 104.36 614.522 103.232 614.522 101.728V96.136H612.194V93.88H614.522V90.784L617.522 90.016V93.88H620.762V96.136H617.522V101.536C617.522 102.368 617.682 102.952 618.002 103.288C618.322 103.624 618.762 103.792 619.322 103.792C619.626 103.792 619.882 103.768 620.09 103.72C620.314 103.672 620.53 103.608 620.738 103.528V105.904C620.466 106.016 620.162 106.096 619.826 106.144C619.506 106.208 619.194 106.24 618.89 106.24ZM622.775 106V96.976C622.775 96.464 622.759 95.944 622.727 95.416C622.711 94.888 622.671 94.376 622.607 93.88H625.511L625.847 97.192H625.367C625.527 96.392 625.791 95.728 626.159 95.2C626.543 94.672 627.007 94.28 627.551 94.024C628.095 93.768 628.687 93.64 629.327 93.64C629.615 93.64 629.847 93.656 630.023 93.688C630.199 93.704 630.375 93.744 630.551 93.808L630.527 96.448C630.223 96.32 629.959 96.24 629.735 96.208C629.527 96.176 629.263 96.16 628.943 96.16C628.255 96.16 627.671 96.304 627.191 96.592C626.727 96.88 626.375 97.28 626.135 97.792C625.911 98.304 625.799 98.888 625.799 99.544V106H622.775ZM636.784 106.24C635.728 106.24 634.8 105.992 634 105.496C633.2 104.984 632.576 104.256 632.128 103.312C631.68 102.368 631.456 101.24 631.456 99.928C631.456 98.616 631.68 97.496 632.128 96.568C632.576 95.624 633.2 94.904 634 94.408C634.8 93.896 635.728 93.64 636.784 93.64C637.808 93.64 638.704 93.896 639.472 94.408C640.256 94.904 640.776 95.576 641.032 96.424H640.768L641.032 93.88H643.912C643.864 94.376 643.816 94.88 643.768 95.392C643.736 95.904 643.72 96.408 643.72 96.904V106H640.744L640.72 103.504H641.008C640.752 104.336 640.232 105 639.448 105.496C638.664 105.992 637.776 106.24 636.784 106.24ZM637.624 103.936C638.568 103.936 639.328 103.608 639.904 102.952C640.48 102.28 640.768 101.272 640.768 99.928C640.768 98.584 640.48 97.584 639.904 96.928C639.328 96.272 638.568 95.944 637.624 95.944C636.68 95.944 635.92 96.272 635.344 96.928C634.768 97.584 634.48 98.584 634.48 99.928C634.48 101.272 634.76 102.28 635.32 102.952C635.896 103.608 636.664 103.936 637.624 103.936ZM646.963 106V96.976C646.963 96.464 646.947 95.944 646.915 95.416C646.899 94.888 646.859 94.376 646.795 93.88H649.699L650.035 97.192H649.555C649.715 96.392 649.979 95.728 650.347 95.2C650.731 94.672 651.195 94.28 651.739 94.024C652.283 93.768 652.875 93.64 653.515 93.64C653.803 93.64 654.035 93.656 654.211 93.688C654.387 93.704 654.563 93.744 654.739 93.808L654.715 96.448C654.411 96.32 654.147 96.24 653.923 96.208C653.715 96.176 653.451 96.16 653.131 96.16C652.443 96.16 651.859 96.304 651.379 96.592C650.915 96.88 650.563 97.28 650.323 97.792C650.099 98.304 649.987 98.888 649.987 99.544V106H646.963ZM660.612 106.24C659.572 106.24 658.612 106.12 657.732 105.88C656.868 105.624 656.14 105.272 655.548 104.824L656.388 102.808C656.996 103.224 657.668 103.544 658.404 103.768C659.14 103.992 659.884 104.104 660.636 104.104C661.436 104.104 662.028 103.968 662.412 103.696C662.812 103.424 663.012 103.056 663.012 102.592C663.012 102.224 662.884 101.936 662.628 101.728C662.388 101.504 661.996 101.336 661.452 101.224L659.052 100.768C658.028 100.544 657.244 100.16 656.7 99.616C656.172 99.072 655.908 98.36 655.908 97.48C655.908 96.728 656.108 96.064 656.508 95.488C656.924 94.912 657.508 94.464 658.26 94.144C659.028 93.808 659.924 93.64 660.948 93.64C661.844 93.64 662.684 93.76 663.468 94C664.268 94.24 664.94 94.6 665.484 95.08L664.62 97.024C664.124 96.624 663.556 96.312 662.916 96.088C662.276 95.864 661.652 95.752 661.044 95.752C660.212 95.752 659.604 95.904 659.22 96.208C658.836 96.496 658.644 96.872 658.644 97.336C658.644 97.688 658.756 97.984 658.98 98.224C659.22 98.448 659.588 98.616 660.084 98.728L662.484 99.184C663.556 99.392 664.364 99.76 664.908 100.288C665.468 100.8 665.748 101.504 665.748 102.4C665.748 103.2 665.532 103.888 665.1 104.464C664.668 105.04 664.068 105.48 663.3 105.784C662.532 106.088 661.636 106.24 660.612 106.24ZM674.171 106.24C672.139 106.24 670.547 105.68 669.395 104.56C668.243 103.44 667.667 101.904 667.667 99.952C667.667 98.688 667.915 97.584 668.411 96.64C668.907 95.696 669.595 94.96 670.475 94.432C671.371 93.904 672.411 93.64 673.595 93.64C674.763 93.64 675.739 93.888 676.523 94.384C677.307 94.88 677.899 95.576 678.299 96.472C678.715 97.368 678.923 98.416 678.923 99.616V100.408H670.091V98.824H676.787L676.379 99.16C676.379 98.04 676.139 97.184 675.659 96.592C675.195 96 674.515 95.704 673.619 95.704C672.627 95.704 671.859 96.056 671.315 96.76C670.787 97.464 670.523 98.448 670.523 99.712V100.024C670.523 101.336 670.843 102.32 671.483 102.976C672.139 103.616 673.059 103.936 674.243 103.936C674.931 103.936 675.571 103.848 676.163 103.672C676.771 103.48 677.347 103.176 677.891 102.76L678.779 104.776C678.203 105.24 677.515 105.6 676.715 105.856C675.915 106.112 675.067 106.24 674.171 106.24Z" fill="black"/>
<rect x="347" y="151" width="536" height="66" rx="31.5" fill="#F5F4F2"/>
<rect x="347" y="244" width="536" height="67" rx="31.5" fill="#F5F4F2"/>
<rect x="347" y="337" width="536" height="67" rx="31.5" fill="#F5F4F2"/>
<rect x="347" y="430" width="536" height="67" rx="31.5" fill="#F5F4F2"/>
<rect x="347" y="524" width="536" height="66" rx="31.5" fill="#F5F4F2"/>
<g filter="url(#filter0_d_249_842)">
<rect x="407" y="659" width="415.137" height="96" rx="31.5" fill="#46B593"/>
<path d="M543.425 714.18C542.105 714.18 540.971 713.916 540.023 713.388C539.087 712.848 538.367 712.092 537.863 711.12C537.359 710.136 537.107 708.978 537.107 707.646C537.107 706.314 537.359 705.162 537.863 704.19C538.367 703.218 539.087 702.468 540.023 701.94C540.971 701.4 542.105 701.13 543.425 701.13C544.313 701.13 545.111 701.256 545.819 701.508C546.539 701.76 547.157 702.132 547.673 702.624L546.917 704.46C546.353 704.004 545.807 703.68 545.279 703.488C544.763 703.284 544.169 703.182 543.497 703.182C542.213 703.182 541.229 703.572 540.545 704.352C539.873 705.12 539.537 706.218 539.537 707.646C539.537 709.074 539.873 710.178 540.545 710.958C541.229 711.738 542.213 712.128 543.497 712.128C544.169 712.128 544.763 712.032 545.279 711.84C545.807 711.636 546.353 711.3 546.917 710.832L547.673 712.668C547.157 713.148 546.539 713.52 545.819 713.784C545.111 714.048 544.313 714.18 543.425 714.18ZM553.135 714.18C552.199 714.18 551.389 713.988 550.705 713.604C550.021 713.22 549.487 712.674 549.103 711.966C548.731 711.258 548.545 710.418 548.545 709.446C548.545 708.474 548.731 707.64 549.103 706.944C549.487 706.236 550.021 705.69 550.705 705.306C551.389 704.922 552.199 704.73 553.135 704.73C554.071 704.73 554.881 704.922 555.565 705.306C556.261 705.69 556.795 706.236 557.167 706.944C557.551 707.64 557.743 708.474 557.743 709.446C557.743 710.418 557.551 711.258 557.167 711.966C556.795 712.674 556.261 713.22 555.565 713.604C554.881 713.988 554.071 714.18 553.135 714.18ZM553.135 712.452C553.843 712.452 554.407 712.206 554.827 711.714C555.247 711.21 555.457 710.454 555.457 709.446C555.457 708.438 555.247 707.688 554.827 707.196C554.407 706.704 553.843 706.458 553.135 706.458C552.427 706.458 551.863 706.704 551.443 707.196C551.023 707.688 550.813 708.438 550.813 709.446C550.813 710.454 551.023 711.21 551.443 711.714C551.863 712.206 552.427 712.452 553.135 712.452ZM559.683 714V707.178C559.683 706.806 559.671 706.428 559.647 706.044C559.623 705.66 559.587 705.282 559.539 704.91H561.717L561.897 706.71H561.681C561.969 706.074 562.395 705.588 562.959 705.252C563.523 704.904 564.177 704.73 564.921 704.73C565.989 704.73 566.793 705.03 567.333 705.63C567.873 706.23 568.143 707.166 568.143 708.438V714H565.893V708.546C565.893 707.814 565.749 707.292 565.461 706.98C565.185 706.656 564.765 706.494 564.201 706.494C563.505 706.494 562.953 706.71 562.545 707.142C562.137 707.574 561.933 708.15 561.933 708.87V714H559.683ZM571.141 714V706.602H569.395V704.91H571.771L571.141 705.486V704.1C571.141 702.972 571.423 702.12 571.987 701.544C572.563 700.968 573.397 700.68 574.489 700.68C574.753 700.68 575.029 700.698 575.317 700.734C575.617 700.77 575.875 700.836 576.091 700.932V702.696C575.935 702.636 575.749 702.588 575.533 702.552C575.317 702.516 575.107 702.498 574.903 702.498C574.435 702.498 574.063 702.636 573.787 702.912C573.511 703.176 573.373 703.608 573.373 704.208V705.306L573.049 704.91H579.367V714H577.117V706.602H573.391V714H571.141ZM576.991 703.2V701.004H579.493V703.2H576.991ZM581.796 714V707.232C581.796 706.848 581.784 706.458 581.76 706.062C581.748 705.666 581.718 705.282 581.67 704.91H583.848L584.1 707.394H583.74C583.86 706.794 584.058 706.296 584.334 705.9C584.622 705.504 584.97 705.21 585.378 705.018C585.786 704.826 586.23 704.73 586.71 704.73C586.926 704.73 587.1 704.742 587.232 704.766C587.364 704.778 587.496 704.808 587.628 704.856L587.61 706.836C587.382 706.74 587.184 706.68 587.016 706.656C586.86 706.632 586.662 706.62 586.422 706.62C585.906 706.62 585.468 706.728 585.108 706.944C584.76 707.16 584.496 707.46 584.316 707.844C584.148 708.228 584.064 708.666 584.064 709.158V714H581.796ZM588.88 714V707.178C588.88 706.806 588.868 706.428 588.844 706.044C588.82 705.66 588.784 705.282 588.736 704.91H590.914L591.094 706.71H590.878C591.13 706.086 591.514 705.6 592.03 705.252C592.558 704.904 593.182 704.73 593.902 704.73C594.622 704.73 595.216 704.904 595.684 705.252C596.164 705.588 596.5 706.116 596.692 706.836H596.404C596.656 706.188 597.07 705.678 597.646 705.306C598.222 704.922 598.882 704.73 599.626 704.73C600.646 704.73 601.408 705.03 601.912 705.63C602.416 706.23 602.668 707.166 602.668 708.438V714H600.418V708.528C600.418 707.808 600.298 707.292 600.058 706.98C599.818 706.656 599.434 706.494 598.906 706.494C598.282 706.494 597.79 706.716 597.43 707.16C597.07 707.592 596.89 708.18 596.89 708.924V714H594.64V708.528C594.64 707.808 594.52 707.292 594.28 706.98C594.04 706.656 593.656 706.494 593.128 706.494C592.504 706.494 592.012 706.716 591.652 707.16C591.304 707.592 591.13 708.18 591.13 708.924V714H588.88ZM608.58 714.18C607.788 714.18 607.092 713.994 606.492 713.622C605.892 713.238 605.424 712.692 605.088 711.984C604.752 711.276 604.584 710.43 604.584 709.446C604.584 708.462 604.752 707.622 605.088 706.926C605.424 706.218 605.892 705.678 606.492 705.306C607.092 704.922 607.788 704.73 608.58 704.73C609.348 704.73 610.02 704.922 610.596 705.306C611.184 705.678 611.574 706.182 611.766 706.818H611.568L611.766 704.91H613.926C613.89 705.282 613.854 705.66 613.818 706.044C613.794 706.428 613.782 706.806 613.782 707.178V714H611.55L611.532 712.128H611.748C611.556 712.752 611.166 713.25 610.578 713.622C609.99 713.994 609.324 714.18 608.58 714.18ZM609.21 712.452C609.918 712.452 610.488 712.206 610.92 711.714C611.352 711.21 611.568 710.454 611.568 709.446C611.568 708.438 611.352 707.688 610.92 707.196C610.488 706.704 609.918 706.458 609.21 706.458C608.502 706.458 607.932 706.704 607.5 707.196C607.068 707.688 606.852 708.438 606.852 709.446C606.852 710.454 607.062 711.21 607.482 711.714C607.914 712.206 608.49 712.452 609.21 712.452ZM616.214 714V707.232C616.214 706.848 616.202 706.458 616.178 706.062C616.166 705.666 616.136 705.282 616.088 704.91H618.266L618.518 707.394H618.158C618.278 706.794 618.476 706.296 618.752 705.9C619.04 705.504 619.388 705.21 619.796 705.018C620.204 704.826 620.648 704.73 621.128 704.73C621.344 704.73 621.518 704.742 621.65 704.766C621.782 704.778 621.914 704.808 622.046 704.856L622.028 706.836C621.8 706.74 621.602 706.68 621.434 706.656C621.278 706.632 621.08 706.62 620.84 706.62C620.324 706.62 619.886 706.728 619.526 706.944C619.178 707.16 618.914 707.46 618.734 707.844C618.566 708.228 618.482 708.666 618.482 709.158V714H616.214ZM628.22 714V707.232C628.22 706.848 628.208 706.458 628.184 706.062C628.172 705.666 628.142 705.282 628.094 704.91H630.272L630.524 707.394H630.164C630.284 706.794 630.482 706.296 630.758 705.9C631.046 705.504 631.394 705.21 631.802 705.018C632.21 704.826 632.654 704.73 633.134 704.73C633.35 704.73 633.524 704.742 633.656 704.766C633.788 704.778 633.92 704.808 634.052 704.856L634.034 706.836C633.806 706.74 633.608 706.68 633.44 706.656C633.284 706.632 633.086 706.62 632.846 706.62C632.33 706.62 631.892 706.728 631.532 706.944C631.184 707.16 630.92 707.46 630.74 707.844C630.572 708.228 630.488 708.666 630.488 709.158V714H628.22ZM639.556 714.18C638.032 714.18 636.838 713.76 635.974 712.92C635.11 712.08 634.678 710.928 634.678 709.464C634.678 708.516 634.864 707.688 635.236 706.98C635.608 706.272 636.124 705.72 636.784 705.324C637.456 704.928 638.236 704.73 639.124 704.73C640 704.73 640.732 704.916 641.32 705.288C641.908 705.66 642.352 706.182 642.652 706.854C642.964 707.526 643.12 708.312 643.12 709.212V709.806H636.496V708.618H641.518L641.212 708.87C641.212 708.03 641.032 707.388 640.672 706.944C640.324 706.5 639.814 706.278 639.142 706.278C638.398 706.278 637.822 706.542 637.414 707.07C637.018 707.598 636.82 708.336 636.82 709.284V709.518C636.82 710.502 637.06 711.24 637.54 711.732C638.032 712.212 638.722 712.452 639.61 712.452C640.126 712.452 640.606 712.386 641.05 712.254C641.506 712.11 641.938 711.882 642.346 711.57L643.012 713.082C642.58 713.43 642.064 713.7 641.464 713.892C640.864 714.084 640.228 714.18 639.556 714.18ZM649.237 718.032C648.397 718.032 647.635 717.942 646.951 717.762C646.279 717.582 645.679 717.306 645.151 716.934L645.637 715.314C645.985 715.542 646.345 715.728 646.717 715.872C647.089 716.016 647.473 716.124 647.869 716.196C648.265 716.268 648.667 716.304 649.075 716.304C649.915 716.304 650.539 716.094 650.947 715.674C651.367 715.266 651.577 714.678 651.577 713.91V711.732H651.757C651.565 712.356 651.175 712.854 650.587 713.226C650.011 713.598 649.345 713.784 648.589 713.784C647.773 713.784 647.059 713.604 646.447 713.244C645.847 712.872 645.379 712.344 645.043 711.66C644.707 710.976 644.539 710.172 644.539 709.248C644.539 708.324 644.707 707.526 645.043 706.854C645.379 706.17 645.847 705.648 646.447 705.288C647.059 704.916 647.773 704.73 648.589 704.73C649.357 704.73 650.023 704.916 650.587 705.288C651.163 705.648 651.547 706.14 651.739 706.764L651.577 706.656L651.757 704.91H653.935C653.887 705.282 653.851 705.66 653.827 706.044C653.803 706.428 653.791 706.806 653.791 707.178V713.64C653.791 715.068 653.401 716.154 652.621 716.898C651.853 717.654 650.725 718.032 649.237 718.032ZM649.201 712.056C649.921 712.056 650.491 711.816 650.911 711.336C651.343 710.844 651.559 710.148 651.559 709.248C651.559 708.348 651.343 707.658 650.911 707.178C650.491 706.698 649.921 706.458 649.201 706.458C648.469 706.458 647.887 706.698 647.455 707.178C647.023 707.658 646.807 708.348 646.807 709.248C646.807 710.148 647.023 710.844 647.455 711.336C647.887 711.816 648.469 712.056 649.201 712.056ZM656.222 714V704.91H658.472V714H656.222ZM656.096 703.2V701.004H658.598V703.2H656.096ZM664.156 714.18C663.376 714.18 662.656 714.09 661.996 713.91C661.348 713.718 660.802 713.454 660.358 713.118L660.988 711.606C661.444 711.918 661.948 712.158 662.5 712.326C663.052 712.494 663.61 712.578 664.174 712.578C664.774 712.578 665.218 712.476 665.506 712.272C665.806 712.068 665.956 711.792 665.956 711.444C665.956 711.168 665.86 710.952 665.668 710.796C665.488 710.628 665.194 710.502 664.786 710.418L662.986 710.076C662.218 709.908 661.63 709.62 661.222 709.212C660.826 708.804 660.628 708.27 660.628 707.61C660.628 707.046 660.778 706.548 661.078 706.116C661.39 705.684 661.828 705.348 662.392 705.108C662.968 704.856 663.64 704.73 664.408 704.73C665.08 704.73 665.71 704.82 666.298 705C666.898 705.18 667.402 705.45 667.81 705.81L667.162 707.268C666.79 706.968 666.364 706.734 665.884 706.566C665.404 706.398 664.936 706.314 664.48 706.314C663.856 706.314 663.4 706.428 663.112 706.656C662.824 706.872 662.68 707.154 662.68 707.502C662.68 707.766 662.764 707.988 662.932 708.168C663.112 708.336 663.388 708.462 663.76 708.546L665.56 708.888C666.364 709.044 666.97 709.32 667.378 709.716C667.798 710.1 668.008 710.628 668.008 711.3C668.008 711.9 667.846 712.416 667.522 712.848C667.198 713.28 666.748 713.61 666.172 713.838C665.596 714.066 664.924 714.18 664.156 714.18ZM673.733 714.18C672.653 714.18 671.837 713.898 671.285 713.334C670.733 712.77 670.457 711.924 670.457 710.796V706.602H668.711V704.91H670.457V702.588L672.707 702.012V704.91H675.137V706.602H672.707V710.652C672.707 711.276 672.827 711.714 673.067 711.966C673.307 712.218 673.637 712.344 674.057 712.344C674.285 712.344 674.477 712.326 674.633 712.29C674.801 712.254 674.963 712.206 675.119 712.146V713.928C674.915 714.012 674.687 714.072 674.435 714.108C674.195 714.156 673.961 714.18 673.733 714.18ZM676.648 714V707.232C676.648 706.848 676.636 706.458 676.612 706.062C676.6 705.666 676.57 705.282 676.522 704.91H678.7L678.952 707.394H678.592C678.712 706.794 678.91 706.296 679.186 705.9C679.474 705.504 679.822 705.21 680.23 705.018C680.638 704.826 681.082 704.73 681.562 704.73C681.778 704.73 681.952 704.742 682.084 704.766C682.216 704.778 682.348 704.808 682.48 704.856L682.462 706.836C682.234 706.74 682.036 706.68 681.868 706.656C681.712 706.632 681.514 706.62 681.274 706.62C680.758 706.62 680.32 706.728 679.96 706.944C679.612 707.16 679.348 707.46 679.168 707.844C679 708.228 678.916 708.666 678.916 709.158V714H676.648ZM687.695 714.18C686.759 714.18 685.949 713.988 685.265 713.604C684.581 713.22 684.047 712.674 683.663 711.966C683.291 711.258 683.105 710.418 683.105 709.446C683.105 708.474 683.291 707.64 683.663 706.944C684.047 706.236 684.581 705.69 685.265 705.306C685.949 704.922 686.759 704.73 687.695 704.73C688.631 704.73 689.441 704.922 690.125 705.306C690.821 705.69 691.355 706.236 691.727 706.944C692.111 707.64 692.303 708.474 692.303 709.446C692.303 710.418 692.111 711.258 691.727 711.966C691.355 712.674 690.821 713.22 690.125 713.604C689.441 713.988 688.631 714.18 687.695 714.18ZM687.695 712.452C688.403 712.452 688.967 712.206 689.387 711.714C689.807 711.21 690.017 710.454 690.017 709.446C690.017 708.438 689.807 707.688 689.387 707.196C688.967 706.704 688.403 706.458 687.695 706.458C686.987 706.458 686.423 706.704 686.003 707.196C685.583 707.688 685.373 708.438 685.373 709.446C685.373 710.454 685.583 711.21 686.003 711.714C686.423 712.206 686.987 712.452 687.695 712.452Z" fill="#F5F4F2"/>
</g>
<path opacity="0.5" d="M376.972 189.04V179.17H377.882L384.21 187.57H383.888V179.17H384.966V189.04H384.07L377.742 180.64H378.05V189.04H376.972ZM390.189 189.166C389.517 189.166 388.929 189.021 388.425 188.732C387.931 188.433 387.548 188.013 387.277 187.472C387.007 186.921 386.871 186.273 386.871 185.526C386.871 184.77 387.007 184.121 387.277 183.58C387.548 183.039 387.931 182.623 388.425 182.334C388.929 182.035 389.517 181.886 390.189 181.886C390.871 181.886 391.459 182.035 391.953 182.334C392.457 182.623 392.845 183.039 393.115 183.58C393.395 184.121 393.535 184.77 393.535 185.526C393.535 186.273 393.395 186.921 393.115 187.472C392.845 188.013 392.457 188.433 391.953 188.732C391.459 189.021 390.871 189.166 390.189 189.166ZM390.189 188.242C390.861 188.242 391.393 188.013 391.785 187.556C392.177 187.089 392.373 186.413 392.373 185.526C392.373 184.63 392.173 183.953 391.771 183.496C391.379 183.029 390.852 182.796 390.189 182.796C389.527 182.796 388.999 183.029 388.607 183.496C388.215 183.953 388.019 184.63 388.019 185.526C388.019 186.413 388.215 187.089 388.607 187.556C388.999 188.013 389.527 188.242 390.189 188.242ZM395.303 189.04V183.636C395.303 183.375 395.289 183.109 395.261 182.838C395.243 182.558 395.219 182.283 395.191 182.012H396.283L396.423 183.552H396.255C396.442 183.02 396.736 182.609 397.137 182.32C397.548 182.031 398.043 181.886 398.621 181.886C399.209 181.886 399.685 182.026 400.049 182.306C400.423 182.586 400.675 183.02 400.805 183.608H400.595C400.773 183.076 401.085 182.656 401.533 182.348C401.981 182.04 402.504 181.886 403.101 181.886C403.876 181.886 404.459 182.11 404.851 182.558C405.243 182.997 405.439 183.692 405.439 184.644V189.04H404.305V184.714C404.305 184.051 404.189 183.571 403.955 183.272C403.722 182.964 403.349 182.81 402.835 182.81C402.247 182.81 401.781 183.015 401.435 183.426C401.099 183.827 400.931 184.369 400.931 185.05V189.04H399.797V184.714C399.797 184.051 399.681 183.571 399.447 183.272C399.214 182.964 398.841 182.81 398.327 182.81C397.739 182.81 397.277 183.015 396.941 183.426C396.605 183.827 396.437 184.369 396.437 185.05V189.04H395.303ZM411.122 189.166C410.488 189.166 409.942 189.007 409.484 188.69C409.027 188.363 408.719 187.92 408.56 187.36H408.714V189.04H407.594V178.736H408.728V183.65H408.56C408.719 183.109 409.027 182.679 409.484 182.362C409.942 182.045 410.488 181.886 411.122 181.886C411.757 181.886 412.303 182.035 412.76 182.334C413.227 182.623 413.586 183.039 413.838 183.58C414.1 184.121 414.23 184.77 414.23 185.526C414.23 186.282 414.1 186.931 413.838 187.472C413.577 188.013 413.213 188.433 412.746 188.732C412.289 189.021 411.748 189.166 411.122 189.166ZM410.884 188.242C411.547 188.242 412.079 188.013 412.48 187.556C412.882 187.099 413.082 186.422 413.082 185.526C413.082 184.63 412.882 183.953 412.48 183.496C412.079 183.029 411.547 182.796 410.884 182.796C410.222 182.796 409.69 183.029 409.288 183.496C408.896 183.953 408.7 184.63 408.7 185.526C408.7 186.413 408.896 187.089 409.288 187.556C409.69 188.013 410.222 188.242 410.884 188.242ZM415.961 189.04V183.706C415.961 183.426 415.951 183.141 415.933 182.852C415.923 182.563 415.905 182.283 415.877 182.012H416.969L417.109 183.72L416.913 183.734C417.006 183.314 417.169 182.969 417.403 182.698C417.636 182.427 417.911 182.227 418.229 182.096C418.546 181.956 418.877 181.886 419.223 181.886C419.363 181.886 419.484 181.891 419.587 181.9C419.699 181.909 419.801 181.933 419.895 181.97L419.881 182.978C419.741 182.931 419.61 182.903 419.489 182.894C419.377 182.875 419.246 182.866 419.097 182.866C418.686 182.866 418.327 182.964 418.019 183.16C417.72 183.356 417.491 183.608 417.333 183.916C417.183 184.224 417.109 184.551 417.109 184.896V189.04H415.961ZM424.115 189.166C423.013 189.166 422.145 188.849 421.511 188.214C420.876 187.57 420.559 186.679 420.559 185.54C420.559 184.803 420.699 184.163 420.979 183.622C421.259 183.071 421.651 182.647 422.155 182.348C422.659 182.04 423.237 181.886 423.891 181.886C424.535 181.886 425.076 182.021 425.515 182.292C425.953 182.563 426.289 182.95 426.523 183.454C426.756 183.949 426.873 184.537 426.873 185.218V185.638H421.427V184.924H426.131L425.893 185.106C425.893 184.359 425.725 183.776 425.389 183.356C425.053 182.936 424.553 182.726 423.891 182.726C423.191 182.726 422.645 182.973 422.253 183.468C421.861 183.953 421.665 184.611 421.665 185.442V185.568C421.665 186.445 421.879 187.113 422.309 187.57C422.747 188.018 423.359 188.242 424.143 188.242C424.563 188.242 424.955 188.181 425.319 188.06C425.692 187.929 426.047 187.719 426.383 187.43L426.775 188.228C426.467 188.527 426.075 188.76 425.599 188.928C425.132 189.087 424.637 189.166 424.115 189.166ZM435.212 189.166C434.522 189.166 433.92 189.017 433.406 188.718C432.902 188.419 432.51 187.995 432.23 187.444C431.96 186.893 431.824 186.24 431.824 185.484C431.824 184.719 431.964 184.07 432.244 183.538C432.524 182.997 432.916 182.586 433.42 182.306C433.934 182.026 434.531 181.886 435.212 181.886C435.66 181.886 436.094 181.965 436.514 182.124C436.944 182.283 437.298 182.507 437.578 182.796L437.172 183.608C436.892 183.337 436.584 183.137 436.248 183.006C435.922 182.875 435.6 182.81 435.282 182.81C434.554 182.81 433.99 183.039 433.588 183.496C433.187 183.953 432.986 184.621 432.986 185.498C432.986 186.366 433.187 187.038 433.588 187.514C433.99 187.99 434.554 188.228 435.282 188.228C435.59 188.228 435.908 188.167 436.234 188.046C436.57 187.925 436.883 187.724 437.172 187.444L437.578 188.242C437.289 188.541 436.93 188.769 436.5 188.928C436.071 189.087 435.642 189.166 435.212 189.166ZM441.937 189.166C441.265 189.166 440.677 189.021 440.173 188.732C439.679 188.433 439.296 188.013 439.025 187.472C438.755 186.921 438.619 186.273 438.619 185.526C438.619 184.77 438.755 184.121 439.025 183.58C439.296 183.039 439.679 182.623 440.173 182.334C440.677 182.035 441.265 181.886 441.937 181.886C442.619 181.886 443.207 182.035 443.701 182.334C444.205 182.623 444.593 183.039 444.863 183.58C445.143 184.121 445.283 184.77 445.283 185.526C445.283 186.273 445.143 186.921 444.863 187.472C444.593 188.013 444.205 188.433 443.701 188.732C443.207 189.021 442.619 189.166 441.937 189.166ZM441.937 188.242C442.609 188.242 443.141 188.013 443.533 187.556C443.925 187.089 444.121 186.413 444.121 185.526C444.121 184.63 443.921 183.953 443.519 183.496C443.127 183.029 442.6 182.796 441.937 182.796C441.275 182.796 440.747 183.029 440.355 183.496C439.963 183.953 439.767 184.63 439.767 185.526C439.767 186.413 439.963 187.089 440.355 187.556C440.747 188.013 441.275 188.242 441.937 188.242ZM447.051 189.04V183.636C447.051 183.375 447.037 183.109 447.009 182.838C446.991 182.558 446.967 182.283 446.939 182.012H448.031L448.171 183.552H448.003C448.19 183.02 448.484 182.609 448.885 182.32C449.296 182.031 449.791 181.886 450.369 181.886C450.957 181.886 451.433 182.026 451.797 182.306C452.171 182.586 452.423 183.02 452.553 183.608H452.343C452.521 183.076 452.833 182.656 453.281 182.348C453.729 182.04 454.252 181.886 454.849 181.886C455.624 181.886 456.207 182.11 456.599 182.558C456.991 182.997 457.187 183.692 457.187 184.644V189.04H456.053V184.714C456.053 184.051 455.937 183.571 455.703 183.272C455.47 182.964 455.097 182.81 454.583 182.81C453.995 182.81 453.529 183.015 453.183 183.426C452.847 183.827 452.679 184.369 452.679 185.05V189.04H451.545V184.714C451.545 184.051 451.429 183.571 451.195 183.272C450.962 182.964 450.589 182.81 450.075 182.81C449.487 182.81 449.025 183.015 448.689 183.426C448.353 183.827 448.185 184.369 448.185 185.05V189.04H447.051ZM459.342 192.064V183.636C459.342 183.375 459.328 183.109 459.3 182.838C459.282 182.558 459.258 182.283 459.23 182.012H460.322L460.476 183.678H460.308C460.458 183.127 460.761 182.693 461.218 182.376C461.676 182.049 462.222 181.886 462.856 181.886C463.491 181.886 464.037 182.031 464.494 182.32C464.961 182.609 465.325 183.025 465.586 183.566C465.848 184.107 465.978 184.761 465.978 185.526C465.978 186.282 465.848 186.931 465.586 187.472C465.334 188.013 464.975 188.433 464.508 188.732C464.042 189.021 463.491 189.166 462.856 189.166C462.231 189.166 461.69 189.007 461.232 188.69C460.775 188.373 460.472 187.939 460.322 187.388H460.476V192.064H459.342ZM462.632 188.242C463.304 188.242 463.836 188.013 464.228 187.556C464.63 187.089 464.83 186.413 464.83 185.526C464.83 184.63 464.63 183.953 464.228 183.496C463.836 183.029 463.304 182.796 462.632 182.796C461.97 182.796 461.438 183.029 461.036 183.496C460.644 183.953 460.448 184.63 460.448 185.526C460.448 186.413 460.644 187.089 461.036 187.556C461.438 188.013 461.97 188.242 462.632 188.242ZM467.737 189.04V178.736H468.871V189.04H467.737ZM474.195 189.166C473.093 189.166 472.225 188.849 471.591 188.214C470.956 187.57 470.639 186.679 470.639 185.54C470.639 184.803 470.779 184.163 471.059 183.622C471.339 183.071 471.731 182.647 472.235 182.348C472.739 182.04 473.317 181.886 473.971 181.886C474.615 181.886 475.156 182.021 475.595 182.292C476.033 182.563 476.369 182.95 476.603 183.454C476.836 183.949 476.953 184.537 476.953 185.218V185.638H471.507V184.924H476.211L475.973 185.106C475.973 184.359 475.805 183.776 475.469 183.356C475.133 182.936 474.633 182.726 473.971 182.726C473.271 182.726 472.725 182.973 472.333 183.468C471.941 183.953 471.745 184.611 471.745 185.442V185.568C471.745 186.445 471.959 187.113 472.389 187.57C472.827 188.018 473.439 188.242 474.223 188.242C474.643 188.242 475.035 188.181 475.399 188.06C475.772 187.929 476.127 187.719 476.463 187.43L476.855 188.228C476.547 188.527 476.155 188.76 475.679 188.928C475.212 189.087 474.717 189.166 474.195 189.166ZM481.18 189.166C480.489 189.166 479.962 188.97 479.598 188.578C479.234 188.177 479.052 187.575 479.052 186.772V182.894H477.68V182.012H479.052V180.094L480.186 179.772V182.012H482.202V182.894H480.186V186.646C480.186 187.206 480.279 187.607 480.466 187.85C480.662 188.083 480.951 188.2 481.334 188.2C481.511 188.2 481.67 188.186 481.81 188.158C481.95 188.121 482.076 188.079 482.188 188.032V188.984C482.057 189.04 481.899 189.082 481.712 189.11C481.535 189.147 481.357 189.166 481.18 189.166ZM486.398 189.166C485.726 189.166 485.138 189.021 484.634 188.732C484.14 188.433 483.757 188.013 483.486 187.472C483.216 186.921 483.08 186.273 483.08 185.526C483.08 184.77 483.216 184.121 483.486 183.58C483.757 183.039 484.14 182.623 484.634 182.334C485.138 182.035 485.726 181.886 486.398 181.886C487.08 181.886 487.668 182.035 488.162 182.334C488.666 182.623 489.054 183.039 489.324 183.58C489.604 184.121 489.744 184.77 489.744 185.526C489.744 186.273 489.604 186.921 489.324 187.472C489.054 188.013 488.666 188.433 488.162 188.732C487.668 189.021 487.08 189.166 486.398 189.166ZM486.398 188.242C487.07 188.242 487.602 188.013 487.994 187.556C488.386 187.089 488.582 186.413 488.582 185.526C488.582 184.63 488.382 183.953 487.98 183.496C487.588 183.029 487.061 182.796 486.398 182.796C485.736 182.796 485.208 183.029 484.816 183.496C484.424 183.953 484.228 184.63 484.228 185.526C484.228 186.413 484.424 187.089 484.816 187.556C485.208 188.013 485.736 188.242 486.398 188.242Z" fill="black"/>
<path opacity="0.5" d="M376.473 282V272.13H382.633V273.082H377.635V276.54H382.325V277.492H377.635V282H376.473ZM387.071 282.126C385.969 282.126 385.101 281.809 384.467 281.174C383.832 280.53 383.515 279.639 383.515 278.5C383.515 277.763 383.655 277.123 383.935 276.582C384.215 276.031 384.607 275.607 385.111 275.308C385.615 275 386.193 274.846 386.847 274.846C387.491 274.846 388.032 274.981 388.471 275.252C388.909 275.523 389.245 275.91 389.479 276.414C389.712 276.909 389.829 277.497 389.829 278.178V278.598H384.383V277.884H389.087L388.849 278.066C388.849 277.319 388.681 276.736 388.345 276.316C388.009 275.896 387.509 275.686 386.847 275.686C386.147 275.686 385.601 275.933 385.209 276.428C384.817 276.913 384.621 277.571 384.621 278.402V278.528C384.621 279.405 384.835 280.073 385.265 280.53C385.703 280.978 386.315 281.202 387.099 281.202C387.519 281.202 387.911 281.141 388.275 281.02C388.648 280.889 389.003 280.679 389.339 280.39L389.731 281.188C389.423 281.487 389.031 281.72 388.555 281.888C388.088 282.047 387.593 282.126 387.071 282.126ZM394.518 282.126C393.827 282.126 393.225 281.977 392.712 281.678C392.208 281.379 391.816 280.955 391.536 280.404C391.265 279.853 391.13 279.2 391.13 278.444C391.13 277.679 391.27 277.03 391.55 276.498C391.83 275.957 392.222 275.546 392.726 275.266C393.239 274.986 393.837 274.846 394.518 274.846C394.966 274.846 395.4 274.925 395.82 275.084C396.249 275.243 396.604 275.467 396.884 275.756L396.478 276.568C396.198 276.297 395.89 276.097 395.554 275.966C395.227 275.835 394.905 275.77 394.588 275.77C393.86 275.77 393.295 275.999 392.894 276.456C392.493 276.913 392.292 277.581 392.292 278.458C392.292 279.326 392.493 279.998 392.894 280.474C393.295 280.95 393.86 281.188 394.588 281.188C394.896 281.188 395.213 281.127 395.54 281.006C395.876 280.885 396.189 280.684 396.478 280.404L396.884 281.202C396.595 281.501 396.235 281.729 395.806 281.888C395.377 282.047 394.947 282.126 394.518 282.126ZM398.496 282V271.696H399.63V276.526H399.448C399.644 275.975 399.97 275.56 400.428 275.28C400.894 274.991 401.431 274.846 402.038 274.846C402.878 274.846 403.503 275.075 403.914 275.532C404.324 275.98 404.53 276.661 404.53 277.576V282H403.396V277.646C403.396 276.993 403.265 276.517 403.004 276.218C402.752 275.919 402.341 275.77 401.772 275.77C401.118 275.77 400.596 275.971 400.204 276.372C399.821 276.773 399.63 277.301 399.63 277.954V282H398.496ZM409.373 282.126C408.747 282.126 408.201 281.981 407.735 281.692C407.268 281.393 406.904 280.973 406.643 280.432C406.391 279.891 406.265 279.242 406.265 278.486C406.265 277.721 406.391 277.067 406.643 276.526C406.904 275.985 407.268 275.569 407.735 275.28C408.201 274.991 408.747 274.846 409.373 274.846C410.007 274.846 410.553 275.009 411.011 275.336C411.477 275.653 411.785 276.087 411.935 276.638H411.767L411.921 274.972H413.013C412.985 275.243 412.957 275.518 412.929 275.798C412.91 276.069 412.901 276.335 412.901 276.596V282H411.767V280.348H411.921C411.771 280.899 411.463 281.333 410.997 281.65C410.53 281.967 409.989 282.126 409.373 282.126ZM409.597 281.202C410.269 281.202 410.801 280.973 411.193 280.516C411.585 280.049 411.781 279.373 411.781 278.486C411.781 277.59 411.585 276.913 411.193 276.456C410.801 275.989 410.269 275.756 409.597 275.756C408.934 275.756 408.402 275.989 408.001 276.456C407.609 276.913 407.413 277.59 407.413 278.486C407.413 279.373 407.609 280.049 408.001 280.516C408.402 280.973 408.934 281.202 409.597 281.202ZM421.404 282.126C420.788 282.126 420.246 281.981 419.78 281.692C419.313 281.393 418.949 280.973 418.688 280.432C418.436 279.891 418.31 279.242 418.31 278.486C418.31 277.721 418.436 277.067 418.688 276.526C418.949 275.985 419.313 275.569 419.78 275.28C420.246 274.991 420.788 274.846 421.404 274.846C422.038 274.846 422.584 275.005 423.042 275.322C423.508 275.639 423.821 276.069 423.98 276.61H423.812V271.696H424.946V282H423.826V280.32H423.98C423.83 280.88 423.522 281.323 423.056 281.65C422.589 281.967 422.038 282.126 421.404 282.126ZM421.642 281.202C422.304 281.202 422.836 280.973 423.238 280.516C423.639 280.049 423.84 279.373 423.84 278.486C423.84 277.59 423.639 276.913 423.238 276.456C422.836 275.989 422.304 275.756 421.642 275.756C420.979 275.756 420.447 275.989 420.046 276.456C419.654 276.913 419.458 277.59 419.458 278.486C419.458 279.373 419.654 280.049 420.046 280.516C420.447 280.973 420.979 281.202 421.642 281.202ZM430.26 282.126C429.159 282.126 428.291 281.809 427.656 281.174C427.022 280.53 426.704 279.639 426.704 278.5C426.704 277.763 426.844 277.123 427.124 276.582C427.404 276.031 427.796 275.607 428.3 275.308C428.804 275 429.383 274.846 430.036 274.846C430.68 274.846 431.222 274.981 431.66 275.252C432.099 275.523 432.435 275.91 432.668 276.414C432.902 276.909 433.018 277.497 433.018 278.178V278.598H427.572V277.884H432.276L432.038 278.066C432.038 277.319 431.87 276.736 431.534 276.316C431.198 275.896 430.699 275.686 430.036 275.686C429.336 275.686 428.79 275.933 428.398 276.428C428.006 276.913 427.81 277.571 427.81 278.402V278.528C427.81 279.405 428.025 280.073 428.454 280.53C428.893 280.978 429.504 281.202 430.288 281.202C430.708 281.202 431.1 281.141 431.464 281.02C431.838 280.889 432.192 280.679 432.528 280.39L432.92 281.188C432.612 281.487 432.22 281.72 431.744 281.888C431.278 282.047 430.783 282.126 430.26 282.126ZM438.404 282V276.596C438.404 276.335 438.39 276.069 438.362 275.798C438.343 275.518 438.32 275.243 438.292 274.972H439.384L439.524 276.512H439.356C439.561 275.971 439.888 275.56 440.336 275.28C440.793 274.991 441.321 274.846 441.918 274.846C442.749 274.846 443.374 275.07 443.794 275.518C444.223 275.957 444.438 276.652 444.438 277.604V282H443.304V277.674C443.304 277.011 443.169 276.531 442.898 276.232C442.637 275.924 442.226 275.77 441.666 275.77C441.013 275.77 440.495 275.971 440.112 276.372C439.729 276.773 439.538 277.31 439.538 277.982V282H438.404ZM449.281 282.126C448.656 282.126 448.11 281.981 447.643 281.692C447.176 281.393 446.812 280.973 446.551 280.432C446.299 279.891 446.173 279.242 446.173 278.486C446.173 277.721 446.299 277.067 446.551 276.526C446.812 275.985 447.176 275.569 447.643 275.28C448.11 274.991 448.656 274.846 449.281 274.846C449.916 274.846 450.462 275.009 450.919 275.336C451.386 275.653 451.694 276.087 451.843 276.638H451.675L451.829 274.972H452.921C452.893 275.243 452.865 275.518 452.837 275.798C452.818 276.069 452.809 276.335 452.809 276.596V282H451.675V280.348H451.829C451.68 280.899 451.372 281.333 450.905 281.65C450.438 281.967 449.897 282.126 449.281 282.126ZM449.505 281.202C450.177 281.202 450.709 280.973 451.101 280.516C451.493 280.049 451.689 279.373 451.689 278.486C451.689 277.59 451.493 276.913 451.101 276.456C450.709 275.989 450.177 275.756 449.505 275.756C448.842 275.756 448.31 275.989 447.909 276.456C447.517 276.913 447.321 277.59 447.321 278.486C447.321 279.373 447.517 280.049 447.909 280.516C448.31 280.973 448.842 281.202 449.505 281.202ZM457.956 282.126C457.265 282.126 456.663 281.977 456.15 281.678C455.646 281.379 455.254 280.955 454.974 280.404C454.703 279.853 454.568 279.2 454.568 278.444C454.568 277.679 454.708 277.03 454.988 276.498C455.268 275.957 455.66 275.546 456.164 275.266C456.677 274.986 457.274 274.846 457.956 274.846C458.404 274.846 458.838 274.925 459.258 275.084C459.687 275.243 460.042 275.467 460.322 275.756L459.916 276.568C459.636 276.297 459.328 276.097 458.992 275.966C458.665 275.835 458.343 275.77 458.026 275.77C457.298 275.77 456.733 275.999 456.332 276.456C455.93 276.913 455.73 277.581 455.73 278.458C455.73 279.326 455.93 279.998 456.332 280.474C456.733 280.95 457.298 281.188 458.026 281.188C458.334 281.188 458.651 281.127 458.978 281.006C459.314 280.885 459.626 280.684 459.916 280.404L460.322 281.202C460.032 281.501 459.673 281.729 459.244 281.888C458.814 282.047 458.385 282.126 457.956 282.126ZM461.933 282V274.972H463.067V282H461.933ZM461.793 273.376V272.102H463.193V273.376H461.793ZM465.269 282V276.596C465.269 276.335 465.255 276.069 465.227 275.798C465.208 275.518 465.185 275.243 465.157 274.972H466.249L466.389 276.512H466.221C466.408 275.98 466.702 275.569 467.103 275.28C467.514 274.991 468.008 274.846 468.587 274.846C469.175 274.846 469.651 274.986 470.015 275.266C470.388 275.546 470.64 275.98 470.771 276.568H470.561C470.738 276.036 471.051 275.616 471.499 275.308C471.947 275 472.47 274.846 473.067 274.846C473.842 274.846 474.425 275.07 474.817 275.518C475.209 275.957 475.405 276.652 475.405 277.604V282H474.271V277.674C474.271 277.011 474.154 276.531 473.921 276.232C473.688 275.924 473.314 275.77 472.801 275.77C472.213 275.77 471.746 275.975 471.401 276.386C471.065 276.787 470.897 277.329 470.897 278.01V282H469.763V277.674C469.763 277.011 469.646 276.531 469.413 276.232C469.18 275.924 468.806 275.77 468.293 275.77C467.705 275.77 467.243 275.975 466.907 276.386C466.571 276.787 466.403 277.329 466.403 278.01V282H465.269ZM477.56 282V274.972H478.694V282H477.56ZM477.42 273.376V272.102H478.82V273.376H477.42ZM484.018 282.126C482.917 282.126 482.049 281.809 481.414 281.174C480.779 280.53 480.462 279.639 480.462 278.5C480.462 277.763 480.602 277.123 480.882 276.582C481.162 276.031 481.554 275.607 482.058 275.308C482.562 275 483.141 274.846 483.794 274.846C484.438 274.846 484.979 274.981 485.418 275.252C485.857 275.523 486.193 275.91 486.426 276.414C486.659 276.909 486.776 277.497 486.776 278.178V278.598H481.33V277.884H486.034L485.796 278.066C485.796 277.319 485.628 276.736 485.292 276.316C484.956 275.896 484.457 275.686 483.794 275.686C483.094 275.686 482.548 275.933 482.156 276.428C481.764 276.913 481.568 277.571 481.568 278.402V278.528C481.568 279.405 481.783 280.073 482.212 280.53C482.651 280.978 483.262 281.202 484.046 281.202C484.466 281.202 484.858 281.141 485.222 281.02C485.595 280.889 485.95 280.679 486.286 280.39L486.678 281.188C486.37 281.487 485.978 281.72 485.502 281.888C485.035 282.047 484.541 282.126 484.018 282.126ZM488.511 282V276.596C488.511 276.335 488.497 276.069 488.469 275.798C488.451 275.518 488.427 275.243 488.399 274.972H489.491L489.631 276.512H489.463C489.669 275.971 489.995 275.56 490.443 275.28C490.901 274.991 491.428 274.846 492.025 274.846C492.856 274.846 493.481 275.07 493.901 275.518C494.331 275.957 494.545 276.652 494.545 277.604V282H493.411V277.674C493.411 277.011 493.276 276.531 493.005 276.232C492.744 275.924 492.333 275.77 491.773 275.77C491.12 275.77 490.602 275.971 490.219 276.372C489.837 276.773 489.645 277.31 489.645 277.982V282H488.511ZM499.206 282.126C498.516 282.126 497.988 281.93 497.624 281.538C497.26 281.137 497.078 280.535 497.078 279.732V275.854H495.706V274.972H497.078V273.054L498.212 272.732V274.972H500.228V275.854H498.212V279.606C498.212 280.166 498.306 280.567 498.492 280.81C498.688 281.043 498.978 281.16 499.36 281.16C499.538 281.16 499.696 281.146 499.836 281.118C499.976 281.081 500.102 281.039 500.214 280.992V281.944C500.084 282 499.925 282.042 499.738 282.07C499.561 282.107 499.384 282.126 499.206 282.126ZM504.425 282.126C503.753 282.126 503.165 281.981 502.661 281.692C502.166 281.393 501.783 280.973 501.513 280.432C501.242 279.881 501.107 279.233 501.107 278.486C501.107 277.73 501.242 277.081 501.513 276.54C501.783 275.999 502.166 275.583 502.661 275.294C503.165 274.995 503.753 274.846 504.425 274.846C505.106 274.846 505.694 274.995 506.189 275.294C506.693 275.583 507.08 275.999 507.351 276.54C507.631 277.081 507.771 277.73 507.771 278.486C507.771 279.233 507.631 279.881 507.351 280.432C507.08 280.973 506.693 281.393 506.189 281.692C505.694 281.981 505.106 282.126 504.425 282.126ZM504.425 281.202C505.097 281.202 505.629 280.973 506.021 280.516C506.413 280.049 506.609 279.373 506.609 278.486C506.609 277.59 506.408 276.913 506.007 276.456C505.615 275.989 505.087 275.756 504.425 275.756C503.762 275.756 503.235 275.989 502.843 276.456C502.451 276.913 502.255 277.59 502.255 278.486C502.255 279.373 502.451 280.049 502.843 280.516C503.235 280.973 503.762 281.202 504.425 281.202Z" fill="black"/>
<path opacity="0.5" d="M376.972 375.29V365.42H383.272V366.372H378.106V369.802H382.964V370.768H378.106V374.324H383.272V375.29H376.972ZM384.979 371.916V370.978H388.969V371.916H384.979ZM391.065 375.29V369.886C391.065 369.624 391.051 369.358 391.023 369.088C391.004 368.808 390.981 368.532 390.953 368.262H392.045L392.185 369.802H392.017C392.204 369.27 392.498 368.859 392.899 368.57C393.31 368.28 393.804 368.136 394.383 368.136C394.971 368.136 395.447 368.276 395.811 368.556C396.184 368.836 396.436 369.27 396.567 369.858H396.357C396.534 369.326 396.847 368.906 397.295 368.598C397.743 368.29 398.266 368.136 398.863 368.136C399.638 368.136 400.221 368.36 400.613 368.808C401.005 369.246 401.201 369.942 401.201 370.894V375.29H400.067V370.964C400.067 370.301 399.95 369.82 399.717 369.522C399.484 369.214 399.11 369.06 398.597 369.06C398.009 369.06 397.542 369.265 397.197 369.676C396.861 370.077 396.693 370.618 396.693 371.3V375.29H395.559V370.964C395.559 370.301 395.442 369.82 395.209 369.522C394.976 369.214 394.602 369.06 394.089 369.06C393.501 369.06 393.039 369.265 392.703 369.676C392.367 370.077 392.199 370.618 392.199 371.3V375.29H391.065ZM406.03 375.416C405.405 375.416 404.859 375.271 404.392 374.982C403.925 374.683 403.561 374.263 403.3 373.722C403.048 373.18 402.922 372.532 402.922 371.776C402.922 371.01 403.048 370.357 403.3 369.816C403.561 369.274 403.925 368.859 404.392 368.57C404.859 368.28 405.405 368.136 406.03 368.136C406.665 368.136 407.211 368.299 407.668 368.626C408.135 368.943 408.443 369.377 408.592 369.928H408.424L408.578 368.262H409.67C409.642 368.532 409.614 368.808 409.586 369.088C409.567 369.358 409.558 369.624 409.558 369.886V375.29H408.424V373.638H408.578C408.429 374.188 408.121 374.622 407.654 374.94C407.187 375.257 406.646 375.416 406.03 375.416ZM406.254 374.492C406.926 374.492 407.458 374.263 407.85 373.806C408.242 373.339 408.438 372.662 408.438 371.776C408.438 370.88 408.242 370.203 407.85 369.746C407.458 369.279 406.926 369.046 406.254 369.046C405.591 369.046 405.059 369.279 404.658 369.746C404.266 370.203 404.07 370.88 404.07 371.776C404.07 372.662 404.266 373.339 404.658 373.806C405.059 374.263 405.591 374.492 406.254 374.492ZM411.751 375.29V368.262H412.885V375.29H411.751ZM411.611 366.666V365.392H413.011V366.666H411.611ZM415.086 375.29V364.986H416.22V375.29H415.086Z" fill="black"/>
<path opacity="0.5" d="M381.27 468.541C380.281 468.541 379.441 468.335 378.75 467.925C378.06 467.514 377.528 466.931 377.154 466.175C376.79 465.419 376.608 464.518 376.608 463.473C376.608 462.427 376.79 461.531 377.154 460.785C377.528 460.029 378.06 459.445 378.75 459.035C379.441 458.624 380.281 458.419 381.27 458.419C381.97 458.419 382.596 458.526 383.146 458.741C383.697 458.955 384.178 459.268 384.588 459.679L384.154 460.603C383.706 460.211 383.263 459.926 382.824 459.749C382.386 459.562 381.872 459.469 381.284 459.469C380.155 459.469 379.296 459.819 378.708 460.519C378.12 461.219 377.826 462.203 377.826 463.473C377.826 464.742 378.12 465.731 378.708 466.441C379.296 467.141 380.155 467.491 381.284 467.491C381.872 467.491 382.386 467.402 382.824 467.225C383.263 467.038 383.706 466.744 384.154 466.343L384.588 467.281C384.178 467.682 383.697 467.995 383.146 468.219C382.596 468.433 381.97 468.541 381.27 468.541ZM388.808 468.541C388.136 468.541 387.548 468.396 387.044 468.107C386.55 467.808 386.167 467.388 385.896 466.847C385.626 466.296 385.49 465.647 385.49 464.901C385.49 464.145 385.626 463.496 385.896 462.955C386.167 462.413 386.55 461.998 387.044 461.709C387.548 461.41 388.136 461.261 388.808 461.261C389.49 461.261 390.078 461.41 390.572 461.709C391.076 461.998 391.464 462.413 391.734 462.955C392.014 463.496 392.154 464.145 392.154 464.901C392.154 465.647 392.014 466.296 391.734 466.847C391.464 467.388 391.076 467.808 390.572 468.107C390.078 468.396 389.49 468.541 388.808 468.541ZM388.808 467.617C389.48 467.617 390.012 467.388 390.404 466.931C390.796 466.464 390.992 465.787 390.992 464.901C390.992 464.005 390.792 463.328 390.39 462.871C389.998 462.404 389.471 462.171 388.808 462.171C388.146 462.171 387.618 462.404 387.226 462.871C386.834 463.328 386.638 464.005 386.638 464.901C386.638 465.787 386.834 466.464 387.226 466.931C387.618 467.388 388.146 467.617 388.808 467.617ZM393.922 468.415V463.011C393.922 462.749 393.908 462.483 393.88 462.213C393.862 461.933 393.838 461.657 393.81 461.387H394.902L395.042 462.927H394.874C395.08 462.385 395.406 461.975 395.854 461.695C396.312 461.405 396.839 461.261 397.436 461.261C398.267 461.261 398.892 461.485 399.312 461.933C399.742 462.371 399.956 463.067 399.956 464.019V468.415H398.822V464.089C398.822 463.426 398.687 462.945 398.416 462.647C398.155 462.339 397.744 462.185 397.184 462.185C396.531 462.185 396.013 462.385 395.63 462.787C395.248 463.188 395.056 463.725 395.056 464.397V468.415H393.922ZM404.618 468.541C403.927 468.541 403.4 468.345 403.036 467.953C402.672 467.551 402.49 466.949 402.49 466.147V462.269H401.118V461.387H402.49V459.469L403.624 459.147V461.387H405.64V462.269H403.624V466.021C403.624 466.581 403.717 466.982 403.904 467.225C404.1 467.458 404.389 467.575 404.772 467.575C404.949 467.575 405.108 467.561 405.248 467.533C405.388 467.495 405.514 467.453 405.626 467.407V468.359C405.495 468.415 405.336 468.457 405.15 468.485C404.972 468.522 404.795 468.541 404.618 468.541ZM406.992 468.415V463.081C406.992 462.801 406.983 462.516 406.964 462.227C406.955 461.937 406.936 461.657 406.908 461.387H408L408.14 463.095L407.944 463.109C408.037 462.689 408.201 462.343 408.434 462.073C408.667 461.802 408.943 461.601 409.26 461.471C409.577 461.331 409.909 461.261 410.254 461.261C410.394 461.261 410.515 461.265 410.618 461.275C410.73 461.284 410.833 461.307 410.926 461.345L410.912 462.353C410.772 462.306 410.641 462.278 410.52 462.269C410.408 462.25 410.277 462.241 410.128 462.241C409.717 462.241 409.358 462.339 409.05 462.535C408.751 462.731 408.523 462.983 408.364 463.291C408.215 463.599 408.14 463.925 408.14 464.271V468.415H406.992ZM414.712 468.541C414.086 468.541 413.54 468.396 413.074 468.107C412.607 467.808 412.243 467.388 411.982 466.847C411.73 466.305 411.604 465.657 411.604 464.901C411.604 464.135 411.73 463.482 411.982 462.941C412.243 462.399 412.607 461.984 413.074 461.695C413.54 461.405 414.086 461.261 414.712 461.261C415.346 461.261 415.892 461.424 416.35 461.751C416.816 462.068 417.124 462.502 417.274 463.053H417.106L417.26 461.387H418.352C418.324 461.657 418.296 461.933 418.268 462.213C418.249 462.483 418.24 462.749 418.24 463.011V468.415H417.106V466.763H417.26C417.11 467.313 416.802 467.747 416.336 468.065C415.869 468.382 415.328 468.541 414.712 468.541ZM414.936 467.617C415.608 467.617 416.14 467.388 416.532 466.931C416.924 466.464 417.12 465.787 417.12 464.901C417.12 464.005 416.924 463.328 416.532 462.871C416.14 462.404 415.608 462.171 414.936 462.171C414.273 462.171 413.741 462.404 413.34 462.871C412.948 463.328 412.752 464.005 412.752 464.901C412.752 465.787 412.948 466.464 413.34 466.931C413.741 467.388 414.273 467.617 414.936 467.617ZM422.77 468.541C422.21 468.541 421.688 468.466 421.202 468.317C420.717 468.158 420.316 467.939 419.998 467.659L420.39 466.861C420.736 467.131 421.109 467.332 421.51 467.463C421.921 467.593 422.346 467.659 422.784 467.659C423.344 467.659 423.764 467.561 424.044 467.365C424.334 467.159 424.478 466.879 424.478 466.525C424.478 466.254 424.385 466.039 424.198 465.881C424.021 465.713 423.727 465.582 423.316 465.489L422.014 465.223C421.417 465.092 420.969 464.873 420.67 464.565C420.372 464.247 420.222 463.846 420.222 463.361C420.222 462.95 420.33 462.591 420.544 462.283C420.759 461.965 421.072 461.718 421.482 461.541C421.893 461.354 422.374 461.261 422.924 461.261C423.438 461.261 423.909 461.34 424.338 461.499C424.777 461.648 425.141 461.867 425.43 462.157L425.024 462.941C424.744 462.67 424.422 462.469 424.058 462.339C423.704 462.199 423.335 462.129 422.952 462.129C422.402 462.129 421.986 462.241 421.706 462.465C421.436 462.679 421.3 462.964 421.3 463.319C421.3 463.589 421.384 463.813 421.552 463.991C421.73 464.159 422 464.285 422.364 464.369L423.666 464.635C424.301 464.775 424.772 464.994 425.08 465.293C425.398 465.582 425.556 465.974 425.556 466.469C425.556 466.889 425.44 467.257 425.206 467.575C424.973 467.883 424.646 468.121 424.226 468.289C423.816 468.457 423.33 468.541 422.77 468.541ZM430.499 468.541C429.398 468.541 428.53 468.223 427.895 467.589C427.261 466.945 426.943 466.053 426.943 464.915C426.943 464.177 427.083 463.538 427.363 462.997C427.643 462.446 428.035 462.021 428.539 461.723C429.043 461.415 429.622 461.261 430.275 461.261C430.919 461.261 431.461 461.396 431.899 461.667C432.338 461.937 432.674 462.325 432.907 462.829C433.141 463.323 433.257 463.911 433.257 464.593V465.013H427.811V464.299H432.515L432.277 464.481C432.277 463.734 432.109 463.151 431.773 462.731C431.437 462.311 430.938 462.101 430.275 462.101C429.575 462.101 429.029 462.348 428.637 462.843C428.245 463.328 428.049 463.986 428.049 464.817V464.943C428.049 465.82 428.264 466.487 428.693 466.945C429.132 467.393 429.743 467.617 430.527 467.617C430.947 467.617 431.339 467.556 431.703 467.435C432.077 467.304 432.431 467.094 432.767 466.805L433.159 467.603C432.851 467.901 432.459 468.135 431.983 468.303C431.517 468.461 431.022 468.541 430.499 468.541ZM434.993 468.415V463.011C434.993 462.749 434.979 462.483 434.951 462.213C434.932 461.933 434.909 461.657 434.881 461.387H435.973L436.113 462.927H435.945C436.15 462.385 436.477 461.975 436.925 461.695C437.382 461.405 437.909 461.261 438.507 461.261C439.337 461.261 439.963 461.485 440.383 461.933C440.812 462.371 441.027 463.067 441.027 464.019V468.415H439.893V464.089C439.893 463.426 439.757 462.945 439.487 462.647C439.225 462.339 438.815 462.185 438.255 462.185C437.601 462.185 437.083 462.385 436.701 462.787C436.318 463.188 436.127 463.725 436.127 464.397V468.415H434.993ZM436.099 460.155L435.455 460.113C435.501 459.515 435.66 459.058 435.931 458.741C436.201 458.414 436.542 458.251 436.953 458.251C437.158 458.251 437.345 458.297 437.513 458.391C437.69 458.484 437.891 458.629 438.115 458.825C438.32 459.011 438.483 459.142 438.605 459.217C438.735 459.282 438.861 459.315 438.983 459.315C439.459 459.315 439.748 458.946 439.851 458.209L440.495 458.251C440.448 458.848 440.289 459.31 440.019 459.637C439.757 459.954 439.421 460.113 439.011 460.113C438.815 460.113 438.628 460.066 438.451 459.973C438.273 459.879 438.068 459.73 437.835 459.525C437.639 459.347 437.475 459.226 437.345 459.161C437.223 459.086 437.097 459.049 436.967 459.049C436.724 459.049 436.528 459.147 436.379 459.343C436.239 459.529 436.145 459.8 436.099 460.155ZM445.87 468.541C445.245 468.541 444.699 468.396 444.232 468.107C443.765 467.808 443.401 467.388 443.14 466.847C442.888 466.305 442.762 465.657 442.762 464.901C442.762 464.135 442.888 463.482 443.14 462.941C443.401 462.399 443.765 461.984 444.232 461.695C444.699 461.405 445.245 461.261 445.87 461.261C446.505 461.261 447.051 461.424 447.508 461.751C447.975 462.068 448.283 462.502 448.432 463.053H448.264L448.418 461.387H449.51C449.482 461.657 449.454 461.933 449.426 462.213C449.407 462.483 449.398 462.749 449.398 463.011V468.415H448.264V466.763H448.418C448.269 467.313 447.961 467.747 447.494 468.065C447.027 468.382 446.486 468.541 445.87 468.541ZM446.094 467.617C446.766 467.617 447.298 467.388 447.69 466.931C448.082 466.464 448.278 465.787 448.278 464.901C448.278 464.005 448.082 463.328 447.69 462.871C447.298 462.404 446.766 462.171 446.094 462.171C445.431 462.171 444.899 462.404 444.498 462.871C444.106 463.328 443.91 464.005 443.91 464.901C443.91 465.787 444.106 466.464 444.498 466.931C444.899 467.388 445.431 467.617 446.094 467.617Z" fill="black"/>
<path opacity="0.5" d="M381.27 561.665C380.281 561.665 379.441 561.46 378.75 561.049C378.06 560.639 377.528 560.055 377.154 559.299C376.79 558.543 376.608 557.643 376.608 556.597C376.608 555.552 376.79 554.656 377.154 553.909C377.528 553.153 378.06 552.57 378.75 552.159C379.441 551.749 380.281 551.543 381.27 551.543C381.97 551.543 382.596 551.651 383.146 551.865C383.697 552.08 384.178 552.393 384.588 552.803L384.154 553.727C383.706 553.335 383.263 553.051 382.824 552.873C382.386 552.687 381.872 552.593 381.284 552.593C380.155 552.593 379.296 552.943 378.708 553.643C378.12 554.343 377.826 555.328 377.826 556.597C377.826 557.867 378.12 558.856 378.708 559.565C379.296 560.265 380.155 560.615 381.284 560.615C381.872 560.615 382.386 560.527 382.824 560.349C383.263 560.163 383.706 559.869 384.154 559.467L384.588 560.405C384.178 560.807 383.697 561.119 383.146 561.343C382.596 561.558 381.97 561.665 381.27 561.665ZM388.808 561.665C388.136 561.665 387.548 561.521 387.044 561.231C386.55 560.933 386.167 560.513 385.896 559.971C385.626 559.421 385.49 558.772 385.49 558.025C385.49 557.269 385.626 556.621 385.896 556.079C386.167 555.538 386.55 555.123 387.044 554.833C387.548 554.535 388.136 554.385 388.808 554.385C389.49 554.385 390.078 554.535 390.572 554.833C391.076 555.123 391.464 555.538 391.734 556.079C392.014 556.621 392.154 557.269 392.154 558.025C392.154 558.772 392.014 559.421 391.734 559.971C391.464 560.513 391.076 560.933 390.572 561.231C390.078 561.521 389.49 561.665 388.808 561.665ZM388.808 560.741C389.48 560.741 390.012 560.513 390.404 560.055C390.796 559.589 390.992 558.912 390.992 558.025C390.992 557.129 390.792 556.453 390.39 555.995C389.998 555.529 389.471 555.295 388.808 555.295C388.146 555.295 387.618 555.529 387.226 555.995C386.834 556.453 386.638 557.129 386.638 558.025C386.638 558.912 386.834 559.589 387.226 560.055C387.618 560.513 388.146 560.741 388.808 560.741ZM393.922 561.539V556.135C393.922 555.874 393.908 555.608 393.88 555.337C393.862 555.057 393.838 554.782 393.81 554.511H394.902L395.042 556.051H394.874C395.08 555.51 395.406 555.099 395.854 554.819C396.312 554.53 396.839 554.385 397.436 554.385C398.267 554.385 398.892 554.609 399.312 555.057C399.742 555.496 399.956 556.191 399.956 557.143V561.539H398.822V557.213C398.822 556.551 398.687 556.07 398.416 555.771C398.155 555.463 397.744 555.309 397.184 555.309C396.531 555.309 396.013 555.51 395.63 555.911C395.248 556.313 395.056 556.849 395.056 557.521V561.539H393.922ZM402.49 561.539V555.393H401.118V554.511H402.798L402.49 554.805V553.629C402.49 552.836 402.686 552.229 403.078 551.809C403.479 551.389 404.048 551.179 404.786 551.179C404.963 551.179 405.15 551.198 405.346 551.235C405.551 551.263 405.724 551.305 405.864 551.361V552.299C405.752 552.253 405.612 552.215 405.444 552.187C405.285 552.15 405.122 552.131 404.954 552.131C404.515 552.131 404.184 552.262 403.96 552.523C403.736 552.785 403.624 553.186 403.624 553.727V554.749L403.442 554.511H407.95V561.539H406.816V555.393H403.624V561.539H402.49ZM406.69 552.915V551.641H408.09V552.915H406.69ZM410.137 561.539V556.205C410.137 555.925 410.127 555.641 410.109 555.351C410.099 555.062 410.081 554.782 410.053 554.511H411.145L411.285 556.219L411.089 556.233C411.182 555.813 411.345 555.468 411.579 555.197C411.812 554.927 412.087 554.726 412.405 554.595C412.722 554.455 413.053 554.385 413.399 554.385C413.539 554.385 413.66 554.39 413.763 554.399C413.875 554.409 413.977 554.432 414.071 554.469L414.057 555.477C413.917 555.431 413.786 555.403 413.665 555.393C413.553 555.375 413.422 555.365 413.273 555.365C412.862 555.365 412.503 555.463 412.195 555.659C411.896 555.855 411.667 556.107 411.509 556.415C411.359 556.723 411.285 557.05 411.285 557.395V561.539H410.137ZM415.251 561.539V556.135C415.251 555.874 415.237 555.608 415.209 555.337C415.19 555.057 415.167 554.782 415.139 554.511H416.231L416.371 556.051H416.203C416.389 555.519 416.683 555.109 417.085 554.819C417.495 554.53 417.99 554.385 418.569 554.385C419.157 554.385 419.633 554.525 419.997 554.805C420.37 555.085 420.622 555.519 420.753 556.107H420.543C420.72 555.575 421.033 555.155 421.481 554.847C421.929 554.539 422.451 554.385 423.049 554.385C423.823 554.385 424.407 554.609 424.799 555.057C425.191 555.496 425.387 556.191 425.387 557.143V561.539H424.253V557.213C424.253 556.551 424.136 556.07 423.903 555.771C423.669 555.463 423.296 555.309 422.783 555.309C422.195 555.309 421.728 555.515 421.383 555.925C421.047 556.327 420.879 556.868 420.879 557.549V561.539H419.745V557.213C419.745 556.551 419.628 556.07 419.395 555.771C419.161 555.463 418.788 555.309 418.275 555.309C417.687 555.309 417.225 555.515 416.889 555.925C416.553 556.327 416.385 556.868 416.385 557.549V561.539H415.251ZM430.216 561.665C429.59 561.665 429.044 561.521 428.578 561.231C428.111 560.933 427.747 560.513 427.486 559.971C427.234 559.43 427.108 558.781 427.108 558.025C427.108 557.26 427.234 556.607 427.486 556.065C427.747 555.524 428.111 555.109 428.578 554.819C429.044 554.53 429.59 554.385 430.216 554.385C430.85 554.385 431.396 554.549 431.854 554.875C432.32 555.193 432.628 555.627 432.778 556.177H432.61L432.764 554.511H433.856C433.828 554.782 433.8 555.057 433.772 555.337C433.753 555.608 433.744 555.874 433.744 556.135V561.539H432.61V559.887H432.764C432.614 560.438 432.306 560.872 431.84 561.189C431.373 561.507 430.832 561.665 430.216 561.665ZM430.44 560.741C431.112 560.741 431.644 560.513 432.036 560.055C432.428 559.589 432.624 558.912 432.624 558.025C432.624 557.129 432.428 556.453 432.036 555.995C431.644 555.529 431.112 555.295 430.44 555.295C429.777 555.295 429.245 555.529 428.844 555.995C428.452 556.453 428.256 557.129 428.256 558.025C428.256 558.912 428.452 559.589 428.844 560.055C429.245 560.513 429.777 560.741 430.44 560.741ZM435.908 561.539V556.205C435.908 555.925 435.899 555.641 435.88 555.351C435.871 555.062 435.852 554.782 435.824 554.511H436.916L437.056 556.219L436.86 556.233C436.953 555.813 437.117 555.468 437.35 555.197C437.583 554.927 437.859 554.726 438.176 554.595C438.493 554.455 438.825 554.385 439.17 554.385C439.31 554.385 439.431 554.39 439.534 554.399C439.646 554.409 439.749 554.432 439.842 554.469L439.828 555.477C439.688 555.431 439.557 555.403 439.436 555.393C439.324 555.375 439.193 555.365 439.044 555.365C438.633 555.365 438.274 555.463 437.966 555.659C437.667 555.855 437.439 556.107 437.28 556.415C437.131 556.723 437.056 557.05 437.056 557.395V561.539H435.908ZM447.626 561.665C446.936 561.665 446.334 561.516 445.82 561.217C445.316 560.919 444.924 560.494 444.644 559.943C444.374 559.393 444.238 558.739 444.238 557.983C444.238 557.218 444.378 556.569 444.658 556.037C444.938 555.496 445.33 555.085 445.834 554.805C446.348 554.525 446.945 554.385 447.626 554.385C448.074 554.385 448.508 554.465 448.928 554.623C449.358 554.782 449.712 555.006 449.992 555.295L449.586 556.107C449.306 555.837 448.998 555.636 448.662 555.505C448.336 555.375 448.014 555.309 447.696 555.309C446.968 555.309 446.404 555.538 446.002 555.995C445.601 556.453 445.4 557.12 445.4 557.997C445.4 558.865 445.601 559.537 446.002 560.013C446.404 560.489 446.968 560.727 447.696 560.727C448.004 560.727 448.322 560.667 448.648 560.545C448.984 560.424 449.297 560.223 449.586 559.943L449.992 560.741C449.703 561.04 449.344 561.269 448.914 561.427C448.485 561.586 448.056 561.665 447.626 561.665ZM454.351 561.665C453.679 561.665 453.091 561.521 452.587 561.231C452.093 560.933 451.71 560.513 451.439 559.971C451.169 559.421 451.033 558.772 451.033 558.025C451.033 557.269 451.169 556.621 451.439 556.079C451.71 555.538 452.093 555.123 452.587 554.833C453.091 554.535 453.679 554.385 454.351 554.385C455.033 554.385 455.621 554.535 456.115 554.833C456.619 555.123 457.007 555.538 457.277 556.079C457.557 556.621 457.697 557.269 457.697 558.025C457.697 558.772 457.557 559.421 457.277 559.971C457.007 560.513 456.619 560.933 456.115 561.231C455.621 561.521 455.033 561.665 454.351 561.665ZM454.351 560.741C455.023 560.741 455.555 560.513 455.947 560.055C456.339 559.589 456.535 558.912 456.535 558.025C456.535 557.129 456.335 556.453 455.933 555.995C455.541 555.529 455.014 555.295 454.351 555.295C453.689 555.295 453.161 555.529 452.769 555.995C452.377 556.453 452.181 557.129 452.181 558.025C452.181 558.912 452.377 559.589 452.769 560.055C453.161 560.513 453.689 560.741 454.351 560.741ZM459.465 561.539V556.135C459.465 555.874 459.451 555.608 459.423 555.337C459.405 555.057 459.381 554.782 459.353 554.511H460.445L460.585 556.051H460.417C460.623 555.51 460.949 555.099 461.397 554.819C461.855 554.53 462.382 554.385 462.979 554.385C463.81 554.385 464.435 554.609 464.855 555.057C465.285 555.496 465.499 556.191 465.499 557.143V561.539H464.365V557.213C464.365 556.551 464.23 556.07 463.959 555.771C463.698 555.463 463.287 555.309 462.727 555.309C462.074 555.309 461.556 555.51 461.173 555.911C460.791 556.313 460.599 556.849 460.599 557.521V561.539H459.465ZM470.16 561.665C469.47 561.665 468.943 561.469 468.579 561.077C468.215 560.676 468.033 560.074 468.033 559.271V555.393H466.661V554.511H468.033V552.593L469.167 552.271V554.511H471.183V555.393H469.167V559.145C469.167 559.705 469.26 560.107 469.447 560.349C469.643 560.583 469.932 560.699 470.315 560.699C470.492 560.699 470.651 560.685 470.791 560.657C470.931 560.62 471.057 560.578 471.169 560.531V561.483C471.038 561.539 470.879 561.581 470.693 561.609C470.515 561.647 470.338 561.665 470.16 561.665ZM472.535 561.539V556.205C472.535 555.925 472.526 555.641 472.507 555.351C472.498 555.062 472.479 554.782 472.451 554.511H473.543L473.683 556.219L473.487 556.233C473.58 555.813 473.744 555.468 473.977 555.197C474.21 554.927 474.486 554.726 474.803 554.595C475.12 554.455 475.452 554.385 475.797 554.385C475.937 554.385 476.058 554.39 476.161 554.399C476.273 554.409 476.376 554.432 476.469 554.469L476.455 555.477C476.315 555.431 476.184 555.403 476.063 555.393C475.951 555.375 475.82 555.365 475.671 555.365C475.26 555.365 474.901 555.463 474.593 555.659C474.294 555.855 474.066 556.107 473.907 556.415C473.758 556.723 473.683 557.05 473.683 557.395V561.539H472.535ZM480.255 561.665C479.629 561.665 479.083 561.521 478.617 561.231C478.15 560.933 477.786 560.513 477.525 559.971C477.273 559.43 477.147 558.781 477.147 558.025C477.147 557.26 477.273 556.607 477.525 556.065C477.786 555.524 478.15 555.109 478.617 554.819C479.083 554.53 479.629 554.385 480.255 554.385C480.889 554.385 481.435 554.549 481.893 554.875C482.359 555.193 482.667 555.627 482.817 556.177H482.649L482.803 554.511H483.895C483.867 554.782 483.839 555.057 483.811 555.337C483.792 555.608 483.783 555.874 483.783 556.135V561.539H482.649V559.887H482.803C482.653 560.438 482.345 560.872 481.879 561.189C481.412 561.507 480.871 561.665 480.255 561.665ZM480.479 560.741C481.151 560.741 481.683 560.513 482.075 560.055C482.467 559.589 482.663 558.912 482.663 558.025C482.663 557.129 482.467 556.453 482.075 555.995C481.683 555.529 481.151 555.295 480.479 555.295C479.816 555.295 479.284 555.529 478.883 555.995C478.491 556.453 478.295 557.129 478.295 558.025C478.295 558.912 478.491 559.589 478.883 560.055C479.284 560.513 479.816 560.741 480.479 560.741ZM488.313 561.665C487.753 561.665 487.23 561.591 486.745 561.441C486.26 561.283 485.858 561.063 485.541 560.783L485.933 559.985C486.278 560.256 486.652 560.457 487.053 560.587C487.464 560.718 487.888 560.783 488.327 560.783C488.887 560.783 489.307 560.685 489.587 560.489C489.876 560.284 490.021 560.004 490.021 559.649C490.021 559.379 489.928 559.164 489.741 559.005C489.564 558.837 489.27 558.707 488.859 558.613L487.557 558.347C486.96 558.217 486.512 557.997 486.213 557.689C485.914 557.372 485.765 556.971 485.765 556.485C485.765 556.075 485.872 555.715 486.087 555.407C486.302 555.09 486.614 554.843 487.025 554.665C487.436 554.479 487.916 554.385 488.467 554.385C488.98 554.385 489.452 554.465 489.881 554.623C490.32 554.773 490.684 554.992 490.973 555.281L490.567 556.065C490.287 555.795 489.965 555.594 489.601 555.463C489.246 555.323 488.878 555.253 488.495 555.253C487.944 555.253 487.529 555.365 487.249 555.589C486.978 555.804 486.843 556.089 486.843 556.443C486.843 556.714 486.927 556.938 487.095 557.115C487.272 557.283 487.543 557.409 487.907 557.493L489.209 557.759C489.844 557.899 490.315 558.119 490.623 558.417C490.94 558.707 491.099 559.099 491.099 559.593C491.099 560.013 490.982 560.382 490.749 560.699C490.516 561.007 490.189 561.245 489.769 561.413C489.358 561.581 488.873 561.665 488.313 561.665ZM496.042 561.665C494.941 561.665 494.073 561.348 493.438 560.713C492.804 560.069 492.486 559.178 492.486 558.039C492.486 557.302 492.626 556.663 492.906 556.121C493.186 555.571 493.578 555.146 494.082 554.847C494.586 554.539 495.165 554.385 495.818 554.385C496.462 554.385 497.004 554.521 497.442 554.791C497.881 555.062 498.217 555.449 498.45 555.953C498.684 556.448 498.8 557.036 498.8 557.717V558.137H493.354V557.423H498.058L497.82 557.605C497.82 556.859 497.652 556.275 497.316 555.855C496.98 555.435 496.481 555.225 495.818 555.225C495.118 555.225 494.572 555.473 494.18 555.967C493.788 556.453 493.592 557.111 493.592 557.941V558.067C493.592 558.945 493.807 559.612 494.236 560.069C494.675 560.517 495.286 560.741 496.07 560.741C496.49 560.741 496.882 560.681 497.246 560.559C497.62 560.429 497.974 560.219 498.31 559.929L498.702 560.727C498.394 561.026 498.002 561.259 497.526 561.427C497.06 561.586 496.565 561.665 496.042 561.665ZM500.536 561.539V556.135C500.536 555.874 500.522 555.608 500.494 555.337C500.475 555.057 500.452 554.782 500.424 554.511H501.516L501.656 556.051H501.488C501.693 555.51 502.02 555.099 502.468 554.819C502.925 554.53 503.452 554.385 504.05 554.385C504.88 554.385 505.506 554.609 505.926 555.057C506.355 555.496 506.57 556.191 506.57 557.143V561.539H505.436V557.213C505.436 556.551 505.3 556.07 505.03 555.771C504.768 555.463 504.358 555.309 503.798 555.309C503.144 555.309 502.626 555.51 502.244 555.911C501.861 556.313 501.67 556.849 501.67 557.521V561.539H500.536ZM501.642 553.279L500.998 553.237C501.044 552.64 501.203 552.183 501.474 551.865C501.744 551.539 502.085 551.375 502.496 551.375C502.701 551.375 502.888 551.422 503.056 551.515C503.233 551.609 503.434 551.753 503.658 551.949C503.863 552.136 504.026 552.267 504.148 552.341C504.278 552.407 504.404 552.439 504.526 552.439C505.002 552.439 505.291 552.071 505.394 551.333L506.038 551.375C505.991 551.973 505.832 552.435 505.562 552.761C505.3 553.079 504.964 553.237 504.554 553.237C504.358 553.237 504.171 553.191 503.994 553.097C503.816 553.004 503.611 552.855 503.378 552.649C503.182 552.472 503.018 552.351 502.888 552.285C502.766 552.211 502.64 552.173 502.51 552.173C502.267 552.173 502.071 552.271 501.922 552.467C501.782 552.654 501.688 552.925 501.642 553.279ZM511.413 561.665C510.787 561.665 510.241 561.521 509.775 561.231C509.308 560.933 508.944 560.513 508.683 559.971C508.431 559.43 508.305 558.781 508.305 558.025C508.305 557.26 508.431 556.607 508.683 556.065C508.944 555.524 509.308 555.109 509.775 554.819C510.241 554.53 510.787 554.385 511.413 554.385C512.047 554.385 512.593 554.549 513.051 554.875C513.517 555.193 513.825 555.627 513.975 556.177H513.807L513.961 554.511H515.053C515.025 554.782 514.997 555.057 514.969 555.337C514.95 555.608 514.941 555.874 514.941 556.135V561.539H513.807V559.887H513.961C513.811 560.438 513.503 560.872 513.037 561.189C512.57 561.507 512.029 561.665 511.413 561.665ZM511.637 560.741C512.309 560.741 512.841 560.513 513.233 560.055C513.625 559.589 513.821 558.912 513.821 558.025C513.821 557.129 513.625 556.453 513.233 555.995C512.841 555.529 512.309 555.295 511.637 555.295C510.974 555.295 510.442 555.529 510.041 555.995C509.649 556.453 509.453 557.129 509.453 558.025C509.453 558.912 509.649 559.589 510.041 560.055C510.442 560.513 510.974 560.741 511.637 560.741Z" fill="black"/>
<defs>
<filter id="filter0_d_249_842" x="403" y="659" width="423.137" height="104" filterUnits="userSpaceOnUse" color-interpolation-filters="sRGB">
<feFlood flood-opacity="0" result="BackgroundImageFix"/>
<feColorMatrix in="SourceAlpha" type="matrix" values="0 0 0 0 0 0 0 0 0 0 0 0 0 0 0 0 0 0 127 0" result="hardAlpha"/>
<feOffset dy="4"/>
<feGaussianBlur stdDeviation="2"/>
<feComposite in2="hardAlpha" operator="out"/>
<feColorMatrix type="matrix" values="0 0 0 0 0 0 0 0 0 0 0 0 0 0 0 0 0 0 0.25 0"/>
<feBlend mode="normal" in2="BackgroundImageFix" result="effect1_dropShadow_249_842"/>
<feBlend mode="normal" in="SourceGraphic" in2="effect1_dropShadow_249_842" result="shape"/>
</filter>
</defs>
</svg>
