<svg width="1440" height="900" viewBox="0 0 1440 900" fill="none" xmlns="http://www.w3.org/2000/svg">
<rect width="1440" height="900" fill="white"/>
<path d="M592.092 549.22C591.359 549.22 590.706 549.093 590.132 548.84C589.572 548.6 589.132 548.247 588.812 547.78C588.506 547.313 588.352 546.773 588.352 546.16C588.352 545.72 588.412 545.313 588.532 544.94C588.652 544.567 588.852 544.18 589.132 543.78C589.412 543.367 589.786 542.907 590.252 542.4C590.906 541.68 591.366 541.06 591.632 540.54C591.912 540.007 592.086 539.453 592.152 538.88L592.192 538.44H593.012V538.9C593.012 539.593 592.879 540.253 592.612 540.88C592.346 541.507 591.852 542.213 591.132 543C590.572 543.627 590.179 544.173 589.952 544.64C589.726 545.107 589.612 545.593 589.612 546.1C589.612 546.727 589.839 547.22 590.292 547.58C590.746 547.94 591.366 548.12 592.152 548.12C592.672 548.12 593.166 548.053 593.632 547.92C594.112 547.787 594.559 547.607 594.972 547.38V548.58C594.559 548.78 594.099 548.933 593.592 549.04C593.099 549.16 592.599 549.22 592.092 549.22ZM593.452 535V536.7H591.752V535H593.452ZM596.941 537.94C596.941 536.447 597.187 535.167 597.681 534.1C598.187 533.02 598.914 532.193 599.861 531.62C600.807 531.033 601.947 530.74 603.281 530.74C604.587 530.74 605.714 531.033 606.661 531.62C607.621 532.193 608.354 533.02 608.861 534.1C609.381 535.167 609.641 536.44 609.641 537.92C609.641 539.413 609.381 540.7 608.861 541.78C608.341 542.86 607.601 543.693 606.641 544.28C605.694 544.867 604.574 545.16 603.281 545.16C601.961 545.16 600.827 544.867 599.881 544.28C598.934 543.693 598.207 542.86 597.701 541.78C597.194 540.7 596.941 539.42 596.941 537.94ZM598.261 537.94C598.261 539.86 598.687 541.36 599.541 542.44C600.394 543.507 601.641 544.04 603.281 544.04C604.867 544.04 606.107 543.507 607.001 542.44C607.894 541.36 608.341 539.86 608.341 537.94C608.341 536.007 607.894 534.513 607.001 533.46C606.121 532.393 604.881 531.86 603.281 531.86C601.641 531.86 600.394 532.393 599.541 533.46C598.687 534.513 598.261 536.007 598.261 537.94ZM612.594 545V530.28H613.814V545H612.594ZM620.104 545L615.844 534.98H617.204L621.004 544.24H620.484L624.324 534.98H625.624L621.364 545H620.104ZM627.652 545V534.98H628.872V545H627.652ZM627.452 532.52V531H629.092V532.52H627.452ZM635.983 545.16C635.09 545.16 634.31 544.953 633.643 544.54C632.976 544.127 632.463 543.533 632.103 542.76C631.743 541.987 631.563 541.06 631.563 539.98C631.563 538.9 631.743 537.98 632.103 537.22C632.463 536.447 632.976 535.853 633.643 535.44C634.31 535.013 635.09 534.8 635.983 534.8C636.903 534.8 637.696 535.04 638.363 535.52C639.043 535.987 639.496 536.633 639.723 537.46H639.483V530.28H640.703V545H639.503V542.48H639.723C639.496 543.32 639.043 543.98 638.363 544.46C637.696 544.927 636.903 545.16 635.983 545.16ZM636.143 544.12C637.156 544.12 637.97 543.767 638.583 543.06C639.21 542.353 639.523 541.327 639.523 539.98C639.523 538.633 639.21 537.607 638.583 536.9C637.97 536.193 637.156 535.84 636.143 535.84C635.13 535.84 634.316 536.193 633.703 536.9C633.103 537.607 632.803 538.633 632.803 539.98C632.803 541.327 633.103 542.353 633.703 543.06C634.316 543.767 635.13 544.12 636.143 544.12ZM647.819 545.16C646.913 545.16 646.126 544.953 645.459 544.54C644.793 544.127 644.279 543.533 643.919 542.76C643.559 541.987 643.379 541.06 643.379 539.98C643.379 538.9 643.559 537.98 643.919 537.22C644.293 536.447 644.813 535.853 645.479 535.44C646.146 535.013 646.926 534.8 647.819 534.8C648.739 534.8 649.533 535.04 650.199 535.52C650.879 536 651.326 536.653 651.539 537.48H651.299L651.499 534.98H652.679C652.639 535.367 652.599 535.747 652.559 536.12C652.533 536.493 652.519 536.86 652.519 537.22V545H651.299V542.5H651.519C651.306 543.327 650.859 543.98 650.179 544.46C649.513 544.927 648.726 545.16 647.819 545.16ZM647.979 544.12C649.006 544.12 649.819 543.767 650.419 543.06C651.019 542.353 651.319 541.327 651.319 539.98C651.319 538.633 651.019 537.607 650.419 536.9C649.819 536.193 649.006 535.84 647.979 535.84C646.953 535.84 646.133 536.193 645.519 536.9C644.919 537.607 644.619 538.633 644.619 539.98C644.619 541.327 644.919 542.353 645.519 543.06C646.133 543.767 646.953 544.12 647.979 544.12ZM659.076 545.16C658.302 545.16 657.576 545.047 656.896 544.82C656.229 544.593 655.676 544.28 655.236 543.88L655.716 542.98C656.209 543.38 656.742 543.68 657.316 543.88C657.889 544.067 658.489 544.16 659.116 544.16C659.969 544.16 660.616 544 661.056 543.68C661.496 543.36 661.716 542.927 661.716 542.38C661.716 541.953 661.576 541.607 661.296 541.34C661.016 541.073 660.549 540.873 659.896 540.74L658.096 540.36C657.242 540.16 656.602 539.84 656.176 539.4C655.762 538.96 655.556 538.407 655.556 537.74C655.556 537.167 655.702 536.66 655.996 536.22C656.302 535.78 656.736 535.433 657.296 535.18C657.856 534.927 658.516 534.8 659.276 534.8C659.996 534.8 660.656 534.92 661.256 535.16C661.869 535.387 662.369 535.713 662.756 536.14L662.236 537.02C661.836 536.62 661.382 536.32 660.876 536.12C660.382 535.92 659.856 535.82 659.296 535.82C658.469 535.82 657.842 535.993 657.416 536.34C656.989 536.673 656.776 537.12 656.776 537.68C656.776 538.107 656.909 538.46 657.176 538.74C657.442 539.007 657.862 539.207 658.436 539.34L660.236 539.74C661.142 539.94 661.816 540.247 662.256 540.66C662.696 541.073 662.916 541.62 662.916 542.3C662.916 542.887 662.756 543.4 662.436 543.84C662.116 544.267 661.669 544.593 661.096 544.82C660.522 545.047 659.849 545.16 659.076 545.16ZM668.861 545.16C667.968 545.16 667.281 544.893 666.801 544.36C666.334 543.827 666.101 543.007 666.101 541.9V535.96H664.101V534.98H666.101V532.18L667.321 531.78V534.98H670.281V535.96H667.321V541.72C667.321 542.56 667.454 543.167 667.721 543.54C667.988 543.913 668.414 544.1 669.001 544.1C669.268 544.1 669.501 544.073 669.701 544.02C669.914 543.967 670.094 543.907 670.241 543.84V544.92C670.081 544.987 669.874 545.04 669.621 545.08C669.368 545.133 669.114 545.16 668.861 545.16ZM676.562 545.16C675.042 545.16 673.835 544.707 672.942 543.8C672.062 542.893 671.622 541.633 671.622 540.02C671.622 538.953 671.815 538.033 672.202 537.26C672.602 536.487 673.155 535.887 673.862 535.46C674.568 535.02 675.388 534.8 676.322 534.8C677.215 534.8 677.968 534.993 678.582 535.38C679.195 535.753 679.668 536.293 680.002 537C680.335 537.693 680.502 538.52 680.502 539.48V540.04H672.502V539.16H679.742L679.402 539.42C679.402 538.287 679.142 537.4 678.622 536.76C678.102 536.107 677.328 535.78 676.302 535.78C675.208 535.78 674.355 536.16 673.742 536.92C673.128 537.667 672.822 538.66 672.822 539.9V540.04C672.822 541.373 673.148 542.387 673.802 543.08C674.468 543.773 675.395 544.12 676.582 544.12C677.195 544.12 677.768 544.027 678.302 543.84C678.835 543.653 679.348 543.333 679.842 542.88L680.342 543.78C679.915 544.22 679.362 544.56 678.682 544.8C678.002 545.04 677.295 545.16 676.562 545.16ZM691.459 545.16C690.565 545.16 689.879 544.893 689.399 544.36C688.932 543.827 688.699 543.007 688.699 541.9V535.96H686.699V534.98H688.699V532.18L689.919 531.78V534.98H692.879V535.96H689.919V541.72C689.919 542.56 690.052 543.167 690.319 543.54C690.585 543.913 691.012 544.1 691.599 544.1C691.865 544.1 692.099 544.073 692.299 544.02C692.512 543.967 692.692 543.907 692.839 543.84V544.92C692.679 544.987 692.472 545.04 692.219 545.08C691.965 545.133 691.712 545.16 691.459 545.16ZM698.477 545.16C697.304 545.16 696.41 544.847 695.797 544.22C695.197 543.58 694.897 542.6 694.897 541.28V534.98H696.117V541.2C696.117 542.213 696.324 542.953 696.737 543.42C697.15 543.887 697.784 544.12 698.637 544.12C699.584 544.12 700.344 543.813 700.917 543.2C701.504 542.573 701.797 541.747 701.797 540.72V534.98H703.017V545H701.817V542.64H702.077C701.797 543.453 701.337 544.08 700.697 544.52C700.07 544.947 699.33 545.16 698.477 545.16ZM715.481 545.16C714.535 545.16 713.708 544.953 713.001 544.54C712.295 544.113 711.748 543.507 711.361 542.72C710.988 541.933 710.801 541 710.801 539.92C710.801 538.84 710.995 537.92 711.381 537.16C711.768 536.387 712.308 535.8 713.001 535.4C713.708 535 714.535 534.8 715.481 534.8C716.121 534.8 716.735 534.92 717.321 535.16C717.921 535.4 718.415 535.733 718.801 536.16L718.301 537.06C717.888 536.647 717.441 536.347 716.961 536.16C716.481 535.96 716.001 535.86 715.521 535.86C714.428 535.86 713.575 536.207 712.961 536.9C712.348 537.593 712.041 538.607 712.041 539.94C712.041 541.273 712.348 542.307 712.961 543.04C713.575 543.76 714.428 544.12 715.521 544.12C715.975 544.12 716.441 544.027 716.921 543.84C717.415 543.653 717.875 543.347 718.301 542.92L718.801 543.82C718.401 544.247 717.895 544.58 717.281 544.82C716.681 545.047 716.081 545.16 715.481 545.16ZM725.03 545.16C724.083 545.16 723.263 544.953 722.57 544.54C721.89 544.127 721.363 543.533 720.99 542.76C720.617 541.987 720.43 541.06 720.43 539.98C720.43 538.913 720.617 537.993 720.99 537.22C721.363 536.447 721.89 535.853 722.57 535.44C723.263 535.013 724.083 534.8 725.03 534.8C725.963 534.8 726.77 535.013 727.45 535.44C728.143 535.853 728.677 536.447 729.05 537.22C729.437 537.993 729.63 538.913 729.63 539.98C729.63 541.06 729.437 541.987 729.05 542.76C728.677 543.533 728.143 544.127 727.45 544.54C726.77 544.953 725.963 545.16 725.03 545.16ZM725.03 544.12C726.043 544.12 726.857 543.767 727.47 543.06C728.083 542.353 728.39 541.327 728.39 539.98C728.39 538.633 728.083 537.607 727.47 536.9C726.857 536.193 726.043 535.84 725.03 535.84C724.003 535.84 723.183 536.193 722.57 536.9C721.97 537.607 721.67 538.633 721.67 539.98C721.67 541.327 721.97 542.353 722.57 543.06C723.183 543.767 724.003 544.12 725.03 544.12ZM732.301 545V537.22C732.301 536.86 732.287 536.493 732.261 536.12C732.234 535.747 732.194 535.367 732.141 534.98H733.341L733.521 537.28H733.281C733.574 536.48 734.047 535.867 734.701 535.44C735.354 535.013 736.114 534.8 736.981 534.8C738.167 534.8 739.061 535.113 739.661 535.74C740.274 536.367 740.581 537.347 740.581 538.68V545H739.361V538.78C739.361 537.753 739.154 537.013 738.741 536.56C738.327 536.093 737.687 535.86 736.821 535.86C735.807 535.86 735.001 536.167 734.401 536.78C733.814 537.393 733.521 538.22 733.521 539.26V545H732.301ZM747.103 545.16C746.21 545.16 745.523 544.893 745.043 544.36C744.576 543.827 744.343 543.007 744.343 541.9V535.96H742.343V534.98H744.343V532.18L745.563 531.78V534.98H748.523V535.96H745.563V541.72C745.563 542.56 745.696 543.167 745.963 543.54C746.23 543.913 746.656 544.1 747.243 544.1C747.51 544.1 747.743 544.073 747.943 544.02C748.156 543.967 748.336 543.907 748.483 543.84V544.92C748.323 544.987 748.116 545.04 747.863 545.08C747.61 545.133 747.356 545.16 747.103 545.16ZM750.581 545V537.32C750.581 536.933 750.568 536.547 750.541 536.16C750.528 535.76 750.495 535.367 750.441 534.98H751.641L751.801 537.28L751.561 537.3C751.695 536.74 751.935 536.28 752.281 535.92C752.628 535.547 753.028 535.267 753.481 535.08C753.935 534.893 754.401 534.8 754.881 534.8C755.055 534.8 755.215 534.813 755.361 534.84C755.521 534.853 755.668 534.88 755.801 534.92L755.761 536.02C755.601 535.967 755.441 535.933 755.281 535.92C755.121 535.907 754.948 535.9 754.761 535.9C754.161 535.9 753.635 536.047 753.181 536.34C752.741 536.633 752.401 537.007 752.161 537.46C751.921 537.913 751.801 538.373 751.801 538.84V545H750.581ZM761.276 545.16C760.37 545.16 759.583 544.953 758.916 544.54C758.25 544.127 757.736 543.533 757.376 542.76C757.016 541.987 756.836 541.06 756.836 539.98C756.836 538.9 757.016 537.98 757.376 537.22C757.75 536.447 758.27 535.853 758.936 535.44C759.603 535.013 760.383 534.8 761.276 534.8C762.196 534.8 762.99 535.04 763.656 535.52C764.336 536 764.783 536.653 764.996 537.48H764.756L764.956 534.98H766.136C766.096 535.367 766.056 535.747 766.016 536.12C765.99 536.493 765.976 536.86 765.976 537.22V545H764.756V542.5H764.976C764.763 543.327 764.316 543.98 763.636 544.46C762.97 544.927 762.183 545.16 761.276 545.16ZM761.436 544.12C762.463 544.12 763.276 543.767 763.876 543.06C764.476 542.353 764.776 541.327 764.776 539.98C764.776 538.633 764.476 537.607 763.876 536.9C763.276 536.193 762.463 535.84 761.436 535.84C760.41 535.84 759.59 536.193 758.976 536.9C758.376 537.607 758.076 538.633 758.076 539.98C758.076 541.327 758.376 542.353 758.976 543.06C759.59 543.767 760.41 544.12 761.436 544.12ZM772.533 545.16C771.759 545.16 771.033 545.047 770.353 544.82C769.686 544.593 769.133 544.28 768.693 543.88L769.173 542.98C769.666 543.38 770.199 543.68 770.773 543.88C771.346 544.067 771.946 544.16 772.573 544.16C773.426 544.16 774.073 544 774.513 543.68C774.953 543.36 775.173 542.927 775.173 542.38C775.173 541.953 775.033 541.607 774.753 541.34C774.473 541.073 774.006 540.873 773.353 540.74L771.553 540.36C770.699 540.16 770.059 539.84 769.633 539.4C769.219 538.96 769.013 538.407 769.013 537.74C769.013 537.167 769.159 536.66 769.453 536.22C769.759 535.78 770.193 535.433 770.753 535.18C771.313 534.927 771.973 534.8 772.733 534.8C773.453 534.8 774.113 534.92 774.713 535.16C775.326 535.387 775.826 535.713 776.213 536.14L775.693 537.02C775.293 536.62 774.839 536.32 774.333 536.12C773.839 535.92 773.313 535.82 772.753 535.82C771.926 535.82 771.299 535.993 770.873 536.34C770.446 536.673 770.233 537.12 770.233 537.68C770.233 538.107 770.366 538.46 770.633 538.74C770.899 539.007 771.319 539.207 771.893 539.34L773.693 539.74C774.599 539.94 775.273 540.247 775.713 540.66C776.153 541.073 776.373 541.62 776.373 542.3C776.373 542.887 776.213 543.4 775.893 543.84C775.573 544.267 775.126 544.593 774.553 544.82C773.979 545.047 773.306 545.16 772.533 545.16ZM783.476 545.16C781.956 545.16 780.749 544.707 779.856 543.8C778.976 542.893 778.536 541.633 778.536 540.02C778.536 538.953 778.729 538.033 779.116 537.26C779.516 536.487 780.069 535.887 780.776 535.46C781.482 535.02 782.302 534.8 783.236 534.8C784.129 534.8 784.882 534.993 785.496 535.38C786.109 535.753 786.582 536.293 786.916 537C787.249 537.693 787.416 538.52 787.416 539.48V540.04H779.416V539.16H786.656L786.316 539.42C786.316 538.287 786.056 537.4 785.536 536.76C785.016 536.107 784.242 535.78 783.216 535.78C782.122 535.78 781.269 536.16 780.656 536.92C780.042 537.667 779.736 538.66 779.736 539.9V540.04C779.736 541.373 780.062 542.387 780.716 543.08C781.382 543.773 782.309 544.12 783.496 544.12C784.109 544.12 784.682 544.027 785.216 543.84C785.749 543.653 786.262 543.333 786.756 542.88L787.256 543.78C786.829 544.22 786.276 544.56 785.596 544.8C784.916 545.04 784.209 545.16 783.476 545.16ZM790.035 545V537.22C790.035 536.86 790.022 536.493 789.995 536.12C789.968 535.747 789.928 535.367 789.875 534.98H791.075L791.255 537.28H791.015C791.308 536.48 791.782 535.867 792.435 535.44C793.088 535.013 793.848 534.8 794.715 534.8C795.902 534.8 796.795 535.113 797.395 535.74C798.008 536.367 798.315 537.347 798.315 538.68V545H797.095V538.78C797.095 537.753 796.888 537.013 796.475 536.56C796.062 536.093 795.422 535.86 794.555 535.86C793.542 535.86 792.735 536.167 792.135 536.78C791.548 537.393 791.255 538.22 791.255 539.26V545H790.035ZM791.435 533.16L790.655 533.1C790.735 532.287 790.948 531.66 791.295 531.22C791.655 530.78 792.122 530.56 792.695 530.56C792.975 530.56 793.235 530.633 793.475 530.78C793.728 530.927 794.015 531.147 794.335 531.44C794.628 531.72 794.862 531.913 795.035 532.02C795.222 532.127 795.402 532.18 795.575 532.18C796.255 532.18 796.675 531.62 796.835 530.5L797.615 530.56C797.535 531.373 797.315 532 796.955 532.44C796.608 532.88 796.155 533.1 795.595 533.1C795.328 533.1 795.068 533.027 794.815 532.88C794.575 532.733 794.282 532.507 793.935 532.2C793.642 531.933 793.408 531.747 793.235 531.64C793.062 531.533 792.882 531.48 792.695 531.48C792.348 531.48 792.068 531.627 791.855 531.92C791.655 532.213 791.515 532.627 791.435 533.16ZM805.398 545.16C804.491 545.16 803.704 544.953 803.038 544.54C802.371 544.127 801.858 543.533 801.498 542.76C801.138 541.987 800.958 541.06 800.958 539.98C800.958 538.9 801.138 537.98 801.498 537.22C801.871 536.447 802.391 535.853 803.058 535.44C803.724 535.013 804.504 534.8 805.398 534.8C806.318 534.8 807.111 535.04 807.778 535.52C808.458 536 808.904 536.653 809.118 537.48H808.878L809.078 534.98H810.258C810.218 535.367 810.178 535.747 810.138 536.12C810.111 536.493 810.098 536.86 810.098 537.22V545H808.878V542.5H809.098C808.884 543.327 808.438 543.98 807.758 544.46C807.091 544.927 806.304 545.16 805.398 545.16ZM805.558 544.12C806.584 544.12 807.398 543.767 807.998 543.06C808.598 542.353 808.898 541.327 808.898 539.98C808.898 538.633 808.598 537.607 807.998 536.9C807.398 536.193 806.584 535.84 805.558 535.84C804.531 535.84 803.711 536.193 803.098 536.9C802.498 537.607 802.198 538.633 802.198 539.98C802.198 541.327 802.498 542.353 803.098 543.06C803.711 543.767 804.531 544.12 805.558 544.12ZM814.999 541.54V541.06C814.999 540.367 815.132 539.707 815.399 539.08C815.666 538.453 816.152 537.747 816.859 536.96C817.419 536.32 817.812 535.773 818.039 535.32C818.266 534.853 818.379 534.367 818.379 533.86C818.379 533.233 818.152 532.74 817.699 532.38C817.246 532.02 816.626 531.84 815.839 531.84C815.319 531.84 814.826 531.907 814.359 532.04C813.892 532.173 813.446 532.353 813.019 532.58V531.38C813.446 531.18 813.906 531.027 814.399 530.92C814.892 530.8 815.392 530.74 815.899 530.74C816.646 530.74 817.299 530.867 817.859 531.12C818.419 531.36 818.852 531.707 819.159 532.16C819.479 532.613 819.639 533.16 819.639 533.8C819.639 534.227 819.572 534.633 819.439 535.02C819.319 535.407 819.119 535.807 818.839 536.22C818.559 536.62 818.192 537.067 817.739 537.56C817.086 538.28 816.619 538.907 816.339 539.44C816.072 539.96 815.912 540.507 815.859 541.08L815.799 541.54H814.999ZM814.539 545V543.28H816.239V545H814.539Z" fill="#241C1C"/>
<rect x="430" y="204" width="580" height="80" rx="31.5" fill="#F5F4F2"/>
<g filter="url(#filter0_d_249_873)">
<rect x="579" y="423" width="250" height="80" rx="31.5" fill="#46B593"/>
<path d="M678.615 470V457.31H687.165V459.128H680.847V462.638H686.751V464.474H680.847V468.164H687.165V470H678.615ZM689.14 470V463.178C689.14 462.806 689.128 462.428 689.104 462.044C689.08 461.66 689.044 461.282 688.996 460.91H691.174L691.354 462.71H691.138C691.426 462.074 691.852 461.588 692.416 461.252C692.98 460.904 693.634 460.73 694.378 460.73C695.446 460.73 696.25 461.03 696.79 461.63C697.33 462.23 697.6 463.166 697.6 464.438V470H695.35V464.546C695.35 463.814 695.206 463.292 694.918 462.98C694.642 462.656 694.222 462.494 693.658 462.494C692.962 462.494 692.41 462.71 692.002 463.142C691.594 463.574 691.39 464.15 691.39 464.87V470H689.14ZM703.874 470.18C702.794 470.18 701.978 469.898 701.426 469.334C700.874 468.77 700.598 467.924 700.598 466.796V462.602H698.852V460.91H700.598V458.588L702.848 458.012V460.91H705.278V462.602H702.848V466.652C702.848 467.276 702.968 467.714 703.208 467.966C703.448 468.218 703.778 468.344 704.198 468.344C704.426 468.344 704.618 468.326 704.774 468.29C704.942 468.254 705.104 468.206 705.26 468.146V469.928C705.056 470.012 704.828 470.072 704.576 470.108C704.336 470.156 704.102 470.18 703.874 470.18ZM706.788 470V463.232C706.788 462.848 706.776 462.458 706.752 462.062C706.74 461.666 706.71 461.282 706.662 460.91H708.84L709.092 463.394H708.732C708.852 462.794 709.05 462.296 709.326 461.9C709.614 461.504 709.962 461.21 710.37 461.018C710.778 460.826 711.222 460.73 711.702 460.73C711.918 460.73 712.092 460.742 712.224 460.766C712.356 460.778 712.488 460.808 712.62 460.856L712.602 462.836C712.374 462.74 712.176 462.68 712.008 462.656C711.852 462.632 711.654 462.62 711.414 462.62C710.898 462.62 710.46 462.728 710.1 462.944C709.752 463.16 709.488 463.46 709.308 463.844C709.14 464.228 709.056 464.666 709.056 465.158V470H706.788ZM717.295 470.18C716.503 470.18 715.807 469.994 715.207 469.622C714.607 469.238 714.139 468.692 713.803 467.984C713.467 467.276 713.299 466.43 713.299 465.446C713.299 464.462 713.467 463.622 713.803 462.926C714.139 462.218 714.607 461.678 715.207 461.306C715.807 460.922 716.503 460.73 717.295 460.73C718.063 460.73 718.735 460.922 719.311 461.306C719.899 461.678 720.289 462.182 720.481 462.818H720.283L720.481 460.91H722.641C722.605 461.282 722.569 461.66 722.533 462.044C722.509 462.428 722.497 462.806 722.497 463.178V470H720.265L720.247 468.128H720.463C720.271 468.752 719.881 469.25 719.293 469.622C718.705 469.994 718.039 470.18 717.295 470.18ZM717.925 468.452C718.633 468.452 719.203 468.206 719.635 467.714C720.067 467.21 720.283 466.454 720.283 465.446C720.283 464.438 720.067 463.688 719.635 463.196C719.203 462.704 718.633 462.458 717.925 462.458C717.217 462.458 716.647 462.704 716.215 463.196C715.783 463.688 715.567 464.438 715.567 465.446C715.567 466.454 715.777 467.21 716.197 467.714C716.629 468.206 717.205 468.452 717.925 468.452ZM724.929 470V463.232C724.929 462.848 724.917 462.458 724.893 462.062C724.881 461.666 724.851 461.282 724.803 460.91H726.981L727.233 463.394H726.873C726.993 462.794 727.191 462.296 727.467 461.9C727.755 461.504 728.103 461.21 728.511 461.018C728.919 460.826 729.363 460.73 729.843 460.73C730.059 460.73 730.233 460.742 730.365 460.766C730.497 460.778 730.629 460.808 730.761 460.856L730.743 462.836C730.515 462.74 730.317 462.68 730.149 462.656C729.993 462.632 729.795 462.62 729.555 462.62C729.039 462.62 728.601 462.728 728.241 462.944C727.893 463.16 727.629 463.46 727.449 463.844C727.281 464.228 727.197 464.666 727.197 465.158V470H724.929Z" fill="#F5F4F2"/>
</g>
<rect x="579" y="592" width="250" height="30" rx="15" fill="#C8C4B7" fill-opacity="0.72"/>
<path d="M647.332 614.926C646.8 614.926 646.328 614.837 645.918 614.66C645.516 614.483 645.199 614.226 644.966 613.89C644.742 613.563 644.63 613.176 644.63 612.728C644.63 612.42 644.672 612.135 644.756 611.874C644.84 611.613 644.98 611.347 645.176 611.076C645.372 610.796 645.633 610.488 645.96 610.152C646.426 609.676 646.748 609.265 646.926 608.92C647.112 608.575 647.229 608.215 647.276 607.842L647.318 607.548H648.046V607.912C648.046 608.379 647.952 608.822 647.766 609.242C647.588 609.662 647.262 610.129 646.786 610.642C646.422 611.053 646.165 611.407 646.016 611.706C645.866 612.005 645.792 612.317 645.792 612.644C645.792 613.045 645.936 613.358 646.226 613.582C646.524 613.815 646.93 613.932 647.444 613.932C647.808 613.932 648.158 613.881 648.494 613.778C648.83 613.685 649.147 613.554 649.446 613.386V614.436C649.147 614.585 648.811 614.702 648.438 614.786C648.074 614.879 647.705 614.926 647.332 614.926ZM648.396 604.972V606.414H646.968V604.972H648.396ZM651.689 612V602.13H652.599L658.927 610.53H658.605V602.13H659.683V612H658.787L652.459 603.6H652.767V612H651.689ZM664.906 612.126C664.234 612.126 663.646 611.981 663.142 611.692C662.647 611.393 662.265 610.973 661.994 610.432C661.723 609.881 661.588 609.233 661.588 608.486C661.588 607.73 661.723 607.081 661.994 606.54C662.265 605.999 662.647 605.583 663.142 605.294C663.646 604.995 664.234 604.846 664.906 604.846C665.587 604.846 666.175 604.995 666.67 605.294C667.174 605.583 667.561 605.999 667.832 606.54C668.112 607.081 668.252 607.73 668.252 608.486C668.252 609.233 668.112 609.881 667.832 610.432C667.561 610.973 667.174 611.393 666.67 611.692C666.175 611.981 665.587 612.126 664.906 612.126ZM664.906 611.202C665.578 611.202 666.11 610.973 666.502 610.516C666.894 610.049 667.09 609.373 667.09 608.486C667.09 607.59 666.889 606.913 666.488 606.456C666.096 605.989 665.569 605.756 664.906 605.756C664.243 605.756 663.716 605.989 663.324 606.456C662.932 606.913 662.736 607.59 662.736 608.486C662.736 609.373 662.932 610.049 663.324 610.516C663.716 610.973 664.243 611.202 664.906 611.202ZM676.162 612.126C675.472 612.126 674.944 611.93 674.58 611.538C674.216 611.137 674.034 610.535 674.034 609.732V605.854H672.662V604.972H674.034V603.054L675.168 602.732V604.972H677.184V605.854H675.168V609.606C675.168 610.166 675.262 610.567 675.448 610.81C675.644 611.043 675.934 611.16 676.316 611.16C676.494 611.16 676.652 611.146 676.792 611.118C676.932 611.081 677.058 611.039 677.17 610.992V611.944C677.04 612 676.881 612.042 676.694 612.07C676.517 612.107 676.34 612.126 676.162 612.126ZM678.565 612V604.972H679.699V612H678.565ZM678.425 603.376V602.102H679.825V603.376H678.425ZM685.023 612.126C683.922 612.126 683.054 611.809 682.419 611.174C681.784 610.53 681.467 609.639 681.467 608.5C681.467 607.763 681.607 607.123 681.887 606.582C682.167 606.031 682.559 605.607 683.063 605.308C683.567 605 684.146 604.846 684.799 604.846C685.443 604.846 685.984 604.981 686.423 605.252C686.862 605.523 687.198 605.91 687.431 606.414C687.664 606.909 687.781 607.497 687.781 608.178V608.598H682.335V607.884H687.039L686.801 608.066C686.801 607.319 686.633 606.736 686.297 606.316C685.961 605.896 685.462 605.686 684.799 605.686C684.099 605.686 683.553 605.933 683.161 606.428C682.769 606.913 682.573 607.571 682.573 608.402V608.528C682.573 609.405 682.788 610.073 683.217 610.53C683.656 610.978 684.267 611.202 685.051 611.202C685.471 611.202 685.863 611.141 686.227 611.02C686.6 610.889 686.955 610.679 687.291 610.39L687.683 611.188C687.375 611.487 686.983 611.72 686.507 611.888C686.04 612.047 685.546 612.126 685.023 612.126ZM689.516 612V606.596C689.516 606.335 689.502 606.069 689.474 605.798C689.455 605.518 689.432 605.243 689.404 604.972H690.496L690.636 606.512H690.468C690.673 605.971 691 605.56 691.448 605.28C691.905 604.991 692.433 604.846 693.03 604.846C693.861 604.846 694.486 605.07 694.906 605.518C695.335 605.957 695.55 606.652 695.55 607.604V612H694.416V607.674C694.416 607.011 694.281 606.531 694.01 606.232C693.749 605.924 693.338 605.77 692.778 605.77C692.125 605.77 691.607 605.971 691.224 606.372C690.841 606.773 690.65 607.31 690.65 607.982V612H689.516ZM700.841 612.126C699.74 612.126 698.872 611.809 698.237 611.174C697.603 610.53 697.285 609.639 697.285 608.5C697.285 607.763 697.425 607.123 697.705 606.582C697.985 606.031 698.377 605.607 698.881 605.308C699.385 605 699.964 604.846 700.617 604.846C701.261 604.846 701.803 604.981 702.241 605.252C702.68 605.523 703.016 605.91 703.249 606.414C703.483 606.909 703.599 607.497 703.599 608.178V608.598H698.153V607.884H702.857L702.619 608.066C702.619 607.319 702.451 606.736 702.115 606.316C701.779 605.896 701.28 605.686 700.617 605.686C699.917 605.686 699.371 605.933 698.979 606.428C698.587 606.913 698.391 607.571 698.391 608.402V608.528C698.391 609.405 698.606 610.073 699.035 610.53C699.474 610.978 700.085 611.202 700.869 611.202C701.289 611.202 701.681 611.141 702.045 611.02C702.419 610.889 702.773 610.679 703.109 610.39L703.501 611.188C703.193 611.487 702.801 611.72 702.325 611.888C701.859 612.047 701.364 612.126 700.841 612.126ZM707.673 612.126C707.113 612.126 706.59 612.051 706.105 611.902C705.619 611.743 705.218 611.524 704.901 611.244L705.293 610.446C705.638 610.717 706.011 610.917 706.413 611.048C706.823 611.179 707.248 611.244 707.687 611.244C708.247 611.244 708.667 611.146 708.947 610.95C709.236 610.745 709.381 610.465 709.381 610.11C709.381 609.839 709.287 609.625 709.101 609.466C708.923 609.298 708.629 609.167 708.219 609.074L706.917 608.808C706.319 608.677 705.871 608.458 705.573 608.15C705.274 607.833 705.125 607.431 705.125 606.946C705.125 606.535 705.232 606.176 705.447 605.868C705.661 605.551 705.974 605.303 706.385 605.126C706.795 604.939 707.276 604.846 707.827 604.846C708.34 604.846 708.811 604.925 709.241 605.084C709.679 605.233 710.043 605.453 710.333 605.742L709.927 606.526C709.647 606.255 709.325 606.055 708.961 605.924C708.606 605.784 708.237 605.714 707.855 605.714C707.304 605.714 706.889 605.826 706.609 606.05C706.338 606.265 706.203 606.549 706.203 606.904C706.203 607.175 706.287 607.399 706.455 607.576C706.632 607.744 706.903 607.87 707.267 607.954L708.569 608.22C709.203 608.36 709.675 608.579 709.983 608.878C710.3 609.167 710.459 609.559 710.459 610.054C710.459 610.474 710.342 610.843 710.109 611.16C709.875 611.468 709.549 611.706 709.129 611.874C708.718 612.042 708.233 612.126 707.673 612.126ZM718.884 612.126C718.194 612.126 717.592 611.977 717.078 611.678C716.574 611.379 716.182 610.955 715.902 610.404C715.632 609.853 715.496 609.2 715.496 608.444C715.496 607.679 715.636 607.03 715.916 606.498C716.196 605.957 716.588 605.546 717.092 605.266C717.606 604.986 718.203 604.846 718.884 604.846C719.332 604.846 719.766 604.925 720.186 605.084C720.616 605.243 720.97 605.467 721.25 605.756L720.844 606.568C720.564 606.297 720.256 606.097 719.92 605.966C719.594 605.835 719.272 605.77 718.954 605.77C718.226 605.77 717.662 605.999 717.26 606.456C716.859 606.913 716.658 607.581 716.658 608.458C716.658 609.326 716.859 609.998 717.26 610.474C717.662 610.95 718.226 611.188 718.954 611.188C719.262 611.188 719.58 611.127 719.906 611.006C720.242 610.885 720.555 610.684 720.844 610.404L721.25 611.202C720.961 611.501 720.602 611.729 720.172 611.888C719.743 612.047 719.314 612.126 718.884 612.126ZM725.34 612.126C724.509 612.126 723.879 611.897 723.45 611.44C723.03 610.983 722.82 610.283 722.82 609.34V604.972H723.954V609.312C723.954 609.956 724.085 610.432 724.346 610.74C724.607 611.039 725.013 611.188 725.564 611.188C726.18 611.188 726.675 610.987 727.048 610.586C727.421 610.185 727.608 609.648 727.608 608.976V604.972H728.742V612H727.636V610.418H727.818C727.622 610.959 727.305 611.379 726.866 611.678C726.437 611.977 725.928 612.126 725.34 612.126ZM734.064 612.126C732.963 612.126 732.095 611.809 731.46 611.174C730.825 610.53 730.508 609.639 730.508 608.5C730.508 607.763 730.648 607.123 730.928 606.582C731.208 606.031 731.6 605.607 732.104 605.308C732.608 605 733.187 604.846 733.84 604.846C734.484 604.846 735.025 604.981 735.464 605.252C735.903 605.523 736.239 605.91 736.472 606.414C736.705 606.909 736.822 607.497 736.822 608.178V608.598H731.376V607.884H736.08L735.842 608.066C735.842 607.319 735.674 606.736 735.338 606.316C735.002 605.896 734.503 605.686 733.84 605.686C733.14 605.686 732.594 605.933 732.202 606.428C731.81 606.913 731.614 607.571 731.614 608.402V608.528C731.614 609.405 731.829 610.073 732.258 610.53C732.697 610.978 733.308 611.202 734.092 611.202C734.512 611.202 734.904 611.141 735.268 611.02C735.641 610.889 735.996 610.679 736.332 610.39L736.724 611.188C736.416 611.487 736.024 611.72 735.548 611.888C735.081 612.047 734.587 612.126 734.064 612.126ZM738.557 612V606.596C738.557 606.335 738.543 606.069 738.515 605.798C738.496 605.518 738.473 605.243 738.445 604.972H739.537L739.677 606.512H739.509C739.714 605.971 740.041 605.56 740.489 605.28C740.946 604.991 741.474 604.846 742.071 604.846C742.902 604.846 743.527 605.07 743.947 605.518C744.376 605.957 744.591 606.652 744.591 607.604V612H743.457V607.674C743.457 607.011 743.322 606.531 743.051 606.232C742.79 605.924 742.379 605.77 741.819 605.77C741.166 605.77 740.648 605.971 740.265 606.372C739.882 606.773 739.691 607.31 739.691 607.982V612H738.557ZM749.252 612.126C748.562 612.126 748.034 611.93 747.67 611.538C747.306 611.137 747.124 610.535 747.124 609.732V605.854H745.752V604.972H747.124V603.054L748.258 602.732V604.972H750.274V605.854H748.258V609.606C748.258 610.166 748.352 610.567 748.538 610.81C748.734 611.043 749.024 611.16 749.406 611.16C749.584 611.16 749.742 611.146 749.882 611.118C750.022 611.081 750.148 611.039 750.26 610.992V611.944C750.13 612 749.971 612.042 749.784 612.07C749.607 612.107 749.43 612.126 749.252 612.126ZM754.329 612.126C753.703 612.126 753.157 611.981 752.691 611.692C752.224 611.393 751.86 610.973 751.599 610.432C751.347 609.891 751.221 609.242 751.221 608.486C751.221 607.721 751.347 607.067 751.599 606.526C751.86 605.985 752.224 605.569 752.691 605.28C753.157 604.991 753.703 604.846 754.329 604.846C754.963 604.846 755.509 605.009 755.967 605.336C756.433 605.653 756.741 606.087 756.891 606.638H756.723L756.877 604.972H757.969C757.941 605.243 757.913 605.518 757.885 605.798C757.866 606.069 757.857 606.335 757.857 606.596V612H756.723V610.348H756.877C756.727 610.899 756.419 611.333 755.953 611.65C755.486 611.967 754.945 612.126 754.329 612.126ZM754.553 611.202C755.225 611.202 755.757 610.973 756.149 610.516C756.541 610.049 756.737 609.373 756.737 608.486C756.737 607.59 756.541 606.913 756.149 606.456C755.757 605.989 755.225 605.756 754.553 605.756C753.89 605.756 753.358 605.989 752.957 606.456C752.565 606.913 752.369 607.59 752.369 608.486C752.369 609.373 752.565 610.049 752.957 610.516C753.358 610.973 753.89 611.202 754.553 611.202ZM761.201 609.424V609.018C761.201 608.542 761.29 608.099 761.467 607.688C761.654 607.268 761.98 606.797 762.447 606.274C762.811 605.873 763.068 605.523 763.217 605.224C763.366 604.916 763.441 604.603 763.441 604.286C763.441 603.885 763.296 603.572 763.007 603.348C762.718 603.115 762.316 602.998 761.803 602.998C761.439 602.998 761.089 603.049 760.753 603.152C760.417 603.245 760.095 603.376 759.787 603.544V602.494C760.095 602.335 760.431 602.214 760.795 602.13C761.168 602.046 761.542 602.004 761.915 602.004C762.447 602.004 762.914 602.093 763.315 602.27C763.716 602.438 764.029 602.685 764.253 603.012C764.486 603.329 764.603 603.721 764.603 604.188C764.603 604.487 764.556 604.776 764.463 605.056C764.37 605.327 764.225 605.602 764.029 605.882C763.833 606.153 763.581 606.451 763.273 606.778C762.816 607.245 762.494 607.655 762.307 608.01C762.12 608.355 762.008 608.71 761.971 609.074L761.929 609.424H761.201ZM760.837 612V610.572H762.279V612H760.837Z" fill="black"/>
<path d="M654.057 139L662.351 120.67H665.159L673.557 139H670.151L667.915 133.852L669.267 134.762H658.269L659.673 133.852L657.437 139H654.057ZM663.729 124.258L660.063 132.942L659.387 132.136H668.123L667.577 132.942L663.833 124.258H663.729ZM681.23 139.26C679.878 139.26 678.69 138.983 677.668 138.428C676.662 137.873 675.882 137.085 675.328 136.062C674.773 135.022 674.496 133.791 674.496 132.37C674.496 130.949 674.773 129.735 675.328 128.73C675.9 127.725 676.688 126.953 677.694 126.416C678.699 125.879 679.878 125.61 681.23 125.61C682.096 125.61 682.937 125.749 683.752 126.026C684.584 126.286 685.26 126.667 685.78 127.17L684.792 129.432C684.324 128.999 683.795 128.678 683.206 128.47C682.634 128.245 682.07 128.132 681.516 128.132C680.354 128.132 679.444 128.496 678.786 129.224C678.144 129.952 677.824 131.009 677.824 132.396C677.824 133.783 678.144 134.849 678.786 135.594C679.444 136.339 680.354 136.712 681.516 136.712C682.053 136.712 682.608 136.608 683.18 136.4C683.769 136.192 684.306 135.871 684.792 135.438L685.78 137.674C685.242 138.177 684.558 138.567 683.726 138.844C682.911 139.121 682.079 139.26 681.23 139.26ZM694.077 139.26C692.725 139.26 691.538 138.983 690.515 138.428C689.51 137.873 688.73 137.085 688.175 136.062C687.621 135.022 687.343 133.791 687.343 132.37C687.343 130.949 687.621 129.735 688.175 128.73C688.747 127.725 689.536 126.953 690.541 126.416C691.547 125.879 692.725 125.61 694.077 125.61C694.944 125.61 695.785 125.749 696.599 126.026C697.431 126.286 698.107 126.667 698.627 127.17L697.639 129.432C697.171 128.999 696.643 128.678 696.053 128.47C695.481 128.245 694.918 128.132 694.363 128.132C693.202 128.132 692.292 128.496 691.633 129.224C690.992 129.952 690.671 131.009 690.671 132.396C690.671 133.783 690.992 134.849 691.633 135.594C692.292 136.339 693.202 136.712 694.363 136.712C694.901 136.712 695.455 136.608 696.027 136.4C696.617 136.192 697.154 135.871 697.639 135.438L698.627 137.674C698.09 138.177 697.405 138.567 696.573 138.844C695.759 139.121 694.927 139.26 694.077 139.26ZM707.237 139.26C705.036 139.26 703.311 138.653 702.063 137.44C700.815 136.227 700.191 134.563 700.191 132.448C700.191 131.079 700.46 129.883 700.997 128.86C701.534 127.837 702.28 127.04 703.233 126.468C704.204 125.896 705.33 125.61 706.613 125.61C707.878 125.61 708.936 125.879 709.785 126.416C710.634 126.953 711.276 127.707 711.709 128.678C712.16 129.649 712.385 130.784 712.385 132.084V132.942H702.817V131.226H710.071L709.629 131.59C709.629 130.377 709.369 129.449 708.849 128.808C708.346 128.167 707.61 127.846 706.639 127.846C705.564 127.846 704.732 128.227 704.143 128.99C703.571 129.753 703.285 130.819 703.285 132.188V132.526C703.285 133.947 703.632 135.013 704.325 135.724C705.036 136.417 706.032 136.764 707.315 136.764C708.06 136.764 708.754 136.669 709.395 136.478C710.054 136.27 710.678 135.941 711.267 135.49L712.229 137.674C711.605 138.177 710.86 138.567 709.993 138.844C709.126 139.121 708.208 139.26 707.237 139.26ZM720.233 139.26C719.089 139.26 718.075 138.991 717.191 138.454C716.324 137.899 715.648 137.111 715.163 136.088C714.678 135.065 714.435 133.843 714.435 132.422C714.435 131.001 714.678 129.787 715.163 128.782C715.648 127.759 716.324 126.979 717.191 126.442C718.075 125.887 719.089 125.61 720.233 125.61C721.325 125.61 722.287 125.879 723.119 126.416C723.968 126.936 724.532 127.647 724.809 128.548H724.471V119.864H727.721V139H724.523V136.218H724.835C724.558 137.154 723.994 137.899 723.145 138.454C722.313 138.991 721.342 139.26 720.233 139.26ZM721.143 136.764C722.166 136.764 722.989 136.409 723.613 135.698C724.237 134.97 724.549 133.878 724.549 132.422C724.549 130.966 724.237 129.883 723.613 129.172C722.989 128.461 722.166 128.106 721.143 128.106C720.12 128.106 719.288 128.461 718.647 129.172C718.023 129.883 717.711 130.966 717.711 132.422C717.711 133.878 718.023 134.97 718.647 135.698C719.288 136.409 720.12 136.764 721.143 136.764ZM737.604 139.26C735.403 139.26 733.678 138.653 732.43 137.44C731.182 136.227 730.558 134.563 730.558 132.448C730.558 131.079 730.827 129.883 731.364 128.86C731.902 127.837 732.647 127.04 733.6 126.468C734.571 125.896 735.698 125.61 736.98 125.61C738.246 125.61 739.303 125.879 740.152 126.416C741.002 126.953 741.643 127.707 742.076 128.678C742.527 129.649 742.752 130.784 742.752 132.084V132.942H733.184V131.226H740.438L739.996 131.59C739.996 130.377 739.736 129.449 739.216 128.808C738.714 128.167 737.977 127.846 737.006 127.846C735.932 127.846 735.1 128.227 734.51 128.99C733.938 129.753 733.652 130.819 733.652 132.188V132.526C733.652 133.947 733.999 135.013 734.692 135.724C735.403 136.417 736.4 136.764 737.682 136.764C738.428 136.764 739.121 136.669 739.762 136.478C740.421 136.27 741.045 135.941 741.634 135.49L742.596 137.674C741.972 138.177 741.227 138.567 740.36 138.844C739.494 139.121 738.575 139.26 737.604 139.26ZM745.478 139V129.224C745.478 128.669 745.461 128.106 745.426 127.534C745.409 126.962 745.366 126.407 745.296 125.87H748.442L748.806 129.458H748.286C748.46 128.591 748.746 127.872 749.144 127.3C749.56 126.728 750.063 126.303 750.652 126.026C751.242 125.749 751.883 125.61 752.576 125.61C752.888 125.61 753.14 125.627 753.33 125.662C753.521 125.679 753.712 125.723 753.902 125.792L753.876 128.652C753.547 128.513 753.261 128.427 753.018 128.392C752.793 128.357 752.507 128.34 752.16 128.34C751.415 128.34 750.782 128.496 750.262 128.808C749.76 129.12 749.378 129.553 749.118 130.108C748.876 130.663 748.754 131.295 748.754 132.006V139H745.478Z" fill="black"/>
<rect x="430" y="308" width="580" height="80" rx="31.5" fill="#F5F4F2"/>
<path opacity="0.5" d="M461.32 354.144C460.189 354.144 459.229 353.909 458.44 353.44C457.651 352.971 457.043 352.304 456.616 351.44C456.2 350.576 455.992 349.547 455.992 348.352C455.992 347.157 456.2 346.133 456.616 345.28C457.043 344.416 457.651 343.749 458.44 343.28C459.229 342.811 460.189 342.576 461.32 342.576C462.12 342.576 462.835 342.699 463.464 342.944C464.093 343.189 464.643 343.547 465.112 344.016L464.616 345.072C464.104 344.624 463.597 344.299 463.096 344.096C462.595 343.883 462.008 343.776 461.336 343.776C460.045 343.776 459.064 344.176 458.392 344.976C457.72 345.776 457.384 346.901 457.384 348.352C457.384 349.803 457.72 350.933 458.392 351.744C459.064 352.544 460.045 352.944 461.336 352.944C462.008 352.944 462.595 352.843 463.096 352.64C463.597 352.427 464.104 352.091 464.616 351.632L465.112 352.704C464.643 353.163 464.093 353.52 463.464 353.776C462.835 354.021 462.12 354.144 461.32 354.144ZM469.935 354.144C469.167 354.144 468.495 353.979 467.919 353.648C467.354 353.307 466.916 352.827 466.607 352.208C466.298 351.579 466.143 350.837 466.143 349.984C466.143 349.12 466.298 348.379 466.607 347.76C466.916 347.141 467.354 346.667 467.919 346.336C468.495 345.995 469.167 345.824 469.935 345.824C470.714 345.824 471.386 345.995 471.951 346.336C472.527 346.667 472.97 347.141 473.279 347.76C473.599 348.379 473.759 349.12 473.759 349.984C473.759 350.837 473.599 351.579 473.279 352.208C472.97 352.827 472.527 353.307 471.951 353.648C471.386 353.979 470.714 354.144 469.935 354.144ZM469.935 353.088C470.703 353.088 471.311 352.827 471.759 352.304C472.207 351.771 472.431 350.997 472.431 349.984C472.431 348.96 472.202 348.187 471.743 347.664C471.295 347.131 470.692 346.864 469.935 346.864C469.178 346.864 468.575 347.131 468.127 347.664C467.679 348.187 467.455 348.96 467.455 349.984C467.455 350.997 467.679 351.771 468.127 352.304C468.575 352.827 469.178 353.088 469.935 353.088ZM475.78 354V347.824C475.78 347.525 475.764 347.221 475.732 346.912C475.71 346.592 475.684 346.277 475.652 345.968H476.9L477.06 347.728H476.868C477.102 347.109 477.476 346.64 477.988 346.32C478.51 345.989 479.113 345.824 479.796 345.824C480.745 345.824 481.46 346.08 481.94 346.592C482.43 347.093 482.676 347.888 482.676 348.976V354H481.38V349.056C481.38 348.299 481.225 347.749 480.916 347.408C480.617 347.056 480.148 346.88 479.508 346.88C478.761 346.88 478.169 347.109 477.732 347.568C477.294 348.027 477.076 348.64 477.076 349.408V354H475.78ZM488.003 354.144C487.213 354.144 486.611 353.92 486.195 353.472C485.779 353.013 485.571 352.325 485.571 351.408V346.976H484.003V345.968H485.571V343.776L486.867 343.408V345.968H489.171V346.976H486.867V351.264C486.867 351.904 486.973 352.363 487.187 352.64C487.411 352.907 487.741 353.04 488.179 353.04C488.381 353.04 488.563 353.024 488.723 352.992C488.883 352.949 489.027 352.901 489.155 352.848V353.936C489.005 354 488.824 354.048 488.611 354.08C488.408 354.123 488.205 354.144 488.003 354.144ZM490.716 354V347.904C490.716 347.584 490.706 347.259 490.684 346.928C490.674 346.597 490.652 346.277 490.62 345.968H491.868L492.028 347.92L491.804 347.936C491.911 347.456 492.098 347.061 492.364 346.752C492.631 346.443 492.946 346.213 493.308 346.064C493.671 345.904 494.05 345.824 494.444 345.824C494.604 345.824 494.743 345.829 494.86 345.84C494.988 345.851 495.106 345.877 495.212 345.92L495.196 347.072C495.036 347.019 494.887 346.987 494.748 346.976C494.62 346.955 494.471 346.944 494.3 346.944C493.831 346.944 493.42 347.056 493.068 347.28C492.727 347.504 492.466 347.792 492.284 348.144C492.114 348.496 492.028 348.869 492.028 349.264V354H490.716ZM499.539 354.144C498.824 354.144 498.2 353.979 497.667 353.648C497.133 353.307 496.717 352.827 496.419 352.208C496.131 351.589 495.987 350.848 495.987 349.984C495.987 349.109 496.131 348.363 496.419 347.744C496.717 347.125 497.133 346.651 497.667 346.32C498.2 345.989 498.824 345.824 499.539 345.824C500.264 345.824 500.888 346.011 501.411 346.384C501.944 346.747 502.296 347.243 502.467 347.872H502.275L502.451 345.968H503.699C503.667 346.277 503.635 346.592 503.603 346.912C503.581 347.221 503.571 347.525 503.571 347.824V354H502.275V352.112H502.451C502.28 352.741 501.928 353.237 501.395 353.6C500.861 353.963 500.243 354.144 499.539 354.144ZM499.795 353.088C500.563 353.088 501.171 352.827 501.619 352.304C502.067 351.771 502.291 350.997 502.291 349.984C502.291 348.96 502.067 348.187 501.619 347.664C501.171 347.131 500.563 346.864 499.795 346.864C499.037 346.864 498.429 347.131 497.971 347.664C497.523 348.187 497.299 348.96 497.299 349.984C497.299 350.997 497.523 351.771 497.971 352.304C498.429 352.827 499.037 353.088 499.795 353.088ZM508.749 354.144C508.109 354.144 507.511 354.059 506.957 353.888C506.402 353.707 505.943 353.456 505.581 353.136L506.029 352.224C506.423 352.533 506.85 352.763 507.309 352.912C507.778 353.061 508.263 353.136 508.765 353.136C509.405 353.136 509.885 353.024 510.205 352.8C510.535 352.565 510.701 352.245 510.701 351.84C510.701 351.531 510.594 351.285 510.381 351.104C510.178 350.912 509.842 350.763 509.373 350.656L507.885 350.352C507.202 350.203 506.69 349.952 506.349 349.6C506.007 349.237 505.837 348.779 505.837 348.224C505.837 347.755 505.959 347.344 506.205 346.992C506.45 346.629 506.807 346.347 507.277 346.144C507.746 345.931 508.295 345.824 508.924 345.824C509.511 345.824 510.05 345.915 510.541 346.096C511.042 346.267 511.458 346.517 511.789 346.848L511.325 347.744C511.005 347.435 510.637 347.205 510.221 347.056C509.815 346.896 509.394 346.816 508.957 346.816C508.327 346.816 507.853 346.944 507.533 347.2C507.223 347.445 507.069 347.771 507.069 348.176C507.069 348.485 507.165 348.741 507.357 348.944C507.559 349.136 507.869 349.28 508.285 349.376L509.773 349.68C510.498 349.84 511.037 350.091 511.389 350.432C511.751 350.763 511.933 351.211 511.933 351.776C511.933 352.256 511.799 352.677 511.533 353.04C511.266 353.392 510.893 353.664 510.413 353.856C509.943 354.048 509.389 354.144 508.749 354.144ZM517.582 354.144C516.323 354.144 515.331 353.781 514.606 353.056C513.881 352.32 513.518 351.301 513.518 350C513.518 349.157 513.678 348.427 513.998 347.808C514.318 347.179 514.766 346.693 515.342 346.352C515.918 346 516.579 345.824 517.326 345.824C518.062 345.824 518.681 345.979 519.182 346.288C519.683 346.597 520.067 347.04 520.334 347.616C520.601 348.181 520.734 348.853 520.734 349.632V350.112H514.51V349.296H519.886L519.614 349.504C519.614 348.651 519.422 347.984 519.038 347.504C518.654 347.024 518.083 346.784 517.326 346.784C516.526 346.784 515.902 347.067 515.454 347.632C515.006 348.187 514.782 348.939 514.782 349.888V350.032C514.782 351.035 515.027 351.797 515.518 352.32C516.019 352.832 516.718 353.088 517.614 353.088C518.094 353.088 518.542 353.019 518.958 352.88C519.385 352.731 519.79 352.491 520.174 352.16L520.622 353.072C520.27 353.413 519.822 353.68 519.278 353.872C518.745 354.053 518.179 354.144 517.582 354.144ZM522.717 354V347.824C522.717 347.525 522.701 347.221 522.669 346.912C522.648 346.592 522.621 346.277 522.589 345.968H523.837L523.997 347.728H523.805C524.04 347.109 524.413 346.64 524.925 346.32C525.448 345.989 526.05 345.824 526.733 345.824C527.682 345.824 528.397 346.08 528.877 346.592C529.368 347.093 529.613 347.888 529.613 348.976V354H528.317V349.056C528.317 348.299 528.162 347.749 527.853 347.408C527.554 347.056 527.085 346.88 526.445 346.88C525.698 346.88 525.106 347.109 524.669 347.568C524.232 348.027 524.013 348.64 524.013 349.408V354H522.717ZM523.981 344.56L523.245 344.512C523.298 343.829 523.48 343.307 523.789 342.944C524.098 342.571 524.488 342.384 524.957 342.384C525.192 342.384 525.405 342.437 525.597 342.544C525.8 342.651 526.029 342.816 526.285 343.04C526.52 343.253 526.706 343.403 526.845 343.488C526.994 343.563 527.138 343.6 527.277 343.6C527.821 343.6 528.152 343.179 528.269 342.336L529.005 342.384C528.952 343.067 528.77 343.595 528.461 343.968C528.162 344.331 527.778 344.512 527.309 344.512C527.085 344.512 526.872 344.459 526.669 344.352C526.466 344.245 526.232 344.075 525.965 343.84C525.741 343.637 525.554 343.499 525.405 343.424C525.266 343.339 525.122 343.296 524.973 343.296C524.696 343.296 524.472 343.408 524.301 343.632C524.141 343.845 524.034 344.155 523.981 344.56ZM535.148 354.144C534.433 354.144 533.809 353.979 533.276 353.648C532.743 353.307 532.327 352.827 532.028 352.208C531.74 351.589 531.596 350.848 531.596 349.984C531.596 349.109 531.74 348.363 532.028 347.744C532.327 347.125 532.743 346.651 533.276 346.32C533.809 345.989 534.433 345.824 535.148 345.824C535.873 345.824 536.497 346.011 537.02 346.384C537.553 346.747 537.905 347.243 538.076 347.872H537.884L538.06 345.968H539.308C539.276 346.277 539.244 346.592 539.212 346.912C539.191 347.221 539.18 347.525 539.18 347.824V354H537.884V352.112H538.06C537.889 352.741 537.537 353.237 537.004 353.6C536.471 353.963 535.852 354.144 535.148 354.144ZM535.404 353.088C536.172 353.088 536.78 352.827 537.228 352.304C537.676 351.771 537.9 350.997 537.9 349.984C537.9 348.96 537.676 348.187 537.228 347.664C536.78 347.131 536.172 346.864 535.404 346.864C534.647 346.864 534.039 347.131 533.58 347.664C533.132 348.187 532.908 348.96 532.908 349.984C532.908 350.997 533.132 351.771 533.58 352.304C534.039 352.827 534.647 353.088 535.404 353.088Z" fill="black"/>
<g filter="url(#filter1_d_249_873)">
<rect x="529" y="711" width="350" height="100" rx="31.5" fill="#46B593"/>
<path d="M656.449 768V755.31H661.993C663.385 755.31 664.459 755.64 665.215 756.3C665.983 756.96 666.367 757.878 666.367 759.054C666.367 759.834 666.193 760.5 665.845 761.052C665.509 761.604 665.023 762.03 664.387 762.33C663.751 762.618 663.001 762.762 662.137 762.762L662.389 762.42H663.001C663.505 762.42 663.955 762.552 664.351 762.816C664.747 763.08 665.071 763.482 665.323 764.022L667.177 768H664.621L662.749 763.878C662.581 763.458 662.323 763.182 661.975 763.05C661.639 762.918 661.231 762.852 660.751 762.852H658.771V768H656.449ZM658.771 761.142H661.615C662.431 761.142 663.049 760.974 663.469 760.638C663.901 760.29 664.117 759.786 664.117 759.126C664.117 758.466 663.901 757.968 663.469 757.632C663.049 757.296 662.431 757.128 661.615 757.128H658.771V761.142ZM673.071 768.18C671.547 768.18 670.353 767.76 669.489 766.92C668.625 766.08 668.193 764.928 668.193 763.464C668.193 762.516 668.379 761.688 668.751 760.98C669.123 760.272 669.639 759.72 670.299 759.324C670.971 758.928 671.751 758.73 672.639 758.73C673.515 758.73 674.247 758.916 674.835 759.288C675.423 759.66 675.867 760.182 676.167 760.854C676.479 761.526 676.635 762.312 676.635 763.212V763.806H670.011V762.618H675.033L674.727 762.87C674.727 762.03 674.547 761.388 674.187 760.944C673.839 760.5 673.329 760.278 672.657 760.278C671.913 760.278 671.337 760.542 670.929 761.07C670.533 761.598 670.335 762.336 670.335 763.284V763.518C670.335 764.502 670.575 765.24 671.055 765.732C671.547 766.212 672.237 766.452 673.125 766.452C673.641 766.452 674.121 766.386 674.565 766.254C675.021 766.11 675.453 765.882 675.861 765.57L676.527 767.082C676.095 767.43 675.579 767.7 674.979 767.892C674.379 768.084 673.743 768.18 673.071 768.18ZM682.752 772.032C681.912 772.032 681.15 771.942 680.466 771.762C679.794 771.582 679.194 771.306 678.666 770.934L679.152 769.314C679.5 769.542 679.86 769.728 680.232 769.872C680.604 770.016 680.988 770.124 681.384 770.196C681.78 770.268 682.182 770.304 682.59 770.304C683.43 770.304 684.054 770.094 684.462 769.674C684.882 769.266 685.092 768.678 685.092 767.91V765.732H685.272C685.08 766.356 684.69 766.854 684.102 767.226C683.526 767.598 682.86 767.784 682.104 767.784C681.288 767.784 680.574 767.604 679.962 767.244C679.362 766.872 678.894 766.344 678.558 765.66C678.222 764.976 678.054 764.172 678.054 763.248C678.054 762.324 678.222 761.526 678.558 760.854C678.894 760.17 679.362 759.648 679.962 759.288C680.574 758.916 681.288 758.73 682.104 758.73C682.872 758.73 683.538 758.916 684.102 759.288C684.678 759.648 685.062 760.14 685.254 760.764L685.092 760.656L685.272 758.91H687.45C687.402 759.282 687.366 759.66 687.342 760.044C687.318 760.428 687.306 760.806 687.306 761.178V767.64C687.306 769.068 686.916 770.154 686.136 770.898C685.368 771.654 684.24 772.032 682.752 772.032ZM682.716 766.056C683.436 766.056 684.006 765.816 684.426 765.336C684.858 764.844 685.074 764.148 685.074 763.248C685.074 762.348 684.858 761.658 684.426 761.178C684.006 760.698 683.436 760.458 682.716 760.458C681.984 760.458 681.402 760.698 680.97 761.178C680.538 761.658 680.322 762.348 680.322 763.248C680.322 764.148 680.538 764.844 680.97 765.336C681.402 765.816 681.984 766.056 682.716 766.056ZM689.738 768V758.91H691.988V768H689.738ZM689.612 757.2V755.004H692.114V757.2H689.612ZM697.671 768.18C696.891 768.18 696.171 768.09 695.511 767.91C694.863 767.718 694.317 767.454 693.873 767.118L694.503 765.606C694.959 765.918 695.463 766.158 696.015 766.326C696.567 766.494 697.125 766.578 697.689 766.578C698.289 766.578 698.733 766.476 699.021 766.272C699.321 766.068 699.471 765.792 699.471 765.444C699.471 765.168 699.375 764.952 699.183 764.796C699.003 764.628 698.709 764.502 698.301 764.418L696.501 764.076C695.733 763.908 695.145 763.62 694.737 763.212C694.341 762.804 694.143 762.27 694.143 761.61C694.143 761.046 694.293 760.548 694.593 760.116C694.905 759.684 695.343 759.348 695.907 759.108C696.483 758.856 697.155 758.73 697.923 758.73C698.595 758.73 699.225 758.82 699.813 759C700.413 759.18 700.917 759.45 701.325 759.81L700.677 761.268C700.305 760.968 699.879 760.734 699.399 760.566C698.919 760.398 698.451 760.314 697.995 760.314C697.371 760.314 696.915 760.428 696.627 760.656C696.339 760.872 696.195 761.154 696.195 761.502C696.195 761.766 696.279 761.988 696.447 762.168C696.627 762.336 696.903 762.462 697.275 762.546L699.075 762.888C699.879 763.044 700.485 763.32 700.893 763.716C701.313 764.1 701.523 764.628 701.523 765.3C701.523 765.9 701.361 766.416 701.037 766.848C700.713 767.28 700.263 767.61 699.687 767.838C699.111 768.066 698.439 768.18 697.671 768.18ZM707.249 768.18C706.169 768.18 705.353 767.898 704.801 767.334C704.249 766.77 703.973 765.924 703.973 764.796V760.602H702.227V758.91H703.973V756.588L706.223 756.012V758.91H708.653V760.602H706.223V764.652C706.223 765.276 706.343 765.714 706.583 765.966C706.823 766.218 707.153 766.344 707.573 766.344C707.801 766.344 707.993 766.326 708.149 766.29C708.317 766.254 708.479 766.206 708.635 766.146V767.928C708.431 768.012 708.203 768.072 707.951 768.108C707.711 768.156 707.477 768.18 707.249 768.18ZM710.163 768V761.232C710.163 760.848 710.151 760.458 710.127 760.062C710.115 759.666 710.085 759.282 710.037 758.91H712.215L712.467 761.394H712.107C712.227 760.794 712.425 760.296 712.701 759.9C712.989 759.504 713.337 759.21 713.745 759.018C714.153 758.826 714.597 758.73 715.077 758.73C715.293 758.73 715.467 758.742 715.599 758.766C715.731 758.778 715.863 758.808 715.995 758.856L715.977 760.836C715.749 760.74 715.551 760.68 715.383 760.656C715.227 760.632 715.029 760.62 714.789 760.62C714.273 760.62 713.835 760.728 713.475 760.944C713.127 761.16 712.863 761.46 712.683 761.844C712.515 762.228 712.431 762.666 712.431 763.158V768H710.163ZM720.67 768.18C719.878 768.18 719.182 767.994 718.582 767.622C717.982 767.238 717.514 766.692 717.178 765.984C716.842 765.276 716.674 764.43 716.674 763.446C716.674 762.462 716.842 761.622 717.178 760.926C717.514 760.218 717.982 759.678 718.582 759.306C719.182 758.922 719.878 758.73 720.67 758.73C721.438 758.73 722.11 758.922 722.686 759.306C723.274 759.678 723.664 760.182 723.856 760.818H723.658L723.856 758.91H726.016C725.98 759.282 725.944 759.66 725.908 760.044C725.884 760.428 725.872 760.806 725.872 761.178V768H723.64L723.622 766.128H723.838C723.646 766.752 723.256 767.25 722.668 767.622C722.08 767.994 721.414 768.18 720.67 768.18ZM721.3 766.452C722.008 766.452 722.578 766.206 723.01 765.714C723.442 765.21 723.658 764.454 723.658 763.446C723.658 762.438 723.442 761.688 723.01 761.196C722.578 760.704 722.008 760.458 721.3 760.458C720.592 760.458 720.022 760.704 719.59 761.196C719.158 761.688 718.942 762.438 718.942 763.446C718.942 764.454 719.152 765.21 719.572 765.714C720.004 766.206 720.58 766.452 721.3 766.452ZM728.304 768V761.232C728.304 760.848 728.292 760.458 728.268 760.062C728.256 759.666 728.226 759.282 728.178 758.91H730.356L730.608 761.394H730.248C730.368 760.794 730.566 760.296 730.842 759.9C731.13 759.504 731.478 759.21 731.886 759.018C732.294 758.826 732.738 758.73 733.218 758.73C733.434 758.73 733.608 758.742 733.74 758.766C733.872 758.778 734.004 758.808 734.136 758.856L734.118 760.836C733.89 760.74 733.692 760.68 733.524 760.656C733.368 760.632 733.17 760.62 732.93 760.62C732.414 760.62 731.976 760.728 731.616 760.944C731.268 761.16 731.004 761.46 730.824 761.844C730.656 762.228 730.572 762.666 730.572 763.158V768H728.304ZM738.54 768.18C737.76 768.18 737.04 768.09 736.38 767.91C735.732 767.718 735.186 767.454 734.742 767.118L735.372 765.606C735.828 765.918 736.332 766.158 736.884 766.326C737.436 766.494 737.994 766.578 738.558 766.578C739.158 766.578 739.602 766.476 739.89 766.272C740.19 766.068 740.34 765.792 740.34 765.444C740.34 765.168 740.244 764.952 740.052 764.796C739.872 764.628 739.578 764.502 739.17 764.418L737.37 764.076C736.602 763.908 736.014 763.62 735.606 763.212C735.21 762.804 735.012 762.27 735.012 761.61C735.012 761.046 735.162 760.548 735.462 760.116C735.774 759.684 736.212 759.348 736.776 759.108C737.352 758.856 738.024 758.73 738.792 758.73C739.464 758.73 740.094 758.82 740.682 759C741.282 759.18 741.786 759.45 742.194 759.81L741.546 761.268C741.174 760.968 740.748 760.734 740.268 760.566C739.788 760.398 739.32 760.314 738.864 760.314C738.24 760.314 737.784 760.428 737.496 760.656C737.208 760.872 737.064 761.154 737.064 761.502C737.064 761.766 737.148 761.988 737.316 762.168C737.496 762.336 737.772 762.462 738.144 762.546L739.944 762.888C740.748 763.044 741.354 763.32 741.762 763.716C742.182 764.1 742.392 764.628 742.392 765.3C742.392 765.9 742.23 766.416 741.906 766.848C741.582 767.28 741.132 767.61 740.556 767.838C739.98 768.066 739.308 768.18 738.54 768.18ZM748.71 768.18C747.186 768.18 745.992 767.76 745.128 766.92C744.264 766.08 743.832 764.928 743.832 763.464C743.832 762.516 744.018 761.688 744.39 760.98C744.762 760.272 745.278 759.72 745.938 759.324C746.61 758.928 747.39 758.73 748.278 758.73C749.154 758.73 749.886 758.916 750.474 759.288C751.062 759.66 751.506 760.182 751.806 760.854C752.118 761.526 752.274 762.312 752.274 763.212V763.806H745.65V762.618H750.672L750.366 762.87C750.366 762.03 750.186 761.388 749.826 760.944C749.478 760.5 748.968 760.278 748.296 760.278C747.552 760.278 746.976 760.542 746.568 761.07C746.172 761.598 745.974 762.336 745.974 763.284V763.518C745.974 764.502 746.214 765.24 746.694 765.732C747.186 766.212 747.876 766.452 748.764 766.452C749.28 766.452 749.76 766.386 750.204 766.254C750.66 766.11 751.092 765.882 751.5 765.57L752.166 767.082C751.734 767.43 751.218 767.7 750.618 767.892C750.018 768.084 749.382 768.18 748.71 768.18Z" fill="#F5F4F2"/>
</g>
<path opacity="0.5" d="M456.408 250V238.72H457.448L464.68 248.32H464.312V238.72H465.544V250H464.52L457.288 240.4H457.64V250H456.408ZM471.513 250.144C470.745 250.144 470.073 249.979 469.497 249.648C468.932 249.307 468.494 248.827 468.185 248.208C467.876 247.579 467.721 246.837 467.721 245.984C467.721 245.12 467.876 244.379 468.185 243.76C468.494 243.141 468.932 242.667 469.497 242.336C470.073 241.995 470.745 241.824 471.513 241.824C472.292 241.824 472.964 241.995 473.529 242.336C474.105 242.667 474.548 243.141 474.857 243.76C475.177 244.379 475.337 245.12 475.337 245.984C475.337 246.837 475.177 247.579 474.857 248.208C474.548 248.827 474.105 249.307 473.529 249.648C472.964 249.979 472.292 250.144 471.513 250.144ZM471.513 249.088C472.281 249.088 472.889 248.827 473.337 248.304C473.785 247.771 474.009 246.997 474.009 245.984C474.009 244.96 473.78 244.187 473.321 243.664C472.873 243.131 472.27 242.864 471.513 242.864C470.756 242.864 470.153 243.131 469.705 243.664C469.257 244.187 469.033 244.96 469.033 245.984C469.033 246.997 469.257 247.771 469.705 248.304C470.153 248.827 470.756 249.088 471.513 249.088ZM477.358 250V243.824C477.358 243.525 477.342 243.221 477.31 242.912C477.288 242.592 477.262 242.277 477.23 241.968H478.478L478.638 243.728H478.446C478.659 243.12 478.995 242.651 479.454 242.32C479.923 241.989 480.488 241.824 481.15 241.824C481.822 241.824 482.366 241.984 482.782 242.304C483.208 242.624 483.496 243.12 483.646 243.792H483.406C483.608 243.184 483.966 242.704 484.478 242.352C484.99 242 485.587 241.824 486.27 241.824C487.155 241.824 487.822 242.08 488.27 242.592C488.718 243.093 488.942 243.888 488.942 244.976V250H487.646V245.056C487.646 244.299 487.512 243.749 487.246 243.408C486.979 243.056 486.552 242.88 485.966 242.88C485.294 242.88 484.76 243.115 484.366 243.584C483.982 244.043 483.79 244.661 483.79 245.44V250H482.494V245.056C482.494 244.299 482.36 243.749 482.094 243.408C481.827 243.056 481.4 242.88 480.814 242.88C480.142 242.88 479.614 243.115 479.23 243.584C478.846 244.043 478.654 244.661 478.654 245.44V250H477.358ZM495.437 250.144C494.711 250.144 494.087 249.963 493.565 249.6C493.042 249.227 492.69 248.72 492.509 248.08H492.685V250H491.405V238.224H492.701V243.84H492.509C492.69 243.221 493.042 242.731 493.565 242.368C494.087 242.005 494.711 241.824 495.437 241.824C496.162 241.824 496.786 241.995 497.309 242.336C497.842 242.667 498.253 243.141 498.541 243.76C498.839 244.379 498.989 245.12 498.989 245.984C498.989 246.848 498.839 247.589 498.541 248.208C498.242 248.827 497.826 249.307 497.293 249.648C496.77 249.979 496.151 250.144 495.437 250.144ZM495.165 249.088C495.922 249.088 496.53 248.827 496.989 248.304C497.447 247.781 497.677 247.008 497.677 245.984C497.677 244.96 497.447 244.187 496.989 243.664C496.53 243.131 495.922 242.864 495.165 242.864C494.407 242.864 493.799 243.131 493.341 243.664C492.893 244.187 492.669 244.96 492.669 245.984C492.669 246.997 492.893 247.771 493.341 248.304C493.799 248.827 494.407 249.088 495.165 249.088ZM500.966 250V243.904C500.966 243.584 500.956 243.259 500.934 242.928C500.924 242.597 500.902 242.277 500.87 241.968H502.118L502.278 243.92L502.054 243.936C502.161 243.456 502.348 243.061 502.614 242.752C502.881 242.443 503.196 242.213 503.558 242.064C503.921 241.904 504.3 241.824 504.694 241.824C504.854 241.824 504.993 241.829 505.11 241.84C505.238 241.851 505.356 241.877 505.462 241.92L505.446 243.072C505.286 243.019 505.137 242.987 504.998 242.976C504.87 242.955 504.721 242.944 504.55 242.944C504.081 242.944 503.67 243.056 503.318 243.28C502.977 243.504 502.716 243.792 502.534 244.144C502.364 244.496 502.278 244.869 502.278 245.264V250H500.966ZM510.285 250.144C509.026 250.144 508.034 249.781 507.309 249.056C506.584 248.32 506.221 247.301 506.221 246C506.221 245.157 506.381 244.427 506.701 243.808C507.021 243.179 507.469 242.693 508.045 242.352C508.621 242 509.282 241.824 510.029 241.824C510.765 241.824 511.384 241.979 511.885 242.288C512.386 242.597 512.77 243.04 513.037 243.616C513.304 244.181 513.437 244.853 513.437 245.632V246.112H507.213V245.296H512.589L512.317 245.504C512.317 244.651 512.125 243.984 511.741 243.504C511.357 243.024 510.786 242.784 510.029 242.784C509.229 242.784 508.605 243.067 508.157 243.632C507.709 244.187 507.485 244.939 507.485 245.888V246.032C507.485 247.035 507.73 247.797 508.221 248.32C508.722 248.832 509.421 249.088 510.317 249.088C510.797 249.088 511.245 249.019 511.661 248.88C512.088 248.731 512.493 248.491 512.877 248.16L513.325 249.072C512.973 249.413 512.525 249.68 511.981 249.872C511.448 250.053 510.882 250.144 510.285 250.144ZM522.632 250.144C521.928 250.144 521.309 249.979 520.776 249.648C520.243 249.307 519.827 248.827 519.528 248.208C519.24 247.589 519.096 246.848 519.096 245.984C519.096 245.109 519.24 244.363 519.528 243.744C519.827 243.125 520.243 242.651 520.776 242.32C521.309 241.989 521.928 241.824 522.632 241.824C523.357 241.824 523.981 242.005 524.504 242.368C525.037 242.731 525.395 243.221 525.576 243.84H525.384V238.224H526.68V250H525.4V248.08H525.576C525.405 248.72 525.053 249.227 524.52 249.6C523.987 249.963 523.357 250.144 522.632 250.144ZM522.904 249.088C523.661 249.088 524.269 248.827 524.728 248.304C525.187 247.771 525.416 246.997 525.416 245.984C525.416 244.96 525.187 244.187 524.728 243.664C524.269 243.131 523.661 242.864 522.904 242.864C522.147 242.864 521.539 243.131 521.08 243.664C520.632 244.187 520.408 244.96 520.408 245.984C520.408 246.997 520.632 247.771 521.08 248.304C521.539 248.827 522.147 249.088 522.904 249.088ZM532.754 250.144C531.495 250.144 530.503 249.781 529.778 249.056C529.053 248.32 528.69 247.301 528.69 246C528.69 245.157 528.85 244.427 529.17 243.808C529.49 243.179 529.938 242.693 530.514 242.352C531.09 242 531.751 241.824 532.498 241.824C533.234 241.824 533.853 241.979 534.354 242.288C534.855 242.597 535.239 243.04 535.506 243.616C535.773 244.181 535.906 244.853 535.906 245.632V246.112H529.682V245.296H535.058L534.786 245.504C534.786 244.651 534.594 243.984 534.21 243.504C533.826 243.024 533.255 242.784 532.498 242.784C531.698 242.784 531.074 243.067 530.626 243.632C530.178 244.187 529.954 244.939 529.954 245.888V246.032C529.954 247.035 530.199 247.797 530.69 248.32C531.191 248.832 531.89 249.088 532.786 249.088C533.266 249.088 533.714 249.019 534.13 248.88C534.557 248.731 534.962 248.491 535.346 248.16L535.794 249.072C535.442 249.413 534.994 249.68 534.45 249.872C533.917 250.053 533.351 250.144 532.754 250.144ZM544.893 250.144C543.944 250.144 543.224 249.883 542.733 249.36C542.253 248.837 542.013 248.037 542.013 246.96V241.968H543.309V246.928C543.309 247.664 543.458 248.208 543.757 248.56C544.056 248.901 544.52 249.072 545.149 249.072C545.853 249.072 546.418 248.843 546.845 248.384C547.272 247.925 547.485 247.312 547.485 246.544V241.968H548.781V250H547.517V248.192H547.725C547.501 248.811 547.138 249.291 546.637 249.632C546.146 249.973 545.565 250.144 544.893 250.144ZM553.967 250.144C553.327 250.144 552.73 250.059 552.175 249.888C551.621 249.707 551.162 249.456 550.799 249.136L551.247 248.224C551.642 248.533 552.069 248.763 552.527 248.912C552.997 249.061 553.482 249.136 553.983 249.136C554.623 249.136 555.103 249.024 555.423 248.8C555.754 248.565 555.919 248.245 555.919 247.84C555.919 247.531 555.813 247.285 555.599 247.104C555.397 246.912 555.061 246.763 554.591 246.656L553.103 246.352C552.421 246.203 551.909 245.952 551.567 245.6C551.226 245.237 551.055 244.779 551.055 244.224C551.055 243.755 551.178 243.344 551.423 242.992C551.669 242.629 552.026 242.347 552.495 242.144C552.965 241.931 553.514 241.824 554.143 241.824C554.73 241.824 555.269 241.915 555.759 242.096C556.261 242.267 556.677 242.517 557.007 242.848L556.543 243.744C556.223 243.435 555.855 243.205 555.439 243.056C555.034 242.896 554.613 242.816 554.175 242.816C553.546 242.816 553.071 242.944 552.751 243.2C552.442 243.445 552.287 243.771 552.287 244.176C552.287 244.485 552.383 244.741 552.575 244.944C552.778 245.136 553.087 245.28 553.503 245.376L554.991 245.68C555.717 245.84 556.255 246.091 556.607 246.432C556.97 246.763 557.151 247.211 557.151 247.776C557.151 248.256 557.018 248.677 556.751 249.04C556.485 249.392 556.111 249.664 555.631 249.856C555.162 250.048 554.607 250.144 553.967 250.144ZM562.065 250.144C561.115 250.144 560.395 249.883 559.905 249.36C559.425 248.837 559.185 248.037 559.185 246.96V241.968H560.481V246.928C560.481 247.664 560.63 248.208 560.929 248.56C561.227 248.901 561.691 249.072 562.321 249.072C563.025 249.072 563.59 248.843 564.017 248.384C564.443 247.925 564.657 247.312 564.657 246.544V241.968H565.953V250H564.689V248.192H564.897C564.673 248.811 564.31 249.291 563.809 249.632C563.318 249.973 562.737 250.144 562.065 250.144ZM571.523 250.144C570.808 250.144 570.184 249.979 569.651 249.648C569.118 249.307 568.702 248.827 568.403 248.208C568.115 247.589 567.971 246.848 567.971 245.984C567.971 245.109 568.115 244.363 568.403 243.744C568.702 243.125 569.118 242.651 569.651 242.32C570.184 241.989 570.808 241.824 571.523 241.824C572.248 241.824 572.872 242.011 573.395 242.384C573.928 242.747 574.28 243.243 574.451 243.872H574.259L574.435 241.968H575.683C575.651 242.277 575.619 242.592 575.587 242.912C575.566 243.221 575.555 243.525 575.555 243.824V250H574.259V248.112H574.435C574.264 248.741 573.912 249.237 573.379 249.6C572.846 249.963 572.227 250.144 571.523 250.144ZM571.779 249.088C572.547 249.088 573.155 248.827 573.603 248.304C574.051 247.771 574.275 246.997 574.275 245.984C574.275 244.96 574.051 244.187 573.603 243.664C573.155 243.131 572.547 242.864 571.779 242.864C571.022 242.864 570.414 243.131 569.955 243.664C569.507 244.187 569.283 244.96 569.283 245.984C569.283 246.997 569.507 247.771 569.955 248.304C570.414 248.827 571.022 249.088 571.779 249.088ZM578.029 250V243.904C578.029 243.584 578.018 243.259 577.997 242.928C577.986 242.597 577.965 242.277 577.933 241.968H579.181L579.341 243.92L579.117 243.936C579.224 243.456 579.41 243.061 579.677 242.752C579.944 242.443 580.258 242.213 580.621 242.064C580.984 241.904 581.362 241.824 581.757 241.824C581.917 241.824 582.056 241.829 582.173 241.84C582.301 241.851 582.418 241.877 582.525 241.92L582.509 243.072C582.349 243.019 582.2 242.987 582.061 242.976C581.933 242.955 581.784 242.944 581.613 242.944C581.144 242.944 580.733 243.056 580.381 243.28C580.04 243.504 579.778 243.792 579.597 244.144C579.426 244.496 579.341 244.869 579.341 245.264V250H578.029ZM583.873 250V241.968H585.169V250H583.873ZM583.713 240.144V238.688H585.313V240.144H583.713ZM590.982 250.144C590.214 250.144 589.542 249.979 588.966 249.648C588.401 249.307 587.963 248.827 587.654 248.208C587.345 247.579 587.19 246.837 587.19 245.984C587.19 245.12 587.345 244.379 587.654 243.76C587.963 243.141 588.401 242.667 588.966 242.336C589.542 241.995 590.214 241.824 590.982 241.824C591.761 241.824 592.433 241.995 592.998 242.336C593.574 242.667 594.017 243.141 594.326 243.76C594.646 244.379 594.806 245.12 594.806 245.984C594.806 246.837 594.646 247.579 594.326 248.208C594.017 248.827 593.574 249.307 592.998 249.648C592.433 249.979 591.761 250.144 590.982 250.144ZM590.982 249.088C591.75 249.088 592.358 248.827 592.806 248.304C593.254 247.771 593.478 246.997 593.478 245.984C593.478 244.96 593.249 244.187 592.79 243.664C592.342 243.131 591.739 242.864 590.982 242.864C590.225 242.864 589.622 243.131 589.174 243.664C588.726 244.187 588.502 244.96 588.502 245.984C588.502 246.997 588.726 247.771 589.174 248.304C589.622 248.827 590.225 249.088 590.982 249.088ZM604.294 250.144C603.526 250.144 602.854 249.979 602.278 249.648C601.713 249.307 601.276 248.827 600.966 248.208C600.657 247.579 600.502 246.837 600.502 245.984C600.502 245.12 600.657 244.379 600.966 243.76C601.276 243.141 601.713 242.667 602.278 242.336C602.854 241.995 603.526 241.824 604.294 241.824C605.073 241.824 605.745 241.995 606.31 242.336C606.886 242.667 607.329 243.141 607.638 243.76C607.958 244.379 608.118 245.12 608.118 245.984C608.118 246.837 607.958 247.579 607.638 248.208C607.329 248.827 606.886 249.307 606.31 249.648C605.745 249.979 605.073 250.144 604.294 250.144ZM604.294 249.088C605.062 249.088 605.67 248.827 606.118 248.304C606.566 247.771 606.79 246.997 606.79 245.984C606.79 244.96 606.561 244.187 606.102 243.664C605.654 243.131 605.052 242.864 604.294 242.864C603.537 242.864 602.934 243.131 602.486 243.664C602.038 244.187 601.814 244.96 601.814 245.984C601.814 246.997 602.038 247.771 602.486 248.304C602.934 248.827 603.537 249.088 604.294 249.088ZM617.879 250.144C616.62 250.144 615.628 249.781 614.903 249.056C614.178 248.32 613.815 247.301 613.815 246C613.815 245.157 613.975 244.427 614.295 243.808C614.615 243.179 615.063 242.693 615.639 242.352C616.215 242 616.876 241.824 617.623 241.824C618.359 241.824 618.978 241.979 619.479 242.288C619.98 242.597 620.364 243.04 620.631 243.616C620.898 244.181 621.031 244.853 621.031 245.632V246.112H614.807V245.296H620.183L619.911 245.504C619.911 244.651 619.719 243.984 619.335 243.504C618.951 243.024 618.38 242.784 617.623 242.784C616.823 242.784 616.199 243.067 615.751 243.632C615.303 244.187 615.079 244.939 615.079 245.888V246.032C615.079 247.035 615.324 247.797 615.815 248.32C616.316 248.832 617.015 249.088 617.911 249.088C618.391 249.088 618.839 249.019 619.255 248.88C619.682 248.731 620.087 248.491 620.471 248.16L620.919 249.072C620.567 249.413 620.119 249.68 619.575 249.872C619.042 250.053 618.476 250.144 617.879 250.144ZM623.074 246.144V245.072H627.634V246.144H623.074ZM630.03 250V243.824C630.03 243.525 630.014 243.221 629.982 242.912C629.96 242.592 629.934 242.277 629.902 241.968H631.15L631.31 243.728H631.118C631.331 243.12 631.667 242.651 632.126 242.32C632.595 241.989 633.16 241.824 633.822 241.824C634.494 241.824 635.038 241.984 635.454 242.304C635.88 242.624 636.168 243.12 636.318 243.792H636.078C636.28 243.184 636.638 242.704 637.15 242.352C637.662 242 638.259 241.824 638.942 241.824C639.827 241.824 640.494 242.08 640.942 242.592C641.39 243.093 641.614 243.888 641.614 244.976V250H640.318V245.056C640.318 244.299 640.184 243.749 639.918 243.408C639.651 243.056 639.224 242.88 638.638 242.88C637.966 242.88 637.432 243.115 637.038 243.584C636.654 244.043 636.462 244.661 636.462 245.44V250H635.166V245.056C635.166 244.299 635.032 243.749 634.766 243.408C634.499 243.056 634.072 242.88 633.486 242.88C632.814 242.88 632.286 243.115 631.902 243.584C631.518 244.043 631.326 244.661 631.326 245.44V250H630.03ZM647.133 250.144C646.418 250.144 645.794 249.979 645.261 249.648C644.727 249.307 644.311 248.827 644.013 248.208C643.725 247.589 643.581 246.848 643.581 245.984C643.581 245.109 643.725 244.363 644.013 243.744C644.311 243.125 644.727 242.651 645.261 242.32C645.794 241.989 646.418 241.824 647.133 241.824C647.858 241.824 648.482 242.011 649.005 242.384C649.538 242.747 649.89 243.243 650.061 243.872H649.869L650.045 241.968H651.293C651.261 242.277 651.229 242.592 651.197 242.912C651.175 243.221 651.165 243.525 651.165 243.824V250H649.869V248.112H650.045C649.874 248.741 649.522 249.237 648.989 249.6C648.455 249.963 647.837 250.144 647.133 250.144ZM647.389 249.088C648.157 249.088 648.765 248.827 649.213 248.304C649.661 247.771 649.885 246.997 649.885 245.984C649.885 244.96 649.661 244.187 649.213 243.664C648.765 243.131 648.157 242.864 647.389 242.864C646.631 242.864 646.023 243.131 645.565 243.664C645.117 244.187 644.893 244.96 644.893 245.984C644.893 246.997 645.117 247.771 645.565 248.304C646.023 248.827 646.631 249.088 647.389 249.088ZM653.67 250V241.968H654.966V250H653.67ZM653.51 240.144V238.688H655.11V240.144H653.51ZM657.483 250V238.224H658.779V250H657.483Z" fill="black"/>
<defs>
<filter id="filter0_d_249_873" x="575" y="423" width="258" height="88" filterUnits="userSpaceOnUse" color-interpolation-filters="sRGB">
<feFlood flood-opacity="0" result="BackgroundImageFix"/>
<feColorMatrix in="SourceAlpha" type="matrix" values="0 0 0 0 0 0 0 0 0 0 0 0 0 0 0 0 0 0 127 0" result="hardAlpha"/>
<feOffset dy="4"/>
<feGaussianBlur stdDeviation="2"/>
<feComposite in2="hardAlpha" operator="out"/>
<feColorMatrix type="matrix" values="0 0 0 0 0 0 0 0 0 0 0 0 0 0 0 0 0 0 0.25 0"/>
<feBlend mode="normal" in2="BackgroundImageFix" result="effect1_dropShadow_249_873"/>
<feBlend mode="normal" in="SourceGraphic" in2="effect1_dropShadow_249_873" result="shape"/>
</filter>
<filter id="filter1_d_249_873" x="525" y="711" width="358" height="108" filterUnits="userSpaceOnUse" color-interpolation-filters="sRGB">
<feFlood flood-opacity="0" result="BackgroundImageFix"/>
<feColorMatrix in="SourceAlpha" type="matrix" values="0 0 0 0 0 0 0 0 0 0 0 0 0 0 0 0 0 0 127 0" result="hardAlpha"/>
<feOffset dy="4"/>
<feGaussianBlur stdDeviation="2"/>
<feComposite in2="hardAlpha" operator="out"/>
<feColorMatrix type="matrix" values="0 0 0 0 0 0 0 0 0 0 0 0 0 0 0 0 0 0 0.25 0"/>
<feBlend mode="normal" in2="BackgroundImageFix" result="effect1_dropShadow_249_873"/>
<feBlend mode="normal" in="SourceGraphic" in2="effect1_dropShadow_249_873" result="shape"/>
</filter>
</defs>
</svg>
