<svg width="360" height="440" viewBox="0 0 360 440" fill="none" xmlns="http://www.w3.org/2000/svg">
<rect width="360" height="440" fill="white"/>
<rect x="30" y="52" width="300" height="30" rx="15" fill="#F5F4F2"/>
<rect x="30" y="102" width="300" height="30" rx="15" fill="#F5F4F2"/>
<rect x="30" y="152" width="300" height="30" rx="15" fill="#F5F4F2"/>
<rect x="30" y="202" width="300" height="30" rx="15" fill="#F5F4F2"/>
<rect x="30" y="252" width="300" height="30" rx="15" fill="#F5F4F2"/>
<path d="M156.224 29V22.655H158.996C159.692 22.655 160.229 22.82 160.607 23.15C160.991 23.48 161.183 23.939 161.183 24.527C161.183 24.917 161.096 25.25 160.922 25.526C160.754 25.802 160.511 26.015 160.193 26.165C159.875 26.309 159.5 26.381 159.068 26.381L159.194 26.21H159.5C159.752 26.21 159.977 26.276 160.175 26.408C160.373 26.54 160.535 26.741 160.661 27.011L161.588 29H160.31L159.374 26.939C159.29 26.729 159.161 26.591 158.987 26.525C158.819 26.459 158.615 26.426 158.375 26.426H157.385V29H156.224ZM157.385 25.571H158.807C159.215 25.571 159.524 25.487 159.734 25.319C159.95 25.145 160.058 24.893 160.058 24.563C160.058 24.233 159.95 23.984 159.734 23.816C159.524 23.648 159.215 23.564 158.807 23.564H157.385V25.571ZM164.536 29.09C163.774 29.09 163.177 28.88 162.745 28.46C162.313 28.04 162.097 27.464 162.097 26.732C162.097 26.258 162.19 25.844 162.376 25.49C162.562 25.136 162.82 24.86 163.15 24.662C163.486 24.464 163.876 24.365 164.32 24.365C164.758 24.365 165.124 24.458 165.418 24.644C165.712 24.83 165.934 25.091 166.084 25.427C166.24 25.763 166.318 26.156 166.318 26.606V26.903H163.006V26.309H165.517L165.364 26.435C165.364 26.015 165.274 25.694 165.094 25.472C164.92 25.25 164.665 25.139 164.329 25.139C163.957 25.139 163.669 25.271 163.465 25.535C163.267 25.799 163.168 26.168 163.168 26.642V26.759C163.168 27.251 163.288 27.62 163.528 27.866C163.774 28.106 164.119 28.226 164.563 28.226C164.821 28.226 165.061 28.193 165.283 28.127C165.511 28.055 165.727 27.941 165.931 27.785L166.264 28.541C166.048 28.715 165.79 28.85 165.49 28.946C165.19 29.042 164.872 29.09 164.536 29.09ZM169.376 31.016C168.956 31.016 168.575 30.971 168.233 30.881C167.897 30.791 167.597 30.653 167.333 30.467L167.576 29.657C167.75 29.771 167.93 29.864 168.116 29.936C168.302 30.008 168.494 30.062 168.692 30.098C168.89 30.134 169.091 30.152 169.295 30.152C169.715 30.152 170.027 30.047 170.231 29.837C170.441 29.633 170.546 29.339 170.546 28.955V27.866H170.636C170.54 28.178 170.345 28.427 170.051 28.613C169.763 28.799 169.43 28.892 169.052 28.892C168.644 28.892 168.287 28.802 167.981 28.622C167.681 28.436 167.447 28.172 167.279 27.83C167.111 27.488 167.027 27.086 167.027 26.624C167.027 26.162 167.111 25.763 167.279 25.427C167.447 25.085 167.681 24.824 167.981 24.644C168.287 24.458 168.644 24.365 169.052 24.365C169.436 24.365 169.769 24.458 170.051 24.644C170.339 24.824 170.531 25.07 170.627 25.382L170.546 25.328L170.636 24.455H171.725C171.701 24.641 171.683 24.83 171.671 25.022C171.659 25.214 171.653 25.403 171.653 25.589V28.82C171.653 29.534 171.458 30.077 171.068 30.449C170.684 30.827 170.12 31.016 169.376 31.016ZM169.358 28.028C169.718 28.028 170.003 27.908 170.213 27.668C170.429 27.422 170.537 27.074 170.537 26.624C170.537 26.174 170.429 25.829 170.213 25.589C170.003 25.349 169.718 25.229 169.358 25.229C168.992 25.229 168.701 25.349 168.485 25.589C168.269 25.829 168.161 26.174 168.161 26.624C168.161 27.074 168.269 27.422 168.485 27.668C168.701 27.908 168.992 28.028 169.358 28.028ZM172.869 29V24.455H173.994V29H172.869ZM172.806 23.6V22.502H174.057V23.6H172.806ZM176.836 29.09C176.446 29.09 176.086 29.045 175.756 28.955C175.432 28.859 175.159 28.727 174.937 28.559L175.252 27.803C175.48 27.959 175.732 28.079 176.008 28.163C176.284 28.247 176.563 28.289 176.845 28.289C177.145 28.289 177.367 28.238 177.511 28.136C177.661 28.034 177.736 27.896 177.736 27.722C177.736 27.584 177.688 27.476 177.592 27.398C177.502 27.314 177.355 27.251 177.151 27.209L176.251 27.038C175.867 26.954 175.573 26.81 175.369 26.606C175.171 26.402 175.072 26.135 175.072 25.805C175.072 25.523 175.147 25.274 175.297 25.058C175.453 24.842 175.672 24.674 175.954 24.554C176.242 24.428 176.578 24.365 176.962 24.365C177.298 24.365 177.613 24.41 177.907 24.5C178.207 24.59 178.459 24.725 178.663 24.905L178.339 25.634C178.153 25.484 177.94 25.367 177.7 25.283C177.46 25.199 177.226 25.157 176.998 25.157C176.686 25.157 176.458 25.214 176.314 25.328C176.17 25.436 176.098 25.577 176.098 25.751C176.098 25.883 176.14 25.994 176.224 26.084C176.314 26.168 176.452 26.231 176.638 26.273L177.538 26.444C177.94 26.522 178.243 26.66 178.447 26.858C178.657 27.05 178.762 27.314 178.762 27.65C178.762 27.95 178.681 28.208 178.519 28.424C178.357 28.64 178.132 28.805 177.844 28.919C177.556 29.033 177.22 29.09 176.836 29.09ZM181.624 29.09C181.084 29.09 180.676 28.949 180.4 28.667C180.124 28.385 179.986 27.962 179.986 27.398V25.301H179.113V24.455H179.986V23.294L181.111 23.006V24.455H182.326V25.301H181.111V27.326C181.111 27.638 181.171 27.857 181.291 27.983C181.411 28.109 181.576 28.172 181.786 28.172C181.9 28.172 181.996 28.163 182.074 28.145C182.158 28.127 182.239 28.103 182.317 28.073V28.964C182.215 29.006 182.101 29.036 181.975 29.054C181.855 29.078 181.738 29.09 181.624 29.09ZM183.082 29V25.616C183.082 25.424 183.076 25.229 183.064 25.031C183.058 24.833 183.043 24.641 183.019 24.455H184.108L184.234 25.697H184.054C184.114 25.397 184.213 25.148 184.351 24.95C184.495 24.752 184.669 24.605 184.873 24.509C185.077 24.413 185.299 24.365 185.539 24.365C185.647 24.365 185.734 24.371 185.8 24.383C185.866 24.389 185.932 24.404 185.998 24.428L185.989 25.418C185.875 25.37 185.776 25.34 185.692 25.328C185.614 25.316 185.515 25.31 185.395 25.31C185.137 25.31 184.918 25.364 184.738 25.472C184.564 25.58 184.432 25.73 184.342 25.922C184.258 26.114 184.216 26.333 184.216 26.579V29H183.082ZM188.335 29.09C187.939 29.09 187.591 28.997 187.291 28.811C186.991 28.619 186.757 28.346 186.589 27.992C186.421 27.638 186.337 27.215 186.337 26.723C186.337 26.231 186.421 25.811 186.589 25.463C186.757 25.109 186.991 24.839 187.291 24.653C187.591 24.461 187.939 24.365 188.335 24.365C188.719 24.365 189.055 24.461 189.343 24.653C189.637 24.839 189.832 25.091 189.928 25.409H189.829L189.928 24.455H191.008C190.99 24.641 190.972 24.83 190.954 25.022C190.942 25.214 190.936 25.403 190.936 25.589V29H189.82L189.811 28.064H189.919C189.823 28.376 189.628 28.625 189.334 28.811C189.04 28.997 188.707 29.09 188.335 29.09ZM188.65 28.226C189.004 28.226 189.289 28.103 189.505 27.857C189.721 27.605 189.829 27.227 189.829 26.723C189.829 26.219 189.721 25.844 189.505 25.598C189.289 25.352 189.004 25.229 188.65 25.229C188.296 25.229 188.011 25.352 187.795 25.598C187.579 25.844 187.471 26.219 187.471 26.723C187.471 27.227 187.576 27.605 187.786 27.857C188.002 28.103 188.29 28.226 188.65 28.226ZM192.152 29V25.616C192.152 25.424 192.146 25.229 192.134 25.031C192.128 24.833 192.113 24.641 192.089 24.455H193.178L193.304 25.697H193.124C193.184 25.397 193.283 25.148 193.421 24.95C193.565 24.752 193.739 24.605 193.943 24.509C194.147 24.413 194.369 24.365 194.609 24.365C194.717 24.365 194.804 24.371 194.87 24.383C194.936 24.389 195.002 24.404 195.068 24.428L195.059 25.418C194.945 25.37 194.846 25.34 194.762 25.328C194.684 25.316 194.585 25.31 194.465 25.31C194.207 25.31 193.988 25.364 193.808 25.472C193.634 25.58 193.502 25.73 193.412 25.922C193.328 26.114 193.286 26.333 193.286 26.579V29H192.152ZM197.27 29.09C196.88 29.09 196.52 29.045 196.19 28.955C195.866 28.859 195.593 28.727 195.371 28.559L195.686 27.803C195.914 27.959 196.166 28.079 196.442 28.163C196.718 28.247 196.997 28.289 197.279 28.289C197.579 28.289 197.801 28.238 197.945 28.136C198.095 28.034 198.17 27.896 198.17 27.722C198.17 27.584 198.122 27.476 198.026 27.398C197.936 27.314 197.789 27.251 197.585 27.209L196.685 27.038C196.301 26.954 196.007 26.81 195.803 26.606C195.605 26.402 195.506 26.135 195.506 25.805C195.506 25.523 195.581 25.274 195.731 25.058C195.887 24.842 196.106 24.674 196.388 24.554C196.676 24.428 197.012 24.365 197.396 24.365C197.732 24.365 198.047 24.41 198.341 24.5C198.641 24.59 198.893 24.725 199.097 24.905L198.773 25.634C198.587 25.484 198.374 25.367 198.134 25.283C197.894 25.199 197.66 25.157 197.432 25.157C197.12 25.157 196.892 25.214 196.748 25.328C196.604 25.436 196.532 25.577 196.532 25.751C196.532 25.883 196.574 25.994 196.658 26.084C196.748 26.168 196.886 26.231 197.072 26.273L197.972 26.444C198.374 26.522 198.677 26.66 198.881 26.858C199.091 27.05 199.196 27.314 199.196 27.65C199.196 27.95 199.115 28.208 198.953 28.424C198.791 28.64 198.566 28.805 198.278 28.919C197.99 29.033 197.654 29.09 197.27 29.09ZM202.355 29.09C201.593 29.09 200.996 28.88 200.564 28.46C200.132 28.04 199.916 27.464 199.916 26.732C199.916 26.258 200.009 25.844 200.195 25.49C200.381 25.136 200.639 24.86 200.969 24.662C201.305 24.464 201.695 24.365 202.139 24.365C202.577 24.365 202.943 24.458 203.237 24.644C203.531 24.83 203.753 25.091 203.903 25.427C204.059 25.763 204.137 26.156 204.137 26.606V26.903H200.825V26.309H203.336L203.183 26.435C203.183 26.015 203.093 25.694 202.913 25.472C202.739 25.25 202.484 25.139 202.148 25.139C201.776 25.139 201.488 25.271 201.284 25.535C201.086 25.799 200.987 26.168 200.987 26.642V26.759C200.987 27.251 201.107 27.62 201.347 27.866C201.593 28.106 201.938 28.226 202.382 28.226C202.64 28.226 202.88 28.193 203.102 28.127C203.33 28.055 203.546 27.941 203.75 27.785L204.083 28.541C203.867 28.715 203.609 28.85 203.309 28.946C203.009 29.042 202.691 29.09 202.355 29.09Z" fill="black"/>
<g filter="url(#filter0_d_249_919)">
<rect x="55" y="317" width="250" height="40" rx="20" fill="#46B593"/>
<path d="M140.476 341.1C139.743 341.1 139.113 340.953 138.586 340.66C138.066 340.36 137.666 339.94 137.386 339.4C137.106 338.853 136.966 338.21 136.966 337.47C136.966 336.73 137.106 336.09 137.386 335.55C137.666 335.01 138.066 334.593 138.586 334.3C139.113 334 139.743 333.85 140.476 333.85C140.969 333.85 141.413 333.92 141.806 334.06C142.206 334.2 142.549 334.407 142.836 334.68L142.416 335.7C142.103 335.447 141.799 335.267 141.506 335.16C141.219 335.047 140.889 334.99 140.516 334.99C139.803 334.99 139.256 335.207 138.876 335.64C138.503 336.067 138.316 336.677 138.316 337.47C138.316 338.263 138.503 338.877 138.876 339.31C139.256 339.743 139.803 339.96 140.516 339.96C140.889 339.96 141.219 339.907 141.506 339.8C141.799 339.687 142.103 339.5 142.416 339.24L142.836 340.26C142.549 340.527 142.206 340.733 141.806 340.88C141.413 341.027 140.969 341.1 140.476 341.1ZM145.87 341.1C145.35 341.1 144.9 340.993 144.52 340.78C144.14 340.567 143.843 340.263 143.63 339.87C143.423 339.477 143.32 339.01 143.32 338.47C143.32 337.93 143.423 337.467 143.63 337.08C143.843 336.687 144.14 336.383 144.52 336.17C144.9 335.957 145.35 335.85 145.87 335.85C146.39 335.85 146.84 335.957 147.22 336.17C147.607 336.383 147.903 336.687 148.11 337.08C148.323 337.467 148.43 337.93 148.43 338.47C148.43 339.01 148.323 339.477 148.11 339.87C147.903 340.263 147.607 340.567 147.22 340.78C146.84 340.993 146.39 341.1 145.87 341.1ZM145.87 340.14C146.263 340.14 146.577 340.003 146.81 339.73C147.043 339.45 147.16 339.03 147.16 338.47C147.16 337.91 147.043 337.493 146.81 337.22C146.577 336.947 146.263 336.81 145.87 336.81C145.477 336.81 145.163 336.947 144.93 337.22C144.697 337.493 144.58 337.91 144.58 338.47C144.58 339.03 144.697 339.45 144.93 339.73C145.163 340.003 145.477 340.14 145.87 340.14ZM149.508 341V337.21C149.508 337.003 149.501 336.793 149.488 336.58C149.475 336.367 149.455 336.157 149.428 335.95H150.638L150.738 336.95H150.618C150.778 336.597 151.015 336.327 151.328 336.14C151.641 335.947 152.005 335.85 152.418 335.85C153.011 335.85 153.458 336.017 153.758 336.35C154.058 336.683 154.208 337.203 154.208 337.91V341H152.958V337.97C152.958 337.563 152.878 337.273 152.718 337.1C152.565 336.92 152.331 336.83 152.018 336.83C151.631 336.83 151.325 336.95 151.098 337.19C150.871 337.43 150.758 337.75 150.758 338.15V341H149.508ZM155.874 341V336.89H154.904V335.95H156.224L155.874 336.27V335.5C155.874 334.873 156.03 334.4 156.344 334.08C156.664 333.76 157.127 333.6 157.734 333.6C157.88 333.6 158.034 333.61 158.194 333.63C158.36 333.65 158.504 333.687 158.624 333.74V334.72C158.537 334.687 158.434 334.66 158.314 334.64C158.194 334.62 158.077 334.61 157.964 334.61C157.704 334.61 157.497 334.687 157.344 334.84C157.19 334.987 157.114 335.227 157.114 335.56V336.17L156.934 335.95H160.444V341H159.194V336.89H157.124V341H155.874ZM159.124 335V333.78H160.514V335H159.124ZM161.793 341V337.24C161.793 337.027 161.786 336.81 161.773 336.59C161.766 336.37 161.75 336.157 161.723 335.95H162.933L163.073 337.33H162.873C162.94 336.997 163.05 336.72 163.203 336.5C163.363 336.28 163.556 336.117 163.783 336.01C164.01 335.903 164.256 335.85 164.523 335.85C164.643 335.85 164.74 335.857 164.813 335.87C164.886 335.877 164.96 335.893 165.033 335.92L165.023 337.02C164.896 336.967 164.786 336.933 164.693 336.92C164.606 336.907 164.496 336.9 164.363 336.9C164.076 336.9 163.833 336.96 163.633 337.08C163.44 337.2 163.293 337.367 163.193 337.58C163.1 337.793 163.053 338.037 163.053 338.31V341H161.793ZM165.729 341V337.21C165.729 337.003 165.722 336.793 165.709 336.58C165.695 336.367 165.675 336.157 165.649 335.95H166.859L166.959 336.95H166.839C166.979 336.603 167.192 336.333 167.479 336.14C167.772 335.947 168.119 335.85 168.519 335.85C168.919 335.85 169.249 335.947 169.509 336.14C169.775 336.327 169.962 336.62 170.069 337.02H169.909C170.049 336.66 170.279 336.377 170.599 336.17C170.919 335.957 171.285 335.85 171.699 335.85C172.265 335.85 172.689 336.017 172.969 336.35C173.249 336.683 173.389 337.203 173.389 337.91V341H172.139V337.96C172.139 337.56 172.072 337.273 171.939 337.1C171.805 336.92 171.592 336.83 171.299 336.83C170.952 336.83 170.679 336.953 170.479 337.2C170.279 337.44 170.179 337.767 170.179 338.18V341H168.929V337.96C168.929 337.56 168.862 337.273 168.729 337.1C168.595 336.92 168.382 336.83 168.089 336.83C167.742 336.83 167.469 336.953 167.269 337.2C167.075 337.44 166.979 337.767 166.979 338.18V341H165.729ZM176.673 341.1C176.233 341.1 175.846 340.997 175.513 340.79C175.18 340.577 174.92 340.273 174.733 339.88C174.546 339.487 174.453 339.017 174.453 338.47C174.453 337.923 174.546 337.457 174.733 337.07C174.92 336.677 175.18 336.377 175.513 336.17C175.846 335.957 176.233 335.85 176.673 335.85C177.1 335.85 177.473 335.957 177.793 336.17C178.12 336.377 178.336 336.657 178.443 337.01H178.333L178.443 335.95H179.643C179.623 336.157 179.603 336.367 179.583 336.58C179.57 336.793 179.563 337.003 179.563 337.21V341H178.323L178.313 339.96H178.433C178.326 340.307 178.11 340.583 177.783 340.79C177.456 340.997 177.086 341.1 176.673 341.1ZM177.023 340.14C177.416 340.14 177.733 340.003 177.973 339.73C178.213 339.45 178.333 339.03 178.333 338.47C178.333 337.91 178.213 337.493 177.973 337.22C177.733 336.947 177.416 336.81 177.023 336.81C176.63 336.81 176.313 336.947 176.073 337.22C175.833 337.493 175.713 337.91 175.713 338.47C175.713 339.03 175.83 339.45 176.063 339.73C176.303 340.003 176.623 340.14 177.023 340.14ZM180.914 341V337.24C180.914 337.027 180.907 336.81 180.894 336.59C180.887 336.37 180.871 336.157 180.844 335.95H182.054L182.194 337.33H181.994C182.061 336.997 182.171 336.72 182.324 336.5C182.484 336.28 182.677 336.117 182.904 336.01C183.131 335.903 183.377 335.85 183.644 335.85C183.764 335.85 183.861 335.857 183.934 335.87C184.007 335.877 184.081 335.893 184.154 335.92L184.144 337.02C184.017 336.967 183.907 336.933 183.814 336.92C183.727 336.907 183.617 336.9 183.484 336.9C183.197 336.9 182.954 336.96 182.754 337.08C182.561 337.2 182.414 337.367 182.314 337.58C182.221 337.793 182.174 338.037 182.174 338.31V341H180.914ZM187.584 341V337.24C187.584 337.027 187.577 336.81 187.564 336.59C187.557 336.37 187.541 336.157 187.514 335.95H188.724L188.864 337.33H188.664C188.731 336.997 188.841 336.72 188.994 336.5C189.154 336.28 189.347 336.117 189.574 336.01C189.801 335.903 190.047 335.85 190.314 335.85C190.434 335.85 190.531 335.857 190.604 335.87C190.677 335.877 190.751 335.893 190.824 335.92L190.814 337.02C190.687 336.967 190.577 336.933 190.484 336.92C190.397 336.907 190.287 336.9 190.154 336.9C189.867 336.9 189.624 336.96 189.424 337.08C189.231 337.2 189.084 337.367 188.984 337.58C188.891 337.793 188.844 338.037 188.844 338.31V341H187.584ZM193.882 341.1C193.035 341.1 192.372 340.867 191.892 340.4C191.412 339.933 191.172 339.293 191.172 338.48C191.172 337.953 191.275 337.493 191.482 337.1C191.688 336.707 191.975 336.4 192.342 336.18C192.715 335.96 193.148 335.85 193.642 335.85C194.128 335.85 194.535 335.953 194.862 336.16C195.188 336.367 195.435 336.657 195.602 337.03C195.775 337.403 195.862 337.84 195.862 338.34V338.67H192.182V338.01H194.972L194.802 338.15C194.802 337.683 194.702 337.327 194.502 337.08C194.308 336.833 194.025 336.71 193.652 336.71C193.238 336.71 192.918 336.857 192.692 337.15C192.472 337.443 192.362 337.853 192.362 338.38V338.51C192.362 339.057 192.495 339.467 192.762 339.74C193.035 340.007 193.418 340.14 193.912 340.14C194.198 340.14 194.465 340.103 194.712 340.03C194.965 339.95 195.205 339.823 195.432 339.65L195.802 340.49C195.562 340.683 195.275 340.833 194.942 340.94C194.608 341.047 194.255 341.1 193.882 341.1ZM199.26 343.24C198.794 343.24 198.37 343.19 197.99 343.09C197.617 342.99 197.284 342.837 196.99 342.63L197.26 341.73C197.454 341.857 197.654 341.96 197.86 342.04C198.067 342.12 198.28 342.18 198.5 342.22C198.72 342.26 198.944 342.28 199.17 342.28C199.637 342.28 199.984 342.163 200.21 341.93C200.444 341.703 200.56 341.377 200.56 340.95V339.74H200.66C200.554 340.087 200.337 340.363 200.01 340.57C199.69 340.777 199.32 340.88 198.9 340.88C198.447 340.88 198.05 340.78 197.71 340.58C197.377 340.373 197.117 340.08 196.93 339.7C196.744 339.32 196.65 338.873 196.65 338.36C196.65 337.847 196.744 337.403 196.93 337.03C197.117 336.65 197.377 336.36 197.71 336.16C198.05 335.953 198.447 335.85 198.9 335.85C199.327 335.85 199.697 335.953 200.01 336.16C200.33 336.36 200.544 336.633 200.65 336.98L200.56 336.92L200.66 335.95H201.87C201.844 336.157 201.824 336.367 201.81 336.58C201.797 336.793 201.79 337.003 201.79 337.21V340.8C201.79 341.593 201.574 342.197 201.14 342.61C200.714 343.03 200.087 343.24 199.26 343.24ZM199.24 339.92C199.64 339.92 199.957 339.787 200.19 339.52C200.43 339.247 200.55 338.86 200.55 338.36C200.55 337.86 200.43 337.477 200.19 337.21C199.957 336.943 199.64 336.81 199.24 336.81C198.834 336.81 198.51 336.943 198.27 337.21C198.03 337.477 197.91 337.86 197.91 338.36C197.91 338.86 198.03 339.247 198.27 339.52C198.51 339.787 198.834 339.92 199.24 339.92ZM203.141 341V335.95H204.391V341H203.141ZM203.071 335V333.78H204.461V335H203.071ZM207.548 341.1C207.115 341.1 206.715 341.05 206.348 340.95C205.988 340.843 205.685 340.697 205.438 340.51L205.788 339.67C206.042 339.843 206.322 339.977 206.628 340.07C206.935 340.163 207.245 340.21 207.558 340.21C207.892 340.21 208.138 340.153 208.298 340.04C208.465 339.927 208.548 339.773 208.548 339.58C208.548 339.427 208.495 339.307 208.388 339.22C208.288 339.127 208.125 339.057 207.898 339.01L206.898 338.82C206.472 338.727 206.145 338.567 205.918 338.34C205.698 338.113 205.588 337.817 205.588 337.45C205.588 337.137 205.672 336.86 205.838 336.62C206.012 336.38 206.255 336.193 206.568 336.06C206.888 335.92 207.262 335.85 207.688 335.85C208.062 335.85 208.412 335.9 208.738 336C209.072 336.1 209.352 336.25 209.578 336.45L209.218 337.26C209.012 337.093 208.775 336.963 208.508 336.87C208.242 336.777 207.982 336.73 207.728 336.73C207.382 336.73 207.128 336.793 206.968 336.92C206.808 337.04 206.728 337.197 206.728 337.39C206.728 337.537 206.775 337.66 206.868 337.76C206.968 337.853 207.122 337.923 207.328 337.97L208.328 338.16C208.775 338.247 209.112 338.4 209.338 338.62C209.572 338.833 209.688 339.127 209.688 339.5C209.688 339.833 209.598 340.12 209.418 340.36C209.238 340.6 208.988 340.783 208.668 340.91C208.348 341.037 207.975 341.1 207.548 341.1ZM212.869 341.1C212.269 341.1 211.816 340.943 211.509 340.63C211.203 340.317 211.049 339.847 211.049 339.22V336.89H210.079V335.95H211.049V334.66L212.299 334.34V335.95H213.649V336.89H212.299V339.14C212.299 339.487 212.366 339.73 212.499 339.87C212.633 340.01 212.816 340.08 213.049 340.08C213.176 340.08 213.283 340.07 213.369 340.05C213.463 340.03 213.553 340.003 213.639 339.97V340.96C213.526 341.007 213.399 341.04 213.259 341.06C213.126 341.087 212.996 341.1 212.869 341.1ZM214.488 341V337.24C214.488 337.027 214.482 336.81 214.468 336.59C214.462 336.37 214.445 336.157 214.418 335.95H215.628L215.768 337.33H215.568C215.635 336.997 215.745 336.72 215.898 336.5C216.058 336.28 216.252 336.117 216.478 336.01C216.705 335.903 216.952 335.85 217.218 335.85C217.338 335.85 217.435 335.857 217.508 335.87C217.582 335.877 217.655 335.893 217.728 335.92L217.718 337.02C217.592 336.967 217.482 336.933 217.388 336.92C217.302 336.907 217.192 336.9 217.058 336.9C216.772 336.9 216.528 336.96 216.328 337.08C216.135 337.2 215.988 337.367 215.888 337.58C215.795 337.793 215.748 338.037 215.748 338.31V341H214.488ZM220.626 341.1C220.106 341.1 219.656 340.993 219.276 340.78C218.896 340.567 218.599 340.263 218.386 339.87C218.179 339.477 218.076 339.01 218.076 338.47C218.076 337.93 218.179 337.467 218.386 337.08C218.599 336.687 218.896 336.383 219.276 336.17C219.656 335.957 220.106 335.85 220.626 335.85C221.146 335.85 221.596 335.957 221.976 336.17C222.363 336.383 222.659 336.687 222.866 337.08C223.079 337.467 223.186 337.93 223.186 338.47C223.186 339.01 223.079 339.477 222.866 339.87C222.659 340.263 222.363 340.567 221.976 340.78C221.596 340.993 221.146 341.1 220.626 341.1ZM220.626 340.14C221.019 340.14 221.333 340.003 221.566 339.73C221.799 339.45 221.916 339.03 221.916 338.47C221.916 337.91 221.799 337.493 221.566 337.22C221.333 336.947 221.019 336.81 220.626 336.81C220.233 336.81 219.919 336.947 219.686 337.22C219.453 337.493 219.336 337.91 219.336 338.47C219.336 339.03 219.453 339.45 219.686 339.73C219.919 340.003 220.233 340.14 220.626 340.14Z" fill="#F5F4F2"/>
</g>
<path opacity="0.5" d="M50.616 70V65.065H51.071L54.235 69.265H54.074V65.065H54.613V70H54.165L51.001 65.8H51.155V70H50.616ZM57.2245 70.063C56.8885 70.063 56.5945 69.9907 56.3425 69.846C56.0952 69.6967 55.9038 69.4867 55.7685 69.216C55.6332 68.9407 55.5655 68.6163 55.5655 68.243C55.5655 67.865 55.6332 67.5407 55.7685 67.27C55.9038 66.9993 56.0952 66.7917 56.3425 66.647C56.5945 66.4977 56.8885 66.423 57.2245 66.423C57.5652 66.423 57.8592 66.4977 58.1065 66.647C58.3585 66.7917 58.5522 66.9993 58.6875 67.27C58.8275 67.5407 58.8975 67.865 58.8975 68.243C58.8975 68.6163 58.8275 68.9407 58.6875 69.216C58.5522 69.4867 58.3585 69.6967 58.1065 69.846C57.8592 69.9907 57.5652 70.063 57.2245 70.063ZM57.2245 69.601C57.5605 69.601 57.8265 69.4867 58.0225 69.258C58.2185 69.0247 58.3165 68.6863 58.3165 68.243C58.3165 67.795 58.2162 67.4567 58.0155 67.228C57.8195 66.9947 57.5558 66.878 57.2245 66.878C56.8932 66.878 56.6295 66.9947 56.4335 67.228C56.2375 67.4567 56.1395 67.795 56.1395 68.243C56.1395 68.6863 56.2375 69.0247 56.4335 69.258C56.6295 69.4867 56.8932 69.601 57.2245 69.601ZM59.7815 70V67.298C59.7815 67.1673 59.7745 67.0343 59.7605 66.899C59.7512 66.759 59.7395 66.6213 59.7255 66.486H60.2715L60.3415 67.256H60.2575C60.3508 66.99 60.4978 66.7847 60.6985 66.64C60.9038 66.4953 61.1512 66.423 61.4405 66.423C61.7345 66.423 61.9725 66.493 62.1545 66.633C62.3412 66.773 62.4672 66.99 62.5325 67.284H62.4275C62.5162 67.018 62.6725 66.808 62.8965 66.654C63.1205 66.5 63.3818 66.423 63.6805 66.423C64.0678 66.423 64.3595 66.535 64.5555 66.759C64.7515 66.9783 64.8495 67.326 64.8495 67.802V70H64.2825V67.837C64.2825 67.5057 64.2242 67.2653 64.1075 67.116C63.9908 66.962 63.8042 66.885 63.5475 66.885C63.2535 66.885 63.0202 66.9877 62.8475 67.193C62.6795 67.3937 62.5955 67.6643 62.5955 68.005V70H62.0285V67.837C62.0285 67.5057 61.9702 67.2653 61.8535 67.116C61.7368 66.962 61.5502 66.885 61.2935 66.885C60.9995 66.885 60.7685 66.9877 60.6005 67.193C60.4325 67.3937 60.3485 67.6643 60.3485 68.005V70H59.7815ZM67.691 70.063C67.3737 70.063 67.1007 69.9837 66.872 69.825C66.6434 69.6617 66.4894 69.44 66.41 69.16H66.487V70H65.927V64.848H66.494V67.305H66.41C66.4894 67.0343 66.6434 66.8197 66.872 66.661C67.1007 66.5023 67.3737 66.423 67.691 66.423C68.0084 66.423 68.2814 66.4977 68.51 66.647C68.7434 66.7917 68.923 66.9993 69.049 67.27C69.1797 67.5407 69.245 67.865 69.245 68.243C69.245 68.621 69.1797 68.9453 69.049 69.216C68.9184 69.4867 68.7364 69.6967 68.503 69.846C68.2744 69.9907 68.0037 70.063 67.691 70.063ZM67.572 69.601C67.9034 69.601 68.1694 69.4867 68.37 69.258C68.5707 69.0293 68.671 68.691 68.671 68.243C68.671 67.795 68.5707 67.4567 68.37 67.228C68.1694 66.9947 67.9034 66.878 67.572 66.878C67.2407 66.878 66.9747 66.9947 66.774 67.228C66.578 67.4567 66.48 67.795 66.48 68.243C66.48 68.6863 66.578 69.0247 66.774 69.258C66.9747 69.4867 67.2407 69.601 67.572 69.601ZM70.1103 70V67.333C70.1103 67.193 70.1056 67.0507 70.0963 66.906C70.0916 66.7613 70.0823 66.6213 70.0683 66.486H70.6143L70.6843 67.34L70.5863 67.347C70.633 67.137 70.7146 66.9643 70.8313 66.829C70.948 66.6937 71.0856 66.5933 71.2443 66.528C71.403 66.458 71.5686 66.423 71.7413 66.423C71.8113 66.423 71.872 66.4253 71.9233 66.43C71.9793 66.4347 72.0306 66.4463 72.0773 66.465L72.0703 66.969C72.0003 66.9457 71.935 66.9317 71.8743 66.927C71.8183 66.9177 71.753 66.913 71.6783 66.913C71.473 66.913 71.2933 66.962 71.1393 67.06C70.99 67.158 70.8756 67.284 70.7963 67.438C70.7216 67.592 70.6843 67.7553 70.6843 67.928V70H70.1103ZM74.1872 70.063C73.6366 70.063 73.2026 69.9043 72.8852 69.587C72.5679 69.265 72.4092 68.8193 72.4092 68.25C72.4092 67.8813 72.4792 67.5617 72.6192 67.291C72.7592 67.0157 72.9552 66.8033 73.2072 66.654C73.4592 66.5 73.7486 66.423 74.0752 66.423C74.3972 66.423 74.6679 66.4907 74.8872 66.626C75.1066 66.7613 75.2746 66.955 75.3912 67.207C75.5079 67.4543 75.5662 67.7483 75.5662 68.089V68.299H72.8432V67.942H75.1952L75.0762 68.033C75.0762 67.6597 74.9922 67.368 74.8242 67.158C74.6562 66.948 74.4066 66.843 74.0752 66.843C73.7252 66.843 73.4522 66.9667 73.2562 67.214C73.0602 67.4567 72.9622 67.7857 72.9622 68.201V68.264C72.9622 68.7027 73.0696 69.0363 73.2842 69.265C73.5036 69.489 73.8092 69.601 74.2012 69.601C74.4112 69.601 74.6072 69.5707 74.7892 69.51C74.9759 69.4447 75.1532 69.3397 75.3212 69.195L75.5172 69.594C75.3632 69.7433 75.1672 69.86 74.9292 69.944C74.6959 70.0233 74.4486 70.063 74.1872 70.063ZM79.5891 70.063C79.2811 70.063 79.0104 69.9907 78.7771 69.846C78.5437 69.6967 78.3617 69.4867 78.2311 69.216C78.1051 68.9453 78.0421 68.621 78.0421 68.243C78.0421 67.8603 78.1051 67.5337 78.2311 67.263C78.3617 66.9923 78.5437 66.7847 78.7771 66.64C79.0104 66.4953 79.2811 66.423 79.5891 66.423C79.9064 66.423 80.1794 66.5023 80.4081 66.661C80.6414 66.8197 80.7977 67.0343 80.8771 67.305H80.7931V64.848H81.3601V70H80.8001V69.16H80.8771C80.8024 69.44 80.6484 69.6617 80.4151 69.825C80.1817 69.9837 79.9064 70.063 79.5891 70.063ZM79.7081 69.601C80.0394 69.601 80.3054 69.4867 80.5061 69.258C80.7067 69.0247 80.8071 68.6863 80.8071 68.243C80.8071 67.795 80.7067 67.4567 80.5061 67.228C80.3054 66.9947 80.0394 66.878 79.7081 66.878C79.3767 66.878 79.1107 66.9947 78.9101 67.228C78.7141 67.4567 78.6161 67.795 78.6161 68.243C78.6161 68.6863 78.7141 69.0247 78.9101 69.258C79.1107 69.4867 79.3767 69.601 79.7081 69.601ZM84.0173 70.063C83.4667 70.063 83.0327 69.9043 82.7153 69.587C82.398 69.265 82.2393 68.8193 82.2393 68.25C82.2393 67.8813 82.3093 67.5617 82.4493 67.291C82.5893 67.0157 82.7853 66.8033 83.0373 66.654C83.2893 66.5 83.5787 66.423 83.9053 66.423C84.2273 66.423 84.498 66.4907 84.7173 66.626C84.9367 66.7613 85.1047 66.955 85.2213 67.207C85.338 67.4543 85.3963 67.7483 85.3963 68.089V68.299H82.6733V67.942H85.0253L84.9063 68.033C84.9063 67.6597 84.8223 67.368 84.6543 67.158C84.4863 66.948 84.2367 66.843 83.9053 66.843C83.5553 66.843 83.2823 66.9667 83.0863 67.214C82.8903 67.4567 82.7923 67.7857 82.7923 68.201V68.264C82.7923 68.7027 82.8997 69.0363 83.1143 69.265C83.3337 69.489 83.6393 69.601 84.0313 69.601C84.2413 69.601 84.4373 69.5707 84.6193 69.51C84.806 69.4447 84.9833 69.3397 85.1513 69.195L85.3473 69.594C85.1933 69.7433 84.9973 69.86 84.7593 69.944C84.526 70.0233 84.2787 70.063 84.0173 70.063ZM89.3281 70.063C88.9128 70.063 88.5978 69.9487 88.3831 69.72C88.1731 69.4913 88.0681 69.1413 88.0681 68.67V66.486H88.6351V68.656C88.6351 68.978 88.7005 69.216 88.8311 69.37C88.9618 69.5193 89.1648 69.594 89.4401 69.594C89.7481 69.594 89.9955 69.4937 90.1821 69.293C90.3688 69.0923 90.4621 68.824 90.4621 68.488V66.486H91.0291V70H90.4761V69.209H90.5671C90.4691 69.4797 90.3105 69.6897 90.0911 69.839C89.8765 69.9883 89.6221 70.063 89.3281 70.063ZM93.2982 70.063C93.0182 70.063 92.7568 70.0257 92.5142 69.951C92.2715 69.8717 92.0708 69.762 91.9122 69.622L92.1082 69.223C92.2808 69.3583 92.4675 69.4587 92.6682 69.524C92.8735 69.5893 93.0858 69.622 93.3052 69.622C93.5852 69.622 93.7952 69.573 93.9352 69.475C94.0798 69.3723 94.1522 69.2323 94.1522 69.055C94.1522 68.9197 94.1055 68.8123 94.0122 68.733C93.9235 68.649 93.7765 68.5837 93.5712 68.537L92.9202 68.404C92.6215 68.3387 92.3975 68.229 92.2482 68.075C92.0988 67.9163 92.0242 67.7157 92.0242 67.473C92.0242 67.2677 92.0778 67.088 92.1852 66.934C92.2925 66.7753 92.4488 66.6517 92.6542 66.563C92.8595 66.4697 93.0998 66.423 93.3752 66.423C93.6318 66.423 93.8675 66.4627 94.0822 66.542C94.3015 66.6167 94.4835 66.7263 94.6282 66.871L94.4252 67.263C94.2852 67.1277 94.1242 67.0273 93.9422 66.962C93.7648 66.892 93.5805 66.857 93.3892 66.857C93.1138 66.857 92.9062 66.913 92.7662 67.025C92.6308 67.1323 92.5632 67.2747 92.5632 67.452C92.5632 67.5873 92.6052 67.6993 92.6892 67.788C92.7778 67.872 92.9132 67.935 93.0952 67.977L93.7462 68.11C94.0635 68.18 94.2992 68.2897 94.4532 68.439C94.6118 68.5837 94.6912 68.7797 94.6912 69.027C94.6912 69.237 94.6328 69.4213 94.5162 69.58C94.3995 69.734 94.2362 69.853 94.0262 69.937C93.8208 70.021 93.5782 70.063 93.2982 70.063ZM96.8408 70.063C96.4255 70.063 96.1105 69.9487 95.8958 69.72C95.6858 69.4913 95.5808 69.1413 95.5808 68.67V66.486H96.1478V68.656C96.1478 68.978 96.2132 69.216 96.3438 69.37C96.4745 69.5193 96.6775 69.594 96.9528 69.594C97.2608 69.594 97.5082 69.4937 97.6948 69.293C97.8815 69.0923 97.9748 68.824 97.9748 68.488V66.486H98.5418V70H97.9888V69.209H98.0798C97.9818 69.4797 97.8232 69.6897 97.6038 69.839C97.3892 69.9883 97.1348 70.063 96.8408 70.063ZM100.979 70.063C100.666 70.063 100.393 69.9907 100.16 69.846C99.9265 69.6967 99.7445 69.4867 99.6139 69.216C99.4879 68.9453 99.4249 68.621 99.4249 68.243C99.4249 67.8603 99.4879 67.5337 99.6139 67.263C99.7445 66.9923 99.9265 66.7847 100.16 66.64C100.393 66.4953 100.666 66.423 100.979 66.423C101.296 66.423 101.569 66.5047 101.798 66.668C102.031 66.8267 102.185 67.0437 102.26 67.319H102.176L102.253 66.486H102.799C102.785 66.6213 102.771 66.759 102.757 66.899C102.748 67.0343 102.743 67.1673 102.743 67.298V70H102.176V69.174H102.253C102.178 69.4493 102.024 69.6663 101.791 69.825C101.558 69.9837 101.287 70.063 100.979 70.063ZM101.091 69.601C101.427 69.601 101.693 69.4867 101.889 69.258C102.085 69.0247 102.183 68.6863 102.183 68.243C102.183 67.795 102.085 67.4567 101.889 67.228C101.693 66.9947 101.427 66.878 101.091 66.878C100.76 66.878 100.494 66.9947 100.293 67.228C100.097 67.4567 99.9989 67.795 99.9989 68.243C99.9989 68.6863 100.097 69.0247 100.293 69.258C100.494 69.4867 100.76 69.601 101.091 69.601ZM103.825 70V67.333C103.825 67.193 103.82 67.0507 103.811 66.906C103.806 66.7613 103.797 66.6213 103.783 66.486H104.329L104.399 67.34L104.301 67.347C104.348 67.137 104.429 66.9643 104.546 66.829C104.663 66.6937 104.8 66.5933 104.959 66.528C105.118 66.458 105.283 66.423 105.456 66.423C105.526 66.423 105.587 66.4253 105.638 66.43C105.694 66.4347 105.745 66.4463 105.792 66.465L105.785 66.969C105.715 66.9457 105.65 66.9317 105.589 66.927C105.533 66.9177 105.468 66.913 105.393 66.913C105.188 66.913 105.008 66.962 104.854 67.06C104.705 67.158 104.59 67.284 104.511 67.438C104.436 67.592 104.399 67.7553 104.399 67.928V70H103.825ZM106.382 70V66.486H106.949V70H106.382ZM106.312 65.688V65.051H107.012V65.688H106.312ZM109.492 70.063C109.156 70.063 108.862 69.9907 108.61 69.846C108.363 69.6967 108.171 69.4867 108.036 69.216C107.901 68.9407 107.833 68.6163 107.833 68.243C107.833 67.865 107.901 67.5407 108.036 67.27C108.171 66.9993 108.363 66.7917 108.61 66.647C108.862 66.4977 109.156 66.423 109.492 66.423C109.833 66.423 110.127 66.4977 110.374 66.647C110.626 66.7917 110.82 66.9993 110.955 67.27C111.095 67.5407 111.165 67.865 111.165 68.243C111.165 68.6163 111.095 68.9407 110.955 69.216C110.82 69.4867 110.626 69.6967 110.374 69.846C110.127 69.9907 109.833 70.063 109.492 70.063ZM109.492 69.601C109.828 69.601 110.094 69.4867 110.29 69.258C110.486 69.0247 110.584 68.6863 110.584 68.243C110.584 67.795 110.484 67.4567 110.283 67.228C110.087 66.9947 109.823 66.878 109.492 66.878C109.161 66.878 108.897 66.9947 108.701 67.228C108.505 67.4567 108.407 67.795 108.407 68.243C108.407 68.6863 108.505 69.0247 108.701 69.258C108.897 69.4867 109.161 69.601 109.492 69.601ZM115.316 70.063C114.98 70.063 114.686 69.9907 114.434 69.846C114.187 69.6967 113.996 69.4867 113.86 69.216C113.725 68.9407 113.657 68.6163 113.657 68.243C113.657 67.865 113.725 67.5407 113.86 67.27C113.996 66.9993 114.187 66.7917 114.434 66.647C114.686 66.4977 114.98 66.423 115.316 66.423C115.657 66.423 115.951 66.4977 116.198 66.647C116.45 66.7917 116.644 66.9993 116.779 67.27C116.919 67.5407 116.989 67.865 116.989 68.243C116.989 68.6163 116.919 68.9407 116.779 69.216C116.644 69.4867 116.45 69.6967 116.198 69.846C115.951 69.9907 115.657 70.063 115.316 70.063ZM115.316 69.601C115.652 69.601 115.918 69.4867 116.114 69.258C116.31 69.0247 116.408 68.6863 116.408 68.243C116.408 67.795 116.308 67.4567 116.107 67.228C115.911 66.9947 115.648 66.878 115.316 66.878C114.985 66.878 114.721 66.9947 114.525 67.228C114.329 67.4567 114.231 67.795 114.231 68.243C114.231 68.6863 114.329 69.0247 114.525 69.258C114.721 69.4867 114.985 69.601 115.316 69.601ZM121.26 70.063C120.709 70.063 120.275 69.9043 119.958 69.587C119.64 69.265 119.482 68.8193 119.482 68.25C119.482 67.8813 119.552 67.5617 119.692 67.291C119.832 67.0157 120.028 66.8033 120.28 66.654C120.532 66.5 120.821 66.423 121.148 66.423C121.47 66.423 121.74 66.4907 121.96 66.626C122.179 66.7613 122.347 66.955 122.464 67.207C122.58 67.4543 122.639 67.7483 122.639 68.089V68.299H119.916V67.942H122.268L122.149 68.033C122.149 67.6597 122.065 67.368 121.897 67.158C121.729 66.948 121.479 66.843 121.148 66.843C120.798 66.843 120.525 66.9667 120.329 67.214C120.133 67.4567 120.035 67.7857 120.035 68.201V68.264C120.035 68.7027 120.142 69.0363 120.357 69.265C120.576 69.489 120.882 69.601 121.274 69.601C121.484 69.601 121.68 69.5707 121.862 69.51C122.048 69.4447 122.226 69.3397 122.394 69.195L122.59 69.594C122.436 69.7433 122.24 69.86 122.002 69.944C121.768 70.0233 121.521 70.063 121.26 70.063ZM123.532 68.313V67.844H125.527V68.313H123.532ZM126.575 70V67.298C126.575 67.1673 126.568 67.0343 126.554 66.899C126.545 66.759 126.533 66.6213 126.519 66.486H127.065L127.135 67.256H127.051C127.145 66.99 127.292 66.7847 127.492 66.64C127.698 66.4953 127.945 66.423 128.234 66.423C128.528 66.423 128.766 66.493 128.948 66.633C129.135 66.773 129.261 66.99 129.326 67.284H129.221C129.31 67.018 129.466 66.808 129.69 66.654C129.914 66.5 130.176 66.423 130.474 66.423C130.862 66.423 131.153 66.535 131.349 66.759C131.545 66.9783 131.643 67.326 131.643 67.802V70H131.076V67.837C131.076 67.5057 131.018 67.2653 130.901 67.116C130.785 66.962 130.598 66.885 130.341 66.885C130.047 66.885 129.814 66.9877 129.641 67.193C129.473 67.3937 129.389 67.6643 129.389 68.005V70H128.822V67.837C128.822 67.5057 128.764 67.2653 128.647 67.116C128.531 66.962 128.344 66.885 128.087 66.885C127.793 66.885 127.562 66.9877 127.394 67.193C127.226 67.3937 127.142 67.6643 127.142 68.005V70H126.575ZM134.058 70.063C133.745 70.063 133.472 69.9907 133.239 69.846C133.006 69.6967 132.824 69.4867 132.693 69.216C132.567 68.9453 132.504 68.621 132.504 68.243C132.504 67.8603 132.567 67.5337 132.693 67.263C132.824 66.9923 133.006 66.7847 133.239 66.64C133.472 66.4953 133.745 66.423 134.058 66.423C134.375 66.423 134.648 66.5047 134.877 66.668C135.11 66.8267 135.264 67.0437 135.339 67.319H135.255L135.332 66.486H135.878C135.864 66.6213 135.85 66.759 135.836 66.899C135.827 67.0343 135.822 67.1673 135.822 67.298V70H135.255V69.174H135.332C135.257 69.4493 135.103 69.6663 134.87 69.825C134.637 69.9837 134.366 70.063 134.058 70.063ZM134.17 69.601C134.506 69.601 134.772 69.4867 134.968 69.258C135.164 69.0247 135.262 68.6863 135.262 68.243C135.262 67.795 135.164 67.4567 134.968 67.228C134.772 66.9947 134.506 66.878 134.17 66.878C133.839 66.878 133.573 66.9947 133.372 67.228C133.176 67.4567 133.078 67.795 133.078 68.243C133.078 68.6863 133.176 69.0247 133.372 69.258C133.573 69.4867 133.839 69.601 134.17 69.601ZM136.918 70V66.486H137.485V70H136.918ZM136.848 65.688V65.051H137.548V65.688H136.848ZM138.586 70V64.848H139.153V70H138.586Z" fill="black"/>
<path opacity="0.5" d="M50.616 120V115.065H53.696V115.541H51.197V117.27H53.542V117.746H51.197V120H50.616ZM55.9148 120.063C55.3641 120.063 54.9301 119.904 54.6128 119.587C54.2954 119.265 54.1368 118.819 54.1368 118.25C54.1368 117.881 54.2068 117.562 54.3468 117.291C54.4868 117.016 54.6828 116.803 54.9348 116.654C55.1868 116.5 55.4761 116.423 55.8028 116.423C56.1248 116.423 56.3954 116.491 56.6148 116.626C56.8341 116.761 57.0021 116.955 57.1188 117.207C57.2354 117.454 57.2938 117.748 57.2938 118.089V118.299H54.5708V117.942H56.9228L56.8038 118.033C56.8038 117.66 56.7198 117.368 56.5518 117.158C56.3838 116.948 56.1341 116.843 55.8028 116.843C55.4528 116.843 55.1798 116.967 54.9838 117.214C54.7878 117.457 54.6898 117.786 54.6898 118.201V118.264C54.6898 118.703 54.7971 119.036 55.0118 119.265C55.2311 119.489 55.5368 119.601 55.9288 119.601C56.1388 119.601 56.3348 119.571 56.5168 119.51C56.7034 119.445 56.8808 119.34 57.0488 119.195L57.2448 119.594C57.0908 119.743 56.8948 119.86 56.6568 119.944C56.4234 120.023 56.1761 120.063 55.9148 120.063ZM59.6384 120.063C59.2931 120.063 58.9921 119.988 58.7354 119.839C58.4834 119.69 58.2874 119.477 58.1474 119.202C58.0121 118.927 57.9444 118.6 57.9444 118.222C57.9444 117.839 58.0144 117.515 58.1544 117.249C58.2944 116.978 58.4904 116.773 58.7424 116.633C58.9991 116.493 59.2977 116.423 59.6384 116.423C59.8624 116.423 60.0794 116.463 60.2894 116.542C60.5041 116.621 60.6814 116.733 60.8214 116.878L60.6184 117.284C60.4784 117.149 60.3244 117.048 60.1564 116.983C59.9931 116.918 59.8321 116.885 59.6734 116.885C59.3094 116.885 59.0271 116.999 58.8264 117.228C58.6257 117.457 58.5254 117.79 58.5254 118.229C58.5254 118.663 58.6257 118.999 58.8264 119.237C59.0271 119.475 59.3094 119.594 59.6734 119.594C59.8274 119.594 59.9861 119.564 60.1494 119.503C60.3174 119.442 60.4737 119.342 60.6184 119.202L60.8214 119.601C60.6767 119.75 60.4971 119.865 60.2824 119.944C60.0677 120.023 59.8531 120.063 59.6384 120.063ZM61.6272 120V114.848H62.1942V117.263H62.1032C62.2012 116.988 62.3646 116.78 62.5932 116.64C62.8266 116.495 63.0949 116.423 63.3982 116.423C63.8182 116.423 64.1309 116.537 64.3362 116.766C64.5416 116.99 64.6442 117.331 64.6442 117.788V120H64.0772V117.823C64.0772 117.496 64.0119 117.258 63.8812 117.109C63.7552 116.96 63.5499 116.885 63.2652 116.885C62.9386 116.885 62.6772 116.985 62.4812 117.186C62.2899 117.387 62.1942 117.65 62.1942 117.977V120H61.6272ZM67.0658 120.063C66.7531 120.063 66.4801 119.991 66.2468 119.846C66.0134 119.697 65.8314 119.487 65.7008 119.216C65.5748 118.945 65.5118 118.621 65.5118 118.243C65.5118 117.86 65.5748 117.534 65.7008 117.263C65.8314 116.992 66.0134 116.785 66.2468 116.64C66.4801 116.495 66.7531 116.423 67.0658 116.423C67.3831 116.423 67.6561 116.505 67.8848 116.668C68.1181 116.827 68.2721 117.044 68.3468 117.319H68.2628L68.3398 116.486H68.8858C68.8718 116.621 68.8578 116.759 68.8438 116.899C68.8344 117.034 68.8298 117.167 68.8298 117.298V120H68.2628V119.174H68.3398C68.2651 119.449 68.1111 119.666 67.8778 119.825C67.6444 119.984 67.3738 120.063 67.0658 120.063ZM67.1778 119.601C67.5138 119.601 67.7798 119.487 67.9758 119.258C68.1718 119.025 68.2698 118.686 68.2698 118.243C68.2698 117.795 68.1718 117.457 67.9758 117.228C67.7798 116.995 67.5138 116.878 67.1778 116.878C66.8464 116.878 66.5804 116.995 66.3798 117.228C66.1838 117.457 66.0858 117.795 66.0858 118.243C66.0858 118.686 66.1838 119.025 66.3798 119.258C66.5804 119.487 66.8464 119.601 67.1778 119.601ZM73.0812 120.063C72.7732 120.063 72.5026 119.991 72.2692 119.846C72.0359 119.697 71.8539 119.487 71.7232 119.216C71.5972 118.945 71.5342 118.621 71.5342 118.243C71.5342 117.86 71.5972 117.534 71.7232 117.263C71.8539 116.992 72.0359 116.785 72.2692 116.64C72.5026 116.495 72.7732 116.423 73.0812 116.423C73.3986 116.423 73.6716 116.502 73.9002 116.661C74.1336 116.82 74.2899 117.034 74.3692 117.305H74.2852V114.848H74.8522V120H74.2922V119.16H74.3692C74.2946 119.44 74.1406 119.662 73.9072 119.825C73.6739 119.984 73.3986 120.063 73.0812 120.063ZM73.2002 119.601C73.5316 119.601 73.7976 119.487 73.9982 119.258C74.1989 119.025 74.2992 118.686 74.2992 118.243C74.2992 117.795 74.1989 117.457 73.9982 117.228C73.7976 116.995 73.5316 116.878 73.2002 116.878C72.8689 116.878 72.6029 116.995 72.4022 117.228C72.2062 117.457 72.1082 117.795 72.1082 118.243C72.1082 118.686 72.2062 119.025 72.4022 119.258C72.6029 119.487 72.8689 119.601 73.2002 119.601ZM77.5095 120.063C76.9588 120.063 76.5248 119.904 76.2075 119.587C75.8902 119.265 75.7315 118.819 75.7315 118.25C75.7315 117.881 75.8015 117.562 75.9415 117.291C76.0815 117.016 76.2775 116.803 76.5295 116.654C76.7815 116.5 77.0708 116.423 77.3975 116.423C77.7195 116.423 77.9902 116.491 78.2095 116.626C78.4288 116.761 78.5968 116.955 78.7135 117.207C78.8302 117.454 78.8885 117.748 78.8885 118.089V118.299H76.1655V117.942H78.5175L78.3985 118.033C78.3985 117.66 78.3145 117.368 78.1465 117.158C77.9785 116.948 77.7288 116.843 77.3975 116.843C77.0475 116.843 76.7745 116.967 76.5785 117.214C76.3825 117.457 76.2845 117.786 76.2845 118.201V118.264C76.2845 118.703 76.3918 119.036 76.6065 119.265C76.8258 119.489 77.1315 119.601 77.5235 119.601C77.7335 119.601 77.9295 119.571 78.1115 119.51C78.2982 119.445 78.4755 119.34 78.6435 119.195L78.8395 119.594C78.6855 119.743 78.4895 119.86 78.2515 119.944C78.0182 120.023 77.7708 120.063 77.5095 120.063ZM81.5813 120V117.298C81.5813 117.167 81.5743 117.034 81.5603 116.899C81.551 116.759 81.5393 116.621 81.5253 116.486H82.0713L82.1413 117.256H82.0573C82.16 116.985 82.3233 116.78 82.5473 116.64C82.776 116.495 83.0397 116.423 83.3383 116.423C83.7537 116.423 84.0663 116.535 84.2763 116.759C84.491 116.978 84.5983 117.326 84.5983 117.802V120H84.0313V117.837C84.0313 117.506 83.9637 117.265 83.8283 117.116C83.6977 116.962 83.4923 116.885 83.2123 116.885C82.8857 116.885 82.6267 116.985 82.4353 117.186C82.244 117.387 82.1483 117.655 82.1483 117.991V120H81.5813ZM87.0199 120.063C86.7072 120.063 86.4342 119.991 86.2009 119.846C85.9675 119.697 85.7855 119.487 85.6549 119.216C85.5289 118.945 85.4659 118.621 85.4659 118.243C85.4659 117.86 85.5289 117.534 85.6549 117.263C85.7855 116.992 85.9675 116.785 86.2009 116.64C86.4342 116.495 86.7072 116.423 87.0199 116.423C87.3372 116.423 87.6102 116.505 87.8389 116.668C88.0722 116.827 88.2262 117.044 88.3009 117.319H88.2169L88.2939 116.486H88.8399C88.8259 116.621 88.8119 116.759 88.7979 116.899C88.7885 117.034 88.7839 117.167 88.7839 117.298V120H88.2169V119.174H88.2939C88.2192 119.449 88.0652 119.666 87.8319 119.825C87.5985 119.984 87.3279 120.063 87.0199 120.063ZM87.1319 119.601C87.4679 119.601 87.7339 119.487 87.9299 119.258C88.1259 119.025 88.2239 118.686 88.2239 118.243C88.2239 117.795 88.1259 117.457 87.9299 117.228C87.7339 116.995 87.4679 116.878 87.1319 116.878C86.8005 116.878 86.5345 116.995 86.3339 117.228C86.1379 117.457 86.0399 117.795 86.0399 118.243C86.0399 118.686 86.1379 119.025 86.3339 119.258C86.5345 119.487 86.8005 119.601 87.1319 119.601ZM91.3571 120.063C91.0118 120.063 90.7108 119.988 90.4541 119.839C90.2021 119.69 90.0061 119.477 89.8661 119.202C89.7308 118.927 89.6631 118.6 89.6631 118.222C89.6631 117.839 89.7331 117.515 89.8731 117.249C90.0131 116.978 90.2091 116.773 90.4611 116.633C90.7178 116.493 91.0165 116.423 91.3571 116.423C91.5811 116.423 91.7981 116.463 92.0081 116.542C92.2228 116.621 92.4001 116.733 92.5401 116.878L92.3371 117.284C92.1971 117.149 92.0431 117.048 91.8751 116.983C91.7118 116.918 91.5508 116.885 91.3921 116.885C91.0281 116.885 90.7458 116.999 90.5451 117.228C90.3445 117.457 90.2441 117.79 90.2441 118.229C90.2441 118.663 90.3445 118.999 90.5451 119.237C90.7458 119.475 91.0281 119.594 91.3921 119.594C91.5461 119.594 91.7048 119.564 91.8681 119.503C92.0361 119.442 92.1925 119.342 92.3371 119.202L92.5401 119.601C92.3955 119.75 92.2158 119.865 92.0011 119.944C91.7865 120.023 91.5718 120.063 91.3571 120.063ZM93.346 120V116.486H93.913V120H93.346ZM93.276 115.688V115.051H93.976V115.688H93.276ZM95.0139 120V117.298C95.0139 117.167 95.0069 117.034 94.9929 116.899C94.9836 116.759 94.9719 116.621 94.9579 116.486H95.5039L95.5739 117.256H95.4899C95.5833 116.99 95.7303 116.785 95.9309 116.64C96.1363 116.495 96.3836 116.423 96.6729 116.423C96.9669 116.423 97.2049 116.493 97.3869 116.633C97.5736 116.773 97.6996 116.99 97.7649 117.284H97.6599C97.7486 117.018 97.9049 116.808 98.1289 116.654C98.3529 116.5 98.6143 116.423 98.9129 116.423C99.3003 116.423 99.5919 116.535 99.7879 116.759C99.9839 116.978 100.082 117.326 100.082 117.802V120H99.5149V117.837C99.5149 117.506 99.4566 117.265 99.3399 117.116C99.2233 116.962 99.0366 116.885 98.7799 116.885C98.4859 116.885 98.2526 116.988 98.0799 117.193C97.9119 117.394 97.8279 117.664 97.8279 118.005V120H97.2609V117.837C97.2609 117.506 97.2026 117.265 97.0859 117.116C96.9693 116.962 96.7826 116.885 96.5259 116.885C96.2319 116.885 96.0009 116.988 95.8329 117.193C95.6649 117.394 95.5809 117.664 95.5809 118.005V120H95.0139ZM101.159 120V116.486H101.726V120H101.159ZM101.089 115.688V115.051H101.789V115.688H101.089ZM104.388 120.063C103.838 120.063 103.404 119.904 103.086 119.587C102.769 119.265 102.61 118.819 102.61 118.25C102.61 117.881 102.68 117.562 102.82 117.291C102.96 117.016 103.156 116.803 103.408 116.654C103.66 116.5 103.95 116.423 104.276 116.423C104.598 116.423 104.869 116.491 105.088 116.626C105.308 116.761 105.476 116.955 105.592 117.207C105.709 117.454 105.767 117.748 105.767 118.089V118.299H103.044V117.942H105.396L105.277 118.033C105.277 117.66 105.193 117.368 105.025 117.158C104.857 116.948 104.608 116.843 104.276 116.843C103.926 116.843 103.653 116.967 103.457 117.214C103.261 117.457 103.163 117.786 103.163 118.201V118.264C103.163 118.703 103.271 119.036 103.485 119.265C103.705 119.489 104.01 119.601 104.402 119.601C104.612 119.601 104.808 119.571 104.99 119.51C105.177 119.445 105.354 119.34 105.522 119.195L105.718 119.594C105.564 119.743 105.368 119.86 105.13 119.944C104.897 120.023 104.65 120.063 104.388 120.063ZM106.635 120V117.298C106.635 117.167 106.628 117.034 106.614 116.899C106.605 116.759 106.593 116.621 106.579 116.486H107.125L107.195 117.256H107.111C107.214 116.985 107.377 116.78 107.601 116.64C107.83 116.495 108.093 116.423 108.392 116.423C108.807 116.423 109.12 116.535 109.33 116.759C109.545 116.978 109.652 117.326 109.652 117.802V120H109.085V117.837C109.085 117.506 109.017 117.265 108.882 117.116C108.751 116.962 108.546 116.885 108.266 116.885C107.939 116.885 107.68 116.985 107.489 117.186C107.298 117.387 107.202 117.655 107.202 117.991V120H106.635ZM111.983 120.063C111.637 120.063 111.374 119.965 111.192 119.769C111.01 119.568 110.919 119.267 110.919 118.866V116.927H110.233V116.486H110.919V115.527L111.486 115.366V116.486H112.494V116.927H111.486V118.803C111.486 119.083 111.532 119.284 111.626 119.405C111.724 119.522 111.868 119.58 112.06 119.58C112.148 119.58 112.228 119.573 112.298 119.559C112.368 119.54 112.431 119.519 112.487 119.496V119.972C112.421 120 112.342 120.021 112.249 120.035C112.16 120.054 112.071 120.063 111.983 120.063ZM114.592 120.063C114.256 120.063 113.962 119.991 113.71 119.846C113.462 119.697 113.271 119.487 113.136 119.216C113 118.941 112.933 118.616 112.933 118.243C112.933 117.865 113 117.541 113.136 117.27C113.271 116.999 113.462 116.792 113.71 116.647C113.962 116.498 114.256 116.423 114.592 116.423C114.932 116.423 115.226 116.498 115.474 116.647C115.726 116.792 115.919 116.999 116.055 117.27C116.195 117.541 116.265 117.865 116.265 118.243C116.265 118.616 116.195 118.941 116.055 119.216C115.919 119.487 115.726 119.697 115.474 119.846C115.226 119.991 114.932 120.063 114.592 120.063ZM114.592 119.601C114.928 119.601 115.194 119.487 115.39 119.258C115.586 119.025 115.684 118.686 115.684 118.243C115.684 117.795 115.583 117.457 115.383 117.228C115.187 116.995 114.923 116.878 114.592 116.878C114.26 116.878 113.997 116.995 113.801 117.228C113.605 117.457 113.507 117.795 113.507 118.243C113.507 118.686 113.605 119.025 113.801 119.258C113.997 119.487 114.26 119.601 114.592 119.601Z" fill="black"/>
<path opacity="0.5" d="M50.616 170V165.065H53.766V165.541H51.183V167.256H53.612V167.739H51.183V169.517H53.766V170H50.616ZM54.6192 168.313V167.844H56.6142V168.313H54.6192ZM57.6624 170V167.298C57.6624 167.167 57.6554 167.034 57.6414 166.899C57.632 166.759 57.6204 166.621 57.6064 166.486H58.1524L58.2224 167.256H58.1384C58.2317 166.99 58.3787 166.785 58.5794 166.64C58.7847 166.495 59.032 166.423 59.3214 166.423C59.6154 166.423 59.8534 166.493 60.0354 166.633C60.222 166.773 60.348 166.99 60.4134 167.284H60.3084C60.397 167.018 60.5534 166.808 60.7774 166.654C61.0014 166.5 61.2627 166.423 61.5614 166.423C61.9487 166.423 62.2404 166.535 62.4364 166.759C62.6324 166.978 62.7304 167.326 62.7304 167.802V170H62.1634V167.837C62.1634 167.506 62.105 167.265 61.9884 167.116C61.8717 166.962 61.685 166.885 61.4284 166.885C61.1344 166.885 60.901 166.988 60.7284 167.193C60.5604 167.394 60.4764 167.664 60.4764 168.005V170H59.9094V167.837C59.9094 167.506 59.851 167.265 59.7344 167.116C59.6177 166.962 59.431 166.885 59.1744 166.885C58.8804 166.885 58.6494 166.988 58.4814 167.193C58.3134 167.394 58.2294 167.664 58.2294 168.005V170H57.6624ZM65.1449 170.063C64.8322 170.063 64.5592 169.991 64.3259 169.846C64.0925 169.697 63.9105 169.487 63.7799 169.216C63.6539 168.945 63.5909 168.621 63.5909 168.243C63.5909 167.86 63.6539 167.534 63.7799 167.263C63.9105 166.992 64.0925 166.785 64.3259 166.64C64.5592 166.495 64.8322 166.423 65.1449 166.423C65.4622 166.423 65.7352 166.505 65.9639 166.668C66.1972 166.827 66.3512 167.044 66.4259 167.319H66.3419L66.4189 166.486H66.9649C66.9509 166.621 66.9369 166.759 66.9229 166.899C66.9135 167.034 66.9089 167.167 66.9089 167.298V170H66.3419V169.174H66.4189C66.3442 169.449 66.1902 169.666 65.9569 169.825C65.7235 169.984 65.4529 170.063 65.1449 170.063ZM65.2569 169.601C65.5929 169.601 65.8589 169.487 66.0549 169.258C66.2509 169.025 66.3489 168.686 66.3489 168.243C66.3489 167.795 66.2509 167.457 66.0549 167.228C65.8589 166.995 65.5929 166.878 65.2569 166.878C64.9255 166.878 64.6595 166.995 64.4589 167.228C64.2629 167.457 64.1649 167.795 64.1649 168.243C64.1649 168.686 64.2629 169.025 64.4589 169.258C64.6595 169.487 64.9255 169.601 65.2569 169.601ZM68.0051 170V166.486H68.5721V170H68.0051ZM67.9351 165.688V165.051H68.6351V165.688H67.9351ZM69.6731 170V164.848H70.2401V170H69.6731Z" fill="black"/>
<path opacity="0.5" d="M52.765 220.063C52.2703 220.063 51.8503 219.96 51.505 219.755C51.1597 219.55 50.8937 219.258 50.707 218.88C50.525 218.502 50.434 218.052 50.434 217.529C50.434 217.006 50.525 216.558 50.707 216.185C50.8937 215.807 51.1597 215.515 51.505 215.31C51.8503 215.105 52.2703 215.002 52.765 215.002C53.115 215.002 53.4277 215.056 53.703 215.163C53.9783 215.27 54.2187 215.427 54.424 215.632L54.207 216.094C53.983 215.898 53.7613 215.756 53.542 215.667C53.3227 215.574 53.066 215.527 52.772 215.527C52.2073 215.527 51.778 215.702 51.484 216.052C51.19 216.402 51.043 216.894 51.043 217.529C51.043 218.164 51.19 218.658 51.484 219.013C51.778 219.363 52.2073 219.538 52.772 219.538C53.066 219.538 53.3227 219.494 53.542 219.405C53.7613 219.312 53.983 219.165 54.207 218.964L54.424 219.433C54.2187 219.634 53.9783 219.79 53.703 219.902C53.4277 220.009 53.115 220.063 52.765 220.063ZM56.5341 220.063C56.1981 220.063 55.9041 219.991 55.6521 219.846C55.4047 219.697 55.2134 219.487 55.0781 219.216C54.9427 218.941 54.8751 218.616 54.8751 218.243C54.8751 217.865 54.9427 217.541 55.0781 217.27C55.2134 216.999 55.4047 216.792 55.6521 216.647C55.9041 216.498 56.1981 216.423 56.5341 216.423C56.8747 216.423 57.1687 216.498 57.4161 216.647C57.6681 216.792 57.8617 216.999 57.9971 217.27C58.1371 217.541 58.2071 217.865 58.2071 218.243C58.2071 218.616 58.1371 218.941 57.9971 219.216C57.8617 219.487 57.6681 219.697 57.4161 219.846C57.1687 219.991 56.8747 220.063 56.5341 220.063ZM56.5341 219.601C56.8701 219.601 57.1361 219.487 57.3321 219.258C57.5281 219.025 57.6261 218.686 57.6261 218.243C57.6261 217.795 57.5257 217.457 57.3251 217.228C57.1291 216.995 56.8654 216.878 56.5341 216.878C56.2027 216.878 55.9391 216.995 55.7431 217.228C55.5471 217.457 55.4491 217.795 55.4491 218.243C55.4491 218.686 55.5471 219.025 55.7431 219.258C55.9391 219.487 56.2027 219.601 56.5341 219.601ZM59.0911 220V217.298C59.0911 217.167 59.0841 217.034 59.0701 216.899C59.0608 216.759 59.0491 216.621 59.0351 216.486H59.5811L59.6511 217.256H59.5671C59.6698 216.985 59.8331 216.78 60.0571 216.64C60.2858 216.495 60.5494 216.423 60.8481 216.423C61.2634 216.423 61.5761 216.535 61.7861 216.759C62.0008 216.978 62.1081 217.326 62.1081 217.802V220H61.5411V217.837C61.5411 217.506 61.4734 217.265 61.3381 217.116C61.2074 216.962 61.0021 216.885 60.7221 216.885C60.3954 216.885 60.1364 216.985 59.9451 217.186C59.7538 217.387 59.6581 217.655 59.6581 217.991V220H59.0911ZM64.4386 220.063C64.0933 220.063 63.8296 219.965 63.6476 219.769C63.4656 219.568 63.3746 219.267 63.3746 218.866V216.927H62.6886V216.486H63.3746V215.527L63.9416 215.366V216.486H64.9496V216.927H63.9416V218.803C63.9416 219.083 63.9883 219.284 64.0816 219.405C64.1796 219.522 64.3243 219.58 64.5156 219.58C64.6043 219.58 64.6836 219.573 64.7536 219.559C64.8236 219.54 64.8866 219.519 64.9426 219.496V219.972C64.8773 220 64.798 220.021 64.7046 220.035C64.616 220.054 64.5273 220.063 64.4386 220.063ZM65.6259 220V217.333C65.6259 217.193 65.6212 217.051 65.6119 216.906C65.6072 216.761 65.5979 216.621 65.5839 216.486H66.1299L66.1999 217.34L66.1019 217.347C66.1486 217.137 66.2302 216.964 66.3469 216.829C66.4636 216.694 66.6012 216.593 66.7599 216.528C66.9186 216.458 67.0842 216.423 67.2569 216.423C67.3269 216.423 67.3876 216.425 67.4389 216.43C67.4949 216.435 67.5462 216.446 67.5929 216.465L67.5859 216.969C67.5159 216.946 67.4506 216.932 67.3899 216.927C67.3339 216.918 67.2686 216.913 67.1939 216.913C66.9886 216.913 66.8089 216.962 66.6549 217.06C66.5056 217.158 66.3912 217.284 66.3119 217.438C66.2372 217.592 66.1999 217.755 66.1999 217.928V220H65.6259ZM69.4857 220.063C69.173 220.063 68.9 219.991 68.6667 219.846C68.4334 219.697 68.2514 219.487 68.1207 219.216C67.9947 218.945 67.9317 218.621 67.9317 218.243C67.9317 217.86 67.9947 217.534 68.1207 217.263C68.2514 216.992 68.4334 216.785 68.6667 216.64C68.9 216.495 69.173 216.423 69.4857 216.423C69.803 216.423 70.076 216.505 70.3047 216.668C70.538 216.827 70.692 217.044 70.7667 217.319H70.6827L70.7597 216.486H71.3057C71.2917 216.621 71.2777 216.759 71.2637 216.899C71.2544 217.034 71.2497 217.167 71.2497 217.298V220H70.6827V219.174H70.7597C70.685 219.449 70.531 219.666 70.2977 219.825C70.0644 219.984 69.7937 220.063 69.4857 220.063ZM69.5977 219.601C69.9337 219.601 70.1997 219.487 70.3957 219.258C70.5917 219.025 70.6897 218.686 70.6897 218.243C70.6897 217.795 70.5917 217.457 70.3957 217.228C70.1997 216.995 69.9337 216.878 69.5977 216.878C69.2664 216.878 69.0004 216.995 68.7997 217.228C68.6037 217.457 68.5057 217.795 68.5057 218.243C68.5057 218.686 68.6037 219.025 68.7997 219.258C69.0004 219.487 69.2664 219.601 69.5977 219.601ZM73.515 220.063C73.235 220.063 72.9736 220.026 72.731 219.951C72.4883 219.872 72.2876 219.762 72.129 219.622L72.325 219.223C72.4976 219.358 72.6843 219.459 72.885 219.524C73.0903 219.589 73.3026 219.622 73.522 219.622C73.802 219.622 74.012 219.573 74.152 219.475C74.2966 219.372 74.369 219.232 74.369 219.055C74.369 218.92 74.3223 218.812 74.229 218.733C74.1403 218.649 73.9933 218.584 73.788 218.537L73.137 218.404C72.8383 218.339 72.6143 218.229 72.465 218.075C72.3156 217.916 72.241 217.716 72.241 217.473C72.241 217.268 72.2946 217.088 72.402 216.934C72.5093 216.775 72.6656 216.652 72.871 216.563C73.0763 216.47 73.3166 216.423 73.592 216.423C73.8486 216.423 74.0843 216.463 74.299 216.542C74.5183 216.617 74.7003 216.726 74.845 216.871L74.642 217.263C74.502 217.128 74.341 217.027 74.159 216.962C73.9816 216.892 73.7973 216.857 73.606 216.857C73.3306 216.857 73.123 216.913 72.983 217.025C72.8476 217.132 72.78 217.275 72.78 217.452C72.78 217.587 72.822 217.699 72.906 217.788C72.9946 217.872 73.13 217.935 73.312 217.977L73.963 218.11C74.2803 218.18 74.516 218.29 74.67 218.439C74.8286 218.584 74.908 218.78 74.908 219.027C74.908 219.237 74.8496 219.421 74.733 219.58C74.6163 219.734 74.453 219.853 74.243 219.937C74.0376 220.021 73.795 220.063 73.515 220.063ZM77.3796 220.063C76.829 220.063 76.395 219.904 76.0776 219.587C75.7603 219.265 75.6016 218.819 75.6016 218.25C75.6016 217.881 75.6716 217.562 75.8116 217.291C75.9516 217.016 76.1476 216.803 76.3996 216.654C76.6516 216.5 76.941 216.423 77.2676 216.423C77.5896 216.423 77.8603 216.491 78.0796 216.626C78.299 216.761 78.467 216.955 78.5836 217.207C78.7003 217.454 78.7586 217.748 78.7586 218.089V218.299H76.0356V217.942H78.3876L78.2686 218.033C78.2686 217.66 78.1846 217.368 78.0166 217.158C77.8486 216.948 77.599 216.843 77.2676 216.843C76.9176 216.843 76.6446 216.967 76.4486 217.214C76.2526 217.457 76.1546 217.786 76.1546 218.201V218.264C76.1546 218.703 76.262 219.036 76.4766 219.265C76.696 219.489 77.0016 219.601 77.3936 219.601C77.6036 219.601 77.7996 219.571 77.9816 219.51C78.1683 219.445 78.3456 219.34 78.5136 219.195L78.7096 219.594C78.5556 219.743 78.3596 219.86 78.1216 219.944C77.8883 220.023 77.641 220.063 77.3796 220.063ZM79.6262 220V217.298C79.6262 217.167 79.6192 217.034 79.6052 216.899C79.5959 216.759 79.5842 216.621 79.5702 216.486H80.1162L80.1862 217.256H80.1022C80.2049 216.985 80.3682 216.78 80.5922 216.64C80.8209 216.495 81.0846 216.423 81.3832 216.423C81.7986 216.423 82.1112 216.535 82.3212 216.759C82.5359 216.978 82.6432 217.326 82.6432 217.802V220H82.0762V217.837C82.0762 217.506 82.0086 217.265 81.8732 217.116C81.7426 216.962 81.5372 216.885 81.2572 216.885C80.9306 216.885 80.6716 216.985 80.4802 217.186C80.2889 217.387 80.1932 217.655 80.1932 217.991V220H79.6262ZM80.1792 215.87L79.8572 215.849C79.8806 215.55 79.9599 215.322 80.0952 215.163C80.2306 215 80.4009 214.918 80.6062 214.918C80.7089 214.918 80.8022 214.941 80.8862 214.988C80.9749 215.035 81.0752 215.107 81.1872 215.205C81.2899 215.298 81.3716 215.364 81.4322 215.401C81.4976 215.434 81.5606 215.45 81.6212 215.45C81.8592 215.45 82.0039 215.266 82.0552 214.897L82.3772 214.918C82.3539 215.217 82.2746 215.448 82.1392 215.611C82.0086 215.77 81.8406 215.849 81.6352 215.849C81.5372 215.849 81.4439 215.826 81.3552 215.779C81.2666 215.732 81.1639 215.658 81.0472 215.555C80.9492 215.466 80.8676 215.406 80.8022 215.373C80.7416 215.336 80.6786 215.317 80.6132 215.317C80.4919 215.317 80.3939 215.366 80.3192 215.464C80.2492 215.557 80.2026 215.693 80.1792 215.87ZM85.0648 220.063C84.7521 220.063 84.4791 219.991 84.2458 219.846C84.0125 219.697 83.8305 219.487 83.6998 219.216C83.5738 218.945 83.5108 218.621 83.5108 218.243C83.5108 217.86 83.5738 217.534 83.6998 217.263C83.8305 216.992 84.0125 216.785 84.2458 216.64C84.4791 216.495 84.7521 216.423 85.0648 216.423C85.3821 216.423 85.6551 216.505 85.8838 216.668C86.1171 216.827 86.2711 217.044 86.3458 217.319H86.2618L86.3388 216.486H86.8848C86.8708 216.621 86.8568 216.759 86.8428 216.899C86.8335 217.034 86.8288 217.167 86.8288 217.298V220H86.2618V219.174H86.3388C86.2641 219.449 86.1101 219.666 85.8768 219.825C85.6435 219.984 85.3728 220.063 85.0648 220.063ZM85.1768 219.601C85.5128 219.601 85.7788 219.487 85.9748 219.258C86.1708 219.025 86.2688 218.686 86.2688 218.243C86.2688 217.795 86.1708 217.457 85.9748 217.228C85.7788 216.995 85.5128 216.878 85.1768 216.878C84.8455 216.878 84.5795 216.995 84.3788 217.228C84.1828 217.457 84.0848 217.795 84.0848 218.243C84.0848 218.686 84.1828 219.025 84.3788 219.258C84.5795 219.487 84.8455 219.601 85.1768 219.601Z" fill="black"/>
<path opacity="0.5" d="M52.765 270.063C52.2703 270.063 51.8503 269.96 51.505 269.755C51.1597 269.55 50.8937 269.258 50.707 268.88C50.525 268.502 50.434 268.052 50.434 267.529C50.434 267.006 50.525 266.558 50.707 266.185C50.8937 265.807 51.1597 265.515 51.505 265.31C51.8503 265.105 52.2703 265.002 52.765 265.002C53.115 265.002 53.4277 265.056 53.703 265.163C53.9783 265.27 54.2187 265.427 54.424 265.632L54.207 266.094C53.983 265.898 53.7613 265.756 53.542 265.667C53.3227 265.574 53.066 265.527 52.772 265.527C52.2073 265.527 51.778 265.702 51.484 266.052C51.19 266.402 51.043 266.894 51.043 267.529C51.043 268.164 51.19 268.658 51.484 269.013C51.778 269.363 52.2073 269.538 52.772 269.538C53.066 269.538 53.3227 269.494 53.542 269.405C53.7613 269.312 53.983 269.165 54.207 268.964L54.424 269.433C54.2187 269.634 53.9783 269.79 53.703 269.902C53.4277 270.009 53.115 270.063 52.765 270.063ZM56.5341 270.063C56.1981 270.063 55.9041 269.991 55.6521 269.846C55.4047 269.697 55.2134 269.487 55.0781 269.216C54.9427 268.941 54.8751 268.616 54.8751 268.243C54.8751 267.865 54.9427 267.541 55.0781 267.27C55.2134 266.999 55.4047 266.792 55.6521 266.647C55.9041 266.498 56.1981 266.423 56.5341 266.423C56.8747 266.423 57.1687 266.498 57.4161 266.647C57.6681 266.792 57.8617 266.999 57.9971 267.27C58.1371 267.541 58.2071 267.865 58.2071 268.243C58.2071 268.616 58.1371 268.941 57.9971 269.216C57.8617 269.487 57.6681 269.697 57.4161 269.846C57.1687 269.991 56.8747 270.063 56.5341 270.063ZM56.5341 269.601C56.8701 269.601 57.1361 269.487 57.3321 269.258C57.5281 269.025 57.6261 268.686 57.6261 268.243C57.6261 267.795 57.5257 267.457 57.3251 267.228C57.1291 266.995 56.8654 266.878 56.5341 266.878C56.2027 266.878 55.9391 266.995 55.7431 267.228C55.5471 267.457 55.4491 267.795 55.4491 268.243C55.4491 268.686 55.5471 269.025 55.7431 269.258C55.9391 269.487 56.2027 269.601 56.5341 269.601ZM59.0911 270V267.298C59.0911 267.167 59.0841 267.034 59.0701 266.899C59.0608 266.759 59.0491 266.621 59.0351 266.486H59.5811L59.6511 267.256H59.5671C59.6698 266.985 59.8331 266.78 60.0571 266.64C60.2858 266.495 60.5494 266.423 60.8481 266.423C61.2634 266.423 61.5761 266.535 61.7861 266.759C62.0008 266.978 62.1081 267.326 62.1081 267.802V270H61.5411V267.837C61.5411 267.506 61.4734 267.265 61.3381 267.116C61.2074 266.962 61.0021 266.885 60.7221 266.885C60.3954 266.885 60.1364 266.985 59.9451 267.186C59.7538 267.387 59.6581 267.655 59.6581 267.991V270H59.0911ZM63.3746 270V266.927H62.6886V266.486H63.5286L63.3746 266.633V266.045C63.3746 265.648 63.4726 265.345 63.6686 265.135C63.8693 264.925 64.154 264.82 64.5226 264.82C64.6113 264.82 64.7046 264.829 64.8026 264.848C64.9053 264.862 64.9916 264.883 65.0616 264.911V265.38C65.0056 265.357 64.9356 265.338 64.8516 265.324C64.7723 265.305 64.6906 265.296 64.6066 265.296C64.3873 265.296 64.2216 265.361 64.1096 265.492C63.9976 265.623 63.9416 265.823 63.9416 266.094V266.605L63.8506 266.486H66.1046V270H65.5376V266.927H63.9416V270H63.3746ZM65.4746 265.688V265.051H66.1746V265.688H65.4746ZM67.1982 270V267.333C67.1982 267.193 67.1935 267.051 67.1842 266.906C67.1795 266.761 67.1702 266.621 67.1562 266.486H67.7022L67.7722 267.34L67.6742 267.347C67.7208 267.137 67.8025 266.964 67.9192 266.829C68.0358 266.694 68.1735 266.593 68.3322 266.528C68.4908 266.458 68.6565 266.423 68.8292 266.423C68.8992 266.423 68.9598 266.425 69.0112 266.43C69.0672 266.435 69.1185 266.446 69.1652 266.465L69.1582 266.969C69.0882 266.946 69.0228 266.932 68.9622 266.927C68.9062 266.918 68.8408 266.913 68.7662 266.913C68.5608 266.913 68.3812 266.962 68.2272 267.06C68.0778 267.158 67.9635 267.284 67.8842 267.438C67.8095 267.592 67.7722 267.755 67.7722 267.928V270H67.1982ZM69.7551 270V267.298C69.7551 267.167 69.7481 267.034 69.7341 266.899C69.7248 266.759 69.7131 266.621 69.6991 266.486H70.2451L70.3151 267.256H70.2311C70.3245 266.99 70.4715 266.785 70.6721 266.64C70.8775 266.495 71.1248 266.423 71.4141 266.423C71.7081 266.423 71.9461 266.493 72.1281 266.633C72.3148 266.773 72.4408 266.99 72.5061 267.284H72.4011C72.4898 267.018 72.6461 266.808 72.8701 266.654C73.0941 266.5 73.3555 266.423 73.6541 266.423C74.0415 266.423 74.3331 266.535 74.5291 266.759C74.7251 266.978 74.8231 267.326 74.8231 267.802V270H74.2561V267.837C74.2561 267.506 74.1978 267.265 74.0811 267.116C73.9645 266.962 73.7778 266.885 73.5211 266.885C73.2271 266.885 72.9938 266.988 72.8211 267.193C72.6531 267.394 72.5691 267.664 72.5691 268.005V270H72.0021V267.837C72.0021 267.506 71.9438 267.265 71.8271 267.116C71.7105 266.962 71.5238 266.885 71.2671 266.885C70.9731 266.885 70.7421 266.988 70.5741 267.193C70.4061 267.394 70.3221 267.664 70.3221 268.005V270H69.7551ZM77.2377 270.063C76.925 270.063 76.652 269.991 76.4187 269.846C76.1853 269.697 76.0033 269.487 75.8727 269.216C75.7467 268.945 75.6837 268.621 75.6837 268.243C75.6837 267.86 75.7467 267.534 75.8727 267.263C76.0033 266.992 76.1853 266.785 76.4187 266.64C76.652 266.495 76.925 266.423 77.2377 266.423C77.555 266.423 77.828 266.505 78.0567 266.668C78.29 266.827 78.444 267.044 78.5187 267.319H78.4347L78.5117 266.486H79.0577C79.0437 266.621 79.0297 266.759 79.0157 266.899C79.0063 267.034 79.0017 267.167 79.0017 267.298V270H78.4347V269.174H78.5117C78.437 269.449 78.283 269.666 78.0497 269.825C77.8163 269.984 77.5457 270.063 77.2377 270.063ZM77.3497 269.601C77.6857 269.601 77.9517 269.487 78.1477 269.258C78.3437 269.025 78.4417 268.686 78.4417 268.243C78.4417 267.795 78.3437 267.457 78.1477 267.228C77.9517 266.995 77.6857 266.878 77.3497 266.878C77.0183 266.878 76.7523 266.995 76.5517 267.228C76.3557 267.457 76.2577 267.795 76.2577 268.243C76.2577 268.686 76.3557 269.025 76.5517 269.258C76.7523 269.487 77.0183 269.601 77.3497 269.601ZM80.0839 270V267.333C80.0839 267.193 80.0793 267.051 80.0699 266.906C80.0653 266.761 80.0559 266.621 80.0419 266.486H80.5879L80.6579 267.34L80.5599 267.347C80.6066 267.137 80.6883 266.964 80.8049 266.829C80.9216 266.694 81.0593 266.593 81.2179 266.528C81.3766 266.458 81.5423 266.423 81.7149 266.423C81.7849 266.423 81.8456 266.425 81.8969 266.43C81.9529 266.435 82.0043 266.446 82.0509 266.465L82.0439 266.969C81.9739 266.946 81.9086 266.932 81.8479 266.927C81.7919 266.918 81.7266 266.913 81.6519 266.913C81.4466 266.913 81.2669 266.962 81.1129 267.06C80.9636 267.158 80.8493 267.284 80.7699 267.438C80.6953 267.592 80.6579 267.755 80.6579 267.928V270H80.0839ZM85.9431 270.063C85.5978 270.063 85.2968 269.988 85.0401 269.839C84.7881 269.69 84.5921 269.477 84.4521 269.202C84.3168 268.927 84.2491 268.6 84.2491 268.222C84.2491 267.839 84.3191 267.515 84.4591 267.249C84.5991 266.978 84.7951 266.773 85.0471 266.633C85.3038 266.493 85.6024 266.423 85.9431 266.423C86.1671 266.423 86.3841 266.463 86.5941 266.542C86.8088 266.621 86.9861 266.733 87.1261 266.878L86.9231 267.284C86.7831 267.149 86.6291 267.048 86.4611 266.983C86.2978 266.918 86.1368 266.885 85.9781 266.885C85.6141 266.885 85.3318 266.999 85.1311 267.228C84.9304 267.457 84.8301 267.79 84.8301 268.229C84.8301 268.663 84.9304 268.999 85.1311 269.237C85.3318 269.475 85.6141 269.594 85.9781 269.594C86.1321 269.594 86.2908 269.564 86.4541 269.503C86.6221 269.442 86.7784 269.342 86.9231 269.202L87.1261 269.601C86.9814 269.75 86.8018 269.865 86.5871 269.944C86.3724 270.023 86.1578 270.063 85.9431 270.063ZM89.3055 270.063C88.9695 270.063 88.6755 269.991 88.4235 269.846C88.1762 269.697 87.9849 269.487 87.8495 269.216C87.7142 268.941 87.6465 268.616 87.6465 268.243C87.6465 267.865 87.7142 267.541 87.8495 267.27C87.9849 266.999 88.1762 266.792 88.4235 266.647C88.6755 266.498 88.9695 266.423 89.3055 266.423C89.6462 266.423 89.9402 266.498 90.1875 266.647C90.4395 266.792 90.6332 266.999 90.7685 267.27C90.9085 267.541 90.9785 267.865 90.9785 268.243C90.9785 268.616 90.9085 268.941 90.7685 269.216C90.6332 269.487 90.4395 269.697 90.1875 269.846C89.9402 269.991 89.6462 270.063 89.3055 270.063ZM89.3055 269.601C89.6415 269.601 89.9075 269.487 90.1035 269.258C90.2995 269.025 90.3975 268.686 90.3975 268.243C90.3975 267.795 90.2972 267.457 90.0965 267.228C89.9005 266.995 89.6369 266.878 89.3055 266.878C88.9742 266.878 88.7105 266.995 88.5145 267.228C88.3185 267.457 88.2205 267.795 88.2205 268.243C88.2205 268.686 88.3185 269.025 88.5145 269.258C88.7105 269.487 88.9742 269.601 89.3055 269.601ZM91.8626 270V267.298C91.8626 267.167 91.8556 267.034 91.8416 266.899C91.8322 266.759 91.8206 266.621 91.8066 266.486H92.3526L92.4226 267.256H92.3386C92.4412 266.985 92.6046 266.78 92.8286 266.64C93.0572 266.495 93.3209 266.423 93.6196 266.423C94.0349 266.423 94.3476 266.535 94.5576 266.759C94.7722 266.978 94.8796 267.326 94.8796 267.802V270H94.3126V267.837C94.3126 267.506 94.2449 267.265 94.1096 267.116C93.9789 266.962 93.7736 266.885 93.4936 266.885C93.1669 266.885 92.9079 266.985 92.7166 267.186C92.5252 267.387 92.4296 267.655 92.4296 267.991V270H91.8626ZM97.2101 270.063C96.8648 270.063 96.6011 269.965 96.4191 269.769C96.2371 269.568 96.1461 269.267 96.1461 268.866V266.927H95.4601V266.486H96.1461V265.527L96.7131 265.366V266.486H97.7211V266.927H96.7131V268.803C96.7131 269.083 96.7598 269.284 96.8531 269.405C96.9511 269.522 97.0958 269.58 97.2871 269.58C97.3758 269.58 97.4551 269.573 97.5251 269.559C97.5951 269.54 97.6581 269.519 97.7141 269.496V269.972C97.6488 270 97.5695 270.021 97.4761 270.035C97.3875 270.054 97.2988 270.063 97.2101 270.063ZM98.3974 270V267.333C98.3974 267.193 98.3927 267.051 98.3834 266.906C98.3787 266.761 98.3694 266.621 98.3554 266.486H98.9014L98.9714 267.34L98.8734 267.347C98.9201 267.137 99.0017 266.964 99.1184 266.829C99.2351 266.694 99.3727 266.593 99.5314 266.528C99.6901 266.458 99.8557 266.423 100.028 266.423C100.098 266.423 100.159 266.425 100.21 266.43C100.266 266.435 100.318 266.446 100.364 266.465L100.357 266.969C100.287 266.946 100.222 266.932 100.161 266.927C100.105 266.918 100.04 266.913 99.9654 266.913C99.7601 266.913 99.5804 266.962 99.4264 267.06C99.2771 267.158 99.1627 267.284 99.0834 267.438C99.0087 267.592 98.9714 267.755 98.9714 267.928V270H98.3974ZM102.257 270.063C101.945 270.063 101.672 269.991 101.438 269.846C101.205 269.697 101.023 269.487 100.892 269.216C100.766 268.945 100.703 268.621 100.703 268.243C100.703 267.86 100.766 267.534 100.892 267.263C101.023 266.992 101.205 266.785 101.438 266.64C101.672 266.495 101.945 266.423 102.257 266.423C102.575 266.423 102.848 266.505 103.076 266.668C103.31 266.827 103.464 267.044 103.538 267.319H103.454L103.531 266.486H104.077C104.063 266.621 104.049 266.759 104.035 266.899C104.026 267.034 104.021 267.167 104.021 267.298V270H103.454V269.174H103.531C103.457 269.449 103.303 269.666 103.069 269.825C102.836 269.984 102.565 270.063 102.257 270.063ZM102.369 269.601C102.705 269.601 102.971 269.487 103.167 269.258C103.363 269.025 103.461 268.686 103.461 268.243C103.461 267.795 103.363 267.457 103.167 267.228C102.971 266.995 102.705 266.878 102.369 266.878C102.038 266.878 101.772 266.995 101.571 267.228C101.375 267.457 101.277 267.795 101.277 268.243C101.277 268.686 101.375 269.025 101.571 269.258C101.772 269.487 102.038 269.601 102.369 269.601ZM106.286 270.063C106.006 270.063 105.745 270.026 105.502 269.951C105.26 269.872 105.059 269.762 104.9 269.622L105.096 269.223C105.269 269.358 105.456 269.459 105.656 269.524C105.862 269.589 106.074 269.622 106.293 269.622C106.573 269.622 106.783 269.573 106.923 269.475C107.068 269.372 107.14 269.232 107.14 269.055C107.14 268.92 107.094 268.812 107 268.733C106.912 268.649 106.765 268.584 106.559 268.537L105.908 268.404C105.61 268.339 105.386 268.229 105.236 268.075C105.087 267.916 105.012 267.716 105.012 267.473C105.012 267.268 105.066 267.088 105.173 266.934C105.281 266.775 105.437 266.652 105.642 266.563C105.848 266.47 106.088 266.423 106.363 266.423C106.62 266.423 106.856 266.463 107.07 266.542C107.29 266.617 107.472 266.726 107.616 266.871L107.413 267.263C107.273 267.128 107.112 267.027 106.93 266.962C106.753 266.892 106.569 266.857 106.377 266.857C106.102 266.857 105.894 266.913 105.754 267.025C105.619 267.132 105.551 267.275 105.551 267.452C105.551 267.587 105.593 267.699 105.677 267.788C105.766 267.872 105.901 267.935 106.083 267.977L106.734 268.11C107.052 268.18 107.287 268.29 107.441 268.439C107.6 268.584 107.679 268.78 107.679 269.027C107.679 269.237 107.621 269.421 107.504 269.58C107.388 269.734 107.224 269.853 107.014 269.937C106.809 270.021 106.566 270.063 106.286 270.063ZM110.151 270.063C109.6 270.063 109.166 269.904 108.849 269.587C108.532 269.265 108.373 268.819 108.373 268.25C108.373 267.881 108.443 267.562 108.583 267.291C108.723 267.016 108.919 266.803 109.171 266.654C109.423 266.5 109.712 266.423 110.039 266.423C110.361 266.423 110.632 266.491 110.851 266.626C111.07 266.761 111.238 266.955 111.355 267.207C111.472 267.454 111.53 267.748 111.53 268.089V268.299H108.807V267.942H111.159L111.04 268.033C111.04 267.66 110.956 267.368 110.788 267.158C110.62 266.948 110.37 266.843 110.039 266.843C109.689 266.843 109.416 266.967 109.22 267.214C109.024 267.457 108.926 267.786 108.926 268.201V268.264C108.926 268.703 109.033 269.036 109.248 269.265C109.467 269.489 109.773 269.601 110.165 269.601C110.375 269.601 110.571 269.571 110.753 269.51C110.94 269.445 111.117 269.34 111.285 269.195L111.481 269.594C111.327 269.743 111.131 269.86 110.893 269.944C110.66 270.023 110.412 270.063 110.151 270.063ZM112.398 270V267.298C112.398 267.167 112.391 267.034 112.377 266.899C112.367 266.759 112.356 266.621 112.342 266.486H112.888L112.958 267.256H112.874C112.976 266.985 113.14 266.78 113.364 266.64C113.592 266.495 113.856 266.423 114.155 266.423C114.57 266.423 114.883 266.535 115.093 266.759C115.307 266.978 115.415 267.326 115.415 267.802V270H114.848V267.837C114.848 267.506 114.78 267.265 114.645 267.116C114.514 266.962 114.309 266.885 114.029 266.885C113.702 266.885 113.443 266.985 113.252 267.186C113.06 267.387 112.965 267.655 112.965 267.991V270H112.398ZM112.951 265.87L112.629 265.849C112.652 265.55 112.731 265.322 112.867 265.163C113.002 265 113.172 264.918 113.378 264.918C113.48 264.918 113.574 264.941 113.658 264.988C113.746 265.035 113.847 265.107 113.959 265.205C114.061 265.298 114.143 265.364 114.204 265.401C114.269 265.434 114.332 265.45 114.393 265.45C114.631 265.45 114.775 265.266 114.827 264.897L115.149 264.918C115.125 265.217 115.046 265.448 114.911 265.611C114.78 265.77 114.612 265.849 114.407 265.849C114.309 265.849 114.215 265.826 114.127 265.779C114.038 265.732 113.935 265.658 113.819 265.555C113.721 265.466 113.639 265.406 113.574 265.373C113.513 265.336 113.45 265.317 113.385 265.317C113.263 265.317 113.165 265.366 113.091 265.464C113.021 265.557 112.974 265.693 112.951 265.87ZM117.836 270.063C117.524 270.063 117.251 269.991 117.017 269.846C116.784 269.697 116.602 269.487 116.471 269.216C116.345 268.945 116.282 268.621 116.282 268.243C116.282 267.86 116.345 267.534 116.471 267.263C116.602 266.992 116.784 266.785 117.017 266.64C117.251 266.495 117.524 266.423 117.836 266.423C118.154 266.423 118.427 266.505 118.655 266.668C118.889 266.827 119.043 267.044 119.117 267.319H119.033L119.11 266.486H119.656C119.642 266.621 119.628 266.759 119.614 266.899C119.605 267.034 119.6 267.167 119.6 267.298V270H119.033V269.174H119.11C119.036 269.449 118.882 269.666 118.648 269.825C118.415 269.984 118.144 270.063 117.836 270.063ZM117.948 269.601C118.284 269.601 118.55 269.487 118.746 269.258C118.942 269.025 119.04 268.686 119.04 268.243C119.04 267.795 118.942 267.457 118.746 267.228C118.55 266.995 118.284 266.878 117.948 266.878C117.617 266.878 117.351 266.995 117.15 267.228C116.954 267.457 116.856 267.795 116.856 268.243C116.856 268.686 116.954 269.025 117.15 269.258C117.351 269.487 117.617 269.601 117.948 269.601Z" fill="black"/>
<defs>
<filter id="filter0_d_249_919" x="51" y="317" width="258" height="48" filterUnits="userSpaceOnUse" color-interpolation-filters="sRGB">
<feFlood flood-opacity="0" result="BackgroundImageFix"/>
<feColorMatrix in="SourceAlpha" type="matrix" values="0 0 0 0 0 0 0 0 0 0 0 0 0 0 0 0 0 0 127 0" result="hardAlpha"/>
<feOffset dy="4"/>
<feGaussianBlur stdDeviation="2"/>
<feComposite in2="hardAlpha" operator="out"/>
<feColorMatrix type="matrix" values="0 0 0 0 0 0 0 0 0 0 0 0 0 0 0 0 0 0 0.25 0"/>
<feBlend mode="normal" in2="BackgroundImageFix" result="effect1_dropShadow_249_919"/>
<feBlend mode="normal" in="SourceGraphic" in2="effect1_dropShadow_249_919" result="shape"/>
</filter>
</defs>
</svg>
