<svg width="1440" height="900" viewBox="0 0 1440 900" fill="none" xmlns="http://www.w3.org/2000/svg">
<rect width="1440" height="900" fill="white"/>
<path d="M650.873 130V111.67H658.881C660.892 111.67 662.443 112.147 663.535 113.1C664.644 114.053 665.199 115.379 665.199 117.078C665.199 118.205 664.948 119.167 664.445 119.964C663.96 120.761 663.258 121.377 662.339 121.81C661.42 122.226 660.337 122.434 659.089 122.434L659.453 121.94H660.337C661.065 121.94 661.715 122.131 662.287 122.512C662.859 122.893 663.327 123.474 663.691 124.254L666.369 130H662.677L659.973 124.046C659.73 123.439 659.358 123.041 658.855 122.85C658.37 122.659 657.78 122.564 657.087 122.564H654.227V130H650.873ZM654.227 120.094H658.335C659.514 120.094 660.406 119.851 661.013 119.366C661.637 118.863 661.949 118.135 661.949 117.182C661.949 116.229 661.637 115.509 661.013 115.024C660.406 114.539 659.514 114.296 658.335 114.296H654.227V120.094ZM674.883 130.26C672.682 130.26 670.957 129.653 669.709 128.44C668.461 127.227 667.837 125.563 667.837 123.448C667.837 122.079 668.106 120.883 668.643 119.86C669.18 118.837 669.926 118.04 670.879 117.468C671.85 116.896 672.976 116.61 674.259 116.61C675.524 116.61 676.582 116.879 677.431 117.416C678.28 117.953 678.922 118.707 679.355 119.678C679.806 120.649 680.031 121.784 680.031 123.084V123.942H670.463V122.226H677.717L677.275 122.59C677.275 121.377 677.015 120.449 676.495 119.808C675.992 119.167 675.256 118.846 674.285 118.846C673.21 118.846 672.378 119.227 671.789 119.99C671.217 120.753 670.931 121.819 670.931 123.188V123.526C670.931 124.947 671.278 126.013 671.971 126.724C672.682 127.417 673.678 127.764 674.961 127.764C675.706 127.764 676.4 127.669 677.041 127.478C677.7 127.27 678.324 126.941 678.913 126.49L679.875 128.674C679.251 129.177 678.506 129.567 677.639 129.844C676.772 130.121 675.854 130.26 674.883 130.26ZM688.867 135.824C687.654 135.824 686.553 135.694 685.565 135.434C684.594 135.174 683.728 134.775 682.965 134.238L683.667 131.898C684.17 132.227 684.69 132.496 685.227 132.704C685.764 132.912 686.319 133.068 686.891 133.172C687.463 133.276 688.044 133.328 688.633 133.328C689.846 133.328 690.748 133.025 691.337 132.418C691.944 131.829 692.247 130.979 692.247 129.87V126.724H692.507C692.23 127.625 691.666 128.345 690.817 128.882C689.985 129.419 689.023 129.688 687.931 129.688C686.752 129.688 685.721 129.428 684.837 128.908C683.97 128.371 683.294 127.608 682.809 126.62C682.324 125.632 682.081 124.471 682.081 123.136C682.081 121.801 682.324 120.649 682.809 119.678C683.294 118.69 683.97 117.936 684.837 117.416C685.721 116.879 686.752 116.61 687.931 116.61C689.04 116.61 690.002 116.879 690.817 117.416C691.649 117.936 692.204 118.647 692.481 119.548L692.247 119.392L692.507 116.87H695.653C695.584 117.407 695.532 117.953 695.497 118.508C695.462 119.063 695.445 119.609 695.445 120.146V129.48C695.445 131.543 694.882 133.111 693.755 134.186C692.646 135.278 691.016 135.824 688.867 135.824ZM688.815 127.192C689.855 127.192 690.678 126.845 691.285 126.152C691.909 125.441 692.221 124.436 692.221 123.136C692.221 121.836 691.909 120.839 691.285 120.146C690.678 119.453 689.855 119.106 688.815 119.106C687.758 119.106 686.917 119.453 686.293 120.146C685.669 120.839 685.357 121.836 685.357 123.136C685.357 124.436 685.669 125.441 686.293 126.152C686.917 126.845 687.758 127.192 688.815 127.192ZM698.957 130V116.87H702.207V130H698.957ZM698.775 114.4V111.228H702.389V114.4H698.775ZM710.416 130.26C709.29 130.26 708.25 130.13 707.296 129.87C706.36 129.593 705.572 129.211 704.93 128.726L705.84 126.542C706.499 126.993 707.227 127.339 708.024 127.582C708.822 127.825 709.628 127.946 710.442 127.946C711.309 127.946 711.95 127.799 712.366 127.504C712.8 127.209 713.016 126.811 713.016 126.308C713.016 125.909 712.878 125.597 712.6 125.372C712.34 125.129 711.916 124.947 711.326 124.826L708.726 124.332C707.617 124.089 706.768 123.673 706.178 123.084C705.606 122.495 705.32 121.723 705.32 120.77C705.32 119.955 705.537 119.236 705.97 118.612C706.421 117.988 707.054 117.503 707.868 117.156C708.7 116.792 709.671 116.61 710.78 116.61C711.751 116.61 712.661 116.74 713.51 117C714.377 117.26 715.105 117.65 715.694 118.17L714.758 120.276C714.221 119.843 713.606 119.505 712.912 119.262C712.219 119.019 711.543 118.898 710.884 118.898C709.983 118.898 709.324 119.063 708.908 119.392C708.492 119.704 708.284 120.111 708.284 120.614C708.284 120.995 708.406 121.316 708.648 121.576C708.908 121.819 709.307 122.001 709.844 122.122L712.444 122.616C713.606 122.841 714.481 123.24 715.07 123.812C715.677 124.367 715.98 125.129 715.98 126.1C715.98 126.967 715.746 127.712 715.278 128.336C714.81 128.96 714.16 129.437 713.328 129.766C712.496 130.095 711.526 130.26 710.416 130.26ZM724.251 130.26C722.691 130.26 721.512 129.853 720.715 129.038C719.917 128.223 719.519 127.001 719.519 125.372V119.314H716.997V116.87H719.519V113.516L722.769 112.684V116.87H726.279V119.314H722.769V125.164C722.769 126.065 722.942 126.698 723.289 127.062C723.635 127.426 724.112 127.608 724.719 127.608C725.048 127.608 725.325 127.582 725.551 127.53C725.793 127.478 726.027 127.409 726.253 127.322V129.896C725.958 130.017 725.629 130.104 725.265 130.156C724.918 130.225 724.58 130.26 724.251 130.26ZM728.46 130V120.224C728.46 119.669 728.443 119.106 728.408 118.534C728.391 117.962 728.348 117.407 728.278 116.87H731.424L731.788 120.458H731.268C731.442 119.591 731.728 118.872 732.126 118.3C732.542 117.728 733.045 117.303 733.634 117.026C734.224 116.749 734.865 116.61 735.558 116.61C735.87 116.61 736.122 116.627 736.312 116.662C736.503 116.679 736.694 116.723 736.884 116.792L736.858 119.652C736.529 119.513 736.243 119.427 736 119.392C735.775 119.357 735.489 119.34 735.142 119.34C734.397 119.34 733.764 119.496 733.244 119.808C732.742 120.12 732.36 120.553 732.1 121.108C731.858 121.663 731.736 122.295 731.736 123.006V130H728.46ZM743.636 130.26C742.492 130.26 741.487 129.991 740.62 129.454C739.754 128.899 739.078 128.111 738.592 127.088C738.107 126.065 737.864 124.843 737.864 123.422C737.864 122.001 738.107 120.787 738.592 119.782C739.078 118.759 739.754 117.979 740.62 117.442C741.487 116.887 742.492 116.61 743.636 116.61C744.746 116.61 745.716 116.887 746.548 117.442C747.398 117.979 747.961 118.707 748.238 119.626H747.952L748.238 116.87H751.358C751.306 117.407 751.254 117.953 751.202 118.508C751.168 119.063 751.15 119.609 751.15 120.146V130H747.926L747.9 127.296H748.212C747.935 128.197 747.372 128.917 746.522 129.454C745.673 129.991 744.711 130.26 743.636 130.26ZM744.546 127.764C745.569 127.764 746.392 127.409 747.016 126.698C747.64 125.97 747.952 124.878 747.952 123.422C747.952 121.966 747.64 120.883 747.016 120.172C746.392 119.461 745.569 119.106 744.546 119.106C743.524 119.106 742.7 119.461 742.076 120.172C741.452 120.883 741.14 121.966 741.14 123.422C741.14 124.878 741.444 125.97 742.05 126.698C742.674 127.409 743.506 127.764 744.546 127.764ZM754.663 130V120.224C754.663 119.669 754.646 119.106 754.611 118.534C754.594 117.962 754.551 117.407 754.481 116.87H757.627L757.991 120.458H757.471C757.645 119.591 757.931 118.872 758.329 118.3C758.745 117.728 759.248 117.303 759.837 117.026C760.427 116.749 761.068 116.61 761.761 116.61C762.073 116.61 762.325 116.627 762.515 116.662C762.706 116.679 762.897 116.723 763.087 116.792L763.061 119.652C762.732 119.513 762.446 119.427 762.203 119.392C761.978 119.357 761.692 119.34 761.345 119.34C760.6 119.34 759.967 119.496 759.447 119.808C758.945 120.12 758.563 120.553 758.303 121.108C758.061 121.663 757.939 122.295 757.939 123.006V130H754.663ZM769.449 130.26C768.323 130.26 767.283 130.13 766.329 129.87C765.393 129.593 764.605 129.211 763.963 128.726L764.873 126.542C765.532 126.993 766.26 127.339 767.057 127.582C767.855 127.825 768.661 127.946 769.475 127.946C770.342 127.946 770.983 127.799 771.399 127.504C771.833 127.209 772.049 126.811 772.049 126.308C772.049 125.909 771.911 125.597 771.633 125.372C771.373 125.129 770.949 124.947 770.359 124.826L767.759 124.332C766.65 124.089 765.801 123.673 765.211 123.084C764.639 122.495 764.353 121.723 764.353 120.77C764.353 119.955 764.57 119.236 765.003 118.612C765.454 117.988 766.087 117.503 766.901 117.156C767.733 116.792 768.704 116.61 769.813 116.61C770.784 116.61 771.694 116.74 772.543 117C773.41 117.26 774.138 117.65 774.727 118.17L773.791 120.276C773.254 119.843 772.639 119.505 771.945 119.262C771.252 119.019 770.576 118.898 769.917 118.898C769.016 118.898 768.357 119.063 767.941 119.392C767.525 119.704 767.317 120.111 767.317 120.614C767.317 120.995 767.439 121.316 767.681 121.576C767.941 121.819 768.34 122.001 768.877 122.122L771.477 122.616C772.639 122.841 773.514 123.24 774.103 123.812C774.71 124.367 775.013 125.129 775.013 126.1C775.013 126.967 774.779 127.712 774.311 128.336C773.843 128.96 773.193 129.437 772.361 129.766C771.529 130.095 770.559 130.26 769.449 130.26ZM784.139 130.26C781.937 130.26 780.213 129.653 778.965 128.44C777.717 127.227 777.093 125.563 777.093 123.448C777.093 122.079 777.361 120.883 777.899 119.86C778.436 118.837 779.181 118.04 780.135 117.468C781.105 116.896 782.232 116.61 783.515 116.61C784.78 116.61 785.837 116.879 786.687 117.416C787.536 117.953 788.177 118.707 788.611 119.678C789.061 120.649 789.287 121.784 789.287 123.084V123.942H779.719V122.226H786.973L786.531 122.59C786.531 121.377 786.271 120.449 785.751 119.808C785.248 119.167 784.511 118.846 783.541 118.846C782.466 118.846 781.634 119.227 781.045 119.99C780.473 120.753 780.187 121.819 780.187 123.188V123.526C780.187 124.947 780.533 126.013 781.227 126.724C781.937 127.417 782.934 127.764 784.217 127.764C784.962 127.764 785.655 127.669 786.297 127.478C786.955 127.27 787.579 126.941 788.169 126.49L789.131 128.674C788.507 129.177 787.761 129.567 786.895 129.844C786.028 130.121 785.109 130.26 784.139 130.26Z" fill="black"/>
<rect x="445" y="200" width="550" height="66" rx="31.5" fill="#F5F4F2"/>
<rect x="445" y="293" width="550" height="67" rx="31.5" fill="#F5F4F2"/>
<rect x="445" y="386" width="550" height="67" rx="31.5" fill="#F5F4F2"/>
<rect x="445" y="479" width="550" height="67" rx="31.5" fill="#F5F4F2"/>
<rect x="445" y="573" width="550" height="66" rx="31.5" fill="#F5F4F2"/>
<g filter="url(#filter0_d_249_889)">
<rect x="512" y="707" width="415.137" height="96.336" rx="31.5" fill="#46B593"/>
<path d="M648.425 762.18C647.105 762.18 645.971 761.916 645.023 761.388C644.087 760.848 643.367 760.092 642.863 759.12C642.359 758.136 642.107 756.978 642.107 755.646C642.107 754.314 642.359 753.162 642.863 752.19C643.367 751.218 644.087 750.468 645.023 749.94C645.971 749.4 647.105 749.13 648.425 749.13C649.313 749.13 650.111 749.256 650.819 749.508C651.539 749.76 652.157 750.132 652.673 750.624L651.917 752.46C651.353 752.004 650.807 751.68 650.279 751.488C649.763 751.284 649.169 751.182 648.497 751.182C647.213 751.182 646.229 751.572 645.545 752.352C644.873 753.12 644.537 754.218 644.537 755.646C644.537 757.074 644.873 758.178 645.545 758.958C646.229 759.738 647.213 760.128 648.497 760.128C649.169 760.128 649.763 760.032 650.279 759.84C650.807 759.636 651.353 759.3 651.917 758.832L652.673 760.668C652.157 761.148 651.539 761.52 650.819 761.784C650.111 762.048 649.313 762.18 648.425 762.18ZM658.135 762.18C657.199 762.18 656.389 761.988 655.705 761.604C655.021 761.22 654.487 760.674 654.103 759.966C653.731 759.258 653.545 758.418 653.545 757.446C653.545 756.474 653.731 755.64 654.103 754.944C654.487 754.236 655.021 753.69 655.705 753.306C656.389 752.922 657.199 752.73 658.135 752.73C659.071 752.73 659.881 752.922 660.565 753.306C661.261 753.69 661.795 754.236 662.167 754.944C662.551 755.64 662.743 756.474 662.743 757.446C662.743 758.418 662.551 759.258 662.167 759.966C661.795 760.674 661.261 761.22 660.565 761.604C659.881 761.988 659.071 762.18 658.135 762.18ZM658.135 760.452C658.843 760.452 659.407 760.206 659.827 759.714C660.247 759.21 660.457 758.454 660.457 757.446C660.457 756.438 660.247 755.688 659.827 755.196C659.407 754.704 658.843 754.458 658.135 754.458C657.427 754.458 656.863 754.704 656.443 755.196C656.023 755.688 655.813 756.438 655.813 757.446C655.813 758.454 656.023 759.21 656.443 759.714C656.863 760.206 657.427 760.452 658.135 760.452ZM664.683 762V755.178C664.683 754.806 664.671 754.428 664.647 754.044C664.623 753.66 664.587 753.282 664.539 752.91H666.717L666.897 754.71H666.681C666.969 754.074 667.395 753.588 667.959 753.252C668.523 752.904 669.177 752.73 669.921 752.73C670.989 752.73 671.793 753.03 672.333 753.63C672.873 754.23 673.143 755.166 673.143 756.438V762H670.893V756.546C670.893 755.814 670.749 755.292 670.461 754.98C670.185 754.656 669.765 754.494 669.201 754.494C668.505 754.494 667.953 754.71 667.545 755.142C667.137 755.574 666.933 756.15 666.933 756.87V762H664.683ZM676.141 762V754.602H674.395V752.91H676.771L676.141 753.486V752.1C676.141 750.972 676.423 750.12 676.987 749.544C677.563 748.968 678.397 748.68 679.489 748.68C679.753 748.68 680.029 748.698 680.317 748.734C680.617 748.77 680.875 748.836 681.091 748.932V750.696C680.935 750.636 680.749 750.588 680.533 750.552C680.317 750.516 680.107 750.498 679.903 750.498C679.435 750.498 679.063 750.636 678.787 750.912C678.511 751.176 678.373 751.608 678.373 752.208V753.306L678.049 752.91H684.367V762H682.117V754.602H678.391V762H676.141ZM681.991 751.2V749.004H684.493V751.2H681.991ZM686.796 762V755.232C686.796 754.848 686.784 754.458 686.76 754.062C686.748 753.666 686.718 753.282 686.67 752.91H688.848L689.1 755.394H688.74C688.86 754.794 689.058 754.296 689.334 753.9C689.622 753.504 689.97 753.21 690.378 753.018C690.786 752.826 691.23 752.73 691.71 752.73C691.926 752.73 692.1 752.742 692.232 752.766C692.364 752.778 692.496 752.808 692.628 752.856L692.61 754.836C692.382 754.74 692.184 754.68 692.016 754.656C691.86 754.632 691.662 754.62 691.422 754.62C690.906 754.62 690.468 754.728 690.108 754.944C689.76 755.16 689.496 755.46 689.316 755.844C689.148 756.228 689.064 756.666 689.064 757.158V762H686.796ZM693.88 762V755.178C693.88 754.806 693.868 754.428 693.844 754.044C693.82 753.66 693.784 753.282 693.736 752.91H695.914L696.094 754.71H695.878C696.13 754.086 696.514 753.6 697.03 753.252C697.558 752.904 698.182 752.73 698.902 752.73C699.622 752.73 700.216 752.904 700.684 753.252C701.164 753.588 701.5 754.116 701.692 754.836H701.404C701.656 754.188 702.07 753.678 702.646 753.306C703.222 752.922 703.882 752.73 704.626 752.73C705.646 752.73 706.408 753.03 706.912 753.63C707.416 754.23 707.668 755.166 707.668 756.438V762H705.418V756.528C705.418 755.808 705.298 755.292 705.058 754.98C704.818 754.656 704.434 754.494 703.906 754.494C703.282 754.494 702.79 754.716 702.43 755.16C702.07 755.592 701.89 756.18 701.89 756.924V762H699.64V756.528C699.64 755.808 699.52 755.292 699.28 754.98C699.04 754.656 698.656 754.494 698.128 754.494C697.504 754.494 697.012 754.716 696.652 755.16C696.304 755.592 696.13 756.18 696.13 756.924V762H693.88ZM713.58 762.18C712.788 762.18 712.092 761.994 711.492 761.622C710.892 761.238 710.424 760.692 710.088 759.984C709.752 759.276 709.584 758.43 709.584 757.446C709.584 756.462 709.752 755.622 710.088 754.926C710.424 754.218 710.892 753.678 711.492 753.306C712.092 752.922 712.788 752.73 713.58 752.73C714.348 752.73 715.02 752.922 715.596 753.306C716.184 753.678 716.574 754.182 716.766 754.818H716.568L716.766 752.91H718.926C718.89 753.282 718.854 753.66 718.818 754.044C718.794 754.428 718.782 754.806 718.782 755.178V762H716.55L716.532 760.128H716.748C716.556 760.752 716.166 761.25 715.578 761.622C714.99 761.994 714.324 762.18 713.58 762.18ZM714.21 760.452C714.918 760.452 715.488 760.206 715.92 759.714C716.352 759.21 716.568 758.454 716.568 757.446C716.568 756.438 716.352 755.688 715.92 755.196C715.488 754.704 714.918 754.458 714.21 754.458C713.502 754.458 712.932 754.704 712.5 755.196C712.068 755.688 711.852 756.438 711.852 757.446C711.852 758.454 712.062 759.21 712.482 759.714C712.914 760.206 713.49 760.452 714.21 760.452ZM721.214 762V755.232C721.214 754.848 721.202 754.458 721.178 754.062C721.166 753.666 721.136 753.282 721.088 752.91H723.266L723.518 755.394H723.158C723.278 754.794 723.476 754.296 723.752 753.9C724.04 753.504 724.388 753.21 724.796 753.018C725.204 752.826 725.648 752.73 726.128 752.73C726.344 752.73 726.518 752.742 726.65 752.766C726.782 752.778 726.914 752.808 727.046 752.856L727.028 754.836C726.8 754.74 726.602 754.68 726.434 754.656C726.278 754.632 726.08 754.62 725.84 754.62C725.324 754.62 724.886 754.728 724.526 754.944C724.178 755.16 723.914 755.46 723.734 755.844C723.566 756.228 723.482 756.666 723.482 757.158V762H721.214ZM733.22 762V755.232C733.22 754.848 733.208 754.458 733.184 754.062C733.172 753.666 733.142 753.282 733.094 752.91H735.272L735.524 755.394H735.164C735.284 754.794 735.482 754.296 735.758 753.9C736.046 753.504 736.394 753.21 736.802 753.018C737.21 752.826 737.654 752.73 738.134 752.73C738.35 752.73 738.524 752.742 738.656 752.766C738.788 752.778 738.92 752.808 739.052 752.856L739.034 754.836C738.806 754.74 738.608 754.68 738.44 754.656C738.284 754.632 738.086 754.62 737.846 754.62C737.33 754.62 736.892 754.728 736.532 754.944C736.184 755.16 735.92 755.46 735.74 755.844C735.572 756.228 735.488 756.666 735.488 757.158V762H733.22ZM744.556 762.18C743.032 762.18 741.838 761.76 740.974 760.92C740.11 760.08 739.678 758.928 739.678 757.464C739.678 756.516 739.864 755.688 740.236 754.98C740.608 754.272 741.124 753.72 741.784 753.324C742.456 752.928 743.236 752.73 744.124 752.73C745 752.73 745.732 752.916 746.32 753.288C746.908 753.66 747.352 754.182 747.652 754.854C747.964 755.526 748.12 756.312 748.12 757.212V757.806H741.496V756.618H746.518L746.212 756.87C746.212 756.03 746.032 755.388 745.672 754.944C745.324 754.5 744.814 754.278 744.142 754.278C743.398 754.278 742.822 754.542 742.414 755.07C742.018 755.598 741.82 756.336 741.82 757.284V757.518C741.82 758.502 742.06 759.24 742.54 759.732C743.032 760.212 743.722 760.452 744.61 760.452C745.126 760.452 745.606 760.386 746.05 760.254C746.506 760.11 746.938 759.882 747.346 759.57L748.012 761.082C747.58 761.43 747.064 761.7 746.464 761.892C745.864 762.084 745.228 762.18 744.556 762.18ZM754.237 766.032C753.397 766.032 752.635 765.942 751.951 765.762C751.279 765.582 750.679 765.306 750.151 764.934L750.637 763.314C750.985 763.542 751.345 763.728 751.717 763.872C752.089 764.016 752.473 764.124 752.869 764.196C753.265 764.268 753.667 764.304 754.075 764.304C754.915 764.304 755.539 764.094 755.947 763.674C756.367 763.266 756.577 762.678 756.577 761.91V759.732H756.757C756.565 760.356 756.175 760.854 755.587 761.226C755.011 761.598 754.345 761.784 753.589 761.784C752.773 761.784 752.059 761.604 751.447 761.244C750.847 760.872 750.379 760.344 750.043 759.66C749.707 758.976 749.539 758.172 749.539 757.248C749.539 756.324 749.707 755.526 750.043 754.854C750.379 754.17 750.847 753.648 751.447 753.288C752.059 752.916 752.773 752.73 753.589 752.73C754.357 752.73 755.023 752.916 755.587 753.288C756.163 753.648 756.547 754.14 756.739 754.764L756.577 754.656L756.757 752.91H758.935C758.887 753.282 758.851 753.66 758.827 754.044C758.803 754.428 758.791 754.806 758.791 755.178V761.64C758.791 763.068 758.401 764.154 757.621 764.898C756.853 765.654 755.725 766.032 754.237 766.032ZM754.201 760.056C754.921 760.056 755.491 759.816 755.911 759.336C756.343 758.844 756.559 758.148 756.559 757.248C756.559 756.348 756.343 755.658 755.911 755.178C755.491 754.698 754.921 754.458 754.201 754.458C753.469 754.458 752.887 754.698 752.455 755.178C752.023 755.658 751.807 756.348 751.807 757.248C751.807 758.148 752.023 758.844 752.455 759.336C752.887 759.816 753.469 760.056 754.201 760.056ZM761.222 762V752.91H763.472V762H761.222ZM761.096 751.2V749.004H763.598V751.2H761.096ZM769.156 762.18C768.376 762.18 767.656 762.09 766.996 761.91C766.348 761.718 765.802 761.454 765.358 761.118L765.988 759.606C766.444 759.918 766.948 760.158 767.5 760.326C768.052 760.494 768.61 760.578 769.174 760.578C769.774 760.578 770.218 760.476 770.506 760.272C770.806 760.068 770.956 759.792 770.956 759.444C770.956 759.168 770.86 758.952 770.668 758.796C770.488 758.628 770.194 758.502 769.786 758.418L767.986 758.076C767.218 757.908 766.63 757.62 766.222 757.212C765.826 756.804 765.628 756.27 765.628 755.61C765.628 755.046 765.778 754.548 766.078 754.116C766.39 753.684 766.828 753.348 767.392 753.108C767.968 752.856 768.64 752.73 769.408 752.73C770.08 752.73 770.71 752.82 771.298 753C771.898 753.18 772.402 753.45 772.81 753.81L772.162 755.268C771.79 754.968 771.364 754.734 770.884 754.566C770.404 754.398 769.936 754.314 769.48 754.314C768.856 754.314 768.4 754.428 768.112 754.656C767.824 754.872 767.68 755.154 767.68 755.502C767.68 755.766 767.764 755.988 767.932 756.168C768.112 756.336 768.388 756.462 768.76 756.546L770.56 756.888C771.364 757.044 771.97 757.32 772.378 757.716C772.798 758.1 773.008 758.628 773.008 759.3C773.008 759.9 772.846 760.416 772.522 760.848C772.198 761.28 771.748 761.61 771.172 761.838C770.596 762.066 769.924 762.18 769.156 762.18ZM778.733 762.18C777.653 762.18 776.837 761.898 776.285 761.334C775.733 760.77 775.457 759.924 775.457 758.796V754.602H773.711V752.91H775.457V750.588L777.707 750.012V752.91H780.137V754.602H777.707V758.652C777.707 759.276 777.827 759.714 778.067 759.966C778.307 760.218 778.637 760.344 779.057 760.344C779.285 760.344 779.477 760.326 779.633 760.29C779.801 760.254 779.963 760.206 780.119 760.146V761.928C779.915 762.012 779.687 762.072 779.435 762.108C779.195 762.156 778.961 762.18 778.733 762.18ZM781.648 762V755.232C781.648 754.848 781.636 754.458 781.612 754.062C781.6 753.666 781.57 753.282 781.522 752.91H783.7L783.952 755.394H783.592C783.712 754.794 783.91 754.296 784.186 753.9C784.474 753.504 784.822 753.21 785.23 753.018C785.638 752.826 786.082 752.73 786.562 752.73C786.778 752.73 786.952 752.742 787.084 752.766C787.216 752.778 787.348 752.808 787.48 752.856L787.462 754.836C787.234 754.74 787.036 754.68 786.868 754.656C786.712 754.632 786.514 754.62 786.274 754.62C785.758 754.62 785.32 754.728 784.96 754.944C784.612 755.16 784.348 755.46 784.168 755.844C784 756.228 783.916 756.666 783.916 757.158V762H781.648ZM792.695 762.18C791.759 762.18 790.949 761.988 790.265 761.604C789.581 761.22 789.047 760.674 788.663 759.966C788.291 759.258 788.105 758.418 788.105 757.446C788.105 756.474 788.291 755.64 788.663 754.944C789.047 754.236 789.581 753.69 790.265 753.306C790.949 752.922 791.759 752.73 792.695 752.73C793.631 752.73 794.441 752.922 795.125 753.306C795.821 753.69 796.355 754.236 796.727 754.944C797.111 755.64 797.303 756.474 797.303 757.446C797.303 758.418 797.111 759.258 796.727 759.966C796.355 760.674 795.821 761.22 795.125 761.604C794.441 761.988 793.631 762.18 792.695 762.18ZM792.695 760.452C793.403 760.452 793.967 760.206 794.387 759.714C794.807 759.21 795.017 758.454 795.017 757.446C795.017 756.438 794.807 755.688 794.387 755.196C793.967 754.704 793.403 754.458 792.695 754.458C791.987 754.458 791.423 754.704 791.003 755.196C790.583 755.688 790.373 756.438 790.373 757.446C790.373 758.454 790.583 759.21 791.003 759.714C791.423 760.206 791.987 760.452 792.695 760.452Z" fill="#F5F4F2"/>
</g>
<path opacity="0.5" d="M475.232 238V228.13H476.142L482.47 236.53H482.148V228.13H483.226V238H482.33L476.002 229.6H476.31V238H475.232ZM488.449 238.126C487.777 238.126 487.189 237.981 486.685 237.692C486.19 237.393 485.808 236.973 485.537 236.432C485.266 235.881 485.131 235.233 485.131 234.486C485.131 233.73 485.266 233.081 485.537 232.54C485.808 231.999 486.19 231.583 486.685 231.294C487.189 230.995 487.777 230.846 488.449 230.846C489.13 230.846 489.718 230.995 490.213 231.294C490.717 231.583 491.104 231.999 491.375 232.54C491.655 233.081 491.795 233.73 491.795 234.486C491.795 235.233 491.655 235.881 491.375 236.432C491.104 236.973 490.717 237.393 490.213 237.692C489.718 237.981 489.13 238.126 488.449 238.126ZM488.449 237.202C489.121 237.202 489.653 236.973 490.045 236.516C490.437 236.049 490.633 235.373 490.633 234.486C490.633 233.59 490.432 232.913 490.031 232.456C489.639 231.989 489.112 231.756 488.449 231.756C487.786 231.756 487.259 231.989 486.867 232.456C486.475 232.913 486.279 233.59 486.279 234.486C486.279 235.373 486.475 236.049 486.867 236.516C487.259 236.973 487.786 237.202 488.449 237.202ZM493.563 238V232.596C493.563 232.335 493.549 232.069 493.521 231.798C493.502 231.518 493.479 231.243 493.451 230.972H494.543L494.683 232.512H494.515C494.702 231.98 494.996 231.569 495.397 231.28C495.808 230.991 496.302 230.846 496.881 230.846C497.469 230.846 497.945 230.986 498.309 231.266C498.682 231.546 498.934 231.98 499.065 232.568H498.855C499.032 232.036 499.345 231.616 499.793 231.308C500.241 231 500.764 230.846 501.361 230.846C502.136 230.846 502.719 231.07 503.111 231.518C503.503 231.957 503.699 232.652 503.699 233.604V238H502.565V233.674C502.565 233.011 502.448 232.531 502.215 232.232C501.982 231.924 501.608 231.77 501.095 231.77C500.507 231.77 500.04 231.975 499.695 232.386C499.359 232.787 499.191 233.329 499.191 234.01V238H498.057V233.674C498.057 233.011 497.94 232.531 497.707 232.232C497.474 231.924 497.1 231.77 496.587 231.77C495.999 231.77 495.537 231.975 495.201 232.386C494.865 232.787 494.697 233.329 494.697 234.01V238H493.563ZM509.382 238.126C508.747 238.126 508.201 237.967 507.744 237.65C507.287 237.323 506.979 236.88 506.82 236.32H506.974V238H505.854V227.696H506.988V232.61H506.82C506.979 232.069 507.287 231.639 507.744 231.322C508.201 231.005 508.747 230.846 509.382 230.846C510.017 230.846 510.563 230.995 511.02 231.294C511.487 231.583 511.846 231.999 512.098 232.54C512.359 233.081 512.49 233.73 512.49 234.486C512.49 235.242 512.359 235.891 512.098 236.432C511.837 236.973 511.473 237.393 511.006 237.692C510.549 237.981 510.007 238.126 509.382 238.126ZM509.144 237.202C509.807 237.202 510.339 236.973 510.74 236.516C511.141 236.059 511.342 235.382 511.342 234.486C511.342 233.59 511.141 232.913 510.74 232.456C510.339 231.989 509.807 231.756 509.144 231.756C508.481 231.756 507.949 231.989 507.548 232.456C507.156 232.913 506.96 233.59 506.96 234.486C506.96 235.373 507.156 236.049 507.548 236.516C507.949 236.973 508.481 237.202 509.144 237.202ZM514.221 238V232.666C514.221 232.386 514.211 232.101 514.193 231.812C514.183 231.523 514.165 231.243 514.137 230.972H515.229L515.369 232.68L515.173 232.694C515.266 232.274 515.429 231.929 515.663 231.658C515.896 231.387 516.171 231.187 516.489 231.056C516.806 230.916 517.137 230.846 517.483 230.846C517.623 230.846 517.744 230.851 517.847 230.86C517.959 230.869 518.061 230.893 518.155 230.93L518.141 231.938C518.001 231.891 517.87 231.863 517.749 231.854C517.637 231.835 517.506 231.826 517.357 231.826C516.946 231.826 516.587 231.924 516.279 232.12C515.98 232.316 515.751 232.568 515.593 232.876C515.443 233.184 515.369 233.511 515.369 233.856V238H514.221ZM522.374 238.126C521.273 238.126 520.405 237.809 519.77 237.174C519.136 236.53 518.818 235.639 518.818 234.5C518.818 233.763 518.958 233.123 519.238 232.582C519.518 232.031 519.91 231.607 520.414 231.308C520.918 231 521.497 230.846 522.15 230.846C522.794 230.846 523.336 230.981 523.774 231.252C524.213 231.523 524.549 231.91 524.782 232.414C525.016 232.909 525.132 233.497 525.132 234.178V234.598H519.686V233.884H524.39L524.152 234.066C524.152 233.319 523.984 232.736 523.648 232.316C523.312 231.896 522.813 231.686 522.15 231.686C521.45 231.686 520.904 231.933 520.512 232.428C520.12 232.913 519.924 233.571 519.924 234.402V234.528C519.924 235.405 520.139 236.073 520.568 236.53C521.007 236.978 521.618 237.202 522.402 237.202C522.822 237.202 523.214 237.141 523.578 237.02C523.952 236.889 524.306 236.679 524.642 236.39L525.034 237.188C524.726 237.487 524.334 237.72 523.858 237.888C523.392 238.047 522.897 238.126 522.374 238.126ZM533.472 238.126C532.781 238.126 532.179 237.977 531.666 237.678C531.162 237.379 530.77 236.955 530.49 236.404C530.219 235.853 530.084 235.2 530.084 234.444C530.084 233.679 530.224 233.03 530.504 232.498C530.784 231.957 531.176 231.546 531.68 231.266C532.193 230.986 532.791 230.846 533.472 230.846C533.92 230.846 534.354 230.925 534.774 231.084C535.203 231.243 535.558 231.467 535.838 231.756L535.432 232.568C535.152 232.297 534.844 232.097 534.508 231.966C534.181 231.835 533.859 231.77 533.542 231.77C532.814 231.77 532.249 231.999 531.848 232.456C531.447 232.913 531.246 233.581 531.246 234.458C531.246 235.326 531.447 235.998 531.848 236.474C532.249 236.95 532.814 237.188 533.542 237.188C533.85 237.188 534.167 237.127 534.494 237.006C534.83 236.885 535.143 236.684 535.432 236.404L535.838 237.202C535.549 237.501 535.189 237.729 534.76 237.888C534.331 238.047 533.901 238.126 533.472 238.126ZM540.197 238.126C539.525 238.126 538.937 237.981 538.433 237.692C537.938 237.393 537.556 236.973 537.285 236.432C537.014 235.881 536.879 235.233 536.879 234.486C536.879 233.73 537.014 233.081 537.285 232.54C537.556 231.999 537.938 231.583 538.433 231.294C538.937 230.995 539.525 230.846 540.197 230.846C540.878 230.846 541.466 230.995 541.961 231.294C542.465 231.583 542.852 231.999 543.123 232.54C543.403 233.081 543.543 233.73 543.543 234.486C543.543 235.233 543.403 235.881 543.123 236.432C542.852 236.973 542.465 237.393 541.961 237.692C541.466 237.981 540.878 238.126 540.197 238.126ZM540.197 237.202C540.869 237.202 541.401 236.973 541.793 236.516C542.185 236.049 542.381 235.373 542.381 234.486C542.381 233.59 542.18 232.913 541.779 232.456C541.387 231.989 540.86 231.756 540.197 231.756C539.534 231.756 539.007 231.989 538.615 232.456C538.223 232.913 538.027 233.59 538.027 234.486C538.027 235.373 538.223 236.049 538.615 236.516C539.007 236.973 539.534 237.202 540.197 237.202ZM545.311 238V232.596C545.311 232.335 545.297 232.069 545.269 231.798C545.25 231.518 545.227 231.243 545.199 230.972H546.291L546.431 232.512H546.263C546.45 231.98 546.744 231.569 547.145 231.28C547.556 230.991 548.05 230.846 548.629 230.846C549.217 230.846 549.693 230.986 550.057 231.266C550.43 231.546 550.682 231.98 550.813 232.568H550.603C550.78 232.036 551.093 231.616 551.541 231.308C551.989 231 552.512 230.846 553.109 230.846C553.884 230.846 554.467 231.07 554.859 231.518C555.251 231.957 555.447 232.652 555.447 233.604V238H554.313V233.674C554.313 233.011 554.196 232.531 553.963 232.232C553.73 231.924 553.356 231.77 552.843 231.77C552.255 231.77 551.788 231.975 551.443 232.386C551.107 232.787 550.939 233.329 550.939 234.01V238H549.805V233.674C549.805 233.011 549.688 232.531 549.455 232.232C549.222 231.924 548.848 231.77 548.335 231.77C547.747 231.77 547.285 231.975 546.949 232.386C546.613 232.787 546.445 233.329 546.445 234.01V238H545.311ZM557.602 241.024V232.596C557.602 232.335 557.588 232.069 557.56 231.798C557.541 231.518 557.518 231.243 557.49 230.972H558.582L558.736 232.638H558.568C558.717 232.087 559.021 231.653 559.478 231.336C559.935 231.009 560.481 230.846 561.116 230.846C561.751 230.846 562.297 230.991 562.754 231.28C563.221 231.569 563.585 231.985 563.846 232.526C564.107 233.067 564.238 233.721 564.238 234.486C564.238 235.242 564.107 235.891 563.846 236.432C563.594 236.973 563.235 237.393 562.768 237.692C562.301 237.981 561.751 238.126 561.116 238.126C560.491 238.126 559.949 237.967 559.492 237.65C559.035 237.333 558.731 236.899 558.582 236.348H558.736V241.024H557.602ZM560.892 237.202C561.564 237.202 562.096 236.973 562.488 236.516C562.889 236.049 563.09 235.373 563.09 234.486C563.09 233.59 562.889 232.913 562.488 232.456C562.096 231.989 561.564 231.756 560.892 231.756C560.229 231.756 559.697 231.989 559.296 232.456C558.904 232.913 558.708 233.59 558.708 234.486C558.708 235.373 558.904 236.049 559.296 236.516C559.697 236.973 560.229 237.202 560.892 237.202ZM565.997 238V227.696H567.131V238H565.997ZM572.455 238.126C571.353 238.126 570.485 237.809 569.851 237.174C569.216 236.53 568.899 235.639 568.899 234.5C568.899 233.763 569.039 233.123 569.319 232.582C569.599 232.031 569.991 231.607 570.495 231.308C570.999 231 571.577 230.846 572.231 230.846C572.875 230.846 573.416 230.981 573.855 231.252C574.293 231.523 574.629 231.91 574.863 232.414C575.096 232.909 575.213 233.497 575.213 234.178V234.598H569.767V233.884H574.471L574.233 234.066C574.233 233.319 574.065 232.736 573.729 232.316C573.393 231.896 572.893 231.686 572.231 231.686C571.531 231.686 570.985 231.933 570.593 232.428C570.201 232.913 570.005 233.571 570.005 234.402V234.528C570.005 235.405 570.219 236.073 570.649 236.53C571.087 236.978 571.699 237.202 572.483 237.202C572.903 237.202 573.295 237.141 573.659 237.02C574.032 236.889 574.387 236.679 574.723 236.39L575.115 237.188C574.807 237.487 574.415 237.72 573.939 237.888C573.472 238.047 572.977 238.126 572.455 238.126ZM579.44 238.126C578.749 238.126 578.222 237.93 577.858 237.538C577.494 237.137 577.312 236.535 577.312 235.732V231.854H575.94V230.972H577.312V229.054L578.446 228.732V230.972H580.462V231.854H578.446V235.606C578.446 236.166 578.539 236.567 578.726 236.81C578.922 237.043 579.211 237.16 579.594 237.16C579.771 237.16 579.93 237.146 580.07 237.118C580.21 237.081 580.336 237.039 580.448 236.992V237.944C580.317 238 580.158 238.042 579.972 238.07C579.794 238.107 579.617 238.126 579.44 238.126ZM584.658 238.126C583.986 238.126 583.398 237.981 582.894 237.692C582.399 237.393 582.017 236.973 581.746 236.432C581.475 235.881 581.34 235.233 581.34 234.486C581.34 233.73 581.475 233.081 581.746 232.54C582.017 231.999 582.399 231.583 582.894 231.294C583.398 230.995 583.986 230.846 584.658 230.846C585.339 230.846 585.927 230.995 586.422 231.294C586.926 231.583 587.313 231.999 587.584 232.54C587.864 233.081 588.004 233.73 588.004 234.486C588.004 235.233 587.864 235.881 587.584 236.432C587.313 236.973 586.926 237.393 586.422 237.692C585.927 237.981 585.339 238.126 584.658 238.126ZM584.658 237.202C585.33 237.202 585.862 236.973 586.254 236.516C586.646 236.049 586.842 235.373 586.842 234.486C586.842 233.59 586.641 232.913 586.24 232.456C585.848 231.989 585.321 231.756 584.658 231.756C583.995 231.756 583.468 231.989 583.076 232.456C582.684 232.913 582.488 233.59 582.488 234.486C582.488 235.373 582.684 236.049 583.076 236.516C583.468 236.973 583.995 237.202 584.658 237.202Z" fill="black"/>
<path opacity="0.5" d="M474.232 331V321.13H480.392V322.082H475.394V325.54H480.084V326.492H475.394V331H474.232ZM484.83 331.126C483.728 331.126 482.86 330.809 482.226 330.174C481.591 329.53 481.274 328.639 481.274 327.5C481.274 326.763 481.414 326.123 481.694 325.582C481.974 325.031 482.366 324.607 482.87 324.308C483.374 324 483.952 323.846 484.606 323.846C485.25 323.846 485.791 323.981 486.23 324.252C486.668 324.523 487.004 324.91 487.238 325.414C487.471 325.909 487.588 326.497 487.588 327.178V327.598H482.142V326.884H486.846L486.608 327.066C486.608 326.319 486.44 325.736 486.104 325.316C485.768 324.896 485.268 324.686 484.606 324.686C483.906 324.686 483.36 324.933 482.968 325.428C482.576 325.913 482.38 326.571 482.38 327.402V327.528C482.38 328.405 482.594 329.073 483.024 329.53C483.462 329.978 484.074 330.202 484.858 330.202C485.278 330.202 485.67 330.141 486.034 330.02C486.407 329.889 486.762 329.679 487.098 329.39L487.49 330.188C487.182 330.487 486.79 330.72 486.314 330.888C485.847 331.047 485.352 331.126 484.83 331.126ZM492.277 331.126C491.586 331.126 490.984 330.977 490.471 330.678C489.967 330.379 489.575 329.955 489.295 329.404C489.024 328.853 488.889 328.2 488.889 327.444C488.889 326.679 489.029 326.03 489.309 325.498C489.589 324.957 489.981 324.546 490.485 324.266C490.998 323.986 491.595 323.846 492.277 323.846C492.725 323.846 493.159 323.925 493.579 324.084C494.008 324.243 494.363 324.467 494.643 324.756L494.237 325.568C493.957 325.297 493.649 325.097 493.313 324.966C492.986 324.835 492.664 324.77 492.347 324.77C491.619 324.77 491.054 324.999 490.653 325.456C490.251 325.913 490.051 326.581 490.051 327.458C490.051 328.326 490.251 328.998 490.653 329.474C491.054 329.95 491.619 330.188 492.347 330.188C492.655 330.188 492.972 330.127 493.299 330.006C493.635 329.885 493.947 329.684 494.237 329.404L494.643 330.202C494.353 330.501 493.994 330.729 493.565 330.888C493.135 331.047 492.706 331.126 492.277 331.126ZM496.254 331V320.696H497.388V325.526H497.206C497.402 324.975 497.729 324.56 498.186 324.28C498.653 323.991 499.19 323.846 499.796 323.846C500.636 323.846 501.262 324.075 501.672 324.532C502.083 324.98 502.288 325.661 502.288 326.576V331H501.154V326.646C501.154 325.993 501.024 325.517 500.762 325.218C500.51 324.919 500.1 324.77 499.53 324.77C498.877 324.77 498.354 324.971 497.962 325.372C497.58 325.773 497.388 326.301 497.388 326.954V331H496.254ZM507.132 331.126C506.506 331.126 505.96 330.981 505.494 330.692C505.027 330.393 504.663 329.973 504.402 329.432C504.15 328.891 504.024 328.242 504.024 327.486C504.024 326.721 504.15 326.067 504.402 325.526C504.663 324.985 505.027 324.569 505.494 324.28C505.96 323.991 506.506 323.846 507.132 323.846C507.766 323.846 508.312 324.009 508.77 324.336C509.236 324.653 509.544 325.087 509.694 325.638H509.526L509.68 323.972H510.772C510.744 324.243 510.716 324.518 510.688 324.798C510.669 325.069 510.66 325.335 510.66 325.596V331H509.526V329.348H509.68C509.53 329.899 509.222 330.333 508.756 330.65C508.289 330.967 507.748 331.126 507.132 331.126ZM507.356 330.202C508.028 330.202 508.56 329.973 508.952 329.516C509.344 329.049 509.54 328.373 509.54 327.486C509.54 326.59 509.344 325.913 508.952 325.456C508.56 324.989 508.028 324.756 507.356 324.756C506.693 324.756 506.161 324.989 505.76 325.456C505.368 325.913 505.172 326.59 505.172 327.486C505.172 328.373 505.368 329.049 505.76 329.516C506.161 329.973 506.693 330.202 507.356 330.202ZM519.162 331.126C518.546 331.126 518.005 330.981 517.538 330.692C517.072 330.393 516.708 329.973 516.446 329.432C516.194 328.891 516.068 328.242 516.068 327.486C516.068 326.721 516.194 326.067 516.446 325.526C516.708 324.985 517.072 324.569 517.538 324.28C518.005 323.991 518.546 323.846 519.162 323.846C519.797 323.846 520.343 324.005 520.8 324.322C521.267 324.639 521.58 325.069 521.738 325.61H521.57V320.696H522.704V331H521.584V329.32H521.738C521.589 329.88 521.281 330.323 520.814 330.65C520.348 330.967 519.797 331.126 519.162 331.126ZM519.4 330.202C520.063 330.202 520.595 329.973 520.996 329.516C521.398 329.049 521.598 328.373 521.598 327.486C521.598 326.59 521.398 325.913 520.996 325.456C520.595 324.989 520.063 324.756 519.4 324.756C518.738 324.756 518.206 324.989 517.804 325.456C517.412 325.913 517.216 326.59 517.216 327.486C517.216 328.373 517.412 329.049 517.804 329.516C518.206 329.973 518.738 330.202 519.4 330.202ZM528.019 331.126C526.918 331.126 526.05 330.809 525.415 330.174C524.78 329.53 524.463 328.639 524.463 327.5C524.463 326.763 524.603 326.123 524.883 325.582C525.163 325.031 525.555 324.607 526.059 324.308C526.563 324 527.142 323.846 527.795 323.846C528.439 323.846 528.98 323.981 529.419 324.252C529.858 324.523 530.194 324.91 530.427 325.414C530.66 325.909 530.777 326.497 530.777 327.178V327.598H525.331V326.884H530.035L529.797 327.066C529.797 326.319 529.629 325.736 529.293 325.316C528.957 324.896 528.458 324.686 527.795 324.686C527.095 324.686 526.549 324.933 526.157 325.428C525.765 325.913 525.569 326.571 525.569 327.402V327.528C525.569 328.405 525.784 329.073 526.213 329.53C526.652 329.978 527.263 330.202 528.047 330.202C528.467 330.202 528.859 330.141 529.223 330.02C529.596 329.889 529.951 329.679 530.287 329.39L530.679 330.188C530.371 330.487 529.979 330.72 529.503 330.888C529.036 331.047 528.542 331.126 528.019 331.126ZM536.163 331V325.596C536.163 325.335 536.149 325.069 536.121 324.798C536.102 324.518 536.079 324.243 536.051 323.972H537.143L537.283 325.512H537.115C537.32 324.971 537.647 324.56 538.095 324.28C538.552 323.991 539.079 323.846 539.677 323.846C540.507 323.846 541.133 324.07 541.553 324.518C541.982 324.957 542.197 325.652 542.197 326.604V331H541.063V326.674C541.063 326.011 540.927 325.531 540.657 325.232C540.395 324.924 539.985 324.77 539.425 324.77C538.771 324.77 538.253 324.971 537.871 325.372C537.488 325.773 537.297 326.31 537.297 326.982V331H536.163ZM547.04 331.126C546.414 331.126 545.868 330.981 545.402 330.692C544.935 330.393 544.571 329.973 544.31 329.432C544.058 328.891 543.932 328.242 543.932 327.486C543.932 326.721 544.058 326.067 544.31 325.526C544.571 324.985 544.935 324.569 545.402 324.28C545.868 323.991 546.414 323.846 547.04 323.846C547.674 323.846 548.22 324.009 548.678 324.336C549.144 324.653 549.452 325.087 549.602 325.638H549.434L549.588 323.972H550.68C550.652 324.243 550.624 324.518 550.596 324.798C550.577 325.069 550.568 325.335 550.568 325.596V331H549.434V329.348H549.588C549.438 329.899 549.13 330.333 548.664 330.65C548.197 330.967 547.656 331.126 547.04 331.126ZM547.264 330.202C547.936 330.202 548.468 329.973 548.86 329.516C549.252 329.049 549.448 328.373 549.448 327.486C549.448 326.59 549.252 325.913 548.86 325.456C548.468 324.989 547.936 324.756 547.264 324.756C546.601 324.756 546.069 324.989 545.668 325.456C545.276 325.913 545.08 326.59 545.08 327.486C545.08 328.373 545.276 329.049 545.668 329.516C546.069 329.973 546.601 330.202 547.264 330.202ZM555.714 331.126C555.024 331.126 554.422 330.977 553.908 330.678C553.404 330.379 553.012 329.955 552.732 329.404C552.462 328.853 552.326 328.2 552.326 327.444C552.326 326.679 552.466 326.03 552.746 325.498C553.026 324.957 553.418 324.546 553.922 324.266C554.436 323.986 555.033 323.846 555.714 323.846C556.162 323.846 556.596 323.925 557.016 324.084C557.446 324.243 557.8 324.467 558.08 324.756L557.674 325.568C557.394 325.297 557.086 325.097 556.75 324.966C556.424 324.835 556.102 324.77 555.784 324.77C555.056 324.77 554.492 324.999 554.09 325.456C553.689 325.913 553.488 326.581 553.488 327.458C553.488 328.326 553.689 328.998 554.09 329.474C554.492 329.95 555.056 330.188 555.784 330.188C556.092 330.188 556.41 330.127 556.736 330.006C557.072 329.885 557.385 329.684 557.674 329.404L558.08 330.202C557.791 330.501 557.432 330.729 557.002 330.888C556.573 331.047 556.144 331.126 555.714 331.126ZM559.692 331V323.972H560.826V331H559.692ZM559.552 322.376V321.102H560.952V322.376H559.552ZM563.028 331V325.596C563.028 325.335 563.014 325.069 562.986 324.798C562.967 324.518 562.944 324.243 562.916 323.972H564.008L564.148 325.512H563.98C564.167 324.98 564.461 324.569 564.862 324.28C565.273 323.991 565.767 323.846 566.346 323.846C566.934 323.846 567.41 323.986 567.774 324.266C568.147 324.546 568.399 324.98 568.53 325.568H568.32C568.497 325.036 568.81 324.616 569.258 324.308C569.706 324 570.229 323.846 570.826 323.846C571.601 323.846 572.184 324.07 572.576 324.518C572.968 324.957 573.164 325.652 573.164 326.604V331H572.03V326.674C572.03 326.011 571.913 325.531 571.68 325.232C571.447 324.924 571.073 324.77 570.56 324.77C569.972 324.77 569.505 324.975 569.16 325.386C568.824 325.787 568.656 326.329 568.656 327.01V331H567.522V326.674C567.522 326.011 567.405 325.531 567.172 325.232C566.939 324.924 566.565 324.77 566.052 324.77C565.464 324.77 565.002 324.975 564.666 325.386C564.33 325.787 564.162 326.329 564.162 327.01V331H563.028ZM575.319 331V323.972H576.453V331H575.319ZM575.179 322.376V321.102H576.579V322.376H575.179ZM581.777 331.126C580.675 331.126 579.807 330.809 579.173 330.174C578.538 329.53 578.221 328.639 578.221 327.5C578.221 326.763 578.361 326.123 578.641 325.582C578.921 325.031 579.313 324.607 579.817 324.308C580.321 324 580.899 323.846 581.553 323.846C582.197 323.846 582.738 323.981 583.177 324.252C583.615 324.523 583.951 324.91 584.185 325.414C584.418 325.909 584.535 326.497 584.535 327.178V327.598H579.089V326.884H583.793L583.555 327.066C583.555 326.319 583.387 325.736 583.051 325.316C582.715 324.896 582.215 324.686 581.553 324.686C580.853 324.686 580.307 324.933 579.915 325.428C579.523 325.913 579.327 326.571 579.327 327.402V327.528C579.327 328.405 579.541 329.073 579.971 329.53C580.409 329.978 581.021 330.202 581.805 330.202C582.225 330.202 582.617 330.141 582.981 330.02C583.354 329.889 583.709 329.679 584.045 329.39L584.437 330.188C584.129 330.487 583.737 330.72 583.261 330.888C582.794 331.047 582.299 331.126 581.777 331.126ZM586.27 331V325.596C586.27 325.335 586.256 325.069 586.228 324.798C586.209 324.518 586.186 324.243 586.158 323.972H587.25L587.39 325.512H587.222C587.427 324.971 587.754 324.56 588.202 324.28C588.659 323.991 589.187 323.846 589.784 323.846C590.615 323.846 591.24 324.07 591.66 324.518C592.089 324.957 592.304 325.652 592.304 326.604V331H591.17V326.674C591.17 326.011 591.035 325.531 590.764 325.232C590.503 324.924 590.092 324.77 589.532 324.77C588.879 324.77 588.361 324.971 587.978 325.372C587.595 325.773 587.404 326.31 587.404 326.982V331H586.27ZM596.965 331.126C596.275 331.126 595.747 330.93 595.383 330.538C595.019 330.137 594.837 329.535 594.837 328.732V324.854H593.465V323.972H594.837V322.054L595.971 321.732V323.972H597.987V324.854H595.971V328.606C595.971 329.166 596.065 329.567 596.251 329.81C596.447 330.043 596.737 330.16 597.119 330.16C597.297 330.16 597.455 330.146 597.595 330.118C597.735 330.081 597.861 330.039 597.973 329.992V330.944C597.843 331 597.684 331.042 597.497 331.07C597.32 331.107 597.143 331.126 596.965 331.126ZM602.183 331.126C601.511 331.126 600.923 330.981 600.419 330.692C599.925 330.393 599.542 329.973 599.271 329.432C599.001 328.881 598.865 328.233 598.865 327.486C598.865 326.73 599.001 326.081 599.271 325.54C599.542 324.999 599.925 324.583 600.419 324.294C600.923 323.995 601.511 323.846 602.183 323.846C602.865 323.846 603.453 323.995 603.947 324.294C604.451 324.583 604.839 324.999 605.109 325.54C605.389 326.081 605.529 326.73 605.529 327.486C605.529 328.233 605.389 328.881 605.109 329.432C604.839 329.973 604.451 330.393 603.947 330.692C603.453 330.981 602.865 331.126 602.183 331.126ZM602.183 330.202C602.855 330.202 603.387 329.973 603.779 329.516C604.171 329.049 604.367 328.373 604.367 327.486C604.367 326.59 604.167 325.913 603.765 325.456C603.373 324.989 602.846 324.756 602.183 324.756C601.521 324.756 600.993 324.989 600.601 325.456C600.209 325.913 600.013 326.59 600.013 327.486C600.013 328.373 600.209 329.049 600.601 329.516C600.993 329.973 601.521 330.202 602.183 330.202Z" fill="black"/>
<path opacity="0.5" d="M475.232 425V415.13H481.532V416.082H476.366V419.512H481.224V420.478H476.366V424.034H481.532V425H475.232ZM483.238 421.626V420.688H487.228V421.626H483.238ZM489.325 425V419.596C489.325 419.335 489.311 419.069 489.283 418.798C489.264 418.518 489.241 418.243 489.213 417.972H490.305L490.445 419.512H490.277C490.463 418.98 490.757 418.569 491.159 418.28C491.569 417.991 492.064 417.846 492.643 417.846C493.231 417.846 493.707 417.986 494.071 418.266C494.444 418.546 494.696 418.98 494.827 419.568H494.617C494.794 419.036 495.107 418.616 495.555 418.308C496.003 418 496.525 417.846 497.123 417.846C497.897 417.846 498.481 418.07 498.873 418.518C499.265 418.957 499.461 419.652 499.461 420.604V425H498.327V420.674C498.327 420.011 498.21 419.531 497.977 419.232C497.743 418.924 497.37 418.77 496.857 418.77C496.269 418.77 495.802 418.975 495.457 419.386C495.121 419.787 494.953 420.329 494.953 421.01V425H493.819V420.674C493.819 420.011 493.702 419.531 493.469 419.232C493.235 418.924 492.862 418.77 492.349 418.77C491.761 418.77 491.299 418.975 490.963 419.386C490.627 419.787 490.459 420.329 490.459 421.01V425H489.325ZM504.29 425.126C503.664 425.126 503.118 424.981 502.652 424.692C502.185 424.393 501.821 423.973 501.56 423.432C501.308 422.891 501.182 422.242 501.182 421.486C501.182 420.721 501.308 420.067 501.56 419.526C501.821 418.985 502.185 418.569 502.652 418.28C503.118 417.991 503.664 417.846 504.29 417.846C504.924 417.846 505.47 418.009 505.928 418.336C506.394 418.653 506.702 419.087 506.852 419.638H506.684L506.838 417.972H507.93C507.902 418.243 507.874 418.518 507.846 418.798C507.827 419.069 507.818 419.335 507.818 419.596V425H506.684V423.348H506.838C506.688 423.899 506.38 424.333 505.914 424.65C505.447 424.967 504.906 425.126 504.29 425.126ZM504.514 424.202C505.186 424.202 505.718 423.973 506.11 423.516C506.502 423.049 506.698 422.373 506.698 421.486C506.698 420.59 506.502 419.913 506.11 419.456C505.718 418.989 505.186 418.756 504.514 418.756C503.851 418.756 503.319 418.989 502.918 419.456C502.526 419.913 502.33 420.59 502.33 421.486C502.33 422.373 502.526 423.049 502.918 423.516C503.319 423.973 503.851 424.202 504.514 424.202ZM510.01 425V417.972H511.144V425H510.01ZM509.87 416.376V415.102H511.27V416.376H509.87ZM513.346 425V414.696H514.48V425H513.346Z" fill="black"/>
<path opacity="0.5" d="M479.53 518.126C478.541 518.126 477.701 517.921 477.01 517.51C476.319 517.099 475.787 516.516 475.414 515.76C475.05 515.004 474.868 514.103 474.868 513.058C474.868 512.013 475.05 511.117 475.414 510.37C475.787 509.614 476.319 509.031 477.01 508.62C477.701 508.209 478.541 508.004 479.53 508.004C480.23 508.004 480.855 508.111 481.406 508.326C481.957 508.541 482.437 508.853 482.848 509.264L482.414 510.188C481.966 509.796 481.523 509.511 481.084 509.334C480.645 509.147 480.132 509.054 479.544 509.054C478.415 509.054 477.556 509.404 476.968 510.104C476.38 510.804 476.086 511.789 476.086 513.058C476.086 514.327 476.38 515.317 476.968 516.026C477.556 516.726 478.415 517.076 479.544 517.076C480.132 517.076 480.645 516.987 481.084 516.81C481.523 516.623 481.966 516.329 482.414 515.928L482.848 516.866C482.437 517.267 481.957 517.58 481.406 517.804C480.855 518.019 480.23 518.126 479.53 518.126ZM487.068 518.126C486.396 518.126 485.808 517.981 485.304 517.692C484.809 517.393 484.427 516.973 484.156 516.432C483.885 515.881 483.75 515.233 483.75 514.486C483.75 513.73 483.885 513.081 484.156 512.54C484.427 511.999 484.809 511.583 485.304 511.294C485.808 510.995 486.396 510.846 487.068 510.846C487.749 510.846 488.337 510.995 488.832 511.294C489.336 511.583 489.723 511.999 489.994 512.54C490.274 513.081 490.414 513.73 490.414 514.486C490.414 515.233 490.274 515.881 489.994 516.432C489.723 516.973 489.336 517.393 488.832 517.692C488.337 517.981 487.749 518.126 487.068 518.126ZM487.068 517.202C487.74 517.202 488.272 516.973 488.664 516.516C489.056 516.049 489.252 515.373 489.252 514.486C489.252 513.59 489.051 512.913 488.65 512.456C488.258 511.989 487.731 511.756 487.068 511.756C486.405 511.756 485.878 511.989 485.486 512.456C485.094 512.913 484.898 513.59 484.898 514.486C484.898 515.373 485.094 516.049 485.486 516.516C485.878 516.973 486.405 517.202 487.068 517.202ZM492.182 518V512.596C492.182 512.335 492.168 512.069 492.14 511.798C492.122 511.518 492.098 511.243 492.07 510.972H493.162L493.302 512.512H493.134C493.34 511.971 493.666 511.56 494.114 511.28C494.572 510.991 495.099 510.846 495.696 510.846C496.527 510.846 497.152 511.07 497.572 511.518C498.002 511.957 498.216 512.652 498.216 513.604V518H497.082V513.674C497.082 513.011 496.947 512.531 496.676 512.232C496.415 511.924 496.004 511.77 495.444 511.77C494.791 511.77 494.273 511.971 493.89 512.372C493.508 512.773 493.316 513.31 493.316 513.982V518H492.182ZM502.877 518.126C502.187 518.126 501.659 517.93 501.295 517.538C500.931 517.137 500.749 516.535 500.749 515.732V511.854H499.377V510.972H500.749V509.054L501.883 508.732V510.972H503.899V511.854H501.883V515.606C501.883 516.166 501.977 516.567 502.163 516.81C502.359 517.043 502.649 517.16 503.031 517.16C503.209 517.16 503.367 517.146 503.507 517.118C503.647 517.081 503.773 517.039 503.885 516.992V517.944C503.755 518 503.596 518.042 503.409 518.07C503.232 518.107 503.055 518.126 502.877 518.126ZM505.252 518V512.666C505.252 512.386 505.242 512.101 505.224 511.812C505.214 511.523 505.196 511.243 505.168 510.972H506.26L506.4 512.68L506.204 512.694C506.297 512.274 506.46 511.929 506.694 511.658C506.927 511.387 507.202 511.187 507.52 511.056C507.837 510.916 508.168 510.846 508.514 510.846C508.654 510.846 508.775 510.851 508.878 510.86C508.99 510.869 509.092 510.893 509.186 510.93L509.172 511.938C509.032 511.891 508.901 511.863 508.78 511.854C508.668 511.835 508.537 511.826 508.388 511.826C507.977 511.826 507.618 511.924 507.31 512.12C507.011 512.316 506.782 512.568 506.624 512.876C506.474 513.184 506.4 513.511 506.4 513.856V518H505.252ZM512.971 518.126C512.346 518.126 511.8 517.981 511.333 517.692C510.867 517.393 510.503 516.973 510.241 516.432C509.989 515.891 509.863 515.242 509.863 514.486C509.863 513.721 509.989 513.067 510.241 512.526C510.503 511.985 510.867 511.569 511.333 511.28C511.8 510.991 512.346 510.846 512.971 510.846C513.606 510.846 514.152 511.009 514.609 511.336C515.076 511.653 515.384 512.087 515.533 512.638H515.365L515.519 510.972H516.611C516.583 511.243 516.555 511.518 516.527 511.798C516.509 512.069 516.499 512.335 516.499 512.596V518H515.365V516.348H515.519C515.37 516.899 515.062 517.333 514.595 517.65C514.129 517.967 513.587 518.126 512.971 518.126ZM513.195 517.202C513.867 517.202 514.399 516.973 514.791 516.516C515.183 516.049 515.379 515.373 515.379 514.486C515.379 513.59 515.183 512.913 514.791 512.456C514.399 511.989 513.867 511.756 513.195 511.756C512.533 511.756 512.001 511.989 511.599 512.456C511.207 512.913 511.011 513.59 511.011 514.486C511.011 515.373 511.207 516.049 511.599 516.516C512.001 516.973 512.533 517.202 513.195 517.202ZM521.03 518.126C520.47 518.126 519.947 518.051 519.462 517.902C518.977 517.743 518.575 517.524 518.258 517.244L518.65 516.446C518.995 516.717 519.369 516.917 519.77 517.048C520.181 517.179 520.605 517.244 521.044 517.244C521.604 517.244 522.024 517.146 522.304 516.95C522.593 516.745 522.738 516.465 522.738 516.11C522.738 515.839 522.645 515.625 522.458 515.466C522.281 515.298 521.987 515.167 521.576 515.074L520.274 514.808C519.677 514.677 519.229 514.458 518.93 514.15C518.631 513.833 518.482 513.431 518.482 512.946C518.482 512.535 518.589 512.176 518.804 511.868C519.019 511.551 519.331 511.303 519.742 511.126C520.153 510.939 520.633 510.846 521.184 510.846C521.697 510.846 522.169 510.925 522.598 511.084C523.037 511.233 523.401 511.453 523.69 511.742L523.284 512.526C523.004 512.255 522.682 512.055 522.318 511.924C521.963 511.784 521.595 511.714 521.212 511.714C520.661 511.714 520.246 511.826 519.966 512.05C519.695 512.265 519.56 512.549 519.56 512.904C519.56 513.175 519.644 513.399 519.812 513.576C519.989 513.744 520.26 513.87 520.624 513.954L521.926 514.22C522.561 514.36 523.032 514.579 523.34 514.878C523.657 515.167 523.816 515.559 523.816 516.054C523.816 516.474 523.699 516.843 523.466 517.16C523.233 517.468 522.906 517.706 522.486 517.874C522.075 518.042 521.59 518.126 521.03 518.126ZM528.759 518.126C527.658 518.126 526.79 517.809 526.155 517.174C525.521 516.53 525.203 515.639 525.203 514.5C525.203 513.763 525.343 513.123 525.623 512.582C525.903 512.031 526.295 511.607 526.799 511.308C527.303 511 527.882 510.846 528.535 510.846C529.179 510.846 529.721 510.981 530.159 511.252C530.598 511.523 530.934 511.91 531.167 512.414C531.401 512.909 531.517 513.497 531.517 514.178V514.598H526.071V513.884H530.775L530.537 514.066C530.537 513.319 530.369 512.736 530.033 512.316C529.697 511.896 529.198 511.686 528.535 511.686C527.835 511.686 527.289 511.933 526.897 512.428C526.505 512.913 526.309 513.571 526.309 514.402V514.528C526.309 515.405 526.524 516.073 526.953 516.53C527.392 516.978 528.003 517.202 528.787 517.202C529.207 517.202 529.599 517.141 529.963 517.02C530.337 516.889 530.691 516.679 531.027 516.39L531.419 517.188C531.111 517.487 530.719 517.72 530.243 517.888C529.777 518.047 529.282 518.126 528.759 518.126ZM533.252 518V512.596C533.252 512.335 533.238 512.069 533.21 511.798C533.192 511.518 533.168 511.243 533.14 510.972H534.232L534.372 512.512H534.204C534.41 511.971 534.736 511.56 535.184 511.28C535.642 510.991 536.169 510.846 536.766 510.846C537.597 510.846 538.222 511.07 538.642 511.518C539.072 511.957 539.286 512.652 539.286 513.604V518H538.152V513.674C538.152 513.011 538.017 512.531 537.746 512.232C537.485 511.924 537.074 511.77 536.514 511.77C535.861 511.77 535.343 511.971 534.96 512.372C534.578 512.773 534.386 513.31 534.386 513.982V518H533.252ZM534.358 509.74L533.714 509.698C533.761 509.101 533.92 508.643 534.19 508.326C534.461 507.999 534.802 507.836 535.212 507.836C535.418 507.836 535.604 507.883 535.772 507.976C535.95 508.069 536.15 508.214 536.374 508.41C536.58 508.597 536.743 508.727 536.864 508.802C536.995 508.867 537.121 508.9 537.242 508.9C537.718 508.9 538.008 508.531 538.11 507.794L538.754 507.836C538.708 508.433 538.549 508.895 538.278 509.222C538.017 509.539 537.681 509.698 537.27 509.698C537.074 509.698 536.888 509.651 536.71 509.558C536.533 509.465 536.328 509.315 536.094 509.11C535.898 508.933 535.735 508.811 535.604 508.746C535.483 508.671 535.357 508.634 535.226 508.634C534.984 508.634 534.788 508.732 534.638 508.928C534.498 509.115 534.405 509.385 534.358 509.74ZM544.13 518.126C543.504 518.126 542.958 517.981 542.492 517.692C542.025 517.393 541.661 516.973 541.4 516.432C541.148 515.891 541.022 515.242 541.022 514.486C541.022 513.721 541.148 513.067 541.4 512.526C541.661 511.985 542.025 511.569 542.492 511.28C542.958 510.991 543.504 510.846 544.13 510.846C544.764 510.846 545.31 511.009 545.768 511.336C546.234 511.653 546.542 512.087 546.692 512.638H546.524L546.678 510.972H547.77C547.742 511.243 547.714 511.518 547.686 511.798C547.667 512.069 547.658 512.335 547.658 512.596V518H546.524V516.348H546.678C546.528 516.899 546.22 517.333 545.754 517.65C545.287 517.967 544.746 518.126 544.13 518.126ZM544.354 517.202C545.026 517.202 545.558 516.973 545.95 516.516C546.342 516.049 546.538 515.373 546.538 514.486C546.538 513.59 546.342 512.913 545.95 512.456C545.558 511.989 545.026 511.756 544.354 511.756C543.691 511.756 543.159 511.989 542.758 512.456C542.366 512.913 542.17 513.59 542.17 514.486C542.17 515.373 542.366 516.049 542.758 516.516C543.159 516.973 543.691 517.202 544.354 517.202Z" fill="black"/>
<path opacity="0.5" d="M479.53 611.126C478.541 611.126 477.701 610.921 477.01 610.51C476.319 610.099 475.787 609.516 475.414 608.76C475.05 608.004 474.868 607.103 474.868 606.058C474.868 605.013 475.05 604.117 475.414 603.37C475.787 602.614 476.319 602.031 477.01 601.62C477.701 601.209 478.541 601.004 479.53 601.004C480.23 601.004 480.855 601.111 481.406 601.326C481.957 601.541 482.437 601.853 482.848 602.264L482.414 603.188C481.966 602.796 481.523 602.511 481.084 602.334C480.645 602.147 480.132 602.054 479.544 602.054C478.415 602.054 477.556 602.404 476.968 603.104C476.38 603.804 476.086 604.789 476.086 606.058C476.086 607.327 476.38 608.317 476.968 609.026C477.556 609.726 478.415 610.076 479.544 610.076C480.132 610.076 480.645 609.987 481.084 609.81C481.523 609.623 481.966 609.329 482.414 608.928L482.848 609.866C482.437 610.267 481.957 610.58 481.406 610.804C480.855 611.019 480.23 611.126 479.53 611.126ZM487.068 611.126C486.396 611.126 485.808 610.981 485.304 610.692C484.809 610.393 484.427 609.973 484.156 609.432C483.885 608.881 483.75 608.233 483.75 607.486C483.75 606.73 483.885 606.081 484.156 605.54C484.427 604.999 484.809 604.583 485.304 604.294C485.808 603.995 486.396 603.846 487.068 603.846C487.749 603.846 488.337 603.995 488.832 604.294C489.336 604.583 489.723 604.999 489.994 605.54C490.274 606.081 490.414 606.73 490.414 607.486C490.414 608.233 490.274 608.881 489.994 609.432C489.723 609.973 489.336 610.393 488.832 610.692C488.337 610.981 487.749 611.126 487.068 611.126ZM487.068 610.202C487.74 610.202 488.272 609.973 488.664 609.516C489.056 609.049 489.252 608.373 489.252 607.486C489.252 606.59 489.051 605.913 488.65 605.456C488.258 604.989 487.731 604.756 487.068 604.756C486.405 604.756 485.878 604.989 485.486 605.456C485.094 605.913 484.898 606.59 484.898 607.486C484.898 608.373 485.094 609.049 485.486 609.516C485.878 609.973 486.405 610.202 487.068 610.202ZM492.182 611V605.596C492.182 605.335 492.168 605.069 492.14 604.798C492.122 604.518 492.098 604.243 492.07 603.972H493.162L493.302 605.512H493.134C493.34 604.971 493.666 604.56 494.114 604.28C494.572 603.991 495.099 603.846 495.696 603.846C496.527 603.846 497.152 604.07 497.572 604.518C498.002 604.957 498.216 605.652 498.216 606.604V611H497.082V606.674C497.082 606.011 496.947 605.531 496.676 605.232C496.415 604.924 496.004 604.77 495.444 604.77C494.791 604.77 494.273 604.971 493.89 605.372C493.508 605.773 493.316 606.31 493.316 606.982V611H492.182ZM500.749 611V604.854H499.377V603.972H501.057L500.749 604.266V603.09C500.749 602.297 500.945 601.69 501.337 601.27C501.739 600.85 502.308 600.64 503.045 600.64C503.223 600.64 503.409 600.659 503.605 600.696C503.811 600.724 503.983 600.766 504.123 600.822V601.76C504.011 601.713 503.871 601.676 503.703 601.648C503.545 601.611 503.381 601.592 503.213 601.592C502.775 601.592 502.443 601.723 502.219 601.984C501.995 602.245 501.883 602.647 501.883 603.188V604.21L501.701 603.972H506.209V611H505.075V604.854H501.883V611H500.749ZM504.949 602.376V601.102H506.349V602.376H504.949ZM508.396 611V605.666C508.396 605.386 508.387 605.101 508.368 604.812C508.359 604.523 508.34 604.243 508.312 603.972H509.404L509.544 605.68L509.348 605.694C509.442 605.274 509.605 604.929 509.838 604.658C510.072 604.387 510.347 604.187 510.664 604.056C510.982 603.916 511.313 603.846 511.658 603.846C511.798 603.846 511.92 603.851 512.022 603.86C512.134 603.869 512.237 603.893 512.33 603.93L512.316 604.938C512.176 604.891 512.046 604.863 511.924 604.854C511.812 604.835 511.682 604.826 511.532 604.826C511.122 604.826 510.762 604.924 510.454 605.12C510.156 605.316 509.927 605.568 509.768 605.876C509.619 606.184 509.544 606.511 509.544 606.856V611H508.396ZM513.51 611V605.596C513.51 605.335 513.496 605.069 513.468 604.798C513.45 604.518 513.426 604.243 513.398 603.972H514.49L514.63 605.512H514.462C514.649 604.98 514.943 604.569 515.344 604.28C515.755 603.991 516.25 603.846 516.828 603.846C517.416 603.846 517.892 603.986 518.256 604.266C518.63 604.546 518.882 604.98 519.012 605.568H518.802C518.98 605.036 519.292 604.616 519.74 604.308C520.188 604 520.711 603.846 521.308 603.846C522.083 603.846 522.666 604.07 523.058 604.518C523.45 604.957 523.646 605.652 523.646 606.604V611H522.512V606.674C522.512 606.011 522.396 605.531 522.162 605.232C521.929 604.924 521.556 604.77 521.042 604.77C520.454 604.77 519.988 604.975 519.642 605.386C519.306 605.787 519.138 606.329 519.138 607.01V611H518.004V606.674C518.004 606.011 517.888 605.531 517.654 605.232C517.421 604.924 517.048 604.77 516.534 604.77C515.946 604.77 515.484 604.975 515.148 605.386C514.812 605.787 514.644 606.329 514.644 607.01V611H513.51ZM528.475 611.126C527.85 611.126 527.304 610.981 526.837 610.692C526.371 610.393 526.007 609.973 525.745 609.432C525.493 608.891 525.367 608.242 525.367 607.486C525.367 606.721 525.493 606.067 525.745 605.526C526.007 604.985 526.371 604.569 526.837 604.28C527.304 603.991 527.85 603.846 528.475 603.846C529.11 603.846 529.656 604.009 530.113 604.336C530.58 604.653 530.888 605.087 531.037 605.638H530.869L531.023 603.972H532.115C532.087 604.243 532.059 604.518 532.031 604.798C532.013 605.069 532.003 605.335 532.003 605.596V611H530.869V609.348H531.023C530.874 609.899 530.566 610.333 530.099 610.65C529.633 610.967 529.091 611.126 528.475 611.126ZM528.699 610.202C529.371 610.202 529.903 609.973 530.295 609.516C530.687 609.049 530.883 608.373 530.883 607.486C530.883 606.59 530.687 605.913 530.295 605.456C529.903 604.989 529.371 604.756 528.699 604.756C528.037 604.756 527.505 604.989 527.103 605.456C526.711 605.913 526.515 606.59 526.515 607.486C526.515 608.373 526.711 609.049 527.103 609.516C527.505 609.973 528.037 610.202 528.699 610.202ZM534.168 611V605.666C534.168 605.386 534.159 605.101 534.14 604.812C534.131 604.523 534.112 604.243 534.084 603.972H535.176L535.316 605.68L535.12 605.694C535.213 605.274 535.377 604.929 535.61 604.658C535.843 604.387 536.119 604.187 536.436 604.056C536.753 603.916 537.085 603.846 537.43 603.846C537.57 603.846 537.691 603.851 537.794 603.86C537.906 603.869 538.009 603.893 538.102 603.93L538.088 604.938C537.948 604.891 537.817 604.863 537.696 604.854C537.584 604.835 537.453 604.826 537.304 604.826C536.893 604.826 536.534 604.924 536.226 605.12C535.927 605.316 535.699 605.568 535.54 605.876C535.391 606.184 535.316 606.511 535.316 606.856V611H534.168ZM545.886 611.126C545.196 611.126 544.594 610.977 544.08 610.678C543.576 610.379 543.184 609.955 542.904 609.404C542.634 608.853 542.498 608.2 542.498 607.444C542.498 606.679 542.638 606.03 542.918 605.498C543.198 604.957 543.59 604.546 544.094 604.266C544.608 603.986 545.205 603.846 545.886 603.846C546.334 603.846 546.768 603.925 547.188 604.084C547.618 604.243 547.972 604.467 548.252 604.756L547.846 605.568C547.566 605.297 547.258 605.097 546.922 604.966C546.596 604.835 546.274 604.77 545.956 604.77C545.228 604.77 544.664 604.999 544.262 605.456C543.861 605.913 543.66 606.581 543.66 607.458C543.66 608.326 543.861 608.998 544.262 609.474C544.664 609.95 545.228 610.188 545.956 610.188C546.264 610.188 546.582 610.127 546.908 610.006C547.244 609.885 547.557 609.684 547.846 609.404L548.252 610.202C547.963 610.501 547.604 610.729 547.174 610.888C546.745 611.047 546.316 611.126 545.886 611.126ZM552.611 611.126C551.939 611.126 551.351 610.981 550.847 610.692C550.352 610.393 549.97 609.973 549.699 609.432C549.428 608.881 549.293 608.233 549.293 607.486C549.293 606.73 549.428 606.081 549.699 605.54C549.97 604.999 550.352 604.583 550.847 604.294C551.351 603.995 551.939 603.846 552.611 603.846C553.292 603.846 553.88 603.995 554.375 604.294C554.879 604.583 555.266 604.999 555.537 605.54C555.817 606.081 555.957 606.73 555.957 607.486C555.957 608.233 555.817 608.881 555.537 609.432C555.266 609.973 554.879 610.393 554.375 610.692C553.88 610.981 553.292 611.126 552.611 611.126ZM552.611 610.202C553.283 610.202 553.815 609.973 554.207 609.516C554.599 609.049 554.795 608.373 554.795 607.486C554.795 606.59 554.594 605.913 554.193 605.456C553.801 604.989 553.274 604.756 552.611 604.756C551.948 604.756 551.421 604.989 551.029 605.456C550.637 605.913 550.441 606.59 550.441 607.486C550.441 608.373 550.637 609.049 551.029 609.516C551.421 609.973 551.948 610.202 552.611 610.202ZM557.725 611V605.596C557.725 605.335 557.711 605.069 557.683 604.798C557.664 604.518 557.641 604.243 557.613 603.972H558.705L558.845 605.512H558.677C558.882 604.971 559.209 604.56 559.657 604.28C560.114 603.991 560.642 603.846 561.239 603.846C562.07 603.846 562.695 604.07 563.115 604.518C563.544 604.957 563.759 605.652 563.759 606.604V611H562.625V606.674C562.625 606.011 562.49 605.531 562.219 605.232C561.958 604.924 561.547 604.77 560.987 604.77C560.334 604.77 559.816 604.971 559.433 605.372C559.05 605.773 558.859 606.31 558.859 606.982V611H557.725ZM568.42 611.126C567.73 611.126 567.202 610.93 566.838 610.538C566.474 610.137 566.292 609.535 566.292 608.732V604.854H564.92V603.972H566.292V602.054L567.426 601.732V603.972H569.442V604.854H567.426V608.606C567.426 609.166 567.52 609.567 567.706 609.81C567.902 610.043 568.192 610.16 568.574 610.16C568.752 610.16 568.91 610.146 569.05 610.118C569.19 610.081 569.316 610.039 569.428 609.992V610.944C569.298 611 569.139 611.042 568.952 611.07C568.775 611.107 568.598 611.126 568.42 611.126ZM570.795 611V605.666C570.795 605.386 570.785 605.101 570.767 604.812C570.757 604.523 570.739 604.243 570.711 603.972H571.803L571.943 605.68L571.747 605.694C571.84 605.274 572.003 604.929 572.237 604.658C572.47 604.387 572.745 604.187 573.063 604.056C573.38 603.916 573.711 603.846 574.057 603.846C574.197 603.846 574.318 603.851 574.421 603.86C574.533 603.869 574.635 603.893 574.729 603.93L574.715 604.938C574.575 604.891 574.444 604.863 574.323 604.854C574.211 604.835 574.08 604.826 573.931 604.826C573.52 604.826 573.161 604.924 572.853 605.12C572.554 605.316 572.325 605.568 572.167 605.876C572.017 606.184 571.943 606.511 571.943 606.856V611H570.795ZM578.514 611.126C577.889 611.126 577.343 610.981 576.876 610.692C576.41 610.393 576.046 609.973 575.784 609.432C575.532 608.891 575.406 608.242 575.406 607.486C575.406 606.721 575.532 606.067 575.784 605.526C576.046 604.985 576.41 604.569 576.876 604.28C577.343 603.991 577.889 603.846 578.514 603.846C579.149 603.846 579.695 604.009 580.152 604.336C580.619 604.653 580.927 605.087 581.076 605.638H580.908L581.062 603.972H582.154C582.126 604.243 582.098 604.518 582.07 604.798C582.052 605.069 582.042 605.335 582.042 605.596V611H580.908V609.348H581.062C580.913 609.899 580.605 610.333 580.138 610.65C579.672 610.967 579.13 611.126 578.514 611.126ZM578.738 610.202C579.41 610.202 579.942 609.973 580.334 609.516C580.726 609.049 580.922 608.373 580.922 607.486C580.922 606.59 580.726 605.913 580.334 605.456C579.942 604.989 579.41 604.756 578.738 604.756C578.076 604.756 577.544 604.989 577.142 605.456C576.75 605.913 576.554 606.59 576.554 607.486C576.554 608.373 576.75 609.049 577.142 609.516C577.544 609.973 578.076 610.202 578.738 610.202ZM586.573 611.126C586.013 611.126 585.49 611.051 585.005 610.902C584.52 610.743 584.118 610.524 583.801 610.244L584.193 609.446C584.538 609.717 584.912 609.917 585.313 610.048C585.724 610.179 586.148 610.244 586.587 610.244C587.147 610.244 587.567 610.146 587.847 609.95C588.136 609.745 588.281 609.465 588.281 609.11C588.281 608.839 588.188 608.625 588.001 608.466C587.824 608.298 587.53 608.167 587.119 608.074L585.817 607.808C585.22 607.677 584.772 607.458 584.473 607.15C584.174 606.833 584.025 606.431 584.025 605.946C584.025 605.535 584.132 605.176 584.347 604.868C584.562 604.551 584.874 604.303 585.285 604.126C585.696 603.939 586.176 603.846 586.727 603.846C587.24 603.846 587.712 603.925 588.141 604.084C588.58 604.233 588.944 604.453 589.233 604.742L588.827 605.526C588.547 605.255 588.225 605.055 587.861 604.924C587.506 604.784 587.138 604.714 586.755 604.714C586.204 604.714 585.789 604.826 585.509 605.05C585.238 605.265 585.103 605.549 585.103 605.904C585.103 606.175 585.187 606.399 585.355 606.576C585.532 606.744 585.803 606.87 586.167 606.954L587.469 607.22C588.104 607.36 588.575 607.579 588.883 607.878C589.2 608.167 589.359 608.559 589.359 609.054C589.359 609.474 589.242 609.843 589.009 610.16C588.776 610.468 588.449 610.706 588.029 610.874C587.618 611.042 587.133 611.126 586.573 611.126ZM594.302 611.126C593.201 611.126 592.333 610.809 591.698 610.174C591.064 609.53 590.746 608.639 590.746 607.5C590.746 606.763 590.886 606.123 591.166 605.582C591.446 605.031 591.838 604.607 592.342 604.308C592.846 604 593.425 603.846 594.078 603.846C594.722 603.846 595.264 603.981 595.702 604.252C596.141 604.523 596.477 604.91 596.71 605.414C596.944 605.909 597.06 606.497 597.06 607.178V607.598H591.614V606.884H596.318L596.08 607.066C596.08 606.319 595.912 605.736 595.576 605.316C595.24 604.896 594.741 604.686 594.078 604.686C593.378 604.686 592.832 604.933 592.44 605.428C592.048 605.913 591.852 606.571 591.852 607.402V607.528C591.852 608.405 592.067 609.073 592.496 609.53C592.935 609.978 593.546 610.202 594.33 610.202C594.75 610.202 595.142 610.141 595.506 610.02C595.88 609.889 596.234 609.679 596.57 609.39L596.962 610.188C596.654 610.487 596.262 610.72 595.786 610.888C595.32 611.047 594.825 611.126 594.302 611.126ZM598.795 611V605.596C598.795 605.335 598.781 605.069 598.753 604.798C598.735 604.518 598.711 604.243 598.683 603.972H599.775L599.915 605.512H599.747C599.953 604.971 600.279 604.56 600.727 604.28C601.185 603.991 601.712 603.846 602.309 603.846C603.14 603.846 603.765 604.07 604.185 604.518C604.615 604.957 604.829 605.652 604.829 606.604V611H603.695V606.674C603.695 606.011 603.56 605.531 603.289 605.232C603.028 604.924 602.617 604.77 602.057 604.77C601.404 604.77 600.886 604.971 600.503 605.372C600.121 605.773 599.929 606.31 599.929 606.982V611H598.795ZM599.901 602.74L599.257 602.698C599.304 602.101 599.463 601.643 599.733 601.326C600.004 600.999 600.345 600.836 600.755 600.836C600.961 600.836 601.147 600.883 601.315 600.976C601.493 601.069 601.693 601.214 601.917 601.41C602.123 601.597 602.286 601.727 602.407 601.802C602.538 601.867 602.664 601.9 602.785 601.9C603.261 601.9 603.551 601.531 603.653 600.794L604.297 600.836C604.251 601.433 604.092 601.895 603.821 602.222C603.56 602.539 603.224 602.698 602.813 602.698C602.617 602.698 602.431 602.651 602.253 602.558C602.076 602.465 601.871 602.315 601.637 602.11C601.441 601.933 601.278 601.811 601.147 601.746C601.026 601.671 600.9 601.634 600.769 601.634C600.527 601.634 600.331 601.732 600.181 601.928C600.041 602.115 599.948 602.385 599.901 602.74ZM609.673 611.126C609.047 611.126 608.501 610.981 608.035 610.692C607.568 610.393 607.204 609.973 606.943 609.432C606.691 608.891 606.565 608.242 606.565 607.486C606.565 606.721 606.691 606.067 606.943 605.526C607.204 604.985 607.568 604.569 608.035 604.28C608.501 603.991 609.047 603.846 609.673 603.846C610.307 603.846 610.853 604.009 611.311 604.336C611.777 604.653 612.085 605.087 612.235 605.638H612.067L612.221 603.972H613.313C613.285 604.243 613.257 604.518 613.229 604.798C613.21 605.069 613.201 605.335 613.201 605.596V611H612.067V609.348H612.221C612.071 609.899 611.763 610.333 611.297 610.65C610.83 610.967 610.289 611.126 609.673 611.126ZM609.897 610.202C610.569 610.202 611.101 609.973 611.493 609.516C611.885 609.049 612.081 608.373 612.081 607.486C612.081 606.59 611.885 605.913 611.493 605.456C611.101 604.989 610.569 604.756 609.897 604.756C609.234 604.756 608.702 604.989 608.301 605.456C607.909 605.913 607.713 606.59 607.713 607.486C607.713 608.373 607.909 609.049 608.301 609.516C608.702 609.973 609.234 610.202 609.897 610.202Z" fill="black"/>
<defs>
<filter id="filter0_d_249_889" x="508" y="707" width="423.137" height="104.336" filterUnits="userSpaceOnUse" color-interpolation-filters="sRGB">
<feFlood flood-opacity="0" result="BackgroundImageFix"/>
<feColorMatrix in="SourceAlpha" type="matrix" values="0 0 0 0 0 0 0 0 0 0 0 0 0 0 0 0 0 0 127 0" result="hardAlpha"/>
<feOffset dy="4"/>
<feGaussianBlur stdDeviation="2"/>
<feComposite in2="hardAlpha" operator="out"/>
<feColorMatrix type="matrix" values="0 0 0 0 0 0 0 0 0 0 0 0 0 0 0 0 0 0 0.25 0"/>
<feBlend mode="normal" in2="BackgroundImageFix" result="effect1_dropShadow_249_889"/>
<feBlend mode="normal" in="SourceGraphic" in2="effect1_dropShadow_249_889" result="shape"/>
</filter>
</defs>
</svg>
