<svg width="1280" height="800" viewBox="0 0 1280 800" fill="none" xmlns="http://www.w3.org/2000/svg">
<rect width="1280" height="800" fill="white"/>
<path d="M554.474 523.376C553.887 523.376 553.365 523.275 552.906 523.072C552.458 522.88 552.106 522.597 551.85 522.224C551.605 521.851 551.482 521.419 551.482 520.928C551.482 520.576 551.53 520.251 551.626 519.952C551.722 519.653 551.882 519.344 552.106 519.024C552.33 518.693 552.629 518.325 553.002 517.92C553.525 517.344 553.893 516.848 554.106 516.432C554.33 516.005 554.469 515.563 554.522 515.104L554.554 514.752H555.21V515.12C555.21 515.675 555.103 516.203 554.89 516.704C554.677 517.205 554.282 517.771 553.706 518.4C553.258 518.901 552.943 519.339 552.762 519.712C552.581 520.085 552.49 520.475 552.49 520.88C552.49 521.381 552.671 521.776 553.034 522.064C553.397 522.352 553.893 522.496 554.522 522.496C554.938 522.496 555.333 522.443 555.706 522.336C556.09 522.229 556.447 522.085 556.778 521.904V522.864C556.447 523.024 556.079 523.147 555.674 523.232C555.279 523.328 554.879 523.376 554.474 523.376ZM555.562 512V513.36H554.202V512H555.562ZM558.353 514.352C558.353 513.157 558.55 512.133 558.945 511.28C559.35 510.416 559.931 509.755 560.689 509.296C561.446 508.827 562.358 508.592 563.425 508.592C564.47 508.592 565.371 508.827 566.128 509.296C566.897 509.755 567.483 510.416 567.889 511.28C568.305 512.133 568.513 513.152 568.513 514.336C568.513 515.531 568.305 516.56 567.889 517.424C567.473 518.288 566.881 518.955 566.113 519.424C565.355 519.893 564.459 520.128 563.425 520.128C562.369 520.128 561.462 519.893 560.705 519.424C559.947 518.955 559.366 518.288 558.961 517.424C558.555 516.56 558.353 515.536 558.353 514.352ZM559.409 514.352C559.409 515.888 559.75 517.088 560.433 517.952C561.115 518.805 562.113 519.232 563.425 519.232C564.694 519.232 565.686 518.805 566.401 517.952C567.115 517.088 567.473 515.888 567.473 514.352C567.473 512.805 567.115 511.611 566.401 510.768C565.697 509.915 564.705 509.488 563.425 509.488C562.113 509.488 561.115 509.915 560.433 510.768C559.75 511.611 559.409 512.805 559.409 514.352ZM570.875 520V508.224H571.851V520H570.875ZM576.884 520L573.476 511.984H574.564L577.604 519.392H577.188L580.26 511.984H581.3L577.891 520H576.884ZM582.922 520V511.984H583.898V520H582.922ZM582.762 510.016V508.8H584.074V510.016H582.762ZM589.586 520.128C588.872 520.128 588.248 519.963 587.714 519.632C587.181 519.301 586.77 518.827 586.482 518.208C586.194 517.589 586.05 516.848 586.05 515.984C586.05 515.12 586.194 514.384 586.482 513.776C586.77 513.157 587.181 512.683 587.714 512.352C588.248 512.011 588.872 511.84 589.586 511.84C590.322 511.84 590.957 512.032 591.49 512.416C592.034 512.789 592.397 513.307 592.578 513.968H592.386V508.224H593.362V520H592.402V517.984H592.578C592.397 518.656 592.034 519.184 591.49 519.568C590.957 519.941 590.322 520.128 589.586 520.128ZM589.714 519.296C590.525 519.296 591.176 519.013 591.666 518.448C592.168 517.883 592.418 517.061 592.418 515.984C592.418 514.907 592.168 514.085 591.666 513.52C591.176 512.955 590.525 512.672 589.714 512.672C588.904 512.672 588.253 512.955 587.762 513.52C587.282 514.085 587.042 514.907 587.042 515.984C587.042 517.061 587.282 517.883 587.762 518.448C588.253 519.013 588.904 519.296 589.714 519.296ZM599.056 520.128C598.33 520.128 597.701 519.963 597.168 519.632C596.634 519.301 596.224 518.827 595.936 518.208C595.648 517.589 595.504 516.848 595.504 515.984C595.504 515.12 595.648 514.384 595.936 513.776C596.234 513.157 596.65 512.683 597.184 512.352C597.717 512.011 598.341 511.84 599.056 511.84C599.792 511.84 600.426 512.032 600.96 512.416C601.504 512.8 601.861 513.323 602.032 513.984H601.84L602 511.984H602.944C602.912 512.293 602.88 512.597 602.848 512.896C602.826 513.195 602.816 513.488 602.816 513.776V520H601.84V518H602.016C601.845 518.661 601.488 519.184 600.944 519.568C600.41 519.941 599.781 520.128 599.056 520.128ZM599.184 519.296C600.005 519.296 600.656 519.013 601.136 518.448C601.616 517.883 601.856 517.061 601.856 515.984C601.856 514.907 601.616 514.085 601.136 513.52C600.656 512.955 600.005 512.672 599.184 512.672C598.362 512.672 597.706 512.955 597.216 513.52C596.736 514.085 596.496 514.907 596.496 515.984C596.496 517.061 596.736 517.883 597.216 518.448C597.706 519.013 598.362 519.296 599.184 519.296ZM608.061 520.128C607.442 520.128 606.861 520.037 606.317 519.856C605.783 519.675 605.341 519.424 604.989 519.104L605.373 518.384C605.767 518.704 606.194 518.944 606.653 519.104C607.111 519.253 607.591 519.328 608.093 519.328C608.775 519.328 609.293 519.2 609.645 518.944C609.997 518.688 610.173 518.341 610.173 517.904C610.173 517.563 610.061 517.285 609.837 517.072C609.613 516.859 609.239 516.699 608.717 516.592L607.277 516.288C606.594 516.128 606.082 515.872 605.741 515.52C605.41 515.168 605.245 514.725 605.245 514.192C605.245 513.733 605.362 513.328 605.597 512.976C605.842 512.624 606.189 512.347 606.637 512.144C607.085 511.941 607.613 511.84 608.221 511.84C608.797 511.84 609.325 511.936 609.805 512.128C610.295 512.309 610.695 512.571 611.005 512.912L610.589 513.616C610.269 513.296 609.906 513.056 609.501 512.896C609.106 512.736 608.685 512.656 608.237 512.656C607.575 512.656 607.074 512.795 606.733 513.072C606.391 513.339 606.221 513.696 606.221 514.144C606.221 514.485 606.327 514.768 606.541 514.992C606.754 515.205 607.09 515.365 607.549 515.472L608.989 515.792C609.714 515.952 610.253 516.197 610.605 516.528C610.957 516.859 611.133 517.296 611.133 517.84C611.133 518.309 611.005 518.72 610.749 519.072C610.493 519.413 610.135 519.675 609.677 519.856C609.218 520.037 608.679 520.128 608.061 520.128ZM615.889 520.128C615.174 520.128 614.625 519.915 614.241 519.488C613.867 519.061 613.681 518.405 613.681 517.52V512.768H612.081V511.984H613.681V509.744L614.657 509.424V511.984H617.025V512.768H614.657V517.376C614.657 518.048 614.763 518.533 614.977 518.832C615.19 519.131 615.531 519.28 616.001 519.28C616.214 519.28 616.401 519.259 616.561 519.216C616.731 519.173 616.875 519.125 616.993 519.072V519.936C616.865 519.989 616.699 520.032 616.497 520.064C616.294 520.107 616.091 520.128 615.889 520.128ZM622.049 520.128C620.833 520.128 619.868 519.765 619.153 519.04C618.449 518.315 618.097 517.307 618.097 516.016C618.097 515.163 618.252 514.427 618.561 513.808C618.881 513.189 619.324 512.709 619.889 512.368C620.455 512.016 621.111 511.84 621.857 511.84C622.572 511.84 623.175 511.995 623.665 512.304C624.156 512.603 624.535 513.035 624.801 513.6C625.068 514.155 625.201 514.816 625.201 515.584V516.032H618.801V515.328H624.593L624.321 515.536C624.321 514.629 624.113 513.92 623.697 513.408C623.281 512.885 622.663 512.624 621.841 512.624C620.967 512.624 620.284 512.928 619.793 513.536C619.303 514.133 619.057 514.928 619.057 515.92V516.032C619.057 517.099 619.319 517.909 619.841 518.464C620.375 519.019 621.116 519.296 622.065 519.296C622.556 519.296 623.015 519.221 623.441 519.072C623.868 518.923 624.279 518.667 624.673 518.304L625.073 519.024C624.732 519.376 624.289 519.648 623.745 519.84C623.201 520.032 622.636 520.128 622.049 520.128ZM633.967 520.128C633.252 520.128 632.703 519.915 632.319 519.488C631.946 519.061 631.759 518.405 631.759 517.52V512.768H630.159V511.984H631.759V509.744L632.735 509.424V511.984H635.103V512.768H632.735V517.376C632.735 518.048 632.842 518.533 633.055 518.832C633.268 519.131 633.61 519.28 634.079 519.28C634.292 519.28 634.479 519.259 634.639 519.216C634.81 519.173 634.954 519.125 635.071 519.072V519.936C634.943 519.989 634.778 520.032 634.575 520.064C634.372 520.107 634.17 520.128 633.967 520.128ZM639.582 520.128C638.643 520.128 637.928 519.877 637.438 519.376C636.958 518.864 636.718 518.08 636.718 517.024V511.984H637.694V516.96C637.694 517.771 637.859 518.363 638.19 518.736C638.52 519.109 639.027 519.296 639.71 519.296C640.467 519.296 641.075 519.051 641.534 518.56C642.003 518.059 642.238 517.397 642.238 516.576V511.984H643.214V520H642.254V518.112H642.462C642.238 518.763 641.87 519.264 641.358 519.616C640.856 519.957 640.264 520.128 639.582 520.128ZM653.185 520.128C652.428 520.128 651.766 519.963 651.201 519.632C650.636 519.291 650.198 518.805 649.889 518.176C649.59 517.547 649.441 516.8 649.441 515.936C649.441 515.072 649.596 514.336 649.905 513.728C650.214 513.109 650.646 512.64 651.201 512.32C651.766 512 652.428 511.84 653.185 511.84C653.697 511.84 654.188 511.936 654.657 512.128C655.137 512.32 655.532 512.587 655.841 512.928L655.441 513.648C655.11 513.317 654.753 513.077 654.369 512.928C653.985 512.768 653.601 512.688 653.217 512.688C652.342 512.688 651.66 512.965 651.169 513.52C650.678 514.075 650.433 514.885 650.433 515.952C650.433 517.019 650.678 517.845 651.169 518.432C651.66 519.008 652.342 519.296 653.217 519.296C653.58 519.296 653.953 519.221 654.337 519.072C654.732 518.923 655.1 518.677 655.441 518.336L655.841 519.056C655.521 519.397 655.116 519.664 654.625 519.856C654.145 520.037 653.665 520.128 653.185 520.128ZM660.824 520.128C660.067 520.128 659.411 519.963 658.856 519.632C658.312 519.301 657.891 518.827 657.592 518.208C657.293 517.589 657.144 516.848 657.144 515.984C657.144 515.131 657.293 514.395 657.592 513.776C657.891 513.157 658.312 512.683 658.856 512.352C659.411 512.011 660.067 511.84 660.824 511.84C661.571 511.84 662.216 512.011 662.76 512.352C663.315 512.683 663.741 513.157 664.04 513.776C664.349 514.395 664.504 515.131 664.504 515.984C664.504 516.848 664.349 517.589 664.04 518.208C663.741 518.827 663.315 519.301 662.76 519.632C662.216 519.963 661.571 520.128 660.824 520.128ZM660.824 519.296C661.635 519.296 662.285 519.013 662.776 518.448C663.267 517.883 663.512 517.061 663.512 515.984C663.512 514.907 663.267 514.085 662.776 513.52C662.285 512.955 661.635 512.672 660.824 512.672C660.003 512.672 659.347 512.955 658.856 513.52C658.376 514.085 658.136 514.907 658.136 515.984C658.136 517.061 658.376 517.883 658.856 518.448C659.347 519.013 660.003 519.296 660.824 519.296ZM666.641 520V513.776C666.641 513.488 666.63 513.195 666.609 512.896C666.587 512.597 666.555 512.293 666.513 511.984H667.473L667.617 513.824H667.424C667.659 513.184 668.038 512.693 668.561 512.352C669.083 512.011 669.691 511.84 670.385 511.84C671.334 511.84 672.049 512.091 672.529 512.592C673.019 513.093 673.265 513.877 673.265 514.944V520H672.289V515.024C672.289 514.203 672.123 513.611 671.793 513.248C671.462 512.875 670.95 512.688 670.257 512.688C669.446 512.688 668.801 512.933 668.321 513.424C667.851 513.915 667.617 514.576 667.617 515.408V520H666.641ZM678.483 520.128C677.768 520.128 677.219 519.915 676.835 519.488C676.461 519.061 676.275 518.405 676.275 517.52V512.768H674.675V511.984H676.275V509.744L677.251 509.424V511.984H679.619V512.768H677.251V517.376C677.251 518.048 677.357 518.533 677.571 518.832C677.784 519.131 678.125 519.28 678.595 519.28C678.808 519.28 678.995 519.259 679.155 519.216C679.325 519.173 679.469 519.125 679.587 519.072V519.936C679.459 519.989 679.293 520.032 679.091 520.064C678.888 520.107 678.685 520.128 678.483 520.128ZM681.265 520V513.856C681.265 513.547 681.254 513.237 681.233 512.928C681.222 512.608 681.196 512.293 681.153 511.984H682.113L682.241 513.824L682.049 513.84C682.156 513.392 682.348 513.024 682.625 512.736C682.902 512.437 683.222 512.213 683.585 512.064C683.948 511.915 684.321 511.84 684.705 511.84C684.844 511.84 684.972 511.851 685.089 511.872C685.217 511.883 685.334 511.904 685.441 511.936L685.409 512.816C685.281 512.773 685.153 512.747 685.025 512.736C684.897 512.725 684.758 512.72 684.609 512.72C684.129 512.72 683.708 512.837 683.345 513.072C682.993 513.307 682.721 513.605 682.529 513.968C682.337 514.331 682.241 514.699 682.241 515.072V520H681.265ZM689.821 520.128C689.096 520.128 688.466 519.963 687.933 519.632C687.4 519.301 686.989 518.827 686.701 518.208C686.413 517.589 686.269 516.848 686.269 515.984C686.269 515.12 686.413 514.384 686.701 513.776C687 513.157 687.416 512.683 687.949 512.352C688.482 512.011 689.106 511.84 689.821 511.84C690.557 511.84 691.192 512.032 691.725 512.416C692.269 512.8 692.626 513.323 692.797 513.984H692.605L692.765 511.984H693.709C693.677 512.293 693.645 512.597 693.613 512.896C693.592 513.195 693.581 513.488 693.581 513.776V520H692.605V518H692.781C692.61 518.661 692.253 519.184 691.709 519.568C691.176 519.941 690.546 520.128 689.821 520.128ZM689.949 519.296C690.77 519.296 691.421 519.013 691.901 518.448C692.381 517.883 692.621 517.061 692.621 515.984C692.621 514.907 692.381 514.085 691.901 513.52C691.421 512.955 690.77 512.672 689.949 512.672C689.128 512.672 688.472 512.955 687.981 513.52C687.501 514.085 687.261 514.907 687.261 515.984C687.261 517.061 687.501 517.883 687.981 518.448C688.472 519.013 689.128 519.296 689.949 519.296ZM698.826 520.128C698.208 520.128 697.626 520.037 697.082 519.856C696.549 519.675 696.106 519.424 695.754 519.104L696.138 518.384C696.533 518.704 696.96 518.944 697.418 519.104C697.877 519.253 698.357 519.328 698.858 519.328C699.541 519.328 700.058 519.2 700.41 518.944C700.762 518.688 700.938 518.341 700.938 517.904C700.938 517.563 700.826 517.285 700.602 517.072C700.378 516.859 700.005 516.699 699.482 516.592L698.042 516.288C697.36 516.128 696.848 515.872 696.506 515.52C696.176 515.168 696.01 514.725 696.01 514.192C696.01 513.733 696.128 513.328 696.362 512.976C696.608 512.624 696.954 512.347 697.402 512.144C697.85 511.941 698.378 511.84 698.986 511.84C699.562 511.84 700.09 511.936 700.57 512.128C701.061 512.309 701.461 512.571 701.77 512.912L701.354 513.616C701.034 513.296 700.672 513.056 700.266 512.896C699.872 512.736 699.45 512.656 699.002 512.656C698.341 512.656 697.84 512.795 697.498 513.072C697.157 513.339 696.986 513.696 696.986 514.144C696.986 514.485 697.093 514.768 697.306 514.992C697.52 515.205 697.856 515.365 698.314 515.472L699.754 515.792C700.48 515.952 701.018 516.197 701.37 516.528C701.722 516.859 701.898 517.296 701.898 517.84C701.898 518.309 701.77 518.72 701.514 519.072C701.258 519.413 700.901 519.675 700.442 519.856C699.984 520.037 699.445 520.128 698.826 520.128ZM707.581 520.128C706.365 520.128 705.399 519.765 704.685 519.04C703.981 518.315 703.629 517.307 703.629 516.016C703.629 515.163 703.783 514.427 704.093 513.808C704.413 513.189 704.855 512.709 705.421 512.368C705.986 512.016 706.642 511.84 707.389 511.84C708.103 511.84 708.706 511.995 709.197 512.304C709.687 512.603 710.066 513.035 710.333 513.6C710.599 514.155 710.733 514.816 710.733 515.584V516.032H704.333V515.328H710.125L709.853 515.536C709.853 514.629 709.645 513.92 709.229 513.408C708.813 512.885 708.194 512.624 707.373 512.624C706.498 512.624 705.815 512.928 705.325 513.536C704.834 514.133 704.589 514.928 704.589 515.92V516.032C704.589 517.099 704.85 517.909 705.373 518.464C705.906 519.019 706.647 519.296 707.597 519.296C708.087 519.296 708.546 519.221 708.973 519.072C709.399 518.923 709.81 518.667 710.205 518.304L710.605 519.024C710.263 519.376 709.821 519.648 709.277 519.84C708.733 520.032 708.167 520.128 707.581 520.128ZM712.828 520V513.776C712.828 513.488 712.817 513.195 712.796 512.896C712.775 512.597 712.743 512.293 712.7 511.984H713.66L713.804 513.824H713.612C713.847 513.184 714.225 512.693 714.748 512.352C715.271 512.011 715.879 511.84 716.572 511.84C717.521 511.84 718.236 512.091 718.716 512.592C719.207 513.093 719.452 513.877 719.452 514.944V520H718.476V515.024C718.476 514.203 718.311 513.611 717.98 513.248C717.649 512.875 717.137 512.688 716.444 512.688C715.633 512.688 714.988 512.933 714.508 513.424C714.039 513.915 713.804 514.576 713.804 515.408V520H712.828ZM713.948 510.528L713.324 510.48C713.388 509.829 713.559 509.328 713.836 508.976C714.124 508.624 714.497 508.448 714.956 508.448C715.18 508.448 715.388 508.507 715.58 508.624C715.783 508.741 716.012 508.917 716.268 509.152C716.503 509.376 716.689 509.531 716.828 509.616C716.977 509.701 717.121 509.744 717.26 509.744C717.804 509.744 718.14 509.296 718.268 508.4L718.892 508.448C718.828 509.099 718.652 509.6 718.364 509.952C718.087 510.304 717.724 510.48 717.276 510.48C717.063 510.48 716.855 510.421 716.652 510.304C716.46 510.187 716.225 510.005 715.948 509.76C715.713 509.547 715.527 509.397 715.388 509.312C715.249 509.227 715.105 509.184 714.956 509.184C714.679 509.184 714.455 509.301 714.284 509.536C714.124 509.771 714.012 510.101 713.948 510.528ZM725.118 520.128C724.393 520.128 723.763 519.963 723.23 519.632C722.697 519.301 722.286 518.827 721.998 518.208C721.71 517.589 721.566 516.848 721.566 515.984C721.566 515.12 721.71 514.384 721.998 513.776C722.297 513.157 722.713 512.683 723.246 512.352C723.779 512.011 724.403 511.84 725.118 511.84C725.854 511.84 726.489 512.032 727.022 512.416C727.566 512.8 727.923 513.323 728.094 513.984H727.902L728.062 511.984H729.006C728.974 512.293 728.942 512.597 728.91 512.896C728.889 513.195 728.878 513.488 728.878 513.776V520H727.902V518H728.078C727.907 518.661 727.55 519.184 727.006 519.568C726.473 519.941 725.843 520.128 725.118 520.128ZM725.246 519.296C726.067 519.296 726.718 519.013 727.198 518.448C727.678 517.883 727.918 517.061 727.918 515.984C727.918 514.907 727.678 514.085 727.198 513.52C726.718 512.955 726.067 512.672 725.246 512.672C724.425 512.672 723.769 512.955 723.278 513.52C722.798 514.085 722.558 514.907 722.558 515.984C722.558 517.061 722.798 517.883 723.278 518.448C723.769 519.013 724.425 519.296 725.246 519.296ZM732.799 517.232V516.848C732.799 516.293 732.906 515.765 733.119 515.264C733.333 514.763 733.722 514.197 734.287 513.568C734.735 513.056 735.05 512.619 735.231 512.256C735.413 511.883 735.503 511.493 735.503 511.088C735.503 510.587 735.322 510.192 734.959 509.904C734.597 509.616 734.101 509.472 733.471 509.472C733.055 509.472 732.661 509.525 732.287 509.632C731.914 509.739 731.557 509.883 731.215 510.064V509.104C731.557 508.944 731.925 508.821 732.319 508.736C732.714 508.64 733.114 508.592 733.519 508.592C734.117 508.592 734.639 508.693 735.087 508.896C735.535 509.088 735.882 509.365 736.127 509.728C736.383 510.091 736.511 510.528 736.511 511.04C736.511 511.381 736.458 511.707 736.351 512.016C736.255 512.325 736.095 512.645 735.871 512.976C735.647 513.296 735.354 513.653 734.991 514.048C734.469 514.624 734.095 515.125 733.871 515.552C733.658 515.968 733.53 516.405 733.487 516.864L733.439 517.232H732.799ZM732.431 520V518.624H733.791V520H732.431Z" fill="#241C1C"/>
<rect x="370" y="206" width="540" height="62" rx="31" fill="#F5F4F2"/>
<g filter="url(#filter0_d_249_857)">
<rect x="544" y="412" width="200" height="60" rx="30" fill="#46B593"/>
<path d="M618.615 449V436.31H627.165V438.128H620.847V441.638H626.751V443.474H620.847V447.164H627.165V449H618.615ZM629.14 449V442.178C629.14 441.806 629.128 441.428 629.104 441.044C629.08 440.66 629.044 440.282 628.996 439.91H631.174L631.354 441.71H631.138C631.426 441.074 631.852 440.588 632.416 440.252C632.98 439.904 633.634 439.73 634.378 439.73C635.446 439.73 636.25 440.03 636.79 440.63C637.33 441.23 637.6 442.166 637.6 443.438V449H635.35V443.546C635.35 442.814 635.206 442.292 634.918 441.98C634.642 441.656 634.222 441.494 633.658 441.494C632.962 441.494 632.41 441.71 632.002 442.142C631.594 442.574 631.39 443.15 631.39 443.87V449H629.14ZM643.874 449.18C642.794 449.18 641.978 448.898 641.426 448.334C640.874 447.77 640.598 446.924 640.598 445.796V441.602H638.852V439.91H640.598V437.588L642.848 437.012V439.91H645.278V441.602H642.848V445.652C642.848 446.276 642.968 446.714 643.208 446.966C643.448 447.218 643.778 447.344 644.198 447.344C644.426 447.344 644.618 447.326 644.774 447.29C644.942 447.254 645.104 447.206 645.26 447.146V448.928C645.056 449.012 644.828 449.072 644.576 449.108C644.336 449.156 644.102 449.18 643.874 449.18ZM646.788 449V442.232C646.788 441.848 646.776 441.458 646.752 441.062C646.74 440.666 646.71 440.282 646.662 439.91H648.84L649.092 442.394H648.732C648.852 441.794 649.05 441.296 649.326 440.9C649.614 440.504 649.962 440.21 650.37 440.018C650.778 439.826 651.222 439.73 651.702 439.73C651.918 439.73 652.092 439.742 652.224 439.766C652.356 439.778 652.488 439.808 652.62 439.856L652.602 441.836C652.374 441.74 652.176 441.68 652.008 441.656C651.852 441.632 651.654 441.62 651.414 441.62C650.898 441.62 650.46 441.728 650.1 441.944C649.752 442.16 649.488 442.46 649.308 442.844C649.14 443.228 649.056 443.666 649.056 444.158V449H646.788ZM657.295 449.18C656.503 449.18 655.807 448.994 655.207 448.622C654.607 448.238 654.139 447.692 653.803 446.984C653.467 446.276 653.299 445.43 653.299 444.446C653.299 443.462 653.467 442.622 653.803 441.926C654.139 441.218 654.607 440.678 655.207 440.306C655.807 439.922 656.503 439.73 657.295 439.73C658.063 439.73 658.735 439.922 659.311 440.306C659.899 440.678 660.289 441.182 660.481 441.818H660.283L660.481 439.91H662.641C662.605 440.282 662.569 440.66 662.533 441.044C662.509 441.428 662.497 441.806 662.497 442.178V449H660.265L660.247 447.128H660.463C660.271 447.752 659.881 448.25 659.293 448.622C658.705 448.994 658.039 449.18 657.295 449.18ZM657.925 447.452C658.633 447.452 659.203 447.206 659.635 446.714C660.067 446.21 660.283 445.454 660.283 444.446C660.283 443.438 660.067 442.688 659.635 442.196C659.203 441.704 658.633 441.458 657.925 441.458C657.217 441.458 656.647 441.704 656.215 442.196C655.783 442.688 655.567 443.438 655.567 444.446C655.567 445.454 655.777 446.21 656.197 446.714C656.629 447.206 657.205 447.452 657.925 447.452ZM664.929 449V442.232C664.929 441.848 664.917 441.458 664.893 441.062C664.881 440.666 664.851 440.282 664.803 439.91H666.981L667.233 442.394H666.873C666.993 441.794 667.191 441.296 667.467 440.9C667.755 440.504 668.103 440.21 668.511 440.018C668.919 439.826 669.363 439.73 669.843 439.73C670.059 439.73 670.233 439.742 670.365 439.766C670.497 439.778 670.629 439.808 670.761 439.856L670.743 441.836C670.515 441.74 670.317 441.68 670.149 441.656C669.993 441.632 669.795 441.62 669.555 441.62C669.039 441.62 668.601 441.728 668.241 441.944C667.893 442.16 667.629 442.46 667.449 442.844C667.281 443.228 667.197 443.666 667.197 444.158V449H664.929Z" fill="#F5F4F2"/>
</g>
<rect x="544" y="565" width="200" height="22" rx="11" fill="#C8C4B7" fill-opacity="0.72"/>
<path d="M587.207 583.926C586.675 583.926 586.203 583.837 585.793 583.66C585.391 583.483 585.074 583.226 584.841 582.89C584.617 582.563 584.505 582.176 584.505 581.728C584.505 581.42 584.547 581.135 584.631 580.874C584.715 580.613 584.855 580.347 585.051 580.076C585.247 579.796 585.508 579.488 585.835 579.152C586.301 578.676 586.623 578.265 586.801 577.92C586.987 577.575 587.104 577.215 587.151 576.842L587.193 576.548H587.921V576.912C587.921 577.379 587.827 577.822 587.641 578.242C587.463 578.662 587.137 579.129 586.661 579.642C586.297 580.053 586.04 580.407 585.891 580.706C585.741 581.005 585.667 581.317 585.667 581.644C585.667 582.045 585.811 582.358 586.101 582.582C586.399 582.815 586.805 582.932 587.319 582.932C587.683 582.932 588.033 582.881 588.369 582.778C588.705 582.685 589.022 582.554 589.321 582.386V583.436C589.022 583.585 588.686 583.702 588.313 583.786C587.949 583.879 587.58 583.926 587.207 583.926ZM588.271 573.972V575.414H586.843V573.972H588.271ZM591.564 581V571.13H592.474L598.802 579.53H598.48V571.13H599.558V581H598.662L592.334 572.6H592.642V581H591.564ZM604.781 581.126C604.109 581.126 603.521 580.981 603.017 580.692C602.522 580.393 602.14 579.973 601.869 579.432C601.598 578.881 601.463 578.233 601.463 577.486C601.463 576.73 601.598 576.081 601.869 575.54C602.14 574.999 602.522 574.583 603.017 574.294C603.521 573.995 604.109 573.846 604.781 573.846C605.462 573.846 606.05 573.995 606.545 574.294C607.049 574.583 607.436 574.999 607.707 575.54C607.987 576.081 608.127 576.73 608.127 577.486C608.127 578.233 607.987 578.881 607.707 579.432C607.436 579.973 607.049 580.393 606.545 580.692C606.05 580.981 605.462 581.126 604.781 581.126ZM604.781 580.202C605.453 580.202 605.985 579.973 606.377 579.516C606.769 579.049 606.965 578.373 606.965 577.486C606.965 576.59 606.764 575.913 606.363 575.456C605.971 574.989 605.444 574.756 604.781 574.756C604.118 574.756 603.591 574.989 603.199 575.456C602.807 575.913 602.611 576.59 602.611 577.486C602.611 578.373 602.807 579.049 603.199 579.516C603.591 579.973 604.118 580.202 604.781 580.202ZM616.037 581.126C615.347 581.126 614.819 580.93 614.455 580.538C614.091 580.137 613.909 579.535 613.909 578.732V574.854H612.537V573.972H613.909V572.054L615.043 571.732V573.972H617.059V574.854H615.043V578.606C615.043 579.166 615.137 579.567 615.323 579.81C615.519 580.043 615.809 580.16 616.191 580.16C616.369 580.16 616.527 580.146 616.667 580.118C616.807 580.081 616.933 580.039 617.045 579.992V580.944C616.915 581 616.756 581.042 616.569 581.07C616.392 581.107 616.215 581.126 616.037 581.126ZM618.44 581V573.972H619.574V581H618.44ZM618.3 572.376V571.102H619.7V572.376H618.3ZM624.898 581.126C623.797 581.126 622.929 580.809 622.294 580.174C621.659 579.53 621.342 578.639 621.342 577.5C621.342 576.763 621.482 576.123 621.762 575.582C622.042 575.031 622.434 574.607 622.938 574.308C623.442 574 624.021 573.846 624.674 573.846C625.318 573.846 625.859 573.981 626.298 574.252C626.737 574.523 627.073 574.91 627.306 575.414C627.539 575.909 627.656 576.497 627.656 577.178V577.598H622.21V576.884H626.914L626.676 577.066C626.676 576.319 626.508 575.736 626.172 575.316C625.836 574.896 625.337 574.686 624.674 574.686C623.974 574.686 623.428 574.933 623.036 575.428C622.644 575.913 622.448 576.571 622.448 577.402V577.528C622.448 578.405 622.663 579.073 623.092 579.53C623.531 579.978 624.142 580.202 624.926 580.202C625.346 580.202 625.738 580.141 626.102 580.02C626.475 579.889 626.83 579.679 627.166 579.39L627.558 580.188C627.25 580.487 626.858 580.72 626.382 580.888C625.915 581.047 625.421 581.126 624.898 581.126ZM629.391 581V575.596C629.391 575.335 629.377 575.069 629.349 574.798C629.33 574.518 629.307 574.243 629.279 573.972H630.371L630.511 575.512H630.343C630.548 574.971 630.875 574.56 631.323 574.28C631.78 573.991 632.308 573.846 632.905 573.846C633.736 573.846 634.361 574.07 634.781 574.518C635.21 574.957 635.425 575.652 635.425 576.604V581H634.291V576.674C634.291 576.011 634.156 575.531 633.885 575.232C633.624 574.924 633.213 574.77 632.653 574.77C632 574.77 631.482 574.971 631.099 575.372C630.716 575.773 630.525 576.31 630.525 576.982V581H629.391ZM640.716 581.126C639.615 581.126 638.747 580.809 638.112 580.174C637.478 579.53 637.16 578.639 637.16 577.5C637.16 576.763 637.3 576.123 637.58 575.582C637.86 575.031 638.252 574.607 638.756 574.308C639.26 574 639.839 573.846 640.492 573.846C641.136 573.846 641.678 573.981 642.116 574.252C642.555 574.523 642.891 574.91 643.124 575.414C643.358 575.909 643.474 576.497 643.474 577.178V577.598H638.028V576.884H642.732L642.494 577.066C642.494 576.319 642.326 575.736 641.99 575.316C641.654 574.896 641.155 574.686 640.492 574.686C639.792 574.686 639.246 574.933 638.854 575.428C638.462 575.913 638.266 576.571 638.266 577.402V577.528C638.266 578.405 638.481 579.073 638.91 579.53C639.349 579.978 639.96 580.202 640.744 580.202C641.164 580.202 641.556 580.141 641.92 580.02C642.294 579.889 642.648 579.679 642.984 579.39L643.376 580.188C643.068 580.487 642.676 580.72 642.2 580.888C641.734 581.047 641.239 581.126 640.716 581.126ZM647.548 581.126C646.988 581.126 646.465 581.051 645.98 580.902C645.494 580.743 645.093 580.524 644.776 580.244L645.168 579.446C645.513 579.717 645.886 579.917 646.288 580.048C646.698 580.179 647.123 580.244 647.562 580.244C648.122 580.244 648.542 580.146 648.822 579.95C649.111 579.745 649.256 579.465 649.256 579.11C649.256 578.839 649.162 578.625 648.976 578.466C648.798 578.298 648.504 578.167 648.094 578.074L646.792 577.808C646.194 577.677 645.746 577.458 645.448 577.15C645.149 576.833 645 576.431 645 575.946C645 575.535 645.107 575.176 645.322 574.868C645.536 574.551 645.849 574.303 646.26 574.126C646.67 573.939 647.151 573.846 647.702 573.846C648.215 573.846 648.686 573.925 649.116 574.084C649.554 574.233 649.918 574.453 650.208 574.742L649.802 575.526C649.522 575.255 649.2 575.055 648.836 574.924C648.481 574.784 648.112 574.714 647.73 574.714C647.179 574.714 646.764 574.826 646.484 575.05C646.213 575.265 646.078 575.549 646.078 575.904C646.078 576.175 646.162 576.399 646.33 576.576C646.507 576.744 646.778 576.87 647.142 576.954L648.444 577.22C649.078 577.36 649.55 577.579 649.858 577.878C650.175 578.167 650.334 578.559 650.334 579.054C650.334 579.474 650.217 579.843 649.984 580.16C649.75 580.468 649.424 580.706 649.004 580.874C648.593 581.042 648.108 581.126 647.548 581.126ZM658.759 581.126C658.069 581.126 657.467 580.977 656.953 580.678C656.449 580.379 656.057 579.955 655.777 579.404C655.507 578.853 655.371 578.2 655.371 577.444C655.371 576.679 655.511 576.03 655.791 575.498C656.071 574.957 656.463 574.546 656.967 574.266C657.481 573.986 658.078 573.846 658.759 573.846C659.207 573.846 659.641 573.925 660.061 574.084C660.491 574.243 660.845 574.467 661.125 574.756L660.719 575.568C660.439 575.297 660.131 575.097 659.795 574.966C659.469 574.835 659.147 574.77 658.829 574.77C658.101 574.77 657.537 574.999 657.135 575.456C656.734 575.913 656.533 576.581 656.533 577.458C656.533 578.326 656.734 578.998 657.135 579.474C657.537 579.95 658.101 580.188 658.829 580.188C659.137 580.188 659.455 580.127 659.781 580.006C660.117 579.885 660.43 579.684 660.719 579.404L661.125 580.202C660.836 580.501 660.477 580.729 660.047 580.888C659.618 581.047 659.189 581.126 658.759 581.126ZM665.215 581.126C664.384 581.126 663.754 580.897 663.325 580.44C662.905 579.983 662.695 579.283 662.695 578.34V573.972H663.829V578.312C663.829 578.956 663.96 579.432 664.221 579.74C664.482 580.039 664.888 580.188 665.439 580.188C666.055 580.188 666.55 579.987 666.923 579.586C667.296 579.185 667.483 578.648 667.483 577.976V573.972H668.617V581H667.511V579.418H667.693C667.497 579.959 667.18 580.379 666.741 580.678C666.312 580.977 665.803 581.126 665.215 581.126ZM673.939 581.126C672.838 581.126 671.97 580.809 671.335 580.174C670.7 579.53 670.383 578.639 670.383 577.5C670.383 576.763 670.523 576.123 670.803 575.582C671.083 575.031 671.475 574.607 671.979 574.308C672.483 574 673.062 573.846 673.715 573.846C674.359 573.846 674.9 573.981 675.339 574.252C675.778 574.523 676.114 574.91 676.347 575.414C676.58 575.909 676.697 576.497 676.697 577.178V577.598H671.251V576.884H675.955L675.717 577.066C675.717 576.319 675.549 575.736 675.213 575.316C674.877 574.896 674.378 574.686 673.715 574.686C673.015 574.686 672.469 574.933 672.077 575.428C671.685 575.913 671.489 576.571 671.489 577.402V577.528C671.489 578.405 671.704 579.073 672.133 579.53C672.572 579.978 673.183 580.202 673.967 580.202C674.387 580.202 674.779 580.141 675.143 580.02C675.516 579.889 675.871 579.679 676.207 579.39L676.599 580.188C676.291 580.487 675.899 580.72 675.423 580.888C674.956 581.047 674.462 581.126 673.939 581.126ZM678.432 581V575.596C678.432 575.335 678.418 575.069 678.39 574.798C678.371 574.518 678.348 574.243 678.32 573.972H679.412L679.552 575.512H679.384C679.589 574.971 679.916 574.56 680.364 574.28C680.821 573.991 681.349 573.846 681.946 573.846C682.777 573.846 683.402 574.07 683.822 574.518C684.251 574.957 684.466 575.652 684.466 576.604V581H683.332V576.674C683.332 576.011 683.197 575.531 682.926 575.232C682.665 574.924 682.254 574.77 681.694 574.77C681.041 574.77 680.523 574.971 680.14 575.372C679.757 575.773 679.566 576.31 679.566 576.982V581H678.432ZM689.127 581.126C688.437 581.126 687.909 580.93 687.545 580.538C687.181 580.137 686.999 579.535 686.999 578.732V574.854H685.627V573.972H686.999V572.054L688.133 571.732V573.972H690.149V574.854H688.133V578.606C688.133 579.166 688.227 579.567 688.413 579.81C688.609 580.043 688.899 580.16 689.281 580.16C689.459 580.16 689.617 580.146 689.757 580.118C689.897 580.081 690.023 580.039 690.135 579.992V580.944C690.005 581 689.846 581.042 689.659 581.07C689.482 581.107 689.305 581.126 689.127 581.126ZM694.204 581.126C693.578 581.126 693.032 580.981 692.566 580.692C692.099 580.393 691.735 579.973 691.474 579.432C691.222 578.891 691.096 578.242 691.096 577.486C691.096 576.721 691.222 576.067 691.474 575.526C691.735 574.985 692.099 574.569 692.566 574.28C693.032 573.991 693.578 573.846 694.204 573.846C694.838 573.846 695.384 574.009 695.842 574.336C696.308 574.653 696.616 575.087 696.766 575.638H696.598L696.752 573.972H697.844C697.816 574.243 697.788 574.518 697.76 574.798C697.741 575.069 697.732 575.335 697.732 575.596V581H696.598V579.348H696.752C696.602 579.899 696.294 580.333 695.828 580.65C695.361 580.967 694.82 581.126 694.204 581.126ZM694.428 580.202C695.1 580.202 695.632 579.973 696.024 579.516C696.416 579.049 696.612 578.373 696.612 577.486C696.612 576.59 696.416 575.913 696.024 575.456C695.632 574.989 695.1 574.756 694.428 574.756C693.765 574.756 693.233 574.989 692.832 575.456C692.44 575.913 692.244 576.59 692.244 577.486C692.244 578.373 692.44 579.049 692.832 579.516C693.233 579.973 693.765 580.202 694.428 580.202ZM701.076 578.424V578.018C701.076 577.542 701.165 577.099 701.342 576.688C701.529 576.268 701.855 575.797 702.322 575.274C702.686 574.873 702.943 574.523 703.092 574.224C703.241 573.916 703.316 573.603 703.316 573.286C703.316 572.885 703.171 572.572 702.882 572.348C702.593 572.115 702.191 571.998 701.678 571.998C701.314 571.998 700.964 572.049 700.628 572.152C700.292 572.245 699.97 572.376 699.662 572.544V571.494C699.97 571.335 700.306 571.214 700.67 571.13C701.043 571.046 701.417 571.004 701.79 571.004C702.322 571.004 702.789 571.093 703.19 571.27C703.591 571.438 703.904 571.685 704.128 572.012C704.361 572.329 704.478 572.721 704.478 573.188C704.478 573.487 704.431 573.776 704.338 574.056C704.245 574.327 704.1 574.602 703.904 574.882C703.708 575.153 703.456 575.451 703.148 575.778C702.691 576.245 702.369 576.655 702.182 577.01C701.995 577.355 701.883 577.71 701.846 578.074L701.804 578.424H701.076ZM700.712 581V579.572H702.154V581H700.712Z" fill="black"/>
<path d="M597.898 132L605.554 115.08H608.146L615.898 132H612.754L610.69 127.248L611.938 128.088H601.786L603.082 127.248L601.018 132H597.898ZM606.826 118.392L603.442 126.408L602.818 125.664H610.882L610.378 126.408L606.922 118.392H606.826ZM622.981 132.24C621.733 132.24 620.637 131.984 619.693 131.472C618.765 130.96 618.045 130.232 617.533 129.288C617.021 128.328 616.765 127.192 616.765 125.88C616.765 124.568 617.021 123.448 617.533 122.52C618.061 121.592 618.789 120.88 619.717 120.384C620.645 119.888 621.733 119.64 622.981 119.64C623.781 119.64 624.557 119.768 625.309 120.024C626.077 120.264 626.701 120.616 627.181 121.08L626.269 123.168C625.837 122.768 625.349 122.472 624.805 122.28C624.277 122.072 623.757 121.968 623.245 121.968C622.173 121.968 621.333 122.304 620.725 122.976C620.133 123.648 619.837 124.624 619.837 125.904C619.837 127.184 620.133 128.168 620.725 128.856C621.333 129.544 622.173 129.888 623.245 129.888C623.741 129.888 624.253 129.792 624.781 129.6C625.325 129.408 625.821 129.112 626.269 128.712L627.181 130.776C626.685 131.24 626.053 131.6 625.285 131.856C624.533 132.112 623.765 132.24 622.981 132.24ZM634.841 132.24C633.593 132.24 632.497 131.984 631.553 131.472C630.625 130.96 629.905 130.232 629.393 129.288C628.881 128.328 628.625 127.192 628.625 125.88C628.625 124.568 628.881 123.448 629.393 122.52C629.921 121.592 630.649 120.88 631.577 120.384C632.505 119.888 633.593 119.64 634.841 119.64C635.641 119.64 636.417 119.768 637.169 120.024C637.937 120.264 638.561 120.616 639.041 121.08L638.129 123.168C637.697 122.768 637.209 122.472 636.665 122.28C636.137 122.072 635.617 121.968 635.105 121.968C634.033 121.968 633.193 122.304 632.585 122.976C631.993 123.648 631.697 124.624 631.697 125.904C631.697 127.184 631.993 128.168 632.585 128.856C633.193 129.544 634.033 129.888 635.105 129.888C635.601 129.888 636.113 129.792 636.641 129.6C637.185 129.408 637.681 129.112 638.129 128.712L639.041 130.776C638.545 131.24 637.913 131.6 637.145 131.856C636.393 132.112 635.625 132.24 634.841 132.24ZM646.988 132.24C644.956 132.24 643.364 131.68 642.212 130.56C641.06 129.44 640.484 127.904 640.484 125.952C640.484 124.688 640.732 123.584 641.228 122.64C641.724 121.696 642.412 120.96 643.292 120.432C644.188 119.904 645.228 119.64 646.412 119.64C647.58 119.64 648.556 119.888 649.34 120.384C650.124 120.88 650.716 121.576 651.116 122.472C651.532 123.368 651.74 124.416 651.74 125.616V126.408H642.908V124.824H649.604L649.196 125.16C649.196 124.04 648.956 123.184 648.476 122.592C648.012 122 647.332 121.704 646.436 121.704C645.444 121.704 644.676 122.056 644.132 122.76C643.604 123.464 643.34 124.448 643.34 125.712V126.024C643.34 127.336 643.66 128.32 644.3 128.976C644.956 129.616 645.876 129.936 647.06 129.936C647.748 129.936 648.388 129.848 648.98 129.672C649.588 129.48 650.164 129.176 650.708 128.76L651.596 130.776C651.02 131.24 650.332 131.6 649.532 131.856C648.732 132.112 647.884 132.24 646.988 132.24ZM658.984 132.24C657.928 132.24 656.992 131.992 656.176 131.496C655.376 130.984 654.752 130.256 654.304 129.312C653.856 128.368 653.632 127.24 653.632 125.928C653.632 124.616 653.856 123.496 654.304 122.568C654.752 121.624 655.376 120.904 656.176 120.408C656.992 119.896 657.928 119.64 658.984 119.64C659.992 119.64 660.88 119.888 661.648 120.384C662.432 120.864 662.952 121.52 663.208 122.352H662.896V114.336H665.896V132H662.944V129.432H663.232C662.976 130.296 662.456 130.984 661.672 131.496C660.904 131.992 660.008 132.24 658.984 132.24ZM659.824 129.936C660.768 129.936 661.528 129.608 662.104 128.952C662.68 128.28 662.968 127.272 662.968 125.928C662.968 124.584 662.68 123.584 662.104 122.928C661.528 122.272 660.768 121.944 659.824 121.944C658.88 121.944 658.112 122.272 657.52 122.928C656.944 123.584 656.656 124.584 656.656 125.928C656.656 127.272 656.944 128.28 657.52 128.952C658.112 129.608 658.88 129.936 659.824 129.936ZM675.019 132.24C672.987 132.24 671.395 131.68 670.243 130.56C669.091 129.44 668.515 127.904 668.515 125.952C668.515 124.688 668.763 123.584 669.259 122.64C669.755 121.696 670.443 120.96 671.323 120.432C672.219 119.904 673.259 119.64 674.443 119.64C675.611 119.64 676.587 119.888 677.371 120.384C678.155 120.88 678.747 121.576 679.147 122.472C679.563 123.368 679.771 124.416 679.771 125.616V126.408H670.939V124.824H677.635L677.227 125.16C677.227 124.04 676.987 123.184 676.507 122.592C676.043 122 675.363 121.704 674.467 121.704C673.475 121.704 672.707 122.056 672.163 122.76C671.635 123.464 671.371 124.448 671.371 125.712V126.024C671.371 127.336 671.691 128.32 672.331 128.976C672.987 129.616 673.907 129.936 675.091 129.936C675.779 129.936 676.419 129.848 677.011 129.672C677.619 129.48 678.195 129.176 678.739 128.76L679.627 130.776C679.051 131.24 678.363 131.6 677.563 131.856C676.763 132.112 675.915 132.24 675.019 132.24ZM682.288 132V122.976C682.288 122.464 682.272 121.944 682.24 121.416C682.224 120.888 682.184 120.376 682.12 119.88H685.024L685.36 123.192H684.88C685.04 122.392 685.304 121.728 685.672 121.2C686.056 120.672 686.52 120.28 687.064 120.024C687.608 119.768 688.2 119.64 688.84 119.64C689.128 119.64 689.36 119.656 689.536 119.688C689.712 119.704 689.888 119.744 690.064 119.808L690.04 122.448C689.736 122.32 689.472 122.24 689.248 122.208C689.04 122.176 688.776 122.16 688.456 122.16C687.768 122.16 687.184 122.304 686.704 122.592C686.24 122.88 685.888 123.28 685.648 123.792C685.424 124.304 685.312 124.888 685.312 125.544V132H682.288Z" fill="black"/>
<rect x="370" y="309" width="540" height="62" rx="31" fill="#F5F4F2"/>
<path opacity="0.5" d="M400.53 345.126C399.541 345.126 398.701 344.921 398.01 344.51C397.319 344.099 396.787 343.516 396.414 342.76C396.05 342.004 395.868 341.103 395.868 340.058C395.868 339.013 396.05 338.117 396.414 337.37C396.787 336.614 397.319 336.031 398.01 335.62C398.701 335.209 399.541 335.004 400.53 335.004C401.23 335.004 401.855 335.111 402.406 335.326C402.957 335.541 403.437 335.853 403.848 336.264L403.414 337.188C402.966 336.796 402.523 336.511 402.084 336.334C401.645 336.147 401.132 336.054 400.544 336.054C399.415 336.054 398.556 336.404 397.968 337.104C397.38 337.804 397.086 338.789 397.086 340.058C397.086 341.327 397.38 342.317 397.968 343.026C398.556 343.726 399.415 344.076 400.544 344.076C401.132 344.076 401.645 343.987 402.084 343.81C402.523 343.623 402.966 343.329 403.414 342.928L403.848 343.866C403.437 344.267 402.957 344.58 402.406 344.804C401.855 345.019 401.23 345.126 400.53 345.126ZM408.068 345.126C407.396 345.126 406.808 344.981 406.304 344.692C405.809 344.393 405.427 343.973 405.156 343.432C404.885 342.881 404.75 342.233 404.75 341.486C404.75 340.73 404.885 340.081 405.156 339.54C405.427 338.999 405.809 338.583 406.304 338.294C406.808 337.995 407.396 337.846 408.068 337.846C408.749 337.846 409.337 337.995 409.832 338.294C410.336 338.583 410.723 338.999 410.994 339.54C411.274 340.081 411.414 340.73 411.414 341.486C411.414 342.233 411.274 342.881 410.994 343.432C410.723 343.973 410.336 344.393 409.832 344.692C409.337 344.981 408.749 345.126 408.068 345.126ZM408.068 344.202C408.74 344.202 409.272 343.973 409.664 343.516C410.056 343.049 410.252 342.373 410.252 341.486C410.252 340.59 410.051 339.913 409.65 339.456C409.258 338.989 408.731 338.756 408.068 338.756C407.405 338.756 406.878 338.989 406.486 339.456C406.094 339.913 405.898 340.59 405.898 341.486C405.898 342.373 406.094 343.049 406.486 343.516C406.878 343.973 407.405 344.202 408.068 344.202ZM413.182 345V339.596C413.182 339.335 413.168 339.069 413.14 338.798C413.122 338.518 413.098 338.243 413.07 337.972H414.162L414.302 339.512H414.134C414.34 338.971 414.666 338.56 415.114 338.28C415.572 337.991 416.099 337.846 416.696 337.846C417.527 337.846 418.152 338.07 418.572 338.518C419.002 338.957 419.216 339.652 419.216 340.604V345H418.082V340.674C418.082 340.011 417.947 339.531 417.676 339.232C417.415 338.924 417.004 338.77 416.444 338.77C415.791 338.77 415.273 338.971 414.89 339.372C414.508 339.773 414.316 340.31 414.316 340.982V345H413.182ZM423.877 345.126C423.187 345.126 422.659 344.93 422.295 344.538C421.931 344.137 421.749 343.535 421.749 342.732V338.854H420.377V337.972H421.749V336.054L422.883 335.732V337.972H424.899V338.854H422.883V342.606C422.883 343.166 422.977 343.567 423.163 343.81C423.359 344.043 423.649 344.16 424.031 344.16C424.209 344.16 424.367 344.146 424.507 344.118C424.647 344.081 424.773 344.039 424.885 343.992V344.944C424.755 345 424.596 345.042 424.409 345.07C424.232 345.107 424.055 345.126 423.877 345.126ZM426.252 345V339.666C426.252 339.386 426.242 339.101 426.224 338.812C426.214 338.523 426.196 338.243 426.168 337.972H427.26L427.4 339.68L427.204 339.694C427.297 339.274 427.46 338.929 427.694 338.658C427.927 338.387 428.202 338.187 428.52 338.056C428.837 337.916 429.168 337.846 429.514 337.846C429.654 337.846 429.775 337.851 429.878 337.86C429.99 337.869 430.092 337.893 430.186 337.93L430.172 338.938C430.032 338.891 429.901 338.863 429.78 338.854C429.668 338.835 429.537 338.826 429.388 338.826C428.977 338.826 428.618 338.924 428.31 339.12C428.011 339.316 427.782 339.568 427.624 339.876C427.474 340.184 427.4 340.511 427.4 340.856V345H426.252ZM433.971 345.126C433.346 345.126 432.8 344.981 432.333 344.692C431.867 344.393 431.503 343.973 431.241 343.432C430.989 342.891 430.863 342.242 430.863 341.486C430.863 340.721 430.989 340.067 431.241 339.526C431.503 338.985 431.867 338.569 432.333 338.28C432.8 337.991 433.346 337.846 433.971 337.846C434.606 337.846 435.152 338.009 435.609 338.336C436.076 338.653 436.384 339.087 436.533 339.638H436.365L436.519 337.972H437.611C437.583 338.243 437.555 338.518 437.527 338.798C437.509 339.069 437.499 339.335 437.499 339.596V345H436.365V343.348H436.519C436.37 343.899 436.062 344.333 435.595 344.65C435.129 344.967 434.587 345.126 433.971 345.126ZM434.195 344.202C434.867 344.202 435.399 343.973 435.791 343.516C436.183 343.049 436.379 342.373 436.379 341.486C436.379 340.59 436.183 339.913 435.791 339.456C435.399 338.989 434.867 338.756 434.195 338.756C433.533 338.756 433.001 338.989 432.599 339.456C432.207 339.913 432.011 340.59 432.011 341.486C432.011 342.373 432.207 343.049 432.599 343.516C433.001 343.973 433.533 344.202 434.195 344.202ZM442.03 345.126C441.47 345.126 440.947 345.051 440.462 344.902C439.977 344.743 439.575 344.524 439.258 344.244L439.65 343.446C439.995 343.717 440.369 343.917 440.77 344.048C441.181 344.179 441.605 344.244 442.044 344.244C442.604 344.244 443.024 344.146 443.304 343.95C443.593 343.745 443.738 343.465 443.738 343.11C443.738 342.839 443.645 342.625 443.458 342.466C443.281 342.298 442.987 342.167 442.576 342.074L441.274 341.808C440.677 341.677 440.229 341.458 439.93 341.15C439.631 340.833 439.482 340.431 439.482 339.946C439.482 339.535 439.589 339.176 439.804 338.868C440.019 338.551 440.331 338.303 440.742 338.126C441.153 337.939 441.633 337.846 442.184 337.846C442.697 337.846 443.169 337.925 443.598 338.084C444.037 338.233 444.401 338.453 444.69 338.742L444.284 339.526C444.004 339.255 443.682 339.055 443.318 338.924C442.963 338.784 442.595 338.714 442.212 338.714C441.661 338.714 441.246 338.826 440.966 339.05C440.695 339.265 440.56 339.549 440.56 339.904C440.56 340.175 440.644 340.399 440.812 340.576C440.989 340.744 441.26 340.87 441.624 340.954L442.926 341.22C443.561 341.36 444.032 341.579 444.34 341.878C444.657 342.167 444.816 342.559 444.816 343.054C444.816 343.474 444.699 343.843 444.466 344.16C444.233 344.468 443.906 344.706 443.486 344.874C443.075 345.042 442.59 345.126 442.03 345.126ZM449.759 345.126C448.658 345.126 447.79 344.809 447.155 344.174C446.521 343.53 446.203 342.639 446.203 341.5C446.203 340.763 446.343 340.123 446.623 339.582C446.903 339.031 447.295 338.607 447.799 338.308C448.303 338 448.882 337.846 449.535 337.846C450.179 337.846 450.721 337.981 451.159 338.252C451.598 338.523 451.934 338.91 452.167 339.414C452.401 339.909 452.517 340.497 452.517 341.178V341.598H447.071V340.884H451.775L451.537 341.066C451.537 340.319 451.369 339.736 451.033 339.316C450.697 338.896 450.198 338.686 449.535 338.686C448.835 338.686 448.289 338.933 447.897 339.428C447.505 339.913 447.309 340.571 447.309 341.402V341.528C447.309 342.405 447.524 343.073 447.953 343.53C448.392 343.978 449.003 344.202 449.787 344.202C450.207 344.202 450.599 344.141 450.963 344.02C451.337 343.889 451.691 343.679 452.027 343.39L452.419 344.188C452.111 344.487 451.719 344.72 451.243 344.888C450.777 345.047 450.282 345.126 449.759 345.126ZM454.252 345V339.596C454.252 339.335 454.238 339.069 454.21 338.798C454.192 338.518 454.168 338.243 454.14 337.972H455.232L455.372 339.512H455.204C455.41 338.971 455.736 338.56 456.184 338.28C456.642 337.991 457.169 337.846 457.766 337.846C458.597 337.846 459.222 338.07 459.642 338.518C460.072 338.957 460.286 339.652 460.286 340.604V345H459.152V340.674C459.152 340.011 459.017 339.531 458.746 339.232C458.485 338.924 458.074 338.77 457.514 338.77C456.861 338.77 456.343 338.971 455.96 339.372C455.578 339.773 455.386 340.31 455.386 340.982V345H454.252ZM455.358 336.74L454.714 336.698C454.761 336.101 454.92 335.643 455.19 335.326C455.461 334.999 455.802 334.836 456.212 334.836C456.418 334.836 456.604 334.883 456.772 334.976C456.95 335.069 457.15 335.214 457.374 335.41C457.58 335.597 457.743 335.727 457.864 335.802C457.995 335.867 458.121 335.9 458.242 335.9C458.718 335.9 459.008 335.531 459.11 334.794L459.754 334.836C459.708 335.433 459.549 335.895 459.278 336.222C459.017 336.539 458.681 336.698 458.27 336.698C458.074 336.698 457.888 336.651 457.71 336.558C457.533 336.465 457.328 336.315 457.094 336.11C456.898 335.933 456.735 335.811 456.604 335.746C456.483 335.671 456.357 335.634 456.226 335.634C455.984 335.634 455.788 335.732 455.638 335.928C455.498 336.115 455.405 336.385 455.358 336.74ZM465.13 345.126C464.504 345.126 463.958 344.981 463.492 344.692C463.025 344.393 462.661 343.973 462.4 343.432C462.148 342.891 462.022 342.242 462.022 341.486C462.022 340.721 462.148 340.067 462.4 339.526C462.661 338.985 463.025 338.569 463.492 338.28C463.958 337.991 464.504 337.846 465.13 337.846C465.764 337.846 466.31 338.009 466.768 338.336C467.234 338.653 467.542 339.087 467.692 339.638H467.524L467.678 337.972H468.77C468.742 338.243 468.714 338.518 468.686 338.798C468.667 339.069 468.658 339.335 468.658 339.596V345H467.524V343.348H467.678C467.528 343.899 467.22 344.333 466.754 344.65C466.287 344.967 465.746 345.126 465.13 345.126ZM465.354 344.202C466.026 344.202 466.558 343.973 466.95 343.516C467.342 343.049 467.538 342.373 467.538 341.486C467.538 340.59 467.342 339.913 466.95 339.456C466.558 338.989 466.026 338.756 465.354 338.756C464.691 338.756 464.159 338.989 463.758 339.456C463.366 339.913 463.17 340.59 463.17 341.486C463.17 342.373 463.366 343.049 463.758 343.516C464.159 343.973 464.691 344.202 465.354 344.202Z" fill="black"/>
<g filter="url(#filter1_d_249_857)">
<rect x="494" y="638" width="300" height="90" rx="31.5" fill="#46B593"/>
<path d="M596.449 690V677.31H601.993C603.385 677.31 604.459 677.64 605.215 678.3C605.983 678.96 606.367 679.878 606.367 681.054C606.367 681.834 606.193 682.5 605.845 683.052C605.509 683.604 605.023 684.03 604.387 684.33C603.751 684.618 603.001 684.762 602.137 684.762L602.389 684.42H603.001C603.505 684.42 603.955 684.552 604.351 684.816C604.747 685.08 605.071 685.482 605.323 686.022L607.177 690H604.621L602.749 685.878C602.581 685.458 602.323 685.182 601.975 685.05C601.639 684.918 601.231 684.852 600.751 684.852H598.771V690H596.449ZM598.771 683.142H601.615C602.431 683.142 603.049 682.974 603.469 682.638C603.901 682.29 604.117 681.786 604.117 681.126C604.117 680.466 603.901 679.968 603.469 679.632C603.049 679.296 602.431 679.128 601.615 679.128H598.771V683.142ZM613.071 690.18C611.547 690.18 610.353 689.76 609.489 688.92C608.625 688.08 608.193 686.928 608.193 685.464C608.193 684.516 608.379 683.688 608.751 682.98C609.123 682.272 609.639 681.72 610.299 681.324C610.971 680.928 611.751 680.73 612.639 680.73C613.515 680.73 614.247 680.916 614.835 681.288C615.423 681.66 615.867 682.182 616.167 682.854C616.479 683.526 616.635 684.312 616.635 685.212V685.806H610.011V684.618H615.033L614.727 684.87C614.727 684.03 614.547 683.388 614.187 682.944C613.839 682.5 613.329 682.278 612.657 682.278C611.913 682.278 611.337 682.542 610.929 683.07C610.533 683.598 610.335 684.336 610.335 685.284V685.518C610.335 686.502 610.575 687.24 611.055 687.732C611.547 688.212 612.237 688.452 613.125 688.452C613.641 688.452 614.121 688.386 614.565 688.254C615.021 688.11 615.453 687.882 615.861 687.57L616.527 689.082C616.095 689.43 615.579 689.7 614.979 689.892C614.379 690.084 613.743 690.18 613.071 690.18ZM622.752 694.032C621.912 694.032 621.15 693.942 620.466 693.762C619.794 693.582 619.194 693.306 618.666 692.934L619.152 691.314C619.5 691.542 619.86 691.728 620.232 691.872C620.604 692.016 620.988 692.124 621.384 692.196C621.78 692.268 622.182 692.304 622.59 692.304C623.43 692.304 624.054 692.094 624.462 691.674C624.882 691.266 625.092 690.678 625.092 689.91V687.732H625.272C625.08 688.356 624.69 688.854 624.102 689.226C623.526 689.598 622.86 689.784 622.104 689.784C621.288 689.784 620.574 689.604 619.962 689.244C619.362 688.872 618.894 688.344 618.558 687.66C618.222 686.976 618.054 686.172 618.054 685.248C618.054 684.324 618.222 683.526 618.558 682.854C618.894 682.17 619.362 681.648 619.962 681.288C620.574 680.916 621.288 680.73 622.104 680.73C622.872 680.73 623.538 680.916 624.102 681.288C624.678 681.648 625.062 682.14 625.254 682.764L625.092 682.656L625.272 680.91H627.45C627.402 681.282 627.366 681.66 627.342 682.044C627.318 682.428 627.306 682.806 627.306 683.178V689.64C627.306 691.068 626.916 692.154 626.136 692.898C625.368 693.654 624.24 694.032 622.752 694.032ZM622.716 688.056C623.436 688.056 624.006 687.816 624.426 687.336C624.858 686.844 625.074 686.148 625.074 685.248C625.074 684.348 624.858 683.658 624.426 683.178C624.006 682.698 623.436 682.458 622.716 682.458C621.984 682.458 621.402 682.698 620.97 683.178C620.538 683.658 620.322 684.348 620.322 685.248C620.322 686.148 620.538 686.844 620.97 687.336C621.402 687.816 621.984 688.056 622.716 688.056ZM629.738 690V680.91H631.988V690H629.738ZM629.612 679.2V677.004H632.114V679.2H629.612ZM637.671 690.18C636.891 690.18 636.171 690.09 635.511 689.91C634.863 689.718 634.317 689.454 633.873 689.118L634.503 687.606C634.959 687.918 635.463 688.158 636.015 688.326C636.567 688.494 637.125 688.578 637.689 688.578C638.289 688.578 638.733 688.476 639.021 688.272C639.321 688.068 639.471 687.792 639.471 687.444C639.471 687.168 639.375 686.952 639.183 686.796C639.003 686.628 638.709 686.502 638.301 686.418L636.501 686.076C635.733 685.908 635.145 685.62 634.737 685.212C634.341 684.804 634.143 684.27 634.143 683.61C634.143 683.046 634.293 682.548 634.593 682.116C634.905 681.684 635.343 681.348 635.907 681.108C636.483 680.856 637.155 680.73 637.923 680.73C638.595 680.73 639.225 680.82 639.813 681C640.413 681.18 640.917 681.45 641.325 681.81L640.677 683.268C640.305 682.968 639.879 682.734 639.399 682.566C638.919 682.398 638.451 682.314 637.995 682.314C637.371 682.314 636.915 682.428 636.627 682.656C636.339 682.872 636.195 683.154 636.195 683.502C636.195 683.766 636.279 683.988 636.447 684.168C636.627 684.336 636.903 684.462 637.275 684.546L639.075 684.888C639.879 685.044 640.485 685.32 640.893 685.716C641.313 686.1 641.523 686.628 641.523 687.3C641.523 687.9 641.361 688.416 641.037 688.848C640.713 689.28 640.263 689.61 639.687 689.838C639.111 690.066 638.439 690.18 637.671 690.18ZM647.249 690.18C646.169 690.18 645.353 689.898 644.801 689.334C644.249 688.77 643.973 687.924 643.973 686.796V682.602H642.227V680.91H643.973V678.588L646.223 678.012V680.91H648.653V682.602H646.223V686.652C646.223 687.276 646.343 687.714 646.583 687.966C646.823 688.218 647.153 688.344 647.573 688.344C647.801 688.344 647.993 688.326 648.149 688.29C648.317 688.254 648.479 688.206 648.635 688.146V689.928C648.431 690.012 648.203 690.072 647.951 690.108C647.711 690.156 647.477 690.18 647.249 690.18ZM650.163 690V683.232C650.163 682.848 650.151 682.458 650.127 682.062C650.115 681.666 650.085 681.282 650.037 680.91H652.215L652.467 683.394H652.107C652.227 682.794 652.425 682.296 652.701 681.9C652.989 681.504 653.337 681.21 653.745 681.018C654.153 680.826 654.597 680.73 655.077 680.73C655.293 680.73 655.467 680.742 655.599 680.766C655.731 680.778 655.863 680.808 655.995 680.856L655.977 682.836C655.749 682.74 655.551 682.68 655.383 682.656C655.227 682.632 655.029 682.62 654.789 682.62C654.273 682.62 653.835 682.728 653.475 682.944C653.127 683.16 652.863 683.46 652.683 683.844C652.515 684.228 652.431 684.666 652.431 685.158V690H650.163ZM660.67 690.18C659.878 690.18 659.182 689.994 658.582 689.622C657.982 689.238 657.514 688.692 657.178 687.984C656.842 687.276 656.674 686.43 656.674 685.446C656.674 684.462 656.842 683.622 657.178 682.926C657.514 682.218 657.982 681.678 658.582 681.306C659.182 680.922 659.878 680.73 660.67 680.73C661.438 680.73 662.11 680.922 662.686 681.306C663.274 681.678 663.664 682.182 663.856 682.818H663.658L663.856 680.91H666.016C665.98 681.282 665.944 681.66 665.908 682.044C665.884 682.428 665.872 682.806 665.872 683.178V690H663.64L663.622 688.128H663.838C663.646 688.752 663.256 689.25 662.668 689.622C662.08 689.994 661.414 690.18 660.67 690.18ZM661.3 688.452C662.008 688.452 662.578 688.206 663.01 687.714C663.442 687.21 663.658 686.454 663.658 685.446C663.658 684.438 663.442 683.688 663.01 683.196C662.578 682.704 662.008 682.458 661.3 682.458C660.592 682.458 660.022 682.704 659.59 683.196C659.158 683.688 658.942 684.438 658.942 685.446C658.942 686.454 659.152 687.21 659.572 687.714C660.004 688.206 660.58 688.452 661.3 688.452ZM668.304 690V683.232C668.304 682.848 668.292 682.458 668.268 682.062C668.256 681.666 668.226 681.282 668.178 680.91H670.356L670.608 683.394H670.248C670.368 682.794 670.566 682.296 670.842 681.9C671.13 681.504 671.478 681.21 671.886 681.018C672.294 680.826 672.738 680.73 673.218 680.73C673.434 680.73 673.608 680.742 673.74 680.766C673.872 680.778 674.004 680.808 674.136 680.856L674.118 682.836C673.89 682.74 673.692 682.68 673.524 682.656C673.368 682.632 673.17 682.62 672.93 682.62C672.414 682.62 671.976 682.728 671.616 682.944C671.268 683.16 671.004 683.46 670.824 683.844C670.656 684.228 670.572 684.666 670.572 685.158V690H668.304ZM678.54 690.18C677.76 690.18 677.04 690.09 676.38 689.91C675.732 689.718 675.186 689.454 674.742 689.118L675.372 687.606C675.828 687.918 676.332 688.158 676.884 688.326C677.436 688.494 677.994 688.578 678.558 688.578C679.158 688.578 679.602 688.476 679.89 688.272C680.19 688.068 680.34 687.792 680.34 687.444C680.34 687.168 680.244 686.952 680.052 686.796C679.872 686.628 679.578 686.502 679.17 686.418L677.37 686.076C676.602 685.908 676.014 685.62 675.606 685.212C675.21 684.804 675.012 684.27 675.012 683.61C675.012 683.046 675.162 682.548 675.462 682.116C675.774 681.684 676.212 681.348 676.776 681.108C677.352 680.856 678.024 680.73 678.792 680.73C679.464 680.73 680.094 680.82 680.682 681C681.282 681.18 681.786 681.45 682.194 681.81L681.546 683.268C681.174 682.968 680.748 682.734 680.268 682.566C679.788 682.398 679.32 682.314 678.864 682.314C678.24 682.314 677.784 682.428 677.496 682.656C677.208 682.872 677.064 683.154 677.064 683.502C677.064 683.766 677.148 683.988 677.316 684.168C677.496 684.336 677.772 684.462 678.144 684.546L679.944 684.888C680.748 685.044 681.354 685.32 681.762 685.716C682.182 686.1 682.392 686.628 682.392 687.3C682.392 687.9 682.23 688.416 681.906 688.848C681.582 689.28 681.132 689.61 680.556 689.838C679.98 690.066 679.308 690.18 678.54 690.18ZM688.71 690.18C687.186 690.18 685.992 689.76 685.128 688.92C684.264 688.08 683.832 686.928 683.832 685.464C683.832 684.516 684.018 683.688 684.39 682.98C684.762 682.272 685.278 681.72 685.938 681.324C686.61 680.928 687.39 680.73 688.278 680.73C689.154 680.73 689.886 680.916 690.474 681.288C691.062 681.66 691.506 682.182 691.806 682.854C692.118 683.526 692.274 684.312 692.274 685.212V685.806H685.65V684.618H690.672L690.366 684.87C690.366 684.03 690.186 683.388 689.826 682.944C689.478 682.5 688.968 682.278 688.296 682.278C687.552 682.278 686.976 682.542 686.568 683.07C686.172 683.598 685.974 684.336 685.974 685.284V685.518C685.974 686.502 686.214 687.24 686.694 687.732C687.186 688.212 687.876 688.452 688.764 688.452C689.28 688.452 689.76 688.386 690.204 688.254C690.66 688.11 691.092 687.882 691.5 687.57L692.166 689.082C691.734 689.43 691.218 689.7 690.618 689.892C690.018 690.084 689.382 690.18 688.71 690.18Z" fill="#F5F4F2"/>
</g>
<path opacity="0.5" d="M396.232 242V232.13H397.142L403.47 240.53H403.148V232.13H404.226V242H403.33L397.002 233.6H397.31V242H396.232ZM409.449 242.126C408.777 242.126 408.189 241.981 407.685 241.692C407.19 241.393 406.808 240.973 406.537 240.432C406.266 239.881 406.131 239.233 406.131 238.486C406.131 237.73 406.266 237.081 406.537 236.54C406.808 235.999 407.19 235.583 407.685 235.294C408.189 234.995 408.777 234.846 409.449 234.846C410.13 234.846 410.718 234.995 411.213 235.294C411.717 235.583 412.104 235.999 412.375 236.54C412.655 237.081 412.795 237.73 412.795 238.486C412.795 239.233 412.655 239.881 412.375 240.432C412.104 240.973 411.717 241.393 411.213 241.692C410.718 241.981 410.13 242.126 409.449 242.126ZM409.449 241.202C410.121 241.202 410.653 240.973 411.045 240.516C411.437 240.049 411.633 239.373 411.633 238.486C411.633 237.59 411.432 236.913 411.031 236.456C410.639 235.989 410.112 235.756 409.449 235.756C408.786 235.756 408.259 235.989 407.867 236.456C407.475 236.913 407.279 237.59 407.279 238.486C407.279 239.373 407.475 240.049 407.867 240.516C408.259 240.973 408.786 241.202 409.449 241.202ZM414.563 242V236.596C414.563 236.335 414.549 236.069 414.521 235.798C414.502 235.518 414.479 235.243 414.451 234.972H415.543L415.683 236.512H415.515C415.702 235.98 415.996 235.569 416.397 235.28C416.808 234.991 417.302 234.846 417.881 234.846C418.469 234.846 418.945 234.986 419.309 235.266C419.682 235.546 419.934 235.98 420.065 236.568H419.855C420.032 236.036 420.345 235.616 420.793 235.308C421.241 235 421.764 234.846 422.361 234.846C423.136 234.846 423.719 235.07 424.111 235.518C424.503 235.957 424.699 236.652 424.699 237.604V242H423.565V237.674C423.565 237.011 423.448 236.531 423.215 236.232C422.982 235.924 422.608 235.77 422.095 235.77C421.507 235.77 421.04 235.975 420.695 236.386C420.359 236.787 420.191 237.329 420.191 238.01V242H419.057V237.674C419.057 237.011 418.94 236.531 418.707 236.232C418.474 235.924 418.1 235.77 417.587 235.77C416.999 235.77 416.537 235.975 416.201 236.386C415.865 236.787 415.697 237.329 415.697 238.01V242H414.563ZM430.382 242.126C429.747 242.126 429.201 241.967 428.744 241.65C428.287 241.323 427.979 240.88 427.82 240.32H427.974V242H426.854V231.696H427.988V236.61H427.82C427.979 236.069 428.287 235.639 428.744 235.322C429.201 235.005 429.747 234.846 430.382 234.846C431.017 234.846 431.563 234.995 432.02 235.294C432.487 235.583 432.846 235.999 433.098 236.54C433.359 237.081 433.49 237.73 433.49 238.486C433.49 239.242 433.359 239.891 433.098 240.432C432.837 240.973 432.473 241.393 432.006 241.692C431.549 241.981 431.007 242.126 430.382 242.126ZM430.144 241.202C430.807 241.202 431.339 240.973 431.74 240.516C432.141 240.059 432.342 239.382 432.342 238.486C432.342 237.59 432.141 236.913 431.74 236.456C431.339 235.989 430.807 235.756 430.144 235.756C429.481 235.756 428.949 235.989 428.548 236.456C428.156 236.913 427.96 237.59 427.96 238.486C427.96 239.373 428.156 240.049 428.548 240.516C428.949 240.973 429.481 241.202 430.144 241.202ZM435.221 242V236.666C435.221 236.386 435.211 236.101 435.193 235.812C435.183 235.523 435.165 235.243 435.137 234.972H436.229L436.369 236.68L436.173 236.694C436.266 236.274 436.429 235.929 436.663 235.658C436.896 235.387 437.171 235.187 437.489 235.056C437.806 234.916 438.137 234.846 438.483 234.846C438.623 234.846 438.744 234.851 438.847 234.86C438.959 234.869 439.061 234.893 439.155 234.93L439.141 235.938C439.001 235.891 438.87 235.863 438.749 235.854C438.637 235.835 438.506 235.826 438.357 235.826C437.946 235.826 437.587 235.924 437.279 236.12C436.98 236.316 436.751 236.568 436.593 236.876C436.443 237.184 436.369 237.511 436.369 237.856V242H435.221ZM443.374 242.126C442.273 242.126 441.405 241.809 440.77 241.174C440.136 240.53 439.818 239.639 439.818 238.5C439.818 237.763 439.958 237.123 440.238 236.582C440.518 236.031 440.91 235.607 441.414 235.308C441.918 235 442.497 234.846 443.15 234.846C443.794 234.846 444.336 234.981 444.774 235.252C445.213 235.523 445.549 235.91 445.782 236.414C446.016 236.909 446.132 237.497 446.132 238.178V238.598H440.686V237.884H445.39L445.152 238.066C445.152 237.319 444.984 236.736 444.648 236.316C444.312 235.896 443.813 235.686 443.15 235.686C442.45 235.686 441.904 235.933 441.512 236.428C441.12 236.913 440.924 237.571 440.924 238.402V238.528C440.924 239.405 441.139 240.073 441.568 240.53C442.007 240.978 442.618 241.202 443.402 241.202C443.822 241.202 444.214 241.141 444.578 241.02C444.952 240.889 445.306 240.679 445.642 240.39L446.034 241.188C445.726 241.487 445.334 241.72 444.858 241.888C444.392 242.047 443.897 242.126 443.374 242.126ZM454.178 242.126C453.562 242.126 453.021 241.981 452.554 241.692C452.087 241.393 451.723 240.973 451.462 240.432C451.21 239.891 451.084 239.242 451.084 238.486C451.084 237.721 451.21 237.067 451.462 236.526C451.723 235.985 452.087 235.569 452.554 235.28C453.021 234.991 453.562 234.846 454.178 234.846C454.813 234.846 455.359 235.005 455.816 235.322C456.283 235.639 456.595 236.069 456.754 236.61H456.586V231.696H457.72V242H456.6V240.32H456.754C456.605 240.88 456.297 241.323 455.83 241.65C455.363 241.967 454.813 242.126 454.178 242.126ZM454.416 241.202C455.079 241.202 455.611 240.973 456.012 240.516C456.413 240.049 456.614 239.373 456.614 238.486C456.614 237.59 456.413 236.913 456.012 236.456C455.611 235.989 455.079 235.756 454.416 235.756C453.753 235.756 453.221 235.989 452.82 236.456C452.428 236.913 452.232 237.59 452.232 238.486C452.232 239.373 452.428 240.049 452.82 240.516C453.221 240.973 453.753 241.202 454.416 241.202ZM463.035 242.126C461.933 242.126 461.065 241.809 460.431 241.174C459.796 240.53 459.479 239.639 459.479 238.5C459.479 237.763 459.619 237.123 459.899 236.582C460.179 236.031 460.571 235.607 461.075 235.308C461.579 235 462.157 234.846 462.811 234.846C463.455 234.846 463.996 234.981 464.435 235.252C464.873 235.523 465.209 235.91 465.443 236.414C465.676 236.909 465.793 237.497 465.793 238.178V238.598H460.347V237.884H465.051L464.813 238.066C464.813 237.319 464.645 236.736 464.309 236.316C463.973 235.896 463.473 235.686 462.811 235.686C462.111 235.686 461.565 235.933 461.173 236.428C460.781 236.913 460.585 237.571 460.585 238.402V238.528C460.585 239.405 460.799 240.073 461.229 240.53C461.667 240.978 462.279 241.202 463.063 241.202C463.483 241.202 463.875 241.141 464.239 241.02C464.612 240.889 464.967 240.679 465.303 240.39L465.695 241.188C465.387 241.487 464.995 241.72 464.519 241.888C464.052 242.047 463.557 242.126 463.035 242.126ZM473.656 242.126C472.826 242.126 472.196 241.897 471.766 241.44C471.346 240.983 471.136 240.283 471.136 239.34V234.972H472.27V239.312C472.27 239.956 472.401 240.432 472.662 240.74C472.924 241.039 473.33 241.188 473.88 241.188C474.496 241.188 474.991 240.987 475.364 240.586C475.738 240.185 475.924 239.648 475.924 238.976V234.972H477.058V242H475.952V240.418H476.134C475.938 240.959 475.621 241.379 475.182 241.678C474.753 241.977 474.244 242.126 473.656 242.126ZM481.596 242.126C481.036 242.126 480.514 242.051 480.028 241.902C479.543 241.743 479.142 241.524 478.824 241.244L479.216 240.446C479.562 240.717 479.935 240.917 480.336 241.048C480.747 241.179 481.172 241.244 481.61 241.244C482.17 241.244 482.59 241.146 482.87 240.95C483.16 240.745 483.304 240.465 483.304 240.11C483.304 239.839 483.211 239.625 483.024 239.466C482.847 239.298 482.553 239.167 482.142 239.074L480.84 238.808C480.243 238.677 479.795 238.458 479.496 238.15C479.198 237.833 479.048 237.431 479.048 236.946C479.048 236.535 479.156 236.176 479.37 235.868C479.585 235.551 479.898 235.303 480.308 235.126C480.719 234.939 481.2 234.846 481.75 234.846C482.264 234.846 482.735 234.925 483.164 235.084C483.603 235.233 483.967 235.453 484.256 235.742L483.85 236.526C483.57 236.255 483.248 236.055 482.884 235.924C482.53 235.784 482.161 235.714 481.778 235.714C481.228 235.714 480.812 235.826 480.532 236.05C480.262 236.265 480.126 236.549 480.126 236.904C480.126 237.175 480.21 237.399 480.378 237.576C480.556 237.744 480.826 237.87 481.19 237.954L482.492 238.22C483.127 238.36 483.598 238.579 483.906 238.878C484.224 239.167 484.382 239.559 484.382 240.054C484.382 240.474 484.266 240.843 484.032 241.16C483.799 241.468 483.472 241.706 483.052 241.874C482.642 242.042 482.156 242.126 481.596 242.126ZM488.682 242.126C487.851 242.126 487.221 241.897 486.792 241.44C486.372 240.983 486.162 240.283 486.162 239.34V234.972H487.296V239.312C487.296 239.956 487.426 240.432 487.688 240.74C487.949 241.039 488.355 241.188 488.906 241.188C489.522 241.188 490.016 240.987 490.39 240.586C490.763 240.185 490.95 239.648 490.95 238.976V234.972H492.084V242H490.978V240.418H491.16C490.964 240.959 490.646 241.379 490.208 241.678C489.778 241.977 489.27 242.126 488.682 242.126ZM496.958 242.126C496.332 242.126 495.786 241.981 495.32 241.692C494.853 241.393 494.489 240.973 494.228 240.432C493.976 239.891 493.85 239.242 493.85 238.486C493.85 237.721 493.976 237.067 494.228 236.526C494.489 235.985 494.853 235.569 495.32 235.28C495.786 234.991 496.332 234.846 496.958 234.846C497.592 234.846 498.138 235.009 498.596 235.336C499.062 235.653 499.37 236.087 499.52 236.638H499.352L499.506 234.972H500.598C500.57 235.243 500.542 235.518 500.514 235.798C500.495 236.069 500.486 236.335 500.486 236.596V242H499.352V240.348H499.506C499.356 240.899 499.048 241.333 498.582 241.65C498.115 241.967 497.574 242.126 496.958 242.126ZM497.182 241.202C497.854 241.202 498.386 240.973 498.778 240.516C499.17 240.049 499.366 239.373 499.366 238.486C499.366 237.59 499.17 236.913 498.778 236.456C498.386 235.989 497.854 235.756 497.182 235.756C496.519 235.756 495.987 235.989 495.586 236.456C495.194 236.913 494.998 237.59 494.998 238.486C494.998 239.373 495.194 240.049 495.586 240.516C495.987 240.973 496.519 241.202 497.182 241.202ZM502.65 242V236.666C502.65 236.386 502.641 236.101 502.622 235.812C502.613 235.523 502.594 235.243 502.566 234.972H503.658L503.798 236.68L503.602 236.694C503.696 236.274 503.859 235.929 504.092 235.658C504.326 235.387 504.601 235.187 504.918 235.056C505.236 234.916 505.567 234.846 505.912 234.846C506.052 234.846 506.174 234.851 506.276 234.86C506.388 234.869 506.491 234.893 506.584 234.93L506.57 235.938C506.43 235.891 506.3 235.863 506.178 235.854C506.066 235.835 505.936 235.826 505.786 235.826C505.376 235.826 505.016 235.924 504.708 236.12C504.41 236.316 504.181 236.568 504.022 236.876C503.873 237.184 503.798 237.511 503.798 237.856V242H502.65ZM507.764 242V234.972H508.898V242H507.764ZM507.624 233.376V232.102H509.024V233.376H507.624ZM513.984 242.126C513.312 242.126 512.724 241.981 512.22 241.692C511.725 241.393 511.343 240.973 511.072 240.432C510.801 239.881 510.666 239.233 510.666 238.486C510.666 237.73 510.801 237.081 511.072 236.54C511.343 235.999 511.725 235.583 512.22 235.294C512.724 234.995 513.312 234.846 513.984 234.846C514.665 234.846 515.253 234.995 515.748 235.294C516.252 235.583 516.639 235.999 516.91 236.54C517.19 237.081 517.33 237.73 517.33 238.486C517.33 239.233 517.19 239.881 516.91 240.432C516.639 240.973 516.252 241.393 515.748 241.692C515.253 241.981 514.665 242.126 513.984 242.126ZM513.984 241.202C514.656 241.202 515.188 240.973 515.58 240.516C515.972 240.049 516.168 239.373 516.168 238.486C516.168 237.59 515.967 236.913 515.566 236.456C515.174 235.989 514.647 235.756 513.984 235.756C513.321 235.756 512.794 235.989 512.402 236.456C512.01 236.913 511.814 237.59 511.814 238.486C511.814 239.373 512.01 240.049 512.402 240.516C512.794 240.973 513.321 241.202 513.984 241.202ZM525.633 242.126C524.961 242.126 524.373 241.981 523.869 241.692C523.374 241.393 522.991 240.973 522.721 240.432C522.45 239.881 522.315 239.233 522.315 238.486C522.315 237.73 522.45 237.081 522.721 236.54C522.991 235.999 523.374 235.583 523.869 235.294C524.373 234.995 524.961 234.846 525.633 234.846C526.314 234.846 526.902 234.995 527.397 235.294C527.901 235.583 528.288 235.999 528.559 236.54C528.839 237.081 528.979 237.73 528.979 238.486C528.979 239.233 528.839 239.881 528.559 240.432C528.288 240.973 527.901 241.393 527.397 241.692C526.902 241.981 526.314 242.126 525.633 242.126ZM525.633 241.202C526.305 241.202 526.837 240.973 527.229 240.516C527.621 240.049 527.817 239.373 527.817 238.486C527.817 237.59 527.616 236.913 527.215 236.456C526.823 235.989 526.295 235.756 525.633 235.756C524.97 235.756 524.443 235.989 524.051 236.456C523.659 236.913 523.463 237.59 523.463 238.486C523.463 239.373 523.659 240.049 524.051 240.516C524.443 240.973 524.97 241.202 525.633 241.202ZM537.519 242.126C536.418 242.126 535.55 241.809 534.915 241.174C534.28 240.53 533.963 239.639 533.963 238.5C533.963 237.763 534.103 237.123 534.383 236.582C534.663 236.031 535.055 235.607 535.559 235.308C536.063 235 536.642 234.846 537.295 234.846C537.939 234.846 538.48 234.981 538.919 235.252C539.358 235.523 539.694 235.91 539.927 236.414C540.16 236.909 540.277 237.497 540.277 238.178V238.598H534.831V237.884H539.535L539.297 238.066C539.297 237.319 539.129 236.736 538.793 236.316C538.457 235.896 537.958 235.686 537.295 235.686C536.595 235.686 536.049 235.933 535.657 236.428C535.265 236.913 535.069 237.571 535.069 238.402V238.528C535.069 239.405 535.284 240.073 535.713 240.53C536.152 240.978 536.763 241.202 537.547 241.202C537.967 241.202 538.359 241.141 538.723 241.02C539.096 240.889 539.451 240.679 539.787 240.39L540.179 241.188C539.871 241.487 539.479 241.72 539.003 241.888C538.536 242.047 538.042 242.126 537.519 242.126ZM542.065 238.626V237.688H546.055V238.626H542.065ZM548.151 242V236.596C548.151 236.335 548.137 236.069 548.109 235.798C548.09 235.518 548.067 235.243 548.039 234.972H549.131L549.271 236.512H549.103C549.29 235.98 549.584 235.569 549.985 235.28C550.396 234.991 550.89 234.846 551.469 234.846C552.057 234.846 552.533 234.986 552.897 235.266C553.27 235.546 553.522 235.98 553.653 236.568H553.443C553.62 236.036 553.933 235.616 554.381 235.308C554.829 235 555.352 234.846 555.949 234.846C556.724 234.846 557.307 235.07 557.699 235.518C558.091 235.957 558.287 236.652 558.287 237.604V242H557.153V237.674C557.153 237.011 557.036 236.531 556.803 236.232C556.57 235.924 556.196 235.77 555.683 235.77C555.095 235.77 554.628 235.975 554.283 236.386C553.947 236.787 553.779 237.329 553.779 238.01V242H552.645V237.674C552.645 237.011 552.528 236.531 552.295 236.232C552.062 235.924 551.688 235.77 551.175 235.77C550.587 235.77 550.125 235.975 549.789 236.386C549.453 236.787 549.285 237.329 549.285 238.01V242H548.151ZM563.116 242.126C562.491 242.126 561.945 241.981 561.478 241.692C561.011 241.393 560.647 240.973 560.386 240.432C560.134 239.891 560.008 239.242 560.008 238.486C560.008 237.721 560.134 237.067 560.386 236.526C560.647 235.985 561.011 235.569 561.478 235.28C561.945 234.991 562.491 234.846 563.116 234.846C563.751 234.846 564.297 235.009 564.754 235.336C565.221 235.653 565.529 236.087 565.678 236.638H565.51L565.664 234.972H566.756C566.728 235.243 566.7 235.518 566.672 235.798C566.653 236.069 566.644 236.335 566.644 236.596V242H565.51V240.348H565.664C565.515 240.899 565.207 241.333 564.74 241.65C564.273 241.967 563.732 242.126 563.116 242.126ZM563.34 241.202C564.012 241.202 564.544 240.973 564.936 240.516C565.328 240.049 565.524 239.373 565.524 238.486C565.524 237.59 565.328 236.913 564.936 236.456C564.544 235.989 564.012 235.756 563.34 235.756C562.677 235.756 562.145 235.989 561.744 236.456C561.352 236.913 561.156 237.59 561.156 238.486C561.156 239.373 561.352 240.049 561.744 240.516C562.145 240.973 562.677 241.202 563.34 241.202ZM568.836 242V234.972H569.97V242H568.836ZM568.696 233.376V232.102H570.096V233.376H568.696ZM572.172 242V231.696H573.306V242H572.172Z" fill="black"/>
<defs>
<filter id="filter0_d_249_857" x="540" y="412" width="208" height="68" filterUnits="userSpaceOnUse" color-interpolation-filters="sRGB">
<feFlood flood-opacity="0" result="BackgroundImageFix"/>
<feColorMatrix in="SourceAlpha" type="matrix" values="0 0 0 0 0 0 0 0 0 0 0 0 0 0 0 0 0 0 127 0" result="hardAlpha"/>
<feOffset dy="4"/>
<feGaussianBlur stdDeviation="2"/>
<feComposite in2="hardAlpha" operator="out"/>
<feColorMatrix type="matrix" values="0 0 0 0 0 0 0 0 0 0 0 0 0 0 0 0 0 0 0.25 0"/>
<feBlend mode="normal" in2="BackgroundImageFix" result="effect1_dropShadow_249_857"/>
<feBlend mode="normal" in="SourceGraphic" in2="effect1_dropShadow_249_857" result="shape"/>
</filter>
<filter id="filter1_d_249_857" x="490" y="638" width="308" height="98" filterUnits="userSpaceOnUse" color-interpolation-filters="sRGB">
<feFlood flood-opacity="0" result="BackgroundImageFix"/>
<feColorMatrix in="SourceAlpha" type="matrix" values="0 0 0 0 0 0 0 0 0 0 0 0 0 0 0 0 0 0 127 0" result="hardAlpha"/>
<feOffset dy="4"/>
<feGaussianBlur stdDeviation="2"/>
<feComposite in2="hardAlpha" operator="out"/>
<feColorMatrix type="matrix" values="0 0 0 0 0 0 0 0 0 0 0 0 0 0 0 0 0 0 0.25 0"/>
<feBlend mode="normal" in2="BackgroundImageFix" result="effect1_dropShadow_249_857"/>
<feBlend mode="normal" in="SourceGraphic" in2="effect1_dropShadow_249_857" result="shape"/>
</filter>
</defs>
</svg>
